<?xml version="1.0" standalone="no"?>
<!DOCTYPE svg PUBLIC "-//W3C//DTD SVG 1.1//EN" "http://www.w3.org/Graphics/SVG/1.1/DTD/svg11.dtd" >
<svg xmlns="http://www.w3.org/2000/svg" xmlns:xlink="http://www.w3.org/1999/xlink" version="1.1">
<metadata>
Created by FontForge 20170731 at Thu Apr 15 12:32:09 2021
 By Aleksey,,,
Copyright (c) 2016 by Taner Ardali. All rights reserved.
</metadata>
<defs>
<font id="Santral-Regular" horiz-adv-x="660" >
  <font-face 
    font-family="Santral"
    font-weight="400"
    font-stretch="normal"
    units-per-em="1000"
    panose-1="0 0 0 0 0 0 0 0 0 0"
    ascent="800"
    descent="-200"
    x-height="486"
    cap-height="735"
    bbox="-196 -254 1231 1011"
    underline-thickness="50"
    underline-position="-150"
    unicode-range="U+000D-FB02"
  />
<missing-glyph horiz-adv-x="737" 
d="M97 735h543v-735h-543v735zM369 419l169 254h-337zM163 629v-520l172 259zM574 109v517l-172 -257zM199 62h339l-169 256z" />
    <glyph glyph-name="fi.1" unicode="fi" horiz-adv-x="663" 
d="M576 0h-83v416h-271v-416h-83v416l-92 24v46h92v74q0 45 14.5 82t40.5 63.5t62 40.5t79 14q66 0 118 -34t83 -93l-67 -41q-26 47 -57.5 68.5t-76.5 21.5q-22 0 -42.5 -7t-36.5 -22t-25 -38t-9 -55v-74h354v-486z" />
    <glyph glyph-name="fl.1" unicode="fl" horiz-adv-x="711" 
d="M47 486h92v72q0 45 14.5 82.5t41 64t64 41t84.5 14.5q18 0 36 -1t39 -4l-3 -73h-72q-23 0 -45 -6.5t-39 -21t-27 -38t-10 -58.5v-72h159v-70h-159v-416h-83v416l-92 24v46zM623 0h-82v755h82v-755z" />
    <glyph glyph-name=".notdef" horiz-adv-x="737" 
d="M97 735h543v-735h-543v735zM369 419l169 254h-337zM163 629v-520l172 259zM574 109v517l-172 -257zM199 62h339l-169 256z" />
    <glyph glyph-name=".null" horiz-adv-x="0" 
 />
    <glyph glyph-name=".null" horiz-adv-x="0" 
 />
    <glyph glyph-name="uni000D" unicode="&#xd;" horiz-adv-x="0" 
 />
    <glyph glyph-name="space" unicode=" " horiz-adv-x="303" 
 />
    <glyph glyph-name="exclam" unicode="!" horiz-adv-x="355" 
d="M219 188h-85v547h85v-547zM117 40q0 26 17.5 43.5t42.5 17.5q26 0 43 -17.5t17 -43.5q0 -24 -17 -41.5t-43 -17.5q-25 0 -42.5 17.5t-17.5 41.5z" />
    <glyph glyph-name="quotedbl" unicode="&#x22;" horiz-adv-x="406" 
d="M165 735l-14 -221h-49l-15 221h78zM318 735l-14 -221h-49l-15 221h78z" />
    <glyph glyph-name="numbersign" unicode="#" horiz-adv-x="875" 
d="M283 534l30 140h83l-30 -140h216l30 140h83l-30 -140h142v-82h-159l-49 -237h142v-82h-159l-27 -133h-83l28 133h-217l-27 -133h-83l28 133h-134v82h150l50 237h-134v82h150zM300 215h216l50 237h-217z" />
    <glyph glyph-name="dollar" unicode="$" horiz-adv-x="646" 
d="M470 599q-32 29 -71.5 48t-87.5 19q-39 0 -66 -10t-44.5 -26t-25 -36t-7.5 -41q0 -44 34 -73t88 -43l93 -25q96 -26 145.5 -79.5t49.5 -130.5q0 -38 -14.5 -73.5t-42.5 -64t-69 -47.5t-94 -24v-91h-79v91q-63 7 -120 38.5t-92 74.5l63 54q40 -44 86.5 -67.5t100.5 -23.5
q44 0 76.5 11t53.5 29.5t31.5 42.5t10.5 50q0 45 -28 78t-98 54l-97 28q-87 25 -137 70t-50 122q0 34 13.5 65.5t38.5 57t61 43t81 22.5v86h79v-87q48 -5 93 -27.5t79 -56.5z" />
    <glyph glyph-name="percent" unicode="%" horiz-adv-x="946" 
d="M97 566q0 36 12 68t34 56t53.5 37.5t69.5 13.5t69 -13.5t53.5 -37.5t35 -56t12.5 -68t-12.5 -68t-35 -56t-53.5 -38t-69 -14q-37 0 -68.5 14t-53.5 38t-34.5 56t-12.5 68zM676 735h98l-509 -735h-97zM171 566q0 -44 25.5 -74t69.5 -30q45 0 70.5 30t25.5 74t-25.5 74
t-70.5 30q-44 0 -69.5 -30t-25.5 -74zM511 169q0 36 12 68t34 56t53 38t69 14t69 -14t53.5 -38t35 -56t12.5 -68t-12.5 -68t-35 -56t-53.5 -38t-69 -14q-37 0 -68 14t-53.5 38t-34.5 56t-12 68zM583 169q0 -44 26 -74t70 -30t70 30t26 74t-26 74t-70 30t-70 -30t-26 -74z
" />
    <glyph glyph-name="ampersand" unicode="&#x26;" horiz-adv-x="732" 
d="M163 585q0 34 13 63t35.5 50.5t53 33.5t66.5 12t66.5 -11.5t53 -32.5t35.5 -50t13 -64q0 -81 -77 -143l-21 -16l153 -221q29 41 41 90l74 -24q-17 -74 -65 -134l99 -138h-95l-66 76q-49 -39 -107 -62.5t-118 -23.5q-62 0 -107 17t-74.5 45t-44 64t-14.5 73
q0 48 22.5 92.5t76.5 84.5l64 48l-35 49q-21 29 -31.5 60t-10.5 62zM251 585q0 -19 7 -40t27 -50l24 -35l52 37q23 18 37 38t14 50q0 38 -23 59.5t-58 21.5q-33 0 -56.5 -21t-23.5 -60zM317 68q45 0 92 19t86 54l-164 240l-99 -74q-37 -28 -52.5 -55t-15.5 -62q0 -52 40 -87
t113 -35z" />
    <glyph glyph-name="quotesingle" unicode="'" horiz-adv-x="253" 
d="M165 735l-14 -221h-49l-15 221h78z" />
    <glyph glyph-name="parenleft" unicode="(" horiz-adv-x="442" 
d="M97 366q0 72 15 141t43.5 131.5t69.5 116.5t93 96l47 -69q-80 -77 -123.5 -183.5t-43.5 -232.5q0 -125 43.5 -231t123.5 -184l-47 -69q-52 42 -93 96t-69.5 116.5t-43.5 131.5t-15 140z" />
    <glyph glyph-name="parenright" unicode=")" horiz-adv-x="442" 
d="M345 366q0 -71 -15 -140t-43.5 -131.5t-69.5 -116.5t-93 -96l-47 69q80 78 123.5 184t43.5 231q0 126 -43.5 232.5t-123.5 183.5l47 69q52 -42 93 -96t69.5 -116.5t43.5 -131.5t15 -141z" />
    <glyph glyph-name="asterisk" unicode="*" horiz-adv-x="678" 
d="M303 499l-10 169h92l-10 -169l158 62l27 -86l-163 -44l108 -131l-74 -53l-92 142l-91 -143l-74 54l107 132l-164 42l29 86z" />
    <glyph glyph-name="plus" unicode="+" horiz-adv-x="619" 
d="M67 383h202v201h81v-201h201v-77h-201v-200h-81v200h-202v77z" />
    <glyph glyph-name="comma" unicode="," horiz-adv-x="304" 
d="M227 115l-89 -242h-61l48 242h102z" />
    <glyph glyph-name="hyphen" unicode="-" horiz-adv-x="529" 
d="M97 302h334v-76h-334v76z" />
    <glyph glyph-name="period" unicode="." horiz-adv-x="332" 
d="M102 52q0 27 18.5 45.5t44.5 18.5q27 0 45.5 -18.5t18.5 -45.5q0 -26 -18.5 -44.5t-45.5 -18.5q-26 0 -44.5 18.5t-18.5 44.5z" />
    <glyph glyph-name="slash" unicode="/" horiz-adv-x="569" 
d="M430 735h92l-383 -735h-92z" />
    <glyph glyph-name="zero" unicode="0" horiz-adv-x="691" 
d="M72 367q0 78 16 147t49.5 120.5t85 81t122.5 29.5q72 0 123.5 -29.5t84.5 -81t49 -120.5t16 -147t-16 -147t-49 -120t-84.5 -80.5t-123.5 -29.5q-71 0 -122.5 29.5t-85 80.5t-49.5 120t-16 147zM159 367q0 -59 9 -112t30.5 -93.5t57 -64.5t89.5 -24t90 24t57.5 64.5
t30.5 93.5t9 112t-9 112.5t-30.5 94t-57.5 64.5t-90 24t-89.5 -24t-57 -64.5t-30.5 -94t-9 -112.5z" />
    <glyph glyph-name="one" unicode="1" horiz-adv-x="415" 
d="M90 549l-44 73l177 113h65v-735h-87v621z" />
    <glyph glyph-name="two" unicode="2" horiz-adv-x="643" 
d="M84 66l292 308q39 42 64.5 80.5t25.5 83.5q0 27 -11 50t-30 39.5t-44.5 25.5t-54.5 9q-53 0 -92.5 -30.5t-59.5 -86.5l-84 23q11 38 32.5 70t52.5 56t69 37.5t82 13.5q53 0 95 -16.5t71 -45t45 -66t16 -79.5q0 -33 -8 -61.5t-23.5 -55.5t-38 -54t-52.5 -58l-222 -229h351
v-80h-476v66z" />
    <glyph glyph-name="three" unicode="3" horiz-adv-x="615" 
d="M237 421h21.5t28.5 1q66 2 107 36.5t41 88.5q0 26 -11 47.5t-29.5 36.5t-43 23t-52.5 8q-51 0 -88 -21t-60 -56l-69 48q34 51 89.5 81.5t127.5 30.5q50 0 91.5 -15.5t71 -42.5t46 -63t16.5 -77q0 -57 -27.5 -97.5t-69.5 -63.5q47 -23 78.5 -69.5t31.5 -109.5
q0 -46 -18.5 -86t-52 -69t-80.5 -45.5t-103 -16.5q-79 0 -140.5 35.5t-95.5 92.5l75 39q23 -39 66.5 -61.5t94.5 -22.5q36 0 66.5 9.5t52.5 27t34.5 42.5t12.5 55q0 63 -45.5 99t-125.5 39q-11 1 -21 1h-20v75z" />
    <glyph glyph-name="four" unicode="4" horiz-adv-x="629" 
d="M37 226l366 509h65v-495h129v-80h-129v-160h-87v160h-344v66zM150 240h231v320z" />
    <glyph glyph-name="five" unicode="5" horiz-adv-x="633" 
d="M133 735h375v-80h-296l-15 -183q20 11 44.5 18t55.5 7q54 0 101 -19t82 -53t55.5 -80.5t20.5 -100.5q0 -52 -19.5 -98.5t-54.5 -81t-82 -54.5t-103 -20q-77 0 -137 35t-93 90l75 40q24 -38 65 -60t89 -22q33 0 63.5 12.5t54.5 35t38.5 54t14.5 70.5q0 38 -13.5 69.5
t-37 54t-54 35t-64.5 12.5q-41 0 -71.5 -12.5t-53.5 -32.5h-69z" />
    <glyph glyph-name="six" unicode="6" horiz-adv-x="645" 
d="M257 476q11 4 28.5 7t39.5 3q50 0 94 -19.5t77 -53t52 -78.5t19 -97q0 -51 -19.5 -96.5t-53 -79.5t-79 -53.5t-97.5 -19.5t-98 19t-80 52t-53.5 78t-19.5 97q0 48 15.5 93.5t44.5 90.5l205 316h101zM153 235q0 -34 13 -64t35.5 -52t52.5 -34.5t64 -12.5q35 0 64.5 13
t51.5 35.5t34 53t12 64.5q0 36 -12 66.5t-34 52.5t-52 34.5t-65 12.5q-36 0 -67 -9t-48 -20q-23 -30 -36 -64t-13 -76z" />
    <glyph glyph-name="seven" unicode="7" horiz-adv-x="576" 
d="M55 735h463v-65l-328 -670h-91l320 655h-364v80z" />
    <glyph glyph-name="eight" unicode="8" horiz-adv-x="666" 
d="M555 548q0 -51 -26 -91t-64 -63q25 -12 47.5 -30t39 -41t26.5 -51.5t10 -60.5q0 -46 -18.5 -86.5t-52.5 -70.5t-80.5 -47t-103.5 -17t-104 17.5t-80.5 47.5t-52.5 70t-19 86q0 32 10 60.5t26.5 52t39 41.5t47.5 30q-39 23 -64 62.5t-25 90.5q0 45 18.5 81t49.5 62t71 40
t83 14t83 -14t71 -39.5t49.5 -62t18.5 -81.5zM333 662q-58 0 -95.5 -30.5t-37.5 -83.5q0 -24 9.5 -45t27 -37t42 -25t54.5 -9t54.5 9t42 24.5t27 37t9.5 45.5q0 53 -38 83.5t-95 30.5zM500 211q0 30 -12 56t-34 45.5t-53 30.5t-68 11t-68 -11t-53 -30.5t-34 -45.5t-12 -56
q0 -29 12 -54.5t34 -44t53 -29t68 -10.5q38 0 68.5 10.5t52.5 29t34 44t12 54.5z" />
    <glyph glyph-name="nine" unicode="9" horiz-adv-x="645" 
d="M387 259q-11 -5 -28 -8t-39 -3q-50 0 -94.5 19.5t-77.5 53t-52 79t-19 97.5q0 51 19.5 96t53.5 79t79 53.5t97 19.5q53 0 99 -19t79.5 -52t53 -78t19.5 -97q0 -48 -15 -93.5t-44 -89.5l-205 -317h-101zM491 499q0 35 -13 64.5t-35 52t-52 35t-65 12.5q-34 0 -64 -13.5
t-51.5 -36t-34 -52.5t-12.5 -64q0 -36 12.5 -67t34.5 -53t52 -34.5t65 -12.5q36 0 66.5 9t47.5 20q23 30 36 64t13 76z" />
    <glyph glyph-name="colon" unicode=":" horiz-adv-x="402" 
d="M137 363q0 27 18.5 45.5t44.5 18.5q27 0 45.5 -18.5t18.5 -45.5q0 -26 -18.5 -44.5t-45.5 -18.5q-26 0 -44.5 18.5t-18.5 44.5zM137 51q0 27 18.5 45.5t44.5 18.5q27 0 45.5 -18.5t18.5 -45.5q0 -26 -18.5 -44.5t-45.5 -18.5q-26 0 -44.5 18.5t-18.5 44.5z" />
    <glyph glyph-name="semicolon" unicode=";" horiz-adv-x="402" 
d="M137 363q0 27 18.5 45.5t44.5 18.5q27 0 45.5 -18.5t18.5 -45.5q0 -26 -18.5 -44.5t-45.5 -18.5q-26 0 -44.5 18.5t-18.5 44.5zM266 115l-88 -242h-61l47 242h102z" />
    <glyph glyph-name="less" unicode="&#x3c;" horiz-adv-x="669" 
d="M217 336l344 -139v-90l-484 197v62l484 217v-90z" />
    <glyph glyph-name="equal" unicode="=" horiz-adv-x="609" 
d="M62 492h484v-77h-484v77zM62 272h484v-76h-484v76z" />
    <glyph glyph-name="greater" unicode="&#x3e;" horiz-adv-x="669" 
d="M80 493v90l484 -217v-62l-484 -197v90l345 139z" />
    <glyph glyph-name="question" unicode="?" horiz-adv-x="526" 
d="M279 241q0 -11 1 -23t4 -23l-83 -10q-2 8 -4.5 23.5t-2.5 32.5q0 38 15.5 70t46.5 66q24 27 42 46.5t34 37.5q26 28 39.5 52t13.5 53q0 22 -9.5 39.5t-24.5 30t-34.5 19t-39.5 6.5q-51 0 -87 -28t-51 -76l-82 24q10 35 30 64.5t48 51.5t64 34.5t78 12.5t77.5 -13
t62 -36.5t41.5 -56t15 -72.5q0 -42 -18.5 -79t-52.5 -72l-88 -93q-20 -21 -27.5 -40.5t-7.5 -40.5zM189 33q0 26 18 44.5t44 18.5q27 0 45.5 -18.5t18.5 -44.5t-18.5 -44.5t-45.5 -18.5q-26 0 -44 18.5t-18 44.5z" />
    <glyph glyph-name="at" unicode="@" horiz-adv-x="1019" 
d="M308 200q0 43 15 81t41.5 66.5t63 45t79.5 16.5q44 0 83 -20t63 -54l28 68h35v-341h112q15 32 22 71t7 76q0 76 -26.5 138.5t-73 107.5t-109 70t-133.5 25q-72 0 -134.5 -27t-109.5 -73.5t-74 -109t-27 -134.5t27 -135t73.5 -110t109.5 -74t134 -27q46 0 81 7.5t70 21.5
l26 -64q-79 -36 -177 -36q-87 0 -163 32.5t-132.5 89t-89 132.5t-32.5 163t33 163t89.5 132.5t132.5 89t163 32.5q88 0 164 -31.5t131.5 -87t87.5 -131.5t32 -164q0 -53 -13.5 -107t-39.5 -102h-213l-18 66q-20 -33 -56.5 -53.5t-82.5 -20.5q-40 0 -76.5 16.5t-63.5 44.5
t-43 66t-16 81zM378 200q0 -29 10 -54.5t27 -44.5t40.5 -30t51.5 -11q27 0 52.5 10.5t44.5 29t30.5 44t11.5 56.5v8q0 28 -11 52.5t-30 42.5t-44 28.5t-54 10.5q-28 0 -51.5 -11t-40.5 -30.5t-27 -45t-10 -55.5z" />
    <glyph glyph-name="A" unicode="A" horiz-adv-x="772" 
d="M548 199h-326l-81 -199h-94l306 735h65l306 -735h-94zM258 281h256l-129 313z" />
    <glyph glyph-name="B" unicode="B" horiz-adv-x="695" 
d="M377 735q46 0 86 -14t69 -39.5t46 -61.5t17 -80q0 -50 -22.5 -89t-57.5 -62q53 -26 82.5 -70t29.5 -108q0 -49 -18.5 -88.5t-50 -66.5t-73 -41.5t-88.5 -14.5h-300v735h280zM508 540q0 54 -36.5 85.5t-100.5 31.5h-187v-238h194q67 0 98.5 33.5t31.5 87.5zM540 211
q0 66 -40 99.5t-117 34.5h-199v-267h206q71 2 110.5 36.5t39.5 96.5z" />
    <glyph glyph-name="C" unicode="C" horiz-adv-x="766" 
d="M151 367q0 -59 21 -112t58.5 -93.5t89.5 -64t113 -23.5q66 0 124 25.5t101 68.5l59 -59q-53 -55 -126 -87t-158 -32q-79 0 -147 30t-117.5 81.5t-78 120t-28.5 145.5t28 145.5t77.5 120.5t117.5 82t147 30q82 0 151 -31.5t120 -84.5l-62 -57q-40 41 -93.5 65.5
t-115.5 24.5q-61 0 -112.5 -24t-89 -65t-58.5 -94t-21 -112z" />
    <glyph glyph-name="D" unicode="D" horiz-adv-x="779" 
d="M97 735h241q88 0 158 -28t119 -77t75 -116.5t26 -146.5t-26 -146.5t-75 -116.5t-119.5 -76.5t-158.5 -27.5h-240v735zM626 367q0 63 -20 115.5t-57.5 91t-90.5 60t-120 21.5h-154v-575h153q68 0 121.5 21t91 59.5t57 91t19.5 115.5z" />
    <glyph glyph-name="E" unicode="E" horiz-adv-x="657" 
d="M97 735h477v-80h-390v-235h340v-80h-340v-260h405v-80h-492v735z" />
    <glyph glyph-name="F" unicode="F" horiz-adv-x="602" 
d="M97 735h457v-80h-370v-235h335v-80h-335v-340h-87v735z" />
    <glyph glyph-name="G" unicode="G" horiz-adv-x="815" 
d="M396 396h341v-273q-115 -133 -299 -133q-81 0 -149.5 29.5t-119 81t-79 120t-28.5 146.5q0 79 28.5 148t79 120t119 80.5t148.5 29.5q81 0 152 -31t122 -85l-62 -57q-38 41 -94 65.5t-118 24.5q-63 0 -116 -24t-90.5 -65t-58.5 -94t-21 -112q0 -60 21 -113.5t59.5 -93
t91 -63t115.5 -23.5t119.5 21t92.5 60v161h-254v80z" />
    <glyph glyph-name="H" unicode="H" horiz-adv-x="764" 
d="M666 0h-86v340h-396v-340h-87v735h87v-315h396v315h86v-735z" />
    <glyph glyph-name="I" unicode="I" horiz-adv-x="282" 
d="M184 0h-87v735h87v-735z" />
    <glyph glyph-name="J" unicode="J" horiz-adv-x="564" 
d="M477 250q0 -60 -17 -108.5t-48.5 -82t-76.5 -52t-101 -18.5q-63 0 -116.5 28.5t-89.5 83.5l68 51q20 -34 55.5 -55.5t82.5 -21.5q75 0 115.5 44.5t40.5 130.5v485h87v-485z" />
    <glyph glyph-name="K" unicode="K" horiz-adv-x="688" 
d="M312 375l339 -375h-115l-292 329h-60v-329h-87v735h87v-326h48l282 326h113z" />
    <glyph glyph-name="L" unicode="L" horiz-adv-x="597" 
d="M97 735h87v-655h375v-80h-462v735z" />
    <glyph glyph-name="M" unicode="M" horiz-adv-x="974" 
d="M877 0h-87v564l-291 -456h-22l-293 457v-565h-87v735h78l313 -491l311 491h78v-735z" />
    <glyph glyph-name="N" unicode="N" horiz-adv-x="792" 
d="M695 0h-78l-433 583v-583h-87v735h78l433 -584v584h87v-735z" />
    <glyph glyph-name="O" unicode="O" horiz-adv-x="865" 
d="M62 367q0 77 28 145.5t77.5 120.5t117.5 82t147 30t147 -30t117.5 -82t77.5 -120.5t28 -145.5t-28 -145.5t-77.5 -120t-117.5 -81.5t-147 -30t-147 30t-117.5 81.5t-77.5 120t-28 145.5zM151 367q0 -59 21 -112t58.5 -93.5t89 -64t112.5 -23.5t112.5 23.5t89 64t59 93.5
t21.5 112t-21.5 112t-59 94t-89 65t-112.5 24t-112.5 -24t-89 -65t-58.5 -94t-21 -112z" />
    <glyph glyph-name="P" unicode="P" horiz-adv-x="657" 
d="M599 505q0 -50 -17.5 -92.5t-51.5 -73t-82.5 -47.5t-111.5 -17h-152v-275h-87v735h240q62 0 111 -17t82.5 -47.5t51 -73t17.5 -92.5zM184 655v-300h153q85 0 129.5 41.5t44.5 108.5q0 32 -11 59.5t-33 47.5t-54.5 31.5t-75.5 11.5h-153z" />
    <glyph glyph-name="Q" unicode="Q" horiz-adv-x="875" 
d="M62 367q0 77 28 145.5t77.5 120.5t117.5 82t147 30t147 -30t117.5 -82t77.5 -120.5t28 -145.5q0 -78 -27.5 -146.5t-78.5 -119.5l63 -75l-51 -45l-74 69q-44 -29 -94.5 -44.5t-107.5 -15.5q-79 0 -147 30t-117.5 81.5t-77.5 120t-28 145.5zM151 367q0 -59 21 -112
t58.5 -93.5t89 -64t112.5 -23.5q40 0 76.5 10t67.5 29l-134 159l65 54l134 -159q35 41 54 92t19 108q0 59 -21.5 112t-59 94t-89 65t-112.5 24t-112.5 -24t-89 -65t-58.5 -94t-21 -112z" />
    <glyph glyph-name="R" unicode="R" horiz-adv-x="684" 
d="M600 521q0 -82 -50.5 -139t-139.5 -72l222 -310h-105l-217 305h-126v-305h-87v735h258q56 0 101 -15.5t77 -43.5t49.5 -67.5t17.5 -87.5zM184 655v-269h175q78 2 115.5 39.5t37.5 95.5q0 63 -40.5 98.5t-119.5 35.5h-168z" />
    <glyph glyph-name="S" unicode="S" horiz-adv-x="626" 
d="M459 599q-31 29 -70.5 48t-87.5 19q-39 0 -66 -10t-44.5 -26t-25 -36t-7.5 -41q0 -41 30.5 -70t87.5 -44l97 -27q96 -26 145.5 -79.5t49.5 -130.5q0 -42 -17 -80t-50 -67.5t-82 -47t-112 -17.5q-35 0 -70.5 8.5t-68.5 24t-61.5 37t-49.5 46.5l63 54q40 -44 87 -67
t100 -23q44 0 76 11t53 29t31.5 42t10.5 50q0 45 -27.5 78t-97.5 54q-26 8 -50.5 15t-51.5 15q-89 25 -135.5 70.5t-46.5 119.5q0 37 16 71.5t46 61t73 42.5t97 16q57 0 114 -23t99 -65z" />
    <glyph glyph-name="T" unicode="T" horiz-adv-x="637" 
d="M28 735h581v-80h-247v-655h-87v655h-247v80z" />
    <glyph glyph-name="U" unicode="U" horiz-adv-x="744" 
d="M87 735h87v-461q0 -41 15 -77t41.5 -63t63 -42.5t78.5 -15.5t78.5 15.5t63 42.5t41.5 63t15 77v461h87v-461q0 -58 -22 -109.5t-60 -90.5t-90.5 -61.5t-112.5 -22.5q-62 0 -114 22.5t-90 61.5t-59.5 90.5t-21.5 109.5v461z" />
    <glyph glyph-name="V" unicode="V" horiz-adv-x="713" 
d="M356 141l237 594h93l-297 -735h-65l-297 735h94z" />
    <glyph glyph-name="W" unicode="W" horiz-adv-x="1034" 
d="M907 735h89l-223 -735h-65l-191 470l-192 -470h-65l-223 735h90l173 -579l205 507h24l204 -507z" />
    <glyph glyph-name="X" unicode="X" horiz-adv-x="727" 
d="M144 0h-107l268 385l-238 350h103l193 -286l194 286h103l-239 -350l268 -385h-106l-220 322z" />
    <glyph glyph-name="Y" unicode="Y" horiz-adv-x="677" 
d="M383 0h-87v323l-268 412h103l208 -325l207 325h103l-266 -411v-324z" />
    <glyph glyph-name="Z" unicode="Z" horiz-adv-x="708" 
d="M74 735h556v-65l-454 -592h475v-78h-594v65l454 592h-437v78z" />
    <glyph glyph-name="bracketleft" unicode="[" horiz-adv-x="453" 
d="M117 843h239v-76h-152v-806h152v-76h-239v958z" />
    <glyph glyph-name="backslash" unicode="\" horiz-adv-x="569" 
d="M522 0h-92l-383 735h93z" />
    <glyph glyph-name="bracketright" unicode="]" horiz-adv-x="453" 
d="M97 -39h152v806h-152v76h239v-958h-239v76z" />
    <glyph glyph-name="asciicircum" unicode="^" horiz-adv-x="568" 
d="M87 352l170 348h53l170 -348h-87l-109 232l-109 -232h-88z" />
    <glyph glyph-name="underscore" unicode="_" horiz-adv-x="792" 
d="M97 -60h597v-72h-597v72z" />
    <glyph glyph-name="grave" unicode="`" horiz-adv-x="213" 
d="M123 755l65 -180h-68l-95 180h98z" />
    <glyph glyph-name="a" unicode="a" horiz-adv-x="636" 
d="M57 243q0 53 19 99.5t52 80.5t78 53.5t97 19.5q48 0 97 -23t81 -65l31 81h37v-489h-72l-4 82q-13 -21 -32.5 -38t-43 -29t-48.5 -18.5t-51 -6.5q-51 0 -95 19.5t-76.5 53.5t-51 80.5t-18.5 99.5zM141 243q0 -37 12 -69t33.5 -55.5t51.5 -37t66 -13.5t65.5 13.5t51.5 37.5
t34 56.5t12 69.5v9q0 33 -12.5 62.5t-34.5 52t-51.5 36t-64.5 13.5q-36 0 -65.5 -13.5t-51.5 -37t-34 -55.5t-12 -69z" />
    <glyph glyph-name="b" unicode="b" horiz-adv-x="629" 
d="M571 243q0 -52 -17 -98.5t-48 -80.5t-75.5 -54t-98.5 -20q-53 0 -98 23t-77 65l-18 -78h-52v755h83v-342q29 39 72 61t94 22t94 -20t74.5 -54t49 -80t17.5 -99zM488 243q0 36 -11 68t-31 56t-48 37.5t-62 13.5t-64.5 -13t-53 -36.5t-35.5 -54.5t-13 -67v-8
q0 -38 12 -69.5t33.5 -54t51.5 -35t65 -12.5t63.5 13.5t49 37.5t32 56t11.5 68z" />
    <glyph glyph-name="c" unicode="c" horiz-adv-x="547" 
d="M57 243q0 52 17 98t49 80.5t77 54.5t100 20q62 0 112.5 -26t86.5 -74l-64 -47q-25 31 -59 49.5t-76 18.5q-37 0 -66.5 -13.5t-50 -37.5t-31.5 -55.5t-11 -67.5t11.5 -67.5t33 -55.5t52 -37.5t67.5 -13.5q42 0 73.5 13.5t59.5 39.5l55 -55q-34 -35 -82 -56t-106 -21
q-54 0 -99.5 20t-78.5 54.5t-51.5 80.5t-18.5 98z" />
    <glyph glyph-name="d" unicode="d" horiz-adv-x="629" 
d="M57 243q0 53 17.5 99t49.5 80t76.5 54t98.5 20q49 0 91.5 -20t68.5 -56v335h82v-755h-51l-20 83q-24 -38 -70 -65.5t-109 -27.5q-51 0 -93.5 20t-74 54t-49 80.5t-17.5 98.5zM141 243q0 -38 12 -70t33 -55.5t50 -36.5t63 -13q35 0 64.5 12.5t50.5 35t33 54t12 69.5v8
q0 37 -12 68.5t-33.5 54t-50.5 35.5t-64 13q-34 0 -63 -13t-50 -36.5t-33 -55.5t-12 -70z" />
    <glyph glyph-name="e" unicode="e" horiz-adv-x="593" 
d="M308 63q40 0 76 15t63 52l69 -36q-37 -52 -90.5 -78t-117.5 -26q-57 0 -103.5 19t-79 53t-50.5 80t-18 101q0 52 16 98t47 80.5t75 54.5t99 20q54 0 97 -19.5t73 -53t46 -77t16 -91.5q0 -14 -0.5 -24.5t-1.5 -15.5h-381q5 -66 48 -109t117 -43zM295 423q-32 0 -58.5 -11
t-46 -29.5t-31 -44t-14.5 -55.5h296v1q-1 29 -13 54.5t-31.5 44t-45.5 29.5t-56 11z" />
    <glyph glyph-name="f" unicode="f" horiz-adv-x="433" 
d="M47 486h92v72q0 45 14.5 82.5t41 64t64 41t84.5 14.5q18 0 36 -1t39 -4l-3 -73h-72q-23 0 -45 -6.5t-39 -21t-27 -38t-10 -58.5v-72h159v-70h-159v-416h-83v416l-92 24v46z" />
    <glyph glyph-name="g" unicode="g" horiz-adv-x="629" 
d="M296 -251q-70 0 -125.5 32t-86.5 85l67 38q21 -35 60.5 -56t84.5 -21q76 0 119.5 41t43.5 115v98q-26 -42 -69.5 -66.5t-94.5 -24.5q-52 0 -96 20t-75.5 54t-49 80.5t-17.5 98.5t16.5 98t48 80.5t76.5 54.5t102 20q29 0 55 -7.5t48.5 -19.5t40.5 -28t30 -33l30 81h38
v-505q0 -55 -18 -98.5t-50 -74t-77.5 -46.5t-100.5 -16zM141 243q0 -36 11 -68t32 -56t50.5 -37.5t66.5 -13.5q35 0 64 14t50 37.5t32.5 55.5t11.5 68v8q-1 35 -13 65.5t-33 53t-49.5 35.5t-63.5 13q-37 0 -66.5 -14t-50 -37.5t-31.5 -55.5t-11 -68z" />
    <glyph glyph-name="h" unicode="h" horiz-adv-x="602" 
d="M170 0h-83v755h83v-327q28 32 67.5 50t82.5 18q44 0 81 -15t65 -42.5t43.5 -67t15.5 -89.5v-282h-82v275q0 62 -31.5 102.5t-96.5 40.5q-46 0 -86 -26.5t-59 -67.5v-324z" />
    <glyph glyph-name="i" unicode="i" horiz-adv-x="257" 
d="M69 652q0 26 17.5 43.5t42.5 17.5t42.5 -17.5t17.5 -43.5q0 -24 -17.5 -42t-42.5 -18t-42.5 18t-17.5 42zM170 0h-83v486h83v-486z" />
    <glyph glyph-name="j" unicode="j" horiz-adv-x="283" 
d="M93 652q0 26 18 43.5t42 17.5q26 0 43.5 -17.5t17.5 -43.5q0 -24 -17.5 -42t-43.5 -18q-24 0 -42 18t-18 42zM113 486h82v-540q0 -90 -49.5 -143t-134.5 -53q-11 0 -22.5 1t-23.5 4l5 70h41q45 0 73.5 29t28.5 92v540z" />
    <glyph glyph-name="k" unicode="k" horiz-adv-x="558" 
d="M285 249l245 -249h-110l-205 209h-45v-209h-83v755h83v-473h42l189 204h106z" />
    <glyph glyph-name="l" unicode="l" horiz-adv-x="257" 
d="M170 0h-83v755h83v-755z" />
    <glyph glyph-name="m" unicode="m" horiz-adv-x="928" 
d="M513 0h-82v278q0 63 -32 101.5t-95 38.5q-47 0 -83 -26.5t-51 -69.5v-322h-83v490h38l33 -75q24 35 63 58t87 23q54 0 99 -24.5t72 -67.5q31 45 75 68.5t95 23.5q43 0 80 -14.5t64 -42t42 -66.5t15 -89v-284h-82v277q0 30 -7.5 56t-22.5 45t-38.5 29.5t-55.5 10.5
q-47 0 -82 -27.5t-49 -68.5v-322z" />
    <glyph glyph-name="n" unicode="n" horiz-adv-x="602" 
d="M170 0h-83v490h38l33 -75q26 36 68 58.5t90 22.5q44 0 82 -14.5t66.5 -42.5t44.5 -67.5t16 -90.5v-281h-82v274q0 63 -32.5 103.5t-98.5 40.5q-47 0 -85 -26.5t-57 -67.5v-324z" />
    <glyph glyph-name="o" unicode="o" horiz-adv-x="603" 
d="M57 243q0 52 17.5 98t49 80.5t77 54.5t100.5 20q54 0 99 -20t77.5 -54.5t50 -80.5t17.5 -98t-17.5 -98t-50 -80.5t-77.5 -54.5t-99 -20t-99 20t-77 54.5t-50 80.5t-18 98zM142 243q0 -36 11 -67.5t32 -55.5t50.5 -37.5t65.5 -13.5t65.5 13.5t50.5 37.5t32.5 55.5
t11.5 67.5t-11.5 67.5t-32.5 55.5t-50.5 37.5t-65.5 13.5t-65.5 -13.5t-50.5 -37.5t-32 -55.5t-11 -67.5z" />
    <glyph glyph-name="p" unicode="p" horiz-adv-x="625" 
d="M568 246q0 -52 -17 -99t-48 -81.5t-75.5 -55t-98.5 -20.5q-49 0 -92 22.5t-67 60.5v-317h-83v733h38l34 -88q28 45 72 70t101 25q51 0 94 -19t74.5 -52.5t49.5 -79.5t18 -99zM483 246q0 36 -10.5 67.5t-30 55t-47.5 36.5t-63 13t-65 -12.5t-51.5 -35t-33.5 -54t-12 -69.5
v-8q0 -38 13 -69.5t34.5 -54t50.5 -35t61 -12.5q35 0 63 14t48.5 38.5t31.5 57t11 68.5z" />
    <glyph glyph-name="q" unicode="q" horiz-adv-x="623" 
d="M57 246q0 53 18 99t49.5 79.5t75 52.5t93.5 19q54 0 98 -23.5t76 -65.5l32 82h37v-734h-82v318q-27 -38 -69.5 -60.5t-91.5 -22.5q-53 0 -96.5 20.5t-74.5 55t-48 81.5t-17 99zM141 246q0 -36 11.5 -68.5t31.5 -57t49 -38.5t63 -14q32 0 61 12.5t50.5 35.5t34 54.5
t12.5 68.5v9q0 38 -12 69t-33 53.5t-50.5 35t-65.5 12.5q-35 0 -63 -13t-48 -36.5t-30.5 -55t-10.5 -67.5z" />
    <glyph glyph-name="r" unicode="r" horiz-adv-x="454" 
d="M170 0h-83v490h38l30 -78q21 38 60.5 61t87.5 23q75 0 135 -48l-43 -63q-23 17 -46 25t-49 8q-24 0 -46 -9t-39.5 -24.5t-29 -37t-15.5 -45.5v-302z" />
    <glyph glyph-name="s" unicode="s" horiz-adv-x="467" 
d="M334 389q-22 17 -49 26.5t-58 9.5q-38 0 -59 -19.5t-21 -48.5q0 -21 15.5 -38t50.5 -25l53 -11q78 -17 110.5 -54.5t32.5 -88.5q0 -32 -13 -59.5t-36.5 -47.5t-56.5 -31.5t-72 -11.5q-51 0 -97 19.5t-77 54.5l49 52q23 -26 56.5 -40t68.5 -14q49 0 72.5 24t23.5 55
q0 26 -18 45t-59 27l-57 12q-26 6 -49.5 16.5t-41 26t-28 38t-10.5 52.5q0 26 10.5 51t31.5 44.5t51.5 31t69.5 11.5q87 0 152 -51z" />
    <glyph glyph-name="t" unicode="t" horiz-adv-x="407" 
d="M32 486h91l17 148l62 -1v-147h145v-70h-145v-259q0 -44 20 -66t52 -22h73l3 -69q-34 -6 -76 -6q-39 0 -68 12.5t-48 34.5t-28.5 52t-9.5 64v259h-88v70z" />
    <glyph glyph-name="u" unicode="u" horiz-adv-x="596" 
d="M427 487h82v-487h-52l-18 72q-24 -38 -65 -60t-89 -22q-104 0 -156 61.5t-52 164.5v271h83v-271q0 -72 31 -110t101 -38q60 0 98 38t37 108v273z" />
    <glyph glyph-name="v" unicode="v" horiz-adv-x="531" 
d="M27 486h88l152 -367l151 367h86l-208 -486h-59z" />
    <glyph glyph-name="w" unicode="w" horiz-adv-x="847" 
d="M27 486h88l140 -362l139 348h61l139 -348l140 362h86l-196 -486h-60l-141 341l-139 -341h-59z" />
    <glyph glyph-name="x" unicode="x" horiz-adv-x="534" 
d="M319 253l183 -253h-97l-139 200l-138 -200h-96l183 253l-168 233h96l124 -181l125 181h96z" />
    <glyph glyph-name="y" unicode="y" horiz-adv-x="534" 
d="M258 -127q-49 -122 -174 -122q-12 0 -25 1t-22 3l5 68h41q37 0 59.5 15.5t36.5 47.5l47 115l-197 485h88l151 -385l151 385h88z" />
    <glyph glyph-name="z" unicode="z" horiz-adv-x="524" 
d="M60 486h406v-49l-297 -366h308v-71h-430v49l298 366h-285v71z" />
    <glyph glyph-name="braceleft" unicode="{" horiz-adv-x="482" 
d="M67 404q31 0 51 5t32 18t17 34t5 52v138q0 41 14.5 76.5t40.5 61t62 40t78 14.5h37v-76h-37q-25 0 -45 -9t-34 -25t-21.5 -36.5t-7.5 -44.5v-172q0 -15 -2.5 -33t-10.5 -34.5t-23 -30t-41 -18.5q26 -7 41 -22t23 -32.5t10.5 -35t2.5 -29.5v-168q0 -24 7.5 -44.5
t21.5 -36.5t34 -25t45 -9h37v-76h-37q-42 0 -78 14.5t-62 40t-40.5 60.5t-14.5 76v168q0 26 -8.5 41.5t-22.5 24t-33.5 11.5t-40.5 3v79z" />
    <glyph glyph-name="bar" unicode="|" horiz-adv-x="287" 
d="M184 -143h-87v878h87v-878z" />
    <glyph glyph-name="braceright" unicode="}" horiz-adv-x="482" 
d="M414 325h-5l-10 -1h-5q-49 -4 -66.5 -28.5t-17.5 -80.5v-138q0 -42 -14.5 -77t-40.5 -60.5t-62 -39.5t-78 -14h-38v76h38q25 0 45 9t34 25t21.5 36.5t7.5 44.5v168q0 12 2.5 29.5t10.5 35t23 32.5t40 22q-25 5 -40 18.5t-23 30t-10.5 34.5t-2.5 33v171q0 24 -7.5 45
t-21.5 36.5t-34 25t-45 9.5h-38v76h38q42 0 78 -14.5t62 -40t40.5 -61t14.5 -77.5v-136q0 -32 4.5 -53t16.5 -34t32 -18t51 -5v-79z" />
    <glyph glyph-name="asciitilde" unicode="~" horiz-adv-x="669" 
d="M62 181q8 11 20 28.5t30.5 34.5t45 29.5t63.5 12.5q32 0 62 -14t58.5 -31t54.5 -31t51 -14q21 0 37 8.5t28 19.5t20.5 23.5t13.5 19.5l60 -43q-7 -11 -19 -29t-31 -35t-45.5 -29.5t-63.5 -12.5q-33 0 -62 14t-56.5 31.5t-54 31.5t-53.5 14q-20 0 -36.5 -8.5t-28.5 -20
t-20.5 -23.5t-13.5 -20z" />
    <glyph glyph-name="uni00A0" unicode="&#xa0;" horiz-adv-x="303" 
 />
    <glyph glyph-name="exclamdown" unicode="&#xa1;" horiz-adv-x="355" 
d="M117 450q0 24 17.5 41.5t42.5 17.5q26 0 43 -17.5t17 -41.5q0 -26 -17 -43.5t-43 -17.5q-25 0 -42.5 17.5t-17.5 43.5zM219 -245h-85v547h85v-547z" />
    <glyph glyph-name="cent" unicode="&#xa2;" horiz-adv-x="547" 
d="M343 -98h-79v92q-47 6 -85.5 28t-65.5 55.5t-41.5 76t-14.5 89.5q0 48 14.5 90.5t41 75.5t65 55t86.5 29v89h79v-90q48 -7 87.5 -32t68.5 -64l-64 -47q-25 31 -59 49.5t-76 18.5q-37 0 -66.5 -13.5t-50 -37.5t-31.5 -55.5t-11 -67.5t11.5 -67.5t33 -55.5t52 -37.5
t67.5 -13.5q42 0 73.5 13.5t59.5 39.5l55 -55q-28 -29 -66.5 -48.5t-83.5 -25.5v-91z" />
    <glyph glyph-name="sterling" unicode="&#xa3;" horiz-adv-x="647" 
d="M76 426h72v123q0 42 14 78t40 62t63 41t83 15q45 0 77.5 -13.5t56 -32.5t38 -40t22.5 -36l-68 -34q-20 36 -52 56t-74 20q-51 0 -82.5 -32t-31.5 -84v-123h207v-67h-207v-216q0 -26 -8.5 -42.5t-25.5 -20.5h389v-80h-516l-5 80q41 3 60.5 26t19.5 64v189h-72v67z" />
    <glyph glyph-name="currency" unicode="&#xa4;" horiz-adv-x="747" 
d="M649 598l-80 -90q27 -32 42.5 -73.5t15.5 -87.5t-15.5 -87t-41.5 -74l79 -89l-61 -55l-80 90q-29 -18 -63 -28t-72 -10t-72 10t-63 28l-79 -90l-62 55l80 89q-57 68 -57 161q0 46 15 87t42 74l-80 90l62 55l79 -91q29 18 63 28t72 10t72 -10t63 -28l80 91zM204 347
q0 -36 13 -67.5t35.5 -55t53.5 -37t67 -13.5t67.5 13.5t54 37t35.5 55t13 67.5t-13 67.5t-35.5 55t-54 37t-67.5 13.5t-67 -13.5t-53.5 -37t-35.5 -55t-13 -67.5z" />
    <glyph glyph-name="yen" unicode="&#xa5;" horiz-adv-x="695" 
d="M392 0h-87v162h-175v67h175v93h-175v67h132l-225 346h103l208 -320l207 320h103l-225 -346h140v-67h-181v-93h181v-67h-181v-162z" />
    <glyph glyph-name="brokenbar" unicode="&#xa6;" horiz-adv-x="287" 
d="M184 377h-87v358h87v-358zM184 -143h-87v358h87v-358z" />
    <glyph glyph-name="section" unicode="&#xa7;" horiz-adv-x="613" 
d="M463 612q-39 26 -87.5 39.5t-86.5 13.5q-35 0 -59.5 -9t-39.5 -23.5t-22 -31.5t-7 -33q0 -40 23 -60t66 -33l96 -25q62 -15 102.5 -38t64 -50.5t33 -59t9.5 -64.5q0 -47 -19.5 -85.5t-58.5 -67.5q34 -29 51 -64t17 -72q0 -38 -14.5 -72.5t-44.5 -61.5t-76.5 -43
t-110.5 -16q-61 0 -124 21.5t-110 59.5l46 64q37 -30 88 -48t100 -18q44 0 74 10.5t48 27t26 37t8 39.5q0 38 -27.5 66t-89.5 42l-93 22q-89 21 -138.5 70t-49.5 130q0 51 25 91t60 63q-34 24 -52 58t-18 78q0 34 14.5 66t42.5 56.5t68 39t92 14.5q59 0 112 -16.5t109 -53.5
zM371 358q-38 12 -73.5 19.5t-71.5 16.5q-20 -8 -35.5 -21t-26 -29t-15.5 -33t-5 -33q0 -48 30.5 -76.5t94.5 -42.5l82 -18q14 -3 28 -6.5t26 -8.5q32 22 47.5 51.5t15.5 60.5q0 42 -23.5 73t-73.5 47z" />
    <glyph glyph-name="dieresis" unicode="&#xa8;" horiz-adv-x="375" 
d="M20 652q0 26 17.5 43.5t42.5 17.5t42.5 -17.5t17.5 -43.5q0 -24 -17.5 -42t-42.5 -18t-42.5 18t-17.5 42zM234 652q0 26 17.5 43.5t42.5 17.5q26 0 43.5 -17.5t17.5 -43.5q0 -24 -17.5 -42t-43.5 -18q-25 0 -42.5 18t-17.5 42z" />
    <glyph glyph-name="copyright" unicode="&#xa9;" horiz-adv-x="895" 
d="M67 367q0 77 29 145.5t80 120.5t120.5 82t150.5 30q82 0 151.5 -30t120.5 -82t79.5 -120.5t28.5 -145.5t-28.5 -145.5t-79.5 -120t-120.5 -81.5t-151.5 -30q-81 0 -150.5 30t-120.5 81.5t-80 120t-29 145.5zM141 367q0 -62 23 -118t63.5 -98.5t97 -67.5t122.5 -25
t122.5 25t97.5 67.5t64 98.5t23 118t-23 118.5t-64 99t-97.5 68t-122.5 25.5t-122.5 -25.5t-97 -68t-63.5 -99t-23 -118.5zM306 367q0 -31 10.5 -58t29 -47t44.5 -31.5t57 -11.5q36 0 65 11t58 37l43 -51q-31 -32 -73 -50t-93 -18q-46 0 -86 17.5t-68.5 47.5t-45 70
t-16.5 84t16.5 84t45 70.5t68 48.5t85.5 18q48 0 88.5 -19t69.5 -50l-46 -48q-23 23 -49.5 34t-62.5 11q-31 0 -57 -11.5t-44.5 -32t-28.5 -47.5t-10 -58z" />
    <glyph glyph-name="ordfeminine" unicode="&#xaa;" horiz-adv-x="429" 
d="M47 590q0 34 11 64t31.5 52.5t49 35.5t63.5 13t64 -15.5t48 -41.5l16 52h31v-319h-50l-4 45q-18 -25 -46.5 -38t-60.5 -13q-33 0 -61 13t-48.5 35.5t-32 52.5t-11.5 64zM116 590q0 -42 24.5 -70t62.5 -28q40 0 65 27.5t25 70.5v4q-1 39 -25.5 66t-65.5 27t-63.5 -28.5
t-22.5 -68.5z" />
    <glyph glyph-name="guillemotleft" unicode="&#xab;" horiz-adv-x="698" 
d="M162 275l210 -214h-114l-211 214l209 213h116zM411 275l210 -214h-114l-211 214l209 213h116z" />
    <glyph glyph-name="logicalnot" unicode="&#xac;" horiz-adv-x="620" 
d="M67 445h485v-279h-80v202h-405v77z" />
    <glyph glyph-name="uni00AD" unicode="&#xad;" horiz-adv-x="417" 
d="M97 303h222v-76h-222v76z" />
    <glyph glyph-name="registered" unicode="&#xae;" horiz-adv-x="721" 
d="M67 455q0 59 22.5 111.5t61.5 92.5t92.5 63t116.5 23q62 0 115.5 -23t93 -63t62 -92.5t22.5 -111.5q0 -60 -22.5 -113t-62 -92.5t-93 -63t-115.5 -23.5q-63 0 -116.5 23.5t-92.5 63t-61.5 92.5t-22.5 113zM127 453q0 -48 17.5 -91t48.5 -75t74 -51t93 -19t93 19t74.5 51
t49 75t17.5 91q0 47 -17.5 90t-49 76t-74.5 52.5t-93 19.5t-93 -19.5t-74 -52.5t-48.5 -76t-17.5 -90zM471 520q0 -35 -21 -58.5t-58 -29.5l88 -129h-57l-85 128h-25v-128h-51v305h104q45 0 75 -21.5t30 -66.5zM313 565v-90h53q27 0 40 12t13 33q0 45 -55 45h-51z" />
    <glyph glyph-name="macron" unicode="&#xaf;" horiz-adv-x="431" 
d="M25 697h381v-67h-381v67z" />
    <glyph glyph-name="degree" unicode="&#xb0;" horiz-adv-x="352" 
d="M47 615q0 27 10 50.5t27.5 41t40.5 27.5t50 10t50.5 -10t41 -27.5t27.5 -41t10 -50.5t-10 -50t-27.5 -40t-41 -27t-50.5 -10t-50 10t-40.5 27t-27.5 40t-10 50zM113 615q0 -26 18 -44t44 -18t45 18t19 44t-19 45t-45 19t-44 -19t-18 -45z" />
    <glyph glyph-name="plusminus" unicode="&#xb1;" horiz-adv-x="619" 
d="M67 423h202v201h81v-201h201v-77h-201v-200h-81v200h-202v77zM67 80h484v-77h-484v77z" />
    <glyph glyph-name="twosuperior" unicode="&#xb2;" horiz-adv-x="358" 
d="M43 531l165 168q16 17 28 35.5t12 38.5q0 28 -21.5 41.5t-44.5 13.5q-20 0 -40.5 -10.5t-33.5 -39.5l-63 17q14 45 52 70.5t85 25.5q60 0 96 -33.5t36 -84.5q0 -36 -16.5 -63.5t-49.5 -59.5l-111 -109h179v-60h-273v50z" />
    <glyph glyph-name="threesuperior" unicode="&#xb3;" horiz-adv-x="344" 
d="M131 719h11t14 1q32 2 54 17.5t22 40.5q0 26 -20 38t-46 12q-23 0 -40 -7.5t-31 -26.5l-53 37q22 31 54 45.5t70 14.5q30 0 54.5 -9t42 -24.5t27 -36t9.5 -43.5q0 -29 -13.5 -50t-30.5 -35q21 -15 35.5 -39.5t14.5 -54.5q0 -26 -11 -48.5t-30.5 -39t-47 -26t-61.5 -9.5
q-44 0 -79.5 19.5t-53.5 50.5l57 29q10 -18 31.5 -27.5t44.5 -9.5q37 0 60 17t23 44q0 57 -89 63h-4l-9 1h-5v56z" />
    <glyph glyph-name="acute" unicode="&#xb4;" horiz-adv-x="213" 
d="M202 755l-105 -180h-68l75 180h98z" />
    <glyph glyph-name="uni00B5" unicode="&#xb5;" horiz-adv-x="596" 
d="M427 487h82v-487h-52l-18 72q-24 -37 -65 -59.5t-89 -22.5q-39 0 -70.5 12.5t-54.5 34.5v-281h-83v731h83v-271q0 -72 31 -110t102 -38q60 0 97 37.5t37 108.5v273z" />
    <glyph glyph-name="paragraph" unicode="&#xb6;" horiz-adv-x="696" 
d="M67 517q0 45 17 84.5t46 69t68.5 47t84.5 17.5h336v-80h-81v-798h-84v798h-94v-798h-84v443q-43 2 -81.5 19.5t-66.5 46.5t-44.5 68t-16.5 83z" />
    <glyph glyph-name="periodcentered" unicode="&#xb7;" horiz-adv-x="362" 
d="M117 346q0 27 18.5 45.5t44.5 18.5q27 0 45.5 -18.5t18.5 -45.5q0 -26 -18.5 -44.5t-45.5 -18.5q-26 0 -44.5 18.5t-18.5 44.5z" />
    <glyph glyph-name="cedilla" unicode="&#xb8;" horiz-adv-x="230" 
d="M80 -237q-17 0 -33.5 3.5t-21.5 6.5l14 52q8 -5 18.5 -6.5t18.5 -1.5q26 0 43.5 13t17.5 33q0 21 -20.5 31.5t-49.5 10.5l18 111h46l-9 -68q32 -5 57.5 -27.5t25.5 -60.5q0 -45 -35.5 -71t-89.5 -26z" />
    <glyph glyph-name="onesuperior" unicode="&#xb9;" horiz-adv-x="240" 
d="M55 770l-32 55l99 60h50v-404h-66v320z" />
    <glyph glyph-name="ordmasculine" unicode="&#xba;" horiz-adv-x="413" 
d="M47 590q0 34 11 64t32 52.5t50.5 35.5t65.5 13q35 0 64.5 -13t50.5 -35.5t32.5 -52.5t11.5 -64t-11.5 -64t-32.5 -52.5t-50.5 -35.5t-64.5 -13t-64.5 13t-50.5 35.5t-32.5 52.5t-11.5 64zM116 590q0 -41 24.5 -69.5t65.5 -28.5q42 0 66.5 28.5t24.5 69.5q0 40 -24.5 68.5
t-66.5 28.5t-66 -28.5t-24 -68.5z" />
    <glyph glyph-name="guillemotright" unicode="&#xbb;" horiz-adv-x="698" 
d="M77 488h116l209 -213l-211 -214h-114l210 214zM326 488h116l209 -213l-211 -214h-114l210 214z" />
    <glyph glyph-name="onequarter" unicode="&#xbc;" horiz-adv-x="768" 
d="M549 735h90l-464 -735h-89zM55 620l-32 55l99 60h50v-404h-66v320zM437 131l203 273h49v-262h65v-58h-65v-84h-66v84h-186v47zM517 142h106v140z" />
    <glyph glyph-name="onehalf" unicode="&#xbd;" horiz-adv-x="819" 
d="M550 735h90l-464 -735h-89zM55 620l-32 55l99 60h50v-404h-66v320zM504 50l165 168q16 17 28 35.5t12 38.5q0 28 -21.5 41.5t-44.5 13.5q-20 0 -40.5 -10.5t-33.5 -39.5l-63 17q14 45 52 70.5t85 25.5q60 0 96 -33.5t36 -84.5q0 -36 -16.5 -63.5t-49.5 -59.5l-111 -109
h179v-60h-273v50z" />
    <glyph glyph-name="threequarters" unicode="&#xbe;" horiz-adv-x="846" 
d="M131 569h11t14 1q32 2 54 17.5t22 40.5q0 26 -20 38t-46 12q-23 0 -40 -7.5t-31 -26.5l-53 37q22 31 54 45.5t70 14.5q30 0 54.5 -9t42 -24.5t27 -36t9.5 -43.5q0 -29 -13.5 -50t-30.5 -35q21 -15 35.5 -39.5t14.5 -54.5q0 -26 -11 -48.5t-30.5 -39t-47 -26t-61.5 -9.5
q-44 0 -79.5 19.5t-53.5 50.5l57 29q10 -18 31.5 -27.5t44.5 -9.5q37 0 60 17t23 44q0 57 -89 63h-4l-9 1h-5v56zM627 735h90l-464 -735h-89zM515 131l203 273h49v-262h65v-58h-65v-84h-66v84h-186v47zM595 142h106v140z" />
    <glyph glyph-name="questiondown" unicode="&#xbf;" horiz-adv-x="522" 
d="M308 457q0 -26 -18 -44.5t-44 -18.5q-27 0 -45.5 18.5t-18.5 44.5t18.5 44.5t45.5 18.5q26 0 44 -18.5t18 -44.5zM218 249q0 11 -1 23t-4 23l83 10q2 -8 4 -23.5t2 -32.5q0 -72 -61 -137l-70 -74q-31 -31 -45 -56t-14 -58q0 -22 9.5 -39.5t24.5 -30t34.5 -19t39.5 -6.5
q51 0 87 28t51 76l81 -24q-10 -35 -29.5 -64.5t-47.5 -51.5t-64 -34.5t-78 -12.5t-78 13t-62.5 36.5t-41.5 56t-15 72.5q0 42 19 79t53 72l88 93q20 21 27.5 40.5t7.5 40.5z" />
    <glyph glyph-name="Agrave" unicode="&#xc0;" horiz-adv-x="772" 
d="M347 972l75 -152h-75l-104 152h104zM548 199h-326l-81 -199h-94l306 735h65l306 -735h-94zM258 281h256l-129 313z" />
    <glyph glyph-name="Aacute" unicode="&#xc1;" horiz-adv-x="772" 
d="M426 972h104l-109 -152h-74zM548 199h-326l-81 -199h-94l306 735h65l306 -735h-94zM258 281h256l-129 313z" />
    <glyph glyph-name="Acircumflex" unicode="&#xc2;" horiz-adv-x="772" 
d="M445 972l110 -152h-76l-95 93l-93 -93h-76l110 152h120zM548 199h-326l-81 -199h-94l306 735h65l306 -735h-94zM258 281h256l-129 313z" />
    <glyph glyph-name="Atilde" unicode="&#xc3;" horiz-adv-x="772" 
d="M172 854q12 49 45.5 76t82.5 27q25 0 47.5 -8t43 -18t40.5 -18t39 -8q23 0 41.5 15t21.5 38l66 -19q-10 -43 -42.5 -74t-85.5 -31q-24 0 -47 8t-44.5 18t-41.5 18t-38 8q-26 0 -41.5 -14t-20.5 -37zM548 199h-326l-81 -199h-94l306 735h65l306 -735h-94zM258 281h256
l-129 313z" />
    <glyph glyph-name="Adieresis" unicode="&#xc4;" horiz-adv-x="772" 
d="M217 897q0 24 16.5 41.5t40.5 17.5t41.5 -17.5t17.5 -41.5q0 -23 -17.5 -40t-41.5 -17t-40.5 17t-16.5 40zM437 897q0 24 17 41.5t41 17.5t41 -17.5t17 -41.5q0 -23 -17 -40t-41 -17t-41 17t-17 40zM548 199h-326l-81 -199h-94l306 735h65l306 -735h-94zM258 281h256
l-129 313z" />
    <glyph glyph-name="Aring" unicode="&#xc5;" horiz-adv-x="772" 
d="M288 913q0 41 28 69.5t69 28.5t69 -28.5t28 -69.5t-28 -69t-69 -28t-69 28t-28 69zM349 913q0 -15 10.5 -25.5t25.5 -10.5t26 10.5t11 25.5t-11 26t-26 11t-25.5 -11t-10.5 -26zM548 199h-326l-81 -199h-94l306 735h65l306 -735h-94zM258 281h256l-129 313z" />
    <glyph glyph-name="AE" unicode="&#xc6;" horiz-adv-x="1025" 
d="M942 655h-353v-235h303v-80h-303v-260h368v-80h-455v199h-264l-116 -199h-97l433 735h484v-80zM288 281h214v372z" />
    <glyph glyph-name="Ccedilla" unicode="&#xc7;" horiz-adv-x="765" 
d="M404 -247q-18 0 -36 3.5t-26 7.5l19 66q9 -3 21 -5t21 -2q53 0 53 40q0 20 -19 31t-49 11l13 87q-73 6 -135 37.5t-107.5 82.5t-71 116.5t-25.5 138.5q0 77 28 145.5t77.5 120.5t117.5 82t147 30q82 0 151 -31.5t120 -84.5l-62 -57q-40 41 -93.5 65.5t-115.5 24.5
q-61 0 -112.5 -24t-89 -65t-58.5 -94t-21 -112t21 -112t58.5 -93.5t89.5 -64t113 -23.5q66 0 124 25.5t101 68.5l59 -59q-49 -51 -114.5 -82t-142.5 -36l-5 -42q37 -6 61 -29t24 -64q0 -44 -36.5 -73.5t-99.5 -29.5z" />
    <glyph glyph-name="Egrave" unicode="&#xc8;" horiz-adv-x="657" 
d="M318 972l75 -152h-75l-104 152h104zM97 735h477v-80h-390v-235h340v-80h-340v-260h405v-80h-492v735z" />
    <glyph glyph-name="Eacute" unicode="&#xc9;" horiz-adv-x="657" 
d="M376 972h104l-109 -152h-74zM97 735h477v-80h-390v-235h340v-80h-340v-260h405v-80h-492v735z" />
    <glyph glyph-name="Ecircumflex" unicode="&#xca;" horiz-adv-x="657" 
d="M398 972l110 -152h-76l-95 93l-93 -93h-76l110 152h120zM97 735h477v-80h-390v-235h340v-80h-340v-260h405v-80h-492v735z" />
    <glyph glyph-name="Edieresis" unicode="&#xcb;" horiz-adv-x="657" 
d="M167 897q0 24 16.5 41.5t40.5 17.5t41.5 -17.5t17.5 -41.5q0 -23 -17.5 -40t-41.5 -17t-40.5 17t-16.5 40zM387 897q0 24 17 41.5t41 17.5t41 -17.5t17 -41.5q0 -23 -17 -40t-41 -17t-41 17t-17 40zM97 735h477v-80h-390v-235h340v-80h-340v-260h405v-80h-492v735z" />
    <glyph glyph-name="Igrave" unicode="&#xcc;" horiz-adv-x="282" 
d="M102 972l75 -152h-75l-104 152h104zM184 0h-87v735h87v-735z" />
    <glyph glyph-name="Iacute" unicode="&#xcd;" horiz-adv-x="282" 
d="M182 972h104l-109 -152h-74zM184 0h-87v735h87v-735z" />
    <glyph glyph-name="Icircumflex" unicode="&#xce;" horiz-adv-x="282" 
d="M201 972l110 -152h-76l-95 93l-93 -93h-76l110 152h120zM184 0h-87v735h87v-735z" />
    <glyph glyph-name="Idieresis" unicode="&#xcf;" horiz-adv-x="282" 
d="M-28 897q0 24 16.5 41.5t40.5 17.5t41.5 -17.5t17.5 -41.5q0 -23 -17.5 -40t-41.5 -17t-40.5 17t-16.5 40zM192 897q0 24 17 41.5t41 17.5t41 -17.5t17 -41.5q0 -23 -17 -40t-41 -17t-41 17t-17 40zM184 0h-87v735h87v-735z" />
    <glyph glyph-name="Eth" unicode="&#xd0;" horiz-adv-x="780" 
d="M8 420h90v315h241q88 0 158 -28t119 -77t75 -116.5t26 -146.5t-26 -146.5t-75 -116.5t-119.5 -76.5t-158.5 -27.5h-240v340h-90v80zM627 367q0 63 -20 115.5t-57.5 91t-90.5 60t-120 21.5h-154v-235h155v-80h-155v-260h153q68 0 121.5 21t91 59.5t57 91t19.5 115.5z" />
    <glyph glyph-name="Ntilde" unicode="&#xd1;" horiz-adv-x="792" 
d="M183 854q12 49 45.5 76t82.5 27q25 0 47.5 -8t43 -18t40.5 -18t39 -8q23 0 41.5 15t21.5 38l66 -19q-10 -43 -42.5 -74t-85.5 -31q-24 0 -47 8t-44.5 18t-41.5 18t-38 8q-26 0 -41.5 -14t-20.5 -37zM695 0h-78l-433 583v-583h-87v735h78l433 -584v584h87v-735z" />
    <glyph glyph-name="Ograve" unicode="&#xd2;" horiz-adv-x="865" 
d="M397 972l75 -152h-75l-104 152h104zM62 367q0 77 28 145.5t77.5 120.5t117.5 82t147 30t147 -30t117.5 -82t77.5 -120.5t28 -145.5t-28 -145.5t-77.5 -120t-117.5 -81.5t-147 -30t-147 30t-117.5 81.5t-77.5 120t-28 145.5zM151 367q0 -59 21 -112t58.5 -93.5t89 -64
t112.5 -23.5t112.5 23.5t89 64t59 93.5t21.5 112t-21.5 112t-59 94t-89 65t-112.5 24t-112.5 -24t-89 -65t-58.5 -94t-21 -112z" />
    <glyph glyph-name="Oacute" unicode="&#xd3;" horiz-adv-x="865" 
d="M472 972h104l-109 -152h-74zM62 367q0 77 28 145.5t77.5 120.5t117.5 82t147 30t147 -30t117.5 -82t77.5 -120.5t28 -145.5t-28 -145.5t-77.5 -120t-117.5 -81.5t-147 -30t-147 30t-117.5 81.5t-77.5 120t-28 145.5zM151 367q0 -59 21 -112t58.5 -93.5t89 -64
t112.5 -23.5t112.5 23.5t89 64t59 93.5t21.5 112t-21.5 112t-59 94t-89 65t-112.5 24t-112.5 -24t-89 -65t-58.5 -94t-21 -112z" />
    <glyph glyph-name="Ocircumflex" unicode="&#xd4;" horiz-adv-x="865" 
d="M493 972l110 -152h-76l-95 93l-93 -93h-76l110 152h120zM62 367q0 77 28 145.5t77.5 120.5t117.5 82t147 30t147 -30t117.5 -82t77.5 -120.5t28 -145.5t-28 -145.5t-77.5 -120t-117.5 -81.5t-147 -30t-147 30t-117.5 81.5t-77.5 120t-28 145.5zM151 367q0 -59 21 -112
t58.5 -93.5t89 -64t112.5 -23.5t112.5 23.5t89 64t59 93.5t21.5 112t-21.5 112t-59 94t-89 65t-112.5 24t-112.5 -24t-89 -65t-58.5 -94t-21 -112z" />
    <glyph glyph-name="Otilde" unicode="&#xd5;" horiz-adv-x="865" 
d="M220 854q12 49 45.5 76t82.5 27q25 0 47.5 -8t43 -18t40.5 -18t39 -8q23 0 41.5 15t21.5 38l66 -19q-10 -43 -42.5 -74t-85.5 -31q-24 0 -47 8t-44.5 18t-41.5 18t-38 8q-26 0 -41.5 -14t-20.5 -37zM62 367q0 77 28 145.5t77.5 120.5t117.5 82t147 30t147 -30t117.5 -82
t77.5 -120.5t28 -145.5t-28 -145.5t-77.5 -120t-117.5 -81.5t-147 -30t-147 30t-117.5 81.5t-77.5 120t-28 145.5zM151 367q0 -59 21 -112t58.5 -93.5t89 -64t112.5 -23.5t112.5 23.5t89 64t59 93.5t21.5 112t-21.5 112t-59 94t-89 65t-112.5 24t-112.5 -24t-89 -65
t-58.5 -94t-21 -112z" />
    <glyph glyph-name="Odieresis" unicode="&#xd6;" horiz-adv-x="865" 
d="M265 897q0 24 16.5 41.5t40.5 17.5t41.5 -17.5t17.5 -41.5q0 -23 -17.5 -40t-41.5 -17t-40.5 17t-16.5 40zM485 897q0 24 17 41.5t41 17.5t41 -17.5t17 -41.5q0 -23 -17 -40t-41 -17t-41 17t-17 40zM62 367q0 77 28 145.5t77.5 120.5t117.5 82t147 30t147 -30t117.5 -82
t77.5 -120.5t28 -145.5t-28 -145.5t-77.5 -120t-117.5 -81.5t-147 -30t-147 30t-117.5 81.5t-77.5 120t-28 145.5zM151 367q0 -59 21 -112t58.5 -93.5t89 -64t112.5 -23.5t112.5 23.5t89 64t59 93.5t21.5 112t-21.5 112t-59 94t-89 65t-112.5 24t-112.5 -24t-89 -65
t-58.5 -94t-21 -112z" />
    <glyph glyph-name="multiply" unicode="&#xd7;" horiz-adv-x="627" 
d="M67 161l187 188l-177 178l57 56l180 -183l181 183l55 -54l-177 -177l186 -187l-56 -57l-192 192l-190 -192z" />
    <glyph glyph-name="Oslash" unicode="&#xd8;" horiz-adv-x="885" 
d="M72 367q0 77 28 145.5t77.5 120.5t117.5 82t147 30q62 0 117 -18.5t100 -52.5l52 61h93l-93 -108q48 -52 74.5 -118.5t26.5 -141.5q0 -77 -28 -145.5t-77.5 -120t-117.5 -81.5t-147 -30q-63 0 -117.5 18.5t-99.5 51.5l-52 -60h-92l91 107q-48 51 -74 118t-26 142z
M161 367q0 -55 18 -104.5t51 -88.5l373 435q-34 25 -74.5 39t-86.5 14q-61 0 -112.5 -24t-89 -65t-58.5 -94t-21 -112zM724 367q0 54 -18.5 103.5t-51.5 89.5l-373 -434q34 -25 74.5 -38.5t86.5 -13.5q61 0 112.5 23.5t89 64t59 93.5t21.5 112z" />
    <glyph glyph-name="Ugrave" unicode="&#xd9;" horiz-adv-x="744" 
d="M336 972l75 -152h-75l-104 152h104zM87 735h87v-461q0 -41 15 -77t41.5 -63t63 -42.5t78.5 -15.5t78.5 15.5t63 42.5t41.5 63t15 77v461h87v-461q0 -58 -22 -109.5t-60 -90.5t-90.5 -61.5t-112.5 -22.5q-62 0 -114 22.5t-90 61.5t-59.5 90.5t-21.5 109.5v461z" />
    <glyph glyph-name="Uacute" unicode="&#xda;" horiz-adv-x="744" 
d="M412 972h104l-109 -152h-74zM87 735h87v-461q0 -41 15 -77t41.5 -63t63 -42.5t78.5 -15.5t78.5 15.5t63 42.5t41.5 63t15 77v461h87v-461q0 -58 -22 -109.5t-60 -90.5t-90.5 -61.5t-112.5 -22.5q-62 0 -114 22.5t-90 61.5t-59.5 90.5t-21.5 109.5v461z" />
    <glyph glyph-name="Ucircumflex" unicode="&#xdb;" horiz-adv-x="744" 
d="M432 972l110 -152h-76l-95 93l-93 -93h-76l110 152h120zM87 735h87v-461q0 -41 15 -77t41.5 -63t63 -42.5t78.5 -15.5t78.5 15.5t63 42.5t41.5 63t15 77v461h87v-461q0 -58 -22 -109.5t-60 -90.5t-90.5 -61.5t-112.5 -22.5q-62 0 -114 22.5t-90 61.5t-59.5 90.5
t-21.5 109.5v461z" />
    <glyph glyph-name="Udieresis" unicode="&#xdc;" horiz-adv-x="744" 
d="M204 897q0 24 16.5 41.5t40.5 17.5t41.5 -17.5t17.5 -41.5q0 -23 -17.5 -40t-41.5 -17t-40.5 17t-16.5 40zM424 897q0 24 17 41.5t41 17.5t41 -17.5t17 -41.5q0 -23 -17 -40t-41 -17t-41 17t-17 40zM87 735h87v-461q0 -41 15 -77t41.5 -63t63 -42.5t78.5 -15.5t78.5 15.5
t63 42.5t41.5 63t15 77v461h87v-461q0 -58 -22 -109.5t-60 -90.5t-90.5 -61.5t-112.5 -22.5q-62 0 -114 22.5t-90 61.5t-59.5 90.5t-21.5 109.5v461z" />
    <glyph glyph-name="Yacute" unicode="&#xdd;" horiz-adv-x="677" 
d="M379 972h104l-109 -152h-74zM383 0h-87v323l-268 412h103l208 -325l207 325h103l-266 -411v-324z" />
    <glyph glyph-name="Thorn" unicode="&#xde;" horiz-adv-x="652" 
d="M184 599h153q62 0 110.5 -17t82.5 -47.5t51.5 -73t17.5 -93.5t-17.5 -93.5t-51.5 -73t-83 -47.5t-111 -17h-152v-137h-87v735h87v-136zM184 518v-300h153q84 0 129 40.5t45 109.5q0 66 -45 108t-129 42h-153z" />
    <glyph glyph-name="germandbls" unicode="&#xdf;" horiz-adv-x="653" 
d="M385 579q0 21 -7 39.5t-20.5 32.5t-33 22.5t-43.5 8.5q-48 0 -77 -30.5t-29 -84.5v-567h-83v567q0 42 13 77t37.5 61t59.5 40.5t79 14.5q40 0 74 -14t59 -39t39 -57.5t14 -70.5q0 -26 -8 -48t-19.5 -39.5t-24.5 -30t-23 -18.5q4 0 8.5 -0.5t9.5 -1.5q37 -6 70.5 -24
t59 -46.5t41 -66.5t15.5 -83q0 -50 -19 -92.5t-50.5 -73t-73.5 -48t-88 -17.5q-38 0 -73.5 10t-59.5 26l34 66q18 -13 44 -20.5t55 -7.5q32 0 59 12t46.5 33t31 50t11.5 62q0 35 -13 64t-35.5 50t-53.5 32.5t-67 11.5h-95v64h5q23 0 46.5 10t42.5 28t30.5 43t11.5 55z" />
    <glyph glyph-name="agrave" unicode="&#xe0;" horiz-adv-x="636" 
d="M287 755l65 -180h-68l-95 180h98zM57 243q0 53 19 99.5t52 80.5t78 53.5t97 19.5q48 0 97 -23t81 -65l31 81h37v-489h-72l-4 82q-13 -21 -32.5 -38t-43 -29t-48.5 -18.5t-51 -6.5q-51 0 -95 19.5t-76.5 53.5t-51 80.5t-18.5 99.5zM141 243q0 -37 12 -69t33.5 -55.5
t51.5 -37t66 -13.5t65.5 13.5t51.5 37.5t34 56.5t12 69.5v9q0 33 -12.5 62.5t-34.5 52t-51.5 36t-64.5 13.5q-36 0 -65.5 -13.5t-51.5 -37t-34 -55.5t-12 -69z" />
    <glyph glyph-name="aacute" unicode="&#xe1;" horiz-adv-x="636" 
d="M335 755h98l-105 -180h-68zM57 243q0 53 19 99.5t52 80.5t78 53.5t97 19.5q48 0 97 -23t81 -65l31 81h37v-489h-72l-4 82q-13 -21 -32.5 -38t-43 -29t-48.5 -18.5t-51 -6.5q-51 0 -95 19.5t-76.5 53.5t-51 80.5t-18.5 99.5zM141 243q0 -37 12 -69t33.5 -55.5t51.5 -37
t66 -13.5t65.5 13.5t51.5 37.5t34 56.5t12 69.5v9q0 33 -12.5 62.5t-34.5 52t-51.5 36t-64.5 13.5q-36 0 -65.5 -13.5t-51.5 -37t-34 -55.5t-12 -69z" />
    <glyph glyph-name="acircumflex" unicode="&#xe2;" horiz-adv-x="636" 
d="M278 755h82l128 -180h-68l-101 106l-100 -106h-69zM57 243q0 53 19 99.5t52 80.5t78 53.5t97 19.5q48 0 97 -23t81 -65l31 81h37v-489h-72l-4 82q-13 -21 -32.5 -38t-43 -29t-48.5 -18.5t-51 -6.5q-51 0 -95 19.5t-76.5 53.5t-51 80.5t-18.5 99.5zM141 243q0 -37 12 -69
t33.5 -55.5t51.5 -37t66 -13.5t65.5 13.5t51.5 37.5t34 56.5t12 69.5v9q0 33 -12.5 62.5t-34.5 52t-51.5 36t-64.5 13.5q-36 0 -65.5 -13.5t-51.5 -37t-34 -55.5t-12 -69z" />
    <glyph glyph-name="atilde" unicode="&#xe3;" horiz-adv-x="636" 
d="M125 621q11 49 42 77t77 28q22 0 42 -8t38.5 -18t36 -18t34.5 -8q23 0 36 15.5t17 35.5l66 -17q-4 -21 -13.5 -40t-24.5 -33.5t-35 -23t-45 -8.5q-21 0 -42 8t-40 17.5t-37 17.5t-33 8q-41 0 -53 -51zM57 243q0 53 19 99.5t52 80.5t78 53.5t97 19.5q48 0 97 -23t81 -65
l31 81h37v-489h-72l-4 82q-13 -21 -32.5 -38t-43 -29t-48.5 -18.5t-51 -6.5q-51 0 -95 19.5t-76.5 53.5t-51 80.5t-18.5 99.5zM141 243q0 -37 12 -69t33.5 -55.5t51.5 -37t66 -13.5t65.5 13.5t51.5 37.5t34 56.5t12 69.5v9q0 33 -12.5 62.5t-34.5 52t-51.5 36t-64.5 13.5
q-36 0 -65.5 -13.5t-51.5 -37t-34 -55.5t-12 -69z" />
    <glyph glyph-name="adieresis" unicode="&#xe4;" horiz-adv-x="636" 
d="M152 652q0 26 17.5 43.5t42.5 17.5t42.5 -17.5t17.5 -43.5q0 -24 -17.5 -42t-42.5 -18t-42.5 18t-17.5 42zM366 652q0 26 17.5 43.5t42.5 17.5q26 0 43.5 -17.5t17.5 -43.5q0 -24 -17.5 -42t-43.5 -18q-25 0 -42.5 18t-17.5 42zM57 243q0 53 19 99.5t52 80.5t78 53.5
t97 19.5q48 0 97 -23t81 -65l31 81h37v-489h-72l-4 82q-13 -21 -32.5 -38t-43 -29t-48.5 -18.5t-51 -6.5q-51 0 -95 19.5t-76.5 53.5t-51 80.5t-18.5 99.5zM141 243q0 -37 12 -69t33.5 -55.5t51.5 -37t66 -13.5t65.5 13.5t51.5 37.5t34 56.5t12 69.5v9q0 33 -12.5 62.5
t-34.5 52t-51.5 36t-64.5 13.5q-36 0 -65.5 -13.5t-51.5 -37t-34 -55.5t-12 -69z" />
    <glyph glyph-name="aring" unicode="&#xe5;" horiz-adv-x="636" 
d="M223 664q0 20 7.5 37.5t20.5 30t30.5 20t36.5 7.5q40 0 68.5 -27.5t28.5 -67.5q0 -19 -7.5 -36.5t-21 -30.5t-31 -20.5t-37.5 -7.5q-19 0 -36.5 7.5t-30.5 20.5t-20.5 30.5t-7.5 36.5zM277 664q0 -17 12.5 -29t29.5 -12t29 12t12 29t-12 29t-29 12t-29.5 -12t-12.5 -29z
M57 243q0 53 19 99.5t52 80.5t78 53.5t97 19.5q48 0 97 -23t81 -65l31 81h37v-489h-72l-4 82q-13 -21 -32.5 -38t-43 -29t-48.5 -18.5t-51 -6.5q-51 0 -95 19.5t-76.5 53.5t-51 80.5t-18.5 99.5zM141 243q0 -37 12 -69t33.5 -55.5t51.5 -37t66 -13.5t65.5 13.5t51.5 37.5
t34 56.5t12 69.5v9q0 33 -12.5 62.5t-34.5 52t-51.5 36t-64.5 13.5q-36 0 -65.5 -13.5t-51.5 -37t-34 -55.5t-12 -69z" />
    <glyph glyph-name="ae" unicode="&#xe6;" horiz-adv-x="986" 
d="M57 243q0 53 18 99.5t50 80.5t76.5 53.5t96.5 19.5q48 0 91 -23t66 -65l31 81h37v-84q26 42 66.5 66.5t98.5 24.5q54 0 96.5 -20t72 -53t45.5 -76.5t16 -91.5q0 -14 -0.5 -24.5t-1.5 -15.5h-380q2 -33 14 -60.5t33.5 -48t51 -32t66.5 -11.5q38 0 75 15t64 52l69 -36
q-37 -53 -91 -78.5t-117 -25.5t-108.5 24.5t-72.5 68.5l-11 -83h-58l-4 82q-19 -48 -61 -70t-93 -22q-50 0 -93.5 19.5t-75 53.5t-49.5 80t-18 100zM688 423q-31 0 -57.5 -11t-46 -29.5t-31 -44t-14.5 -55.5h294v1q-1 29 -12.5 54.5t-31 44t-45.5 29.5t-56 11zM141 243
q0 -36 11.5 -68t32.5 -56t50 -37.5t65 -13.5q34 0 63 13.5t50.5 37.5t33.5 56.5t12 69.5v9q0 33 -12 62.5t-33 52t-50 36t-64 13.5q-36 0 -65.5 -14t-50 -38t-32 -55.5t-11.5 -67.5z" />
    <glyph glyph-name="ccedilla" unicode="&#xe7;" horiz-adv-x="547" 
d="M277 -237q-17 0 -33.5 3.5t-21.5 6.5l14 52q8 -5 18.5 -6.5t18.5 -1.5q26 0 43.5 13t17.5 33q0 21 -20.5 31.5t-49.5 10.5l14 87q-49 4 -89.5 26t-70 55.5t-45.5 77t-16 92.5q0 52 17 98t49 80.5t77 54.5t100 20q62 0 112.5 -26t86.5 -74l-64 -47q-25 31 -59 49.5
t-76 18.5q-37 0 -66.5 -13.5t-50 -37.5t-31.5 -55.5t-11 -67.5t11.5 -67.5t33 -55.5t52 -37.5t67.5 -13.5q42 0 73.5 13.5t59.5 39.5l55 -55q-31 -32 -74 -52.5t-95 -23.5l-5 -43q32 -5 57.5 -27.5t25.5 -60.5q0 -45 -35.5 -71t-89.5 -26z" />
    <glyph glyph-name="egrave" unicode="&#xe8;" horiz-adv-x="593" 
d="M264 755l65 -180h-68l-95 180h98zM308 63q40 0 76 15t63 52l69 -36q-37 -52 -90.5 -78t-117.5 -26q-57 0 -103.5 19t-79 53t-50.5 80t-18 101q0 52 16 98t47 80.5t75 54.5t99 20q54 0 97 -19.5t73 -53t46 -77t16 -91.5q0 -14 -0.5 -24.5t-1.5 -15.5h-381q5 -66 48 -109
t117 -43zM295 423q-32 0 -58.5 -11t-46 -29.5t-31 -44t-14.5 -55.5h296v1q-1 29 -13 54.5t-31.5 44t-45.5 29.5t-56 11z" />
    <glyph glyph-name="eacute" unicode="&#xe9;" horiz-adv-x="593" 
d="M309 755h98l-105 -180h-68zM308 63q40 0 76 15t63 52l69 -36q-37 -52 -90.5 -78t-117.5 -26q-57 0 -103.5 19t-79 53t-50.5 80t-18 101q0 52 16 98t47 80.5t75 54.5t99 20q54 0 97 -19.5t73 -53t46 -77t16 -91.5q0 -14 -0.5 -24.5t-1.5 -15.5h-381q5 -66 48 -109t117 -43
zM295 423q-32 0 -58.5 -11t-46 -29.5t-31 -44t-14.5 -55.5h296v1q-1 29 -13 54.5t-31.5 44t-45.5 29.5t-56 11z" />
    <glyph glyph-name="ecircumflex" unicode="&#xea;" horiz-adv-x="593" 
d="M252 755h82l128 -180h-68l-101 106l-100 -106h-69zM308 63q40 0 76 15t63 52l69 -36q-37 -52 -90.5 -78t-117.5 -26q-57 0 -103.5 19t-79 53t-50.5 80t-18 101q0 52 16 98t47 80.5t75 54.5t99 20q54 0 97 -19.5t73 -53t46 -77t16 -91.5q0 -14 -0.5 -24.5t-1.5 -15.5h-381
q5 -66 48 -109t117 -43zM295 423q-32 0 -58.5 -11t-46 -29.5t-31 -44t-14.5 -55.5h296v1q-1 29 -13 54.5t-31.5 44t-45.5 29.5t-56 11z" />
    <glyph glyph-name="edieresis" unicode="&#xeb;" horiz-adv-x="593" 
d="M127 652q0 26 17.5 43.5t42.5 17.5t42.5 -17.5t17.5 -43.5q0 -24 -17.5 -42t-42.5 -18t-42.5 18t-17.5 42zM341 652q0 26 17.5 43.5t42.5 17.5q26 0 43.5 -17.5t17.5 -43.5q0 -24 -17.5 -42t-43.5 -18q-25 0 -42.5 18t-17.5 42zM308 63q40 0 76 15t63 52l69 -36
q-37 -52 -90.5 -78t-117.5 -26q-57 0 -103.5 19t-79 53t-50.5 80t-18 101q0 52 16 98t47 80.5t75 54.5t99 20q54 0 97 -19.5t73 -53t46 -77t16 -91.5q0 -14 -0.5 -24.5t-1.5 -15.5h-381q5 -66 48 -109t117 -43zM295 423q-32 0 -58.5 -11t-46 -29.5t-31 -44t-14.5 -55.5h296
v1q-1 29 -13 54.5t-31.5 44t-45.5 29.5t-56 11z" />
    <glyph glyph-name="igrave" unicode="&#xec;" horiz-adv-x="257" 
d="M100 755l65 -180h-68l-95 180h98zM170 0h-83v486h83v-486z" />
    <glyph glyph-name="iacute" unicode="&#xed;" horiz-adv-x="257" 
d="M164 755h98l-105 -180h-68zM170 0h-83v486h83v-486z" />
    <glyph glyph-name="icircumflex" unicode="&#xee;" horiz-adv-x="257" 
d="M88 755h82l128 -180h-68l-101 106l-100 -106h-69zM170 0h-83v486h83v-486z" />
    <glyph glyph-name="idieresis" unicode="&#xef;" horiz-adv-x="257" 
d="M-39 652q0 26 17.5 43.5t42.5 17.5t42.5 -17.5t17.5 -43.5q0 -24 -17.5 -42t-42.5 -18t-42.5 18t-17.5 42zM175 652q0 26 17.5 43.5t42.5 17.5q26 0 43.5 -17.5t17.5 -43.5q0 -24 -17.5 -42t-43.5 -18q-25 0 -42.5 18t-17.5 42zM170 0h-83v486h83v-486z" />
    <glyph glyph-name="eth" unicode="&#xf0;" horiz-adv-x="623" 
d="M557 293q0 -67 -18.5 -123t-52.5 -96t-82 -62t-106 -22q-52 0 -96 19.5t-76.5 54t-50.5 81t-18 99.5t17.5 98.5t49.5 80t77 54t100 19.5q45 0 87.5 -16t71.5 -39q-12 48 -29 86t-43 80l-107 -63l-35 59l105 61q-16 21 -31 39t-29 33l62 43q15 -16 31.5 -35t32.5 -42
l93 54l34 -59l-89 -51q42 -70 72 -159t30 -194zM142 244q0 -37 11.5 -68.5t32 -55t49 -37t63.5 -13.5q46 0 79.5 19t55.5 50.5t33 71.5t11 82q0 14 -2 27.5t-4 18.5q-29 33 -74 55.5t-96 22.5q-36 0 -65 -13.5t-50 -37t-32.5 -55t-11.5 -67.5z" />
    <glyph glyph-name="ntilde" unicode="&#xf1;" horiz-adv-x="602" 
d="M122 621q11 49 42 77t77 28q22 0 42 -8t38.5 -18t36 -18t34.5 -8q23 0 36 15.5t17 35.5l66 -17q-4 -21 -13.5 -40t-24.5 -33.5t-35 -23t-45 -8.5q-21 0 -42 8t-40 17.5t-37 17.5t-33 8q-41 0 -53 -51zM170 0h-83v490h38l33 -75q26 36 68 58.5t90 22.5q44 0 82 -14.5
t66.5 -42.5t44.5 -67.5t16 -90.5v-281h-82v274q0 63 -32.5 103.5t-98.5 40.5q-47 0 -85 -26.5t-57 -67.5v-324z" />
    <glyph glyph-name="ograve" unicode="&#xf2;" horiz-adv-x="603" 
d="M270 755l65 -180h-68l-95 180h98zM57 243q0 52 17.5 98t49 80.5t77 54.5t100.5 20q54 0 99 -20t77.5 -54.5t50 -80.5t17.5 -98t-17.5 -98t-50 -80.5t-77.5 -54.5t-99 -20t-99 20t-77 54.5t-50 80.5t-18 98zM142 243q0 -36 11 -67.5t32 -55.5t50.5 -37.5t65.5 -13.5
t65.5 13.5t50.5 37.5t32.5 55.5t11.5 67.5t-11.5 67.5t-32.5 55.5t-50.5 37.5t-65.5 13.5t-65.5 -13.5t-50.5 -37.5t-32 -55.5t-11 -67.5z" />
    <glyph glyph-name="oacute" unicode="&#xf3;" horiz-adv-x="603" 
d="M317 755h98l-105 -180h-68zM57 243q0 52 17.5 98t49 80.5t77 54.5t100.5 20q54 0 99 -20t77.5 -54.5t50 -80.5t17.5 -98t-17.5 -98t-50 -80.5t-77.5 -54.5t-99 -20t-99 20t-77 54.5t-50 80.5t-18 98zM142 243q0 -36 11 -67.5t32 -55.5t50.5 -37.5t65.5 -13.5t65.5 13.5
t50.5 37.5t32.5 55.5t11.5 67.5t-11.5 67.5t-32.5 55.5t-50.5 37.5t-65.5 13.5t-65.5 -13.5t-50.5 -37.5t-32 -55.5t-11 -67.5z" />
    <glyph glyph-name="ocircumflex" unicode="&#xf4;" horiz-adv-x="603" 
d="M260 755h82l128 -180h-68l-101 106l-100 -106h-69zM57 243q0 52 17.5 98t49 80.5t77 54.5t100.5 20q54 0 99 -20t77.5 -54.5t50 -80.5t17.5 -98t-17.5 -98t-50 -80.5t-77.5 -54.5t-99 -20t-99 20t-77 54.5t-50 80.5t-18 98zM142 243q0 -36 11 -67.5t32 -55.5t50.5 -37.5
t65.5 -13.5t65.5 13.5t50.5 37.5t32.5 55.5t11.5 67.5t-11.5 67.5t-32.5 55.5t-50.5 37.5t-65.5 13.5t-65.5 -13.5t-50.5 -37.5t-32 -55.5t-11 -67.5z" />
    <glyph glyph-name="otilde" unicode="&#xf5;" horiz-adv-x="603" 
d="M107 621q11 49 42 77t77 28q22 0 42 -8t38.5 -18t36 -18t34.5 -8q23 0 36 15.5t17 35.5l66 -17q-4 -21 -13.5 -40t-24.5 -33.5t-35 -23t-45 -8.5q-21 0 -42 8t-40 17.5t-37 17.5t-33 8q-41 0 -53 -51zM57 243q0 52 17.5 98t49 80.5t77 54.5t100.5 20q54 0 99 -20
t77.5 -54.5t50 -80.5t17.5 -98t-17.5 -98t-50 -80.5t-77.5 -54.5t-99 -20t-99 20t-77 54.5t-50 80.5t-18 98zM142 243q0 -36 11 -67.5t32 -55.5t50.5 -37.5t65.5 -13.5t65.5 13.5t50.5 37.5t32.5 55.5t11.5 67.5t-11.5 67.5t-32.5 55.5t-50.5 37.5t-65.5 13.5t-65.5 -13.5
t-50.5 -37.5t-32 -55.5t-11 -67.5z" />
    <glyph glyph-name="odieresis" unicode="&#xf6;" horiz-adv-x="603" 
d="M134 652q0 26 17.5 43.5t42.5 17.5t42.5 -17.5t17.5 -43.5q0 -24 -17.5 -42t-42.5 -18t-42.5 18t-17.5 42zM348 652q0 26 17.5 43.5t42.5 17.5q26 0 43.5 -17.5t17.5 -43.5q0 -24 -17.5 -42t-43.5 -18q-25 0 -42.5 18t-17.5 42zM57 243q0 52 17.5 98t49 80.5t77 54.5
t100.5 20q54 0 99 -20t77.5 -54.5t50 -80.5t17.5 -98t-17.5 -98t-50 -80.5t-77.5 -54.5t-99 -20t-99 20t-77 54.5t-50 80.5t-18 98zM142 243q0 -36 11 -67.5t32 -55.5t50.5 -37.5t65.5 -13.5t65.5 13.5t50.5 37.5t32.5 55.5t11.5 67.5t-11.5 67.5t-32.5 55.5t-50.5 37.5
t-65.5 13.5t-65.5 -13.5t-50.5 -37.5t-32 -55.5t-11 -67.5z" />
    <glyph glyph-name="divide" unicode="&#xf7;" horiz-adv-x="619" 
d="M246 529q0 26 18.5 45t44.5 19t45 -19t19 -45t-19 -44.5t-45 -18.5t-44.5 18.5t-18.5 44.5zM67 383h484v-77h-484v77zM246 160q0 27 18.5 45.5t44.5 18.5t45 -18.5t19 -45.5q0 -26 -19 -44.5t-45 -18.5t-44.5 18.5t-18.5 44.5z" />
    <glyph glyph-name="oslash" unicode="&#xf8;" horiz-adv-x="623" 
d="M132 68q-31 34 -48 79t-17 96q0 52 17.5 98t49 80.5t77 54.5t100.5 20q38 0 71 -10t61 -28l22 28h83l-56 -70q30 -35 46.5 -78.5t16.5 -94.5q0 -52 -17.5 -98t-50 -80.5t-77.5 -54.5t-99 -20q-37 0 -69.5 9.5t-60.5 26.5l-20 -26h-83zM152 243q0 -64 32 -110l208 262
q-36 22 -81 22q-36 0 -65.5 -13.5t-50.5 -37.5t-32 -55.5t-11 -67.5zM471 243q0 30 -8.5 57t-23.5 50l-207 -261q34 -20 79 -20q36 0 65.5 13.5t50.5 37.5t32.5 55.5t11.5 67.5z" />
    <glyph glyph-name="ugrave" unicode="&#xf9;" horiz-adv-x="596" 
d="M263 755l65 -180h-68l-95 180h98zM427 487h82v-487h-52l-18 72q-24 -38 -65 -60t-89 -22q-104 0 -156 61.5t-52 164.5v271h83v-271q0 -72 31 -110t101 -38q60 0 98 38t37 108v273z" />
    <glyph glyph-name="uacute" unicode="&#xfa;" horiz-adv-x="596" 
d="M310 755h98l-105 -180h-68zM427 487h82v-487h-52l-18 72q-24 -38 -65 -60t-89 -22q-104 0 -156 61.5t-52 164.5v271h83v-271q0 -72 31 -110t101 -38q60 0 98 38t37 108v273z" />
    <glyph glyph-name="ucircumflex" unicode="&#xfb;" horiz-adv-x="596" 
d="M253 755h82l128 -180h-68l-101 106l-100 -106h-69zM427 487h82v-487h-52l-18 72q-24 -38 -65 -60t-89 -22q-104 0 -156 61.5t-52 164.5v271h83v-271q0 -72 31 -110t101 -38q60 0 98 38t37 108v273z" />
    <glyph glyph-name="udieresis" unicode="&#xfc;" horiz-adv-x="596" 
d="M126 652q0 26 17.5 43.5t42.5 17.5t42.5 -17.5t17.5 -43.5q0 -24 -17.5 -42t-42.5 -18t-42.5 18t-17.5 42zM340 652q0 26 17.5 43.5t42.5 17.5q26 0 43.5 -17.5t17.5 -43.5q0 -24 -17.5 -42t-43.5 -18q-25 0 -42.5 18t-17.5 42zM427 487h82v-487h-52l-18 72
q-24 -38 -65 -60t-89 -22q-104 0 -156 61.5t-52 164.5v271h83v-271q0 -72 31 -110t101 -38q60 0 98 38t37 108v273z" />
    <glyph glyph-name="yacute" unicode="&#xfd;" horiz-adv-x="534" 
d="M283 755h98l-105 -180h-68zM258 -127q-49 -122 -174 -122q-12 0 -25 1t-22 3l5 68h41q37 0 59.5 15.5t36.5 47.5l47 115l-197 485h88l151 -385l151 385h88z" />
    <glyph glyph-name="thorn" unicode="&#xfe;" horiz-adv-x="625" 
d="M568 246q0 -52 -17 -99t-48 -81.5t-75 -55t-98 -20.5q-48 0 -91 22t-69 57v-314h-83v1000h83v-342q29 39 70.5 61t92.5 22t94 -19.5t74.5 -53t49 -79t17.5 -98.5zM485 246q0 36 -10.5 67.5t-30.5 55t-48 36.5t-63 13q-34 0 -63.5 -12.5t-51 -35t-34.5 -52t-14 -64.5v-15
q0 -38 12 -69.5t33 -54t50.5 -35t64.5 -12.5t63.5 14t48.5 38.5t31.5 57t11.5 68.5z" />
    <glyph glyph-name="ydieresis" unicode="&#xff;" horiz-adv-x="534" 
d="M100 652q0 26 17.5 43.5t42.5 17.5t42.5 -17.5t17.5 -43.5q0 -24 -17.5 -42t-42.5 -18t-42.5 18t-17.5 42zM314 652q0 26 17.5 43.5t42.5 17.5q26 0 43.5 -17.5t17.5 -43.5q0 -24 -17.5 -42t-43.5 -18q-25 0 -42.5 18t-17.5 42zM258 -127q-49 -122 -174 -122q-12 0 -25 1
t-22 3l5 68h41q37 0 59.5 15.5t36.5 47.5l47 115l-197 485h88l151 -385l151 385h88z" />
    <glyph glyph-name="Amacron" unicode="&#x100;" horiz-adv-x="772" 
d="M179 932h412v-72h-412v72zM548 199h-326l-81 -199h-94l306 735h65l306 -735h-94zM258 281h256l-129 313z" />
    <glyph glyph-name="amacron" unicode="&#x101;" horiz-adv-x="636" 
d="M128 697h381v-67h-381v67zM57 243q0 53 19 99.5t52 80.5t78 53.5t97 19.5q48 0 97 -23t81 -65l31 81h37v-489h-72l-4 82q-13 -21 -32.5 -38t-43 -29t-48.5 -18.5t-51 -6.5q-51 0 -95 19.5t-76.5 53.5t-51 80.5t-18.5 99.5zM141 243q0 -37 12 -69t33.5 -55.5t51.5 -37
t66 -13.5t65.5 13.5t51.5 37.5t34 56.5t12 69.5v9q0 33 -12.5 62.5t-34.5 52t-51.5 36t-64.5 13.5q-36 0 -65.5 -13.5t-51.5 -37t-34 -55.5t-12 -69z" />
    <glyph glyph-name="Abreve" unicode="&#x102;" horiz-adv-x="772" 
d="M298 972q0 -35 24.5 -59t62.5 -24t62.5 24t24.5 59h75q0 -34 -12.5 -63t-34.5 -50t-51.5 -32.5t-63.5 -11.5t-63.5 11.5t-51.5 32.5t-34.5 50t-12.5 63h75zM548 199h-326l-81 -199h-94l306 735h65l306 -735h-94zM258 281h256l-129 313z" />
    <glyph glyph-name="abreve" unicode="&#x103;" horiz-adv-x="636" 
d="M223 753q0 -48 25 -78t70 -30t70 30t25 78h74q0 -38 -13 -70.5t-35.5 -56t-53.5 -36.5t-67 -13t-66.5 13t-53 36.5t-35.5 56t-13 70.5h73zM57 243q0 53 19 99.5t52 80.5t78 53.5t97 19.5q48 0 97 -23t81 -65l31 81h37v-489h-72l-4 82q-13 -21 -32.5 -38t-43 -29
t-48.5 -18.5t-51 -6.5q-51 0 -95 19.5t-76.5 53.5t-51 80.5t-18.5 99.5zM141 243q0 -37 12 -69t33.5 -55.5t51.5 -37t66 -13.5t65.5 13.5t51.5 37.5t34 56.5t12 69.5v9q0 33 -12.5 62.5t-34.5 52t-51.5 36t-64.5 13.5q-36 0 -65.5 -13.5t-51.5 -37t-34 -55.5t-12 -69z" />
    <glyph glyph-name="Aogonek" unicode="&#x104;" horiz-adv-x="772" 
d="M617 -116q0 -23 14.5 -37.5t40.5 -14.5q7 0 16 1t15 3l21 -74q-13 -5 -27.5 -8.5t-33.5 -3.5q-25 0 -48 8.5t-40 24.5t-27.5 39t-10.5 52q0 40 22.5 77.5t64.5 60.5l-76 187h-326l-81 -199h-94l306 735h65l306 -735q-48 -21 -77.5 -51.5t-29.5 -64.5zM385 594
q-32 -78 -63.5 -156.5t-63.5 -156.5h256z" />
    <glyph glyph-name="aogonek" unicode="&#x105;" horiz-adv-x="636" 
d="M446 -116q0 -23 14 -38.5t40 -15.5q7 0 14 1t12 3l22 -71q-12 -5 -28 -9t-35 -4q-49 0 -83 32.5t-34 87.5q0 25 8.5 47.5t23.5 42t34.5 35t41.5 27.5l-3 60q-13 -21 -32.5 -38t-43 -29t-48.5 -18.5t-51 -6.5q-51 0 -95 19.5t-76.5 53.5t-51 80.5t-18.5 99.5t19 99.5
t52 80.5t78 53.5t97 19.5q48 0 97 -23t81 -65l31 81h37v-489q-46 -21 -74.5 -51.5t-28.5 -64.5zM141 243q0 -37 12 -69t33.5 -55.5t51.5 -37t66 -13.5t65.5 13.5t51.5 37.5t34 56.5t12 69.5v9q0 33 -12.5 62.5t-34.5 52t-51.5 36t-64.5 13.5q-36 0 -65.5 -13.5t-51.5 -37
t-34 -55.5t-12 -69z" />
    <glyph glyph-name="Cacute" unicode="&#x106;" horiz-adv-x="765" 
d="M470 972h104l-109 -152h-74zM151 367q0 -59 21 -112t58.5 -93.5t89.5 -64t113 -23.5q66 0 124 25.5t101 68.5l59 -59q-53 -55 -126 -87t-158 -32q-79 0 -147 30t-117.5 81.5t-78 120t-28.5 145.5t28 145.5t77.5 120.5t117.5 82t147 30q82 0 151 -31.5t120 -84.5l-62 -57
q-40 41 -93.5 65.5t-115.5 24.5q-61 0 -112.5 -24t-89 -65t-58.5 -94t-21 -112z" />
    <glyph glyph-name="cacute" unicode="&#x107;" horiz-adv-x="547" 
d="M313 755h98l-105 -180h-68zM57 243q0 52 17 98t49 80.5t77 54.5t100 20q62 0 112.5 -26t86.5 -74l-64 -47q-25 31 -59 49.5t-76 18.5q-37 0 -66.5 -13.5t-50 -37.5t-31.5 -55.5t-11 -67.5t11.5 -67.5t33 -55.5t52 -37.5t67.5 -13.5q42 0 73.5 13.5t59.5 39.5l55 -55
q-34 -35 -82 -56t-106 -21q-54 0 -99.5 20t-78.5 54.5t-51.5 80.5t-18.5 98z" />
    <glyph glyph-name="Ccircumflex" unicode="&#x108;" horiz-adv-x="765" 
d="M491 972l110 -152h-76l-95 93l-93 -93h-76l110 152h120zM151 367q0 -59 21 -112t58.5 -93.5t89.5 -64t113 -23.5q66 0 124 25.5t101 68.5l59 -59q-53 -55 -126 -87t-158 -32q-79 0 -147 30t-117.5 81.5t-78 120t-28.5 145.5t28 145.5t77.5 120.5t117.5 82t147 30
q82 0 151 -31.5t120 -84.5l-62 -57q-40 41 -93.5 65.5t-115.5 24.5q-61 0 -112.5 -24t-89 -65t-58.5 -94t-21 -112z" />
    <glyph glyph-name="ccircumflex" unicode="&#x109;" horiz-adv-x="547" 
d="M259 755h82l128 -180h-68l-101 106l-100 -106h-69zM57 243q0 52 17 98t49 80.5t77 54.5t100 20q62 0 112.5 -26t86.5 -74l-64 -47q-25 31 -59 49.5t-76 18.5q-37 0 -66.5 -13.5t-50 -37.5t-31.5 -55.5t-11 -67.5t11.5 -67.5t33 -55.5t52 -37.5t67.5 -13.5q42 0 73.5 13.5
t59.5 39.5l55 -55q-34 -35 -82 -56t-106 -21q-54 0 -99.5 20t-78.5 54.5t-51.5 80.5t-18.5 98z" />
    <glyph glyph-name="Cdotaccent" unicode="&#x10a;" horiz-adv-x="765" 
d="M366 901q0 26 17.5 44.5t43.5 18.5t44.5 -18.5t18.5 -44.5t-18.5 -43.5t-44.5 -17.5t-43.5 17.5t-17.5 43.5zM151 367q0 -59 21 -112t58.5 -93.5t89.5 -64t113 -23.5q66 0 124 25.5t101 68.5l59 -59q-53 -55 -126 -87t-158 -32q-79 0 -147 30t-117.5 81.5t-78 120
t-28.5 145.5t28 145.5t77.5 120.5t117.5 82t147 30q82 0 151 -31.5t120 -84.5l-62 -57q-40 41 -93.5 65.5t-115.5 24.5q-61 0 -112.5 -24t-89 -65t-58.5 -94t-21 -112z" />
    <glyph glyph-name="cdotaccent" unicode="&#x10b;" horiz-adv-x="547" 
d="M238 652q0 26 17.5 43.5t42.5 17.5t43 -17.5t18 -43.5q0 -24 -18 -42t-43 -18t-42.5 18t-17.5 42zM57 243q0 52 17 98t49 80.5t77 54.5t100 20q62 0 112.5 -26t86.5 -74l-64 -47q-25 31 -59 49.5t-76 18.5q-37 0 -66.5 -13.5t-50 -37.5t-31.5 -55.5t-11 -67.5t11.5 -67.5
t33 -55.5t52 -37.5t67.5 -13.5q42 0 73.5 13.5t59.5 39.5l55 -55q-34 -35 -82 -56t-106 -21q-54 0 -99.5 20t-78.5 54.5t-51.5 80.5t-18.5 98z" />
    <glyph glyph-name="Ccaron" unicode="&#x10c;" horiz-adv-x="765" 
d="M491 820h-120l-110 152h76l94 -93l94 93h76zM151 367q0 -59 21 -112t58.5 -93.5t89.5 -64t113 -23.5q66 0 124 25.5t101 68.5l59 -59q-53 -55 -126 -87t-158 -32q-79 0 -147 30t-117.5 81.5t-78 120t-28.5 145.5t28 145.5t77.5 120.5t117.5 82t147 30q82 0 151 -31.5
t120 -84.5l-62 -57q-40 41 -93.5 65.5t-115.5 24.5q-61 0 -112.5 -24t-89 -65t-58.5 -94t-21 -112z" />
    <glyph glyph-name="ccaron" unicode="&#x10d;" horiz-adv-x="547" 
d="M257 575l-128 180h69l100 -107l101 107h68l-128 -180h-82zM57 243q0 52 17 98t49 80.5t77 54.5t100 20q62 0 112.5 -26t86.5 -74l-64 -47q-25 31 -59 49.5t-76 18.5q-37 0 -66.5 -13.5t-50 -37.5t-31.5 -55.5t-11 -67.5t11.5 -67.5t33 -55.5t52 -37.5t67.5 -13.5
q42 0 73.5 13.5t59.5 39.5l55 -55q-34 -35 -82 -56t-106 -21q-54 0 -99.5 20t-78.5 54.5t-51.5 80.5t-18.5 98z" />
    <glyph glyph-name="Dcaron" unicode="&#x10e;" horiz-adv-x="779" 
d="M398 820h-120l-110 152h76l94 -93l94 93h76zM97 735h241q88 0 158 -28t119 -77t75 -116.5t26 -146.5t-26 -146.5t-75 -116.5t-119.5 -76.5t-158.5 -27.5h-240v735zM626 367q0 63 -20 115.5t-57.5 91t-90.5 60t-120 21.5h-154v-575h153q68 0 121.5 21t91 59.5t57 91
t19.5 115.5z" />
    <glyph glyph-name="dcaron" unicode="&#x10f;" horiz-adv-x="687" 
d="M57 243q0 53 17.5 99t49.5 80t76.5 54t98.5 20q49 0 91.5 -20t68.5 -56v335h82v-755h-51l-20 83q-24 -38 -70 -65.5t-109 -27.5q-51 0 -93.5 20t-74 54t-49 80.5t-17.5 98.5zM717 755l-47 -180h-54l23 180h78zM141 243q0 -38 12 -70t33 -55.5t50 -36.5t63 -13
q35 0 64.5 12.5t50.5 35t33 54t12 69.5v8q0 37 -12 68.5t-33.5 54t-50.5 35.5t-64 13q-34 0 -63 -13t-50 -36.5t-33 -55.5t-12 -70z" />
    <glyph glyph-name="Dcroat" unicode="&#x110;" horiz-adv-x="780" 
d="M8 420h90v315h241q88 0 158 -28t119 -77t75 -116.5t26 -146.5t-26 -146.5t-75 -116.5t-119.5 -76.5t-158.5 -27.5h-240v340h-90v80zM627 367q0 63 -20 115.5t-57.5 91t-90.5 60t-120 21.5h-154v-235h155v-80h-155v-260h153q68 0 121.5 21t91 59.5t57 91t19.5 115.5z" />
    <glyph glyph-name="dcroat" unicode="&#x111;" horiz-adv-x="629" 
d="M301 660h158v95h82v-95h83v-70h-83v-590h-51l-20 83q-24 -38 -70 -65.5t-109 -27.5q-51 0 -93.5 20t-74 54t-49 80.5t-17.5 98.5q0 53 17.5 99t49.5 80t76.5 54t98.5 20q49 0 91.5 -20t68.5 -56v170h-158v70zM141 243q0 -38 12 -70t33 -55.5t50 -36.5t63 -13
q35 0 64.5 12.5t50.5 35t33 54t12 69.5v8q0 37 -12 68.5t-33.5 54t-50.5 35.5t-64 13q-34 0 -63 -13t-50 -36.5t-33 -55.5t-12 -70z" />
    <glyph glyph-name="Emacron" unicode="&#x112;" horiz-adv-x="657" 
d="M132 932h412v-72h-412v72zM97 735h477v-80h-390v-235h340v-80h-340v-260h405v-80h-492v735z" />
    <glyph glyph-name="emacron" unicode="&#x113;" horiz-adv-x="593" 
d="M104 697h381v-67h-381v67zM308 63q40 0 76 15t63 52l69 -36q-37 -52 -90.5 -78t-117.5 -26q-57 0 -103.5 19t-79 53t-50.5 80t-18 101q0 52 16 98t47 80.5t75 54.5t99 20q54 0 97 -19.5t73 -53t46 -77t16 -91.5q0 -14 -0.5 -24.5t-1.5 -15.5h-381q5 -66 48 -109t117 -43z
M295 423q-32 0 -58.5 -11t-46 -29.5t-31 -44t-14.5 -55.5h296v1q-1 29 -13 54.5t-31.5 44t-45.5 29.5t-56 11z" />
    <glyph glyph-name="Ebreve" unicode="&#x114;" horiz-adv-x="657" 
d="M251 972q0 -35 24.5 -59t62.5 -24t62.5 24t24.5 59h75q0 -34 -12.5 -63t-34.5 -50t-51.5 -32.5t-63.5 -11.5t-63.5 11.5t-51.5 32.5t-34.5 50t-12.5 63h75zM97 735h477v-80h-390v-235h340v-80h-340v-260h405v-80h-492v735z" />
    <glyph glyph-name="ebreve" unicode="&#x115;" horiz-adv-x="593" 
d="M199 753q0 -48 25 -78t70 -30t70 30t25 78h74q0 -38 -13 -70.5t-35.5 -56t-53.5 -36.5t-67 -13t-66.5 13t-53 36.5t-35.5 56t-13 70.5h73zM308 63q40 0 76 15t63 52l69 -36q-37 -52 -90.5 -78t-117.5 -26q-57 0 -103.5 19t-79 53t-50.5 80t-18 101q0 52 16 98t47 80.5
t75 54.5t99 20q54 0 97 -19.5t73 -53t46 -77t16 -91.5q0 -14 -0.5 -24.5t-1.5 -15.5h-381q5 -66 48 -109t117 -43zM295 423q-32 0 -58.5 -11t-46 -29.5t-31 -44t-14.5 -55.5h296v1q-1 29 -13 54.5t-31.5 44t-45.5 29.5t-56 11z" />
    <glyph glyph-name="Edotaccent" unicode="&#x116;" horiz-adv-x="657" 
d="M273 901q0 26 17.5 44.5t43.5 18.5t44.5 -18.5t18.5 -44.5t-18.5 -43.5t-44.5 -17.5t-43.5 17.5t-17.5 43.5zM97 735h477v-80h-390v-235h340v-80h-340v-260h405v-80h-492v735z" />
    <glyph glyph-name="edotaccent" unicode="&#x117;" horiz-adv-x="593" 
d="M234 652q0 26 17.5 43.5t42.5 17.5t43 -17.5t18 -43.5q0 -24 -18 -42t-43 -18t-42.5 18t-17.5 42zM308 63q40 0 76 15t63 52l69 -36q-37 -52 -90.5 -78t-117.5 -26q-57 0 -103.5 19t-79 53t-50.5 80t-18 101q0 52 16 98t47 80.5t75 54.5t99 20q54 0 97 -19.5t73 -53
t46 -77t16 -91.5q0 -14 -0.5 -24.5t-1.5 -15.5h-381q5 -66 48 -109t117 -43zM295 423q-32 0 -58.5 -11t-46 -29.5t-31 -44t-14.5 -55.5h296v1q-1 29 -13 54.5t-31.5 44t-45.5 29.5t-56 11z" />
    <glyph glyph-name="Eogonek" unicode="&#x118;" horiz-adv-x="657" 
d="M97 735h477v-80h-390v-235h340v-80h-340v-260h405v-80q-49 -22 -77.5 -52t-28.5 -64q0 -23 14.5 -37.5t39.5 -14.5q7 0 16 1t15 3l21 -74q-13 -5 -27.5 -8.5t-33.5 -3.5q-25 0 -48 9t-40 25t-27.5 38t-10.5 49q0 38 19.5 71t51.5 58h-376v735z" />
    <glyph glyph-name="eogonek" unicode="&#x119;" horiz-adv-x="593" 
d="M308 63q40 0 76 15t63 52l69 -36q-60 -69 -85.5 -116.5t-25.5 -87.5q0 -30 15 -45t41 -15q7 0 13.5 1t13.5 3l21 -71q-12 -5 -26.5 -9t-32.5 -4q-25 0 -47 9t-39 25t-27 39t-10 52q0 37 14 67.5t32 56.5q-30 -9 -65 -9q-57 0 -103.5 19t-79 53t-50.5 80t-18 101
q0 52 16 98t47 80.5t75 54.5t99 20q50 0 92 -18t73.5 -50t49 -76t17.5 -96q0 -14 -0.5 -25t-1.5 -16h-381q5 -66 48 -109t117 -43zM295 423q-32 0 -58.5 -11t-46 -29.5t-31 -44t-14.5 -55.5h296v2q0 25 -11 50t-30.5 44.5t-46 31.5t-58.5 12z" />
    <glyph glyph-name="Ecaron" unicode="&#x11a;" horiz-adv-x="657" 
d="M397 820h-120l-110 152h76l94 -93l94 93h76zM97 735h477v-80h-390v-235h340v-80h-340v-260h405v-80h-492v735z" />
    <glyph glyph-name="ecaron" unicode="&#x11b;" horiz-adv-x="593" 
d="M251 575l-128 180h69l100 -107l101 107h68l-128 -180h-82zM308 63q40 0 76 15t63 52l69 -36q-37 -52 -90.5 -78t-117.5 -26q-57 0 -103.5 19t-79 53t-50.5 80t-18 101q0 52 16 98t47 80.5t75 54.5t99 20q54 0 97 -19.5t73 -53t46 -77t16 -91.5q0 -14 -0.5 -24.5
t-1.5 -15.5h-381q5 -66 48 -109t117 -43zM295 423q-32 0 -58.5 -11t-46 -29.5t-31 -44t-14.5 -55.5h296v1q-1 29 -13 54.5t-31.5 44t-45.5 29.5t-56 11z" />
    <glyph glyph-name="Gcircumflex" unicode="&#x11c;" horiz-adv-x="815" 
d="M496 972l110 -152h-76l-95 93l-93 -93h-76l110 152h120zM396 396h341v-273q-115 -133 -299 -133q-81 0 -149.5 29.5t-119 81t-79 120t-28.5 146.5q0 79 28.5 148t79 120t119 80.5t148.5 29.5q81 0 152 -31t122 -85l-62 -57q-38 41 -94 65.5t-118 24.5q-63 0 -116 -24
t-90.5 -65t-58.5 -94t-21 -112q0 -60 21 -113.5t59.5 -93t91 -63t115.5 -23.5t119.5 21t92.5 60v161h-254v80z" />
    <glyph glyph-name="gcircumflex" unicode="&#x11d;" horiz-adv-x="629" 
d="M260 755h82l128 -180h-68l-101 106l-100 -106h-69zM296 -251q-70 0 -125.5 32t-86.5 85l67 38q21 -35 60.5 -56t84.5 -21q76 0 119.5 41t43.5 115v98q-26 -42 -69.5 -66.5t-94.5 -24.5q-52 0 -96 20t-75.5 54t-49 80.5t-17.5 98.5t16.5 98t48 80.5t76.5 54.5t102 20
q29 0 55 -7.5t48.5 -19.5t40.5 -28t30 -33l30 81h38v-505q0 -55 -18 -98.5t-50 -74t-77.5 -46.5t-100.5 -16zM141 243q0 -36 11 -68t32 -56t50.5 -37.5t66.5 -13.5q35 0 64 14t50 37.5t32.5 55.5t11.5 68v8q-1 35 -13 65.5t-33 53t-49.5 35.5t-63.5 13q-37 0 -66.5 -14
t-50 -37.5t-31.5 -55.5t-11 -68z" />
    <glyph glyph-name="Gbreve" unicode="&#x11e;" horiz-adv-x="815" 
d="M348 972q0 -35 24.5 -59t62.5 -24t62.5 24t24.5 59h75q0 -34 -12.5 -63t-34.5 -50t-51.5 -32.5t-63.5 -11.5t-63.5 11.5t-51.5 32.5t-34.5 50t-12.5 63h75zM396 396h341v-273q-115 -133 -299 -133q-81 0 -149.5 29.5t-119 81t-79 120t-28.5 146.5q0 79 28.5 148t79 120
t119 80.5t148.5 29.5q81 0 152 -31t122 -85l-62 -57q-38 41 -94 65.5t-118 24.5q-63 0 -116 -24t-90.5 -65t-58.5 -94t-21 -112q0 -60 21 -113.5t59.5 -93t91 -63t115.5 -23.5t119.5 21t92.5 60v161h-254v80z" />
    <glyph glyph-name="gbreve" unicode="&#x11f;" horiz-adv-x="629" 
d="M205 753q0 -48 25 -78t70 -30t70 30t25 78h74q0 -38 -13 -70.5t-35.5 -56t-53.5 -36.5t-67 -13t-66.5 13t-53 36.5t-35.5 56t-13 70.5h73zM296 -251q-70 0 -125.5 32t-86.5 85l67 38q21 -35 60.5 -56t84.5 -21q76 0 119.5 41t43.5 115v98q-26 -42 -69.5 -66.5
t-94.5 -24.5q-52 0 -96 20t-75.5 54t-49 80.5t-17.5 98.5t16.5 98t48 80.5t76.5 54.5t102 20q29 0 55 -7.5t48.5 -19.5t40.5 -28t30 -33l30 81h38v-505q0 -55 -18 -98.5t-50 -74t-77.5 -46.5t-100.5 -16zM141 243q0 -36 11 -68t32 -56t50.5 -37.5t66.5 -13.5q35 0 64 14
t50 37.5t32.5 55.5t11.5 68v8q-1 35 -13 65.5t-33 53t-49.5 35.5t-63.5 13q-37 0 -66.5 -14t-50 -37.5t-31.5 -55.5t-11 -68z" />
    <glyph glyph-name="Gdotaccent" unicode="&#x120;" horiz-adv-x="815" 
d="M371 901q0 26 17.5 44.5t43.5 18.5t44.5 -18.5t18.5 -44.5t-18.5 -43.5t-44.5 -17.5t-43.5 17.5t-17.5 43.5zM396 396h341v-273q-115 -133 -299 -133q-81 0 -149.5 29.5t-119 81t-79 120t-28.5 146.5q0 79 28.5 148t79 120t119 80.5t148.5 29.5q81 0 152 -31t122 -85
l-62 -57q-38 41 -94 65.5t-118 24.5q-63 0 -116 -24t-90.5 -65t-58.5 -94t-21 -112q0 -60 21 -113.5t59.5 -93t91 -63t115.5 -23.5t119.5 21t92.5 60v161h-254v80z" />
    <glyph glyph-name="gdotaccent" unicode="&#x121;" horiz-adv-x="629" 
d="M258 652q0 26 17.5 43.5t42.5 17.5t43 -17.5t18 -43.5q0 -24 -18 -42t-43 -18t-42.5 18t-17.5 42zM296 -251q-70 0 -125.5 32t-86.5 85l67 38q21 -35 60.5 -56t84.5 -21q76 0 119.5 41t43.5 115v98q-26 -42 -69.5 -66.5t-94.5 -24.5q-52 0 -96 20t-75.5 54t-49 80.5
t-17.5 98.5t16.5 98t48 80.5t76.5 54.5t102 20q29 0 55 -7.5t48.5 -19.5t40.5 -28t30 -33l30 81h38v-505q0 -55 -18 -98.5t-50 -74t-77.5 -46.5t-100.5 -16zM141 243q0 -36 11 -68t32 -56t50.5 -37.5t66.5 -13.5q35 0 64 14t50 37.5t32.5 55.5t11.5 68v8q-1 35 -13 65.5
t-33 53t-49.5 35.5t-63.5 13q-37 0 -66.5 -14t-50 -37.5t-31.5 -55.5t-11 -68z" />
    <glyph glyph-name="uni0122" unicode="&#x122;" horiz-adv-x="815" 
d="M396 396h341v-273q-115 -133 -299 -133q-81 0 -149.5 29.5t-119 81t-79 120t-28.5 146.5q0 79 28.5 148t79 120t119 80.5t148.5 29.5q81 0 152 -31t122 -85l-62 -57q-38 41 -94 65.5t-118 24.5q-63 0 -116 -24t-90.5 -65t-58.5 -94t-21 -112q0 -60 21 -113.5t59.5 -93
t91 -63t115.5 -23.5t119.5 21t92.5 60v161h-254v80zM487 -85l-73 -152h-69l43 152h99z" />
    <glyph glyph-name="uni0123" unicode="&#x123;" horiz-adv-x="629" 
d="M250 575l78 187h61l-38 -187h-101zM296 -251q-70 0 -125.5 32t-86.5 85l67 38q21 -35 60.5 -56t84.5 -21q76 0 119.5 41t43.5 115v98q-26 -42 -69.5 -66.5t-94.5 -24.5q-52 0 -96 20t-75.5 54t-49 80.5t-17.5 98.5t16.5 98t48 80.5t76.5 54.5t102 20q29 0 55 -7.5
t48.5 -19.5t40.5 -28t30 -33l30 81h38v-505q0 -55 -18 -98.5t-50 -74t-77.5 -46.5t-100.5 -16zM141 243q0 -36 11 -68t32 -56t50.5 -37.5t66.5 -13.5q35 0 64 14t50 37.5t32.5 55.5t11.5 68v8q-1 35 -13 65.5t-33 53t-49.5 35.5t-63.5 13q-37 0 -66.5 -14t-50 -37.5
t-31.5 -55.5t-11 -68z" />
    <glyph glyph-name="Hcircumflex" unicode="&#x124;" horiz-adv-x="764" 
d="M340 1002h82l128 -180h-68l-101 106l-100 -106h-69zM666 0h-86v340h-396v-340h-87v735h87v-315h396v315h86v-735z" />
    <glyph glyph-name="hcircumflex" unicode="&#x125;" horiz-adv-x="602" 
d="M87 1002h82l128 -180h-68l-101 106l-100 -106h-69zM170 0h-83v755h83v-327q28 32 67.5 50t82.5 18q44 0 81 -15t65 -42.5t43.5 -67t15.5 -89.5v-282h-82v275q0 62 -31.5 102.5t-96.5 40.5q-46 0 -86 -26.5t-59 -67.5v-324z" />
    <glyph glyph-name="Hbar" unicode="&#x126;" horiz-adv-x="764" 
d="M666 617h70v-76h-70v-541h-86v340h-396v-340h-87v541h-70v76h70v118h87v-118h396v118h86v-118zM580 420v121h-396v-121h396z" />
    <glyph glyph-name="hbar" unicode="&#x127;" horiz-adv-x="602" 
d="M7 660h80v95h83v-95h160v-70h-160v-162q28 32 67.5 50t82.5 18q44 0 81 -15t65 -42.5t43.5 -67t15.5 -89.5v-282h-82v275q0 62 -31.5 102.5t-96.5 40.5q-46 0 -86 -26.5t-59 -67.5v-324h-83v590h-80v70z" />
    <glyph glyph-name="Itilde" unicode="&#x128;" horiz-adv-x="282" 
d="M-72 854q12 49 45.5 76t82.5 27q25 0 47.5 -8t43 -18t40.5 -18t39 -8q23 0 41.5 15t21.5 38l66 -19q-10 -43 -42.5 -74t-85.5 -31q-24 0 -47 8t-44.5 18t-41.5 18t-38 8q-26 0 -41.5 -14t-20.5 -37zM184 0h-87v735h87v-735z" />
    <glyph glyph-name="itilde" unicode="&#x129;" horiz-adv-x="257" 
d="M-66 621q11 49 42 77t77 28q22 0 42 -8t38.5 -18t36 -18t34.5 -8q23 0 36 15.5t17 35.5l66 -17q-4 -21 -13.5 -40t-24.5 -33.5t-35 -23t-45 -8.5q-21 0 -42 8t-40 17.5t-37 17.5t-33 8q-41 0 -53 -51zM170 0h-83v486h83v-486z" />
    <glyph glyph-name="Imacron" unicode="&#x12a;" horiz-adv-x="282" 
d="M-66 932h412v-72h-412v72zM184 0h-87v735h87v-735z" />
    <glyph glyph-name="imacron" unicode="&#x12b;" horiz-adv-x="257" 
d="M-62 697h381v-67h-381v67zM170 0h-83v486h83v-486z" />
    <glyph glyph-name="Ibreve" unicode="&#x12c;" horiz-adv-x="282" 
d="M53 972q0 -35 24.5 -59t62.5 -24t62.5 24t24.5 59h75q0 -34 -12.5 -63t-34.5 -50t-51.5 -32.5t-63.5 -11.5t-63.5 11.5t-51.5 32.5t-34.5 50t-12.5 63h75zM184 0h-87v735h87v-735z" />
    <glyph glyph-name="ibreve" unicode="&#x12d;" horiz-adv-x="257" 
d="M33 753q0 -48 25 -78t70 -30t70 30t25 78h74q0 -38 -13 -70.5t-35.5 -56t-53.5 -36.5t-67 -13t-66.5 13t-53.5 36.5t-35.5 56t-12.5 70.5h73zM170 0h-83v486h83v-486z" />
    <glyph glyph-name="Iogonek" unicode="&#x12e;" horiz-adv-x="282" 
d="M77 -116q0 -23 14.5 -37.5t40.5 -14.5q7 0 16 1t15 3l21 -74q-13 -5 -27.5 -8.5t-33.5 -3.5q-23 0 -45.5 7t-40.5 22t-29.5 38t-11.5 54q0 38 24 77.5t77 71.5v715h87v-735q-48 -21 -77.5 -51t-29.5 -65z" />
    <glyph glyph-name="iogonek" unicode="&#x12f;" horiz-adv-x="257" 
d="M69 652q0 26 17.5 43.5t42.5 17.5t42.5 -17.5t17.5 -43.5q0 -24 -17.5 -42t-42.5 -18t-42.5 18t-17.5 42zM170 0q-46 -21 -74.5 -51.5t-28.5 -64.5q0 -23 13.5 -38.5t39.5 -15.5q8 0 15 1t12 3l21 -71q-11 -5 -27 -9t-35 -4q-25 0 -46 8.5t-37 24.5t-25 38t-9 49
q0 48 29 85t69 61v470h83v-486z" />
    <glyph glyph-name="Idotaccent" unicode="&#x130;" horiz-adv-x="282" 
d="M78 901q0 26 17.5 44.5t43.5 18.5t44.5 -18.5t18.5 -44.5t-18.5 -43.5t-44.5 -17.5t-43.5 17.5t-17.5 43.5zM184 0h-87v735h87v-735z" />
    <glyph glyph-name="dotlessi" unicode="&#x131;" horiz-adv-x="257" 
d="M170 0h-83v486h83v-486z" />
    <glyph glyph-name="IJ" unicode="&#x132;" horiz-adv-x="804" 
d="M184 0h-87v735h87v-735zM717 250q0 -60 -17 -108.5t-48.5 -82t-76.5 -52t-101 -18.5q-63 0 -116.5 28.5t-89.5 83.5l68 51q20 -34 55.5 -55.5t82.5 -21.5q75 0 115.5 44.5t40.5 130.5v485h87v-485z" />
    <glyph glyph-name="ij" unicode="&#x133;" horiz-adv-x="514" 
d="M69 652q0 26 17.5 43.5t42.5 17.5t42.5 -17.5t17.5 -43.5q0 -24 -17.5 -42t-42.5 -18t-42.5 18t-17.5 42zM325 652q0 26 17.5 43.5t42.5 17.5q26 0 43.5 -17.5t17.5 -43.5q0 -24 -17.5 -42t-43.5 -18q-25 0 -42.5 18t-17.5 42zM170 0h-83v486h83v-486zM344 486h82v-540
q0 -90 -49.5 -143t-134.5 -53q-11 0 -22.5 1t-23.5 4l5 70h41q45 0 73.5 29t28.5 92v540z" />
    <glyph glyph-name="Jcircumflex" unicode="&#x134;" horiz-adv-x="564" 
d="M495 972l110 -152h-76l-95 93l-93 -93h-76l110 152h120zM477 250q0 -60 -17 -108.5t-48.5 -82t-76.5 -52t-101 -18.5q-63 0 -116.5 28.5t-89.5 83.5l68 51q20 -34 55.5 -55.5t82.5 -21.5q75 0 115.5 44.5t40.5 130.5v485h87v-485z" />
    <glyph glyph-name="jcircumflex" unicode="&#x135;" horiz-adv-x="283" 
d="M112 755h82l128 -180h-68l-101 106l-100 -106h-69zM113 486h82v-540q0 -90 -49.5 -143t-134.5 -53q-11 0 -22.5 1t-23.5 4q2 17 3 34.5t2 35.5h41q45 0 73.5 29t28.5 92v540z" />
    <glyph glyph-name="uni0136" unicode="&#x136;" horiz-adv-x="688" 
d="M312 375l339 -375h-115l-292 329h-60v-329h-87v735h87v-326h48l282 326h113zM393 -85l-73 -152h-69l43 152h99z" />
    <glyph glyph-name="uni0137" unicode="&#x137;" horiz-adv-x="558" 
d="M285 249l245 -249h-110l-205 209h-45v-209h-83v755h83v-473h42l189 204h106zM315 -85l-74 -160h-61l44 160h91z" />
    <glyph glyph-name="kgreenlandic" unicode="&#x138;" horiz-adv-x="532" 
d="M281 247l223 -247h-103l-189 208h-42v-208h-83v486h83v-204h39l175 204h98z" />
    <glyph glyph-name="Lacute" unicode="&#x139;" horiz-adv-x="597" 
d="M183 972h104l-109 -152h-74zM97 735h87v-655h375v-80h-462v735z" />
    <glyph glyph-name="lacute" unicode="&#x13a;" horiz-adv-x="257" 
d="M173 972h104l-109 -152h-74zM170 0h-83v755h83v-755z" />
    <glyph glyph-name="uni013B" unicode="&#x13b;" horiz-adv-x="597" 
d="M97 735h87v-655h375v-80h-462v735zM372 -85l-73 -152h-69l43 152h99z" />
    <glyph glyph-name="uni013C" unicode="&#x13c;" horiz-adv-x="257" 
d="M170 0h-83v755h83v-755zM170 -85l-74 -160h-61l44 160h91z" />
    <glyph glyph-name="Lcaron" unicode="&#x13d;" horiz-adv-x="597" 
d="M97 735h87v-655h375v-80h-462v735zM365 735l-47 -180h-54l23 180h78z" />
    <glyph glyph-name="lcaron" unicode="&#x13e;" horiz-adv-x="315" 
d="M170 0h-83v755h83v-755zM345 755l-47 -180h-54l23 180h78z" />
    <glyph glyph-name="Ldot" unicode="&#x13f;" horiz-adv-x="597" 
d="M97 735h87v-655h375v-80h-462v735zM293 342q0 27 18.5 45.5t44.5 18.5q27 0 45.5 -18.5t18.5 -45.5q0 -26 -18.5 -44.5t-45.5 -18.5q-26 0 -44.5 18.5t-18.5 44.5z" />
    <glyph glyph-name="ldot" unicode="&#x140;" horiz-adv-x="400" 
d="M170 0h-83v755h83v-755zM232 267q0 26 17.5 43.5t42.5 17.5t43 -17.5t18 -43.5q0 -24 -18 -42t-43 -18t-42.5 18t-17.5 42z" />
    <glyph glyph-name="Lslash" unicode="&#x141;" horiz-adv-x="597" 
d="M6 299l91 52v384h87v-333l156 90v-87l-156 -91v-234h375v-80h-462v264l-91 -53v88z" />
    <glyph glyph-name="lslash" unicode="&#x142;" horiz-adv-x="257" 
d="M170 429l112 65v-80l-112 -65v-349h-83v301l-71 -41v79l71 41v375h83v-326z" />
    <glyph glyph-name="Nacute" unicode="&#x143;" horiz-adv-x="792" 
d="M436 972h104l-109 -152h-74zM695 0h-78l-433 583v-583h-87v735h78l433 -584v584h87v-735z" />
    <glyph glyph-name="nacute" unicode="&#x144;" horiz-adv-x="602" 
d="M332 755h98l-105 -180h-68zM170 0h-83v490h38l33 -75q26 36 68 58.5t90 22.5q44 0 82 -14.5t66.5 -42.5t44.5 -67.5t16 -90.5v-281h-82v274q0 63 -32.5 103.5t-98.5 40.5q-47 0 -85 -26.5t-57 -67.5v-324z" />
    <glyph glyph-name="uni0145" unicode="&#x145;" horiz-adv-x="792" 
d="M695 0h-78l-433 583v-583h-87v735h78l433 -584v584h87v-735zM446 -85l-73 -152h-69l43 152h99z" />
    <glyph glyph-name="uni0146" unicode="&#x146;" horiz-adv-x="602" 
d="M170 0h-83v490h38l33 -75q26 36 68 58.5t90 22.5q44 0 82 -14.5t66.5 -42.5t44.5 -67.5t16 -90.5v-281h-82v274q0 63 -32.5 103.5t-98.5 40.5q-47 0 -85 -26.5t-57 -67.5v-324zM349 -85l-74 -160h-61l44 160h91z" />
    <glyph glyph-name="Ncaron" unicode="&#x147;" horiz-adv-x="792" 
d="M456 820h-120l-110 152h76l94 -93l94 93h76zM695 0h-78l-433 583v-583h-87v735h78l433 -584v584h87v-735z" />
    <glyph glyph-name="ncaron" unicode="&#x148;" horiz-adv-x="602" 
d="M273 575l-128 180h69l100 -107l101 107h68l-128 -180h-82zM170 0h-83v490h38l33 -75q26 36 68 58.5t90 22.5q44 0 82 -14.5t66.5 -42.5t44.5 -67.5t16 -90.5v-281h-82v274q0 63 -32.5 103.5t-98.5 40.5q-47 0 -85 -26.5t-57 -67.5v-324z" />
    <glyph glyph-name="napostrophe" unicode="&#x149;" horiz-adv-x="602" 
d="M188 755l-47 -180h-54l23 180h78zM170 0h-83v490h38l33 -75q26 36 68 58.5t90 22.5q44 0 82 -14.5t66.5 -42.5t44.5 -67.5t16 -90.5v-281h-82v274q0 63 -32.5 103.5t-98.5 40.5q-47 0 -85 -26.5t-57 -67.5v-324z" />
    <glyph glyph-name="Eng" unicode="&#x14a;" horiz-adv-x="792" 
d="M695 -7q0 -57 -16 -101.5t-45.5 -75t-71 -46.5t-92.5 -16q-41 0 -78 12.5t-63 29.5l42 74q17 -11 43.5 -20.5t52.5 -9.5q137 0 141 154v18l-424 571v-583h-87v735h78l433 -584v584h87v-742z" />
    <glyph glyph-name="eng" unicode="&#x14b;" horiz-adv-x="602" 
d="M443 274q0 63 -32.5 103.5t-98.5 40.5q-47 0 -85 -26.5t-57 -67.5v-324h-83v490h38l33 -75q26 36 68 58.5t90 22.5q44 0 82 -14.5t66.5 -42.5t44.5 -67.5t16 -90.5v-335q0 -45 -13 -81t-37 -61.5t-58.5 -39.5t-76.5 -14q-11 0 -22 1t-23 4l5 70h40q45 0 74 29t29 92v328z
" />
    <glyph glyph-name="Omacron" unicode="&#x14c;" horiz-adv-x="865" 
d="M227 932h412v-72h-412v72zM62 367q0 77 28 145.5t77.5 120.5t117.5 82t147 30t147 -30t117.5 -82t77.5 -120.5t28 -145.5t-28 -145.5t-77.5 -120t-117.5 -81.5t-147 -30t-147 30t-117.5 81.5t-77.5 120t-28 145.5zM151 367q0 -59 21 -112t58.5 -93.5t89 -64t112.5 -23.5
t112.5 23.5t89 64t59 93.5t21.5 112t-21.5 112t-59 94t-89 65t-112.5 24t-112.5 -24t-89 -65t-58.5 -94t-21 -112z" />
    <glyph glyph-name="omacron" unicode="&#x14d;" horiz-adv-x="603" 
d="M110 697h381v-67h-381v67zM57 243q0 52 17.5 98t49 80.5t77 54.5t100.5 20q54 0 99 -20t77.5 -54.5t50 -80.5t17.5 -98t-17.5 -98t-50 -80.5t-77.5 -54.5t-99 -20t-99 20t-77 54.5t-50 80.5t-18 98zM142 243q0 -36 11 -67.5t32 -55.5t50.5 -37.5t65.5 -13.5t65.5 13.5
t50.5 37.5t32.5 55.5t11.5 67.5t-11.5 67.5t-32.5 55.5t-50.5 37.5t-65.5 13.5t-65.5 -13.5t-50.5 -37.5t-32 -55.5t-11 -67.5z" />
    <glyph glyph-name="Obreve" unicode="&#x14e;" horiz-adv-x="865" 
d="M345 972q0 -35 24.5 -59t62.5 -24t62.5 24t24.5 59h75q0 -34 -12.5 -63t-34.5 -50t-51.5 -32.5t-63.5 -11.5t-63.5 11.5t-51.5 32.5t-34.5 50t-12.5 63h75zM62 367q0 77 28 145.5t77.5 120.5t117.5 82t147 30t147 -30t117.5 -82t77.5 -120.5t28 -145.5t-28 -145.5
t-77.5 -120t-117.5 -81.5t-147 -30t-147 30t-117.5 81.5t-77.5 120t-28 145.5zM151 367q0 -59 21 -112t58.5 -93.5t89 -64t112.5 -23.5t112.5 23.5t89 64t59 93.5t21.5 112t-21.5 112t-59 94t-89 65t-112.5 24t-112.5 -24t-89 -65t-58.5 -94t-21 -112z" />
    <glyph glyph-name="obreve" unicode="&#x14f;" horiz-adv-x="603" 
d="M205 753q0 -48 25 -78t70 -30t70 30t25 78h74q0 -38 -13 -70.5t-35.5 -56t-53.5 -36.5t-67 -13t-66.5 13t-53 36.5t-35.5 56t-13 70.5h73zM57 243q0 52 17.5 98t49 80.5t77 54.5t100.5 20q54 0 99 -20t77.5 -54.5t50 -80.5t17.5 -98t-17.5 -98t-50 -80.5t-77.5 -54.5
t-99 -20t-99 20t-77 54.5t-50 80.5t-18 98zM142 243q0 -36 11 -67.5t32 -55.5t50.5 -37.5t65.5 -13.5t65.5 13.5t50.5 37.5t32.5 55.5t11.5 67.5t-11.5 67.5t-32.5 55.5t-50.5 37.5t-65.5 13.5t-65.5 -13.5t-50.5 -37.5t-32 -55.5t-11 -67.5z" />
    <glyph glyph-name="Ohungarumlaut" unicode="&#x150;" horiz-adv-x="865" 
d="M560 972h103l-103 -152h-74zM365 972h103l-103 -152h-74zM62 367q0 77 28 145.5t77.5 120.5t117.5 82t147 30t147 -30t117.5 -82t77.5 -120.5t28 -145.5t-28 -145.5t-77.5 -120t-117.5 -81.5t-147 -30t-147 30t-117.5 81.5t-77.5 120t-28 145.5zM151 367q0 -59 21 -112
t58.5 -93.5t89 -64t112.5 -23.5t112.5 23.5t89 64t59 93.5t21.5 112t-21.5 112t-59 94t-89 65t-112.5 24t-112.5 -24t-89 -65t-58.5 -94t-21 -112z" />
    <glyph glyph-name="ohungarumlaut" unicode="&#x151;" horiz-adv-x="603" 
d="M428 755h98l-114 -180h-68zM238 755h98l-114 -180h-68zM57 243q0 52 17.5 98t49 80.5t77 54.5t100.5 20q54 0 99 -20t77.5 -54.5t50 -80.5t17.5 -98t-17.5 -98t-50 -80.5t-77.5 -54.5t-99 -20t-99 20t-77 54.5t-50 80.5t-18 98zM142 243q0 -36 11 -67.5t32 -55.5
t50.5 -37.5t65.5 -13.5t65.5 13.5t50.5 37.5t32.5 55.5t11.5 67.5t-11.5 67.5t-32.5 55.5t-50.5 37.5t-65.5 13.5t-65.5 -13.5t-50.5 -37.5t-32 -55.5t-11 -67.5z" />
    <glyph glyph-name="OE" unicode="&#x152;" horiz-adv-x="1221" 
d="M62 367q0 77 28 145.5t77.5 120.5t117.5 82t147 30q65 0 126.5 -25.5t107.5 -71.5v87h473v-80h-386v-235h336v-80h-336v-260h401v-80h-488v86q-48 -46 -109.5 -71t-124.5 -25q-79 0 -147 30t-117.5 81.5t-77.5 120t-28 145.5zM151 367q0 -59 21 -112t58.5 -93.5t89 -64
t112.5 -23.5q77 0 138 37t96 97v318q-35 60 -96 98t-138 38q-61 0 -112.5 -24t-89 -65t-58.5 -94t-21 -112z" />
    <glyph glyph-name="oe" unicode="&#x153;" horiz-adv-x="991" 
d="M57 243q0 52 17.5 98t49 80.5t77 54.5t100.5 20q66 0 116.5 -33t79.5 -86q26 51 74.5 85t121.5 34q54 0 96.5 -19.5t72.5 -53t46 -77t16 -91.5q0 -14 -0.5 -24.5t-1.5 -15.5h-380q3 -32 15 -60t33 -48.5t50.5 -32t66.5 -11.5q38 0 74.5 15t63.5 52l70 -36
q-37 -53 -91 -78.5t-117 -25.5q-77 0 -129.5 33.5t-80.5 87.5q-28 -54 -79 -87.5t-117 -33.5q-54 0 -99 20t-77 54.5t-50 80.5t-18 98zM694 423q-32 0 -58.5 -11t-46 -30t-31 -44.5t-13.5 -54.5h294v1q-2 29 -13.5 54.5t-31 44.5t-45 29.5t-55.5 10.5zM142 243
q0 -36 11 -67.5t32 -55.5t50.5 -37.5t65.5 -13.5t65.5 13.5t50 37.5t32 55.5t11.5 67.5t-11.5 67.5t-32 55.5t-50 37.5t-65.5 13.5t-65.5 -13.5t-50.5 -37.5t-32 -55.5t-11 -67.5z" />
    <glyph glyph-name="Racute" unicode="&#x154;" horiz-adv-x="684" 
d="M359 972h104l-109 -152h-74zM600 521q0 -82 -50.5 -139t-139.5 -72l222 -310h-105l-217 305h-126v-305h-87v735h258q56 0 101 -15.5t77 -43.5t49.5 -67.5t17.5 -87.5zM184 655v-269h175q78 2 115.5 39.5t37.5 95.5q0 63 -40.5 98.5t-119.5 35.5h-168z" />
    <glyph glyph-name="racute" unicode="&#x155;" horiz-adv-x="454" 
d="M279 755h98l-105 -180h-68zM170 0h-83v490h38l30 -78q21 38 60.5 61t87.5 23q75 0 135 -48l-43 -63q-23 17 -46 25t-49 8q-24 0 -46 -9t-39.5 -24.5t-29 -37t-15.5 -45.5v-302z" />
    <glyph glyph-name="uni0156" unicode="&#x156;" horiz-adv-x="684" 
d="M600 521q0 -82 -50.5 -139t-139.5 -72l222 -310h-105l-217 305h-126v-305h-87v735h258q56 0 101 -15.5t77 -43.5t49.5 -67.5t17.5 -87.5zM184 655v-269h175q78 2 115.5 39.5t37.5 95.5q0 63 -40.5 98.5t-119.5 35.5h-168zM403 -85l-73 -152h-69l43 152h99z" />
    <glyph glyph-name="uni0157" unicode="&#x157;" horiz-adv-x="454" 
d="M170 0h-83v490h38l30 -78q21 38 60.5 61t87.5 23q75 0 135 -48l-43 -63q-23 17 -46 25t-49 8q-24 0 -46 -9t-39.5 -24.5t-29 -37t-15.5 -45.5v-302zM165 -85l-74 -160h-61l44 160h91z" />
    <glyph glyph-name="Rcaron" unicode="&#x158;" horiz-adv-x="684" 
d="M380 820h-120l-110 152h76l94 -93l94 93h76zM600 521q0 -82 -50.5 -139t-139.5 -72l222 -310h-105l-217 305h-126v-305h-87v735h258q56 0 101 -15.5t77 -43.5t49.5 -67.5t17.5 -87.5zM184 655v-269h175q78 2 115.5 39.5t37.5 95.5q0 63 -40.5 98.5t-119.5 35.5h-168z" />
    <glyph glyph-name="rcaron" unicode="&#x159;" horiz-adv-x="454" 
d="M210 575l-128 180h69l100 -107l101 107h68l-128 -180h-82zM170 0h-83v490h38l30 -78q21 38 60.5 61t87.5 23q75 0 135 -48l-43 -63q-23 17 -46 25t-49 8q-24 0 -46 -9t-39.5 -24.5t-29 -37t-15.5 -45.5v-302z" />
    <glyph glyph-name="Sacute" unicode="&#x15a;" horiz-adv-x="626" 
d="M343 972h104l-109 -152h-74zM459 599q-31 29 -70.5 48t-87.5 19q-39 0 -66 -10t-44.5 -26t-25 -36t-7.5 -41q0 -41 30.5 -70t87.5 -44l97 -27q96 -26 145.5 -79.5t49.5 -130.5q0 -42 -17 -80t-50 -67.5t-82 -47t-112 -17.5q-35 0 -70.5 8.5t-68.5 24t-61.5 37t-49.5 46.5
l63 54q40 -44 87 -67t100 -23q44 0 76 11t53 29t31.5 42t10.5 50q0 45 -27.5 78t-97.5 54q-26 8 -50.5 15t-51.5 15q-89 25 -135.5 70.5t-46.5 119.5q0 37 16 71.5t46 61t73 42.5t97 16q57 0 114 -23t99 -65z" />
    <glyph glyph-name="sacute" unicode="&#x15b;" horiz-adv-x="467" 
d="M244 755h98l-105 -180h-68zM334 389q-22 17 -49 26.5t-58 9.5q-38 0 -59 -19.5t-21 -48.5q0 -21 15.5 -38t50.5 -25l53 -11q78 -17 110.5 -54.5t32.5 -88.5q0 -32 -13 -59.5t-36.5 -47.5t-56.5 -31.5t-72 -11.5q-51 0 -97 19.5t-77 54.5l49 52q23 -26 56.5 -40t68.5 -14
q49 0 72.5 24t23.5 55q0 26 -18 45t-59 27l-57 12q-26 6 -49.5 16.5t-41 26t-28 38t-10.5 52.5q0 26 10.5 51t31.5 44.5t51.5 31t69.5 11.5q87 0 152 -51z" />
    <glyph glyph-name="Scircumflex" unicode="&#x15c;" horiz-adv-x="626" 
d="M362 972l110 -152h-76l-95 93l-93 -93h-76l110 152h120zM459 599q-31 29 -70.5 48t-87.5 19q-39 0 -66 -10t-44.5 -26t-25 -36t-7.5 -41q0 -41 30.5 -70t87.5 -44l97 -27q96 -26 145.5 -79.5t49.5 -130.5q0 -42 -17 -80t-50 -67.5t-82 -47t-112 -17.5q-35 0 -70.5 8.5
t-68.5 24t-61.5 37t-49.5 46.5l63 54q40 -44 87 -67t100 -23q44 0 76 11t53 29t31.5 42t10.5 50q0 45 -27.5 78t-97.5 54q-26 8 -50.5 15t-51.5 15q-89 25 -135.5 70.5t-46.5 119.5q0 37 16 71.5t46 61t73 42.5t97 16q57 0 114 -23t99 -65z" />
    <glyph glyph-name="scircumflex" unicode="&#x15d;" horiz-adv-x="467" 
d="M189 755h82l128 -180h-68l-101 106l-100 -106h-69zM334 389q-22 17 -49 26.5t-58 9.5q-38 0 -59 -19.5t-21 -48.5q0 -21 15.5 -38t50.5 -25l53 -11q78 -17 110.5 -54.5t32.5 -88.5q0 -32 -13 -59.5t-36.5 -47.5t-56.5 -31.5t-72 -11.5q-51 0 -97 19.5t-77 54.5l49 52
q23 -26 56.5 -40t68.5 -14q49 0 72.5 24t23.5 55q0 26 -18 45t-59 27l-57 12q-26 6 -49.5 16.5t-41 26t-28 38t-10.5 52.5q0 26 10.5 51t31.5 44.5t51.5 31t69.5 11.5q87 0 152 -51z" />
    <glyph glyph-name="Scedilla" unicode="&#x15e;" horiz-adv-x="626" 
d="M280 -247q-18 0 -36 3.5t-26 7.5l19 66q9 -3 21 -5t21 -2q53 0 53 40q0 20 -19 31t-49 11l13 87q-31 3 -62.5 12.5t-60.5 24.5t-54 34.5t-43 42.5l63 54q40 -44 87 -67t100 -23q44 0 76 11t53 29t31.5 42t10.5 50q0 45 -27.5 78t-97.5 54q-26 8 -50.5 15t-51.5 15
q-89 25 -135.5 70.5t-46.5 119.5q0 37 16 71.5t46 61t73 42.5t97 16q57 0 114 -23t99 -65l-55 -58q-31 29 -70.5 48t-87.5 19q-39 0 -66 -10t-44.5 -26t-25 -36t-7.5 -41q0 -41 30.5 -70t87.5 -44l97 -27q96 -26 145.5 -79.5t49.5 -130.5q0 -39 -15 -75.5t-44.5 -65
t-73 -47.5t-99.5 -23l-5 -42q37 -6 61 -29t24 -64q0 -44 -36.5 -73.5t-99.5 -29.5z" />
    <glyph glyph-name="scedilla" unicode="&#x15f;" horiz-adv-x="467" 
d="M204 -237q-17 0 -33.5 3.5t-21.5 6.5l14 52q8 -5 18.5 -6.5t18.5 -1.5q26 0 43.5 13t17.5 33q0 21 -20.5 31.5t-49.5 10.5l14 87q-44 5 -83 23t-65 49l49 52q23 -26 56.5 -40t68.5 -14q49 0 72.5 24t23.5 55q0 26 -18 45t-59 27l-57 12q-26 6 -49.5 16.5t-41 26t-28 38
t-10.5 52.5q0 26 10.5 51t31.5 44.5t51.5 31t69.5 11.5q87 0 152 -51l-45 -56q-22 17 -49 26.5t-58 9.5q-38 0 -59 -19.5t-21 -48.5q0 -21 15.5 -38t50.5 -25l53 -11q78 -17 110.5 -54.5t32.5 -88.5q0 -30 -11.5 -56t-32.5 -45.5t-50 -32t-64 -15.5l-5 -43q32 -5 57.5 -27.5
t25.5 -60.5q0 -45 -35.5 -71t-89.5 -26z" />
    <glyph glyph-name="Scaron" unicode="&#x160;" horiz-adv-x="626" 
d="M362 820h-120l-110 152h76l94 -93l94 93h76zM459 599q-31 29 -70.5 48t-87.5 19q-39 0 -66 -10t-44.5 -26t-25 -36t-7.5 -41q0 -41 30.5 -70t87.5 -44l97 -27q96 -26 145.5 -79.5t49.5 -130.5q0 -42 -17 -80t-50 -67.5t-82 -47t-112 -17.5q-35 0 -70.5 8.5t-68.5 24
t-61.5 37t-49.5 46.5l63 54q40 -44 87 -67t100 -23q44 0 76 11t53 29t31.5 42t10.5 50q0 45 -27.5 78t-97.5 54q-26 8 -50.5 15t-51.5 15q-89 25 -135.5 70.5t-46.5 119.5q0 37 16 71.5t46 61t73 42.5t97 16q57 0 114 -23t99 -65z" />
    <glyph glyph-name="scaron" unicode="&#x161;" horiz-adv-x="467" 
d="M188 575l-128 180h69l100 -107l101 107h68l-128 -180h-82zM334 389q-22 17 -49 26.5t-58 9.5q-38 0 -59 -19.5t-21 -48.5q0 -21 15.5 -38t50.5 -25l53 -11q78 -17 110.5 -54.5t32.5 -88.5q0 -32 -13 -59.5t-36.5 -47.5t-56.5 -31.5t-72 -11.5q-51 0 -97 19.5t-77 54.5
l49 52q23 -26 56.5 -40t68.5 -14q49 0 72.5 24t23.5 55q0 26 -18 45t-59 27l-57 12q-26 6 -49.5 16.5t-41 26t-28 38t-10.5 52.5q0 26 10.5 51t31.5 44.5t51.5 31t69.5 11.5q87 0 152 -51z" />
    <glyph glyph-name="uni0162" unicode="&#x162;" horiz-adv-x="637" 
d="M28 735h581v-80h-247v-655h-87v655h-247v80zM371 -85l-73 -152h-69l43 152h99z" />
    <glyph glyph-name="uni0163" unicode="&#x163;" horiz-adv-x="407" 
d="M32 486h91l17 148l62 -1v-147h145v-70h-145v-259q0 -44 20 -66t52 -22h73l3 -69q-34 -6 -76 -6q-39 0 -68 12.5t-48 34.5t-28.5 52t-9.5 64v259h-88v70zM274 -85l-74 -160h-61l44 160h91z" />
    <glyph glyph-name="Tcaron" unicode="&#x164;" horiz-adv-x="637" 
d="M378 820h-120l-110 152h76l94 -93l94 93h76zM28 735h581v-80h-247v-655h-87v655h-247v80z" />
    <glyph glyph-name="tcaron" unicode="&#x165;" horiz-adv-x="397" 
d="M380 735l-47 -180h-54l23 180h78zM32 486h91l17 148l62 -1v-147h145v-70h-145v-259q0 -44 20 -66t52 -22h73l3 -69q-34 -6 -76 -6q-39 0 -68 12.5t-48 34.5t-28.5 52t-9.5 64v259h-88v70z" />
    <glyph glyph-name="Tbar" unicode="&#x166;" horiz-adv-x="657" 
d="M38 735h581v-80h-247v-241h147v-76h-147v-338h-87v338h-148v76h148v241h-247v80z" />
    <glyph glyph-name="tbar" unicode="&#x167;" horiz-adv-x="407" 
d="M32 296h88v120h-88v70h91l17 148l62 -1v-147h145v-70h-145v-120h145v-70h-145v-69q0 -44 20 -66t52 -22h73l3 -69q-34 -6 -76 -6q-39 0 -68 12.5t-48 34.5t-28.5 52t-9.5 64v69h-88v70z" />
    <glyph glyph-name="Utilde" unicode="&#x168;" horiz-adv-x="744" 
d="M159 854q12 49 45.5 76t82.5 27q25 0 47.5 -8t43 -18t40.5 -18t39 -8q23 0 41.5 15t21.5 38l66 -19q-10 -43 -42.5 -74t-85.5 -31q-24 0 -47 8t-44.5 18t-41.5 18t-38 8q-26 0 -41.5 -14t-20.5 -37zM87 735h87v-461q0 -41 15 -77t41.5 -63t63 -42.5t78.5 -15.5t78.5 15.5
t63 42.5t41.5 63t15 77v461h87v-461q0 -58 -22 -109.5t-60 -90.5t-90.5 -61.5t-112.5 -22.5q-62 0 -114 22.5t-90 61.5t-59.5 90.5t-21.5 109.5v461z" />
    <glyph glyph-name="utilde" unicode="&#x169;" horiz-adv-x="596" 
d="M100 621q11 49 42 77t77 28q22 0 42 -8t38.5 -18t36 -18t34.5 -8q23 0 36 15.5t17 35.5l66 -17q-4 -21 -13.5 -40t-24.5 -33.5t-35 -23t-45 -8.5q-21 0 -42 8t-40 17.5t-37 17.5t-33 8q-41 0 -53 -51zM427 487h82v-487h-52l-18 72q-24 -38 -65 -60t-89 -22
q-104 0 -156 61.5t-52 164.5v271h83v-271q0 -72 31 -110t101 -38q60 0 98 38t37 108v273z" />
    <glyph glyph-name="Umacron" unicode="&#x16a;" horiz-adv-x="744" 
d="M166 932h412v-72h-412v72zM87 735h87v-461q0 -41 15 -77t41.5 -63t63 -42.5t78.5 -15.5t78.5 15.5t63 42.5t41.5 63t15 77v461h87v-461q0 -58 -22 -109.5t-60 -90.5t-90.5 -61.5t-112.5 -22.5q-62 0 -114 22.5t-90 61.5t-59.5 90.5t-21.5 109.5v461z" />
    <glyph glyph-name="umacron" unicode="&#x16b;" horiz-adv-x="596" 
d="M103 697h381v-67h-381v67zM427 487h82v-487h-52l-18 72q-24 -38 -65 -60t-89 -22q-104 0 -156 61.5t-52 164.5v271h83v-271q0 -72 31 -110t101 -38q60 0 98 38t37 108v273z" />
    <glyph glyph-name="Ubreve" unicode="&#x16c;" horiz-adv-x="744" 
d="M285 972q0 -35 24.5 -59t62.5 -24t62.5 24t24.5 59h75q0 -34 -12.5 -63t-34.5 -50t-51.5 -32.5t-63.5 -11.5t-63.5 11.5t-51.5 32.5t-34.5 50t-12.5 63h75zM87 735h87v-461q0 -41 15 -77t41.5 -63t63 -42.5t78.5 -15.5t78.5 15.5t63 42.5t41.5 63t15 77v461h87v-461
q0 -58 -22 -109.5t-60 -90.5t-90.5 -61.5t-112.5 -22.5q-62 0 -114 22.5t-90 61.5t-59.5 90.5t-21.5 109.5v461z" />
    <glyph glyph-name="ubreve" unicode="&#x16d;" horiz-adv-x="596" 
d="M198 753q0 -48 25 -78t70 -30t70 30t25 78h74q0 -38 -13 -70.5t-35.5 -56t-53.5 -36.5t-67 -13t-66.5 13t-53 36.5t-35.5 56t-13 70.5h73zM427 487h82v-487h-52l-18 72q-24 -38 -65 -60t-89 -22q-104 0 -156 61.5t-52 164.5v271h83v-271q0 -72 31 -110t101 -38
q60 0 98 38t37 108v273z" />
    <glyph glyph-name="Uring" unicode="&#x16e;" horiz-adv-x="744" 
d="M275 913q0 41 28 69.5t69 28.5t69 -28.5t28 -69.5t-28 -69t-69 -28t-69 28t-28 69zM336 913q0 -15 10.5 -25.5t25.5 -10.5t26 10.5t11 25.5t-11 26t-26 11t-25.5 -11t-10.5 -26zM87 735h87v-461q0 -41 15 -77t41.5 -63t63 -42.5t78.5 -15.5t78.5 15.5t63 42.5t41.5 63
t15 77v461h87v-461q0 -58 -22 -109.5t-60 -90.5t-90.5 -61.5t-112.5 -22.5q-62 0 -114 22.5t-90 61.5t-59.5 90.5t-21.5 109.5v461z" />
    <glyph glyph-name="uring" unicode="&#x16f;" horiz-adv-x="596" 
d="M199 664q0 20 7.5 37.5t20.5 30t30.5 20t36.5 7.5q40 0 68.5 -27.5t28.5 -67.5q0 -19 -7.5 -36.5t-21 -30.5t-31 -20.5t-37.5 -7.5q-19 0 -36.5 7.5t-30.5 20.5t-20.5 30.5t-7.5 36.5zM253 664q0 -17 12.5 -29t29.5 -12t29 12t12 29t-12 29t-29 12t-29.5 -12t-12.5 -29z
M427 487h82v-487h-52l-18 72q-24 -38 -65 -60t-89 -22q-104 0 -156 61.5t-52 164.5v271h83v-271q0 -72 31 -110t101 -38q60 0 98 38t37 108v273z" />
    <glyph glyph-name="Uhungarumlaut" unicode="&#x170;" horiz-adv-x="744" 
d="M500 972h103l-103 -152h-74zM305 972h103l-103 -152h-74zM87 735h87v-461q0 -41 15 -77t41.5 -63t63 -42.5t78.5 -15.5t78.5 15.5t63 42.5t41.5 63t15 77v461h87v-461q0 -58 -22 -109.5t-60 -90.5t-90.5 -61.5t-112.5 -22.5q-62 0 -114 22.5t-90 61.5t-59.5 90.5
t-21.5 109.5v461z" />
    <glyph glyph-name="uhungarumlaut" unicode="&#x171;" horiz-adv-x="596" 
d="M420 755h98l-114 -180h-68zM230 755h98l-114 -180h-68zM427 487h82v-487h-52l-18 72q-24 -38 -65 -60t-89 -22q-104 0 -156 61.5t-52 164.5v271h83v-271q0 -72 31 -110t101 -38q60 0 98 38t37 108v273z" />
    <glyph glyph-name="Uogonek" unicode="&#x172;" horiz-adv-x="744" 
d="M87 735h87v-461q0 -41 15 -77t41.5 -63t63 -42.5t78.5 -15.5t78.5 15.5t63 42.5t41.5 63t15 77v461h87v-461q0 -60 -23.5 -112.5t-70.5 -105.5q-18 -21 -37 -40.5t-34 -39t-24.5 -41t-9.5 -46.5q0 -23 15.5 -40t41.5 -17q8 0 17 1t15 3l21 -72q-13 -5 -28 -9.5t-36 -4.5
q-27 0 -50.5 9t-40.5 25.5t-26.5 39t-9.5 48.5q0 22 9.5 53.5t36.5 70.5q-24 -6 -51 -6q-62 0 -114 22.5t-90 61.5t-59.5 90.5t-21.5 109.5v461z" />
    <glyph glyph-name="uogonek" unicode="&#x173;" horiz-adv-x="596" 
d="M406 -116q0 -23 14 -38.5t40 -15.5q7 0 14.5 1t12.5 3l21 -71q-12 -5 -28 -9t-35 -4q-24 0 -45.5 8.5t-37.5 24.5t-25 38t-9 49t10 51t26.5 44t38.5 36t45 28l-9 43q-24 -38 -65 -60t-89 -22q-104 0 -156 61.5t-52 164.5v271h83v-271q0 -72 31 -110t101 -38q60 0 96 36.5
t38 102.5q0 14 0.5 28t0.5 28v224h82v-487q-46 -21 -74.5 -51.5t-28.5 -64.5z" />
    <glyph glyph-name="Wcircumflex" unicode="&#x174;" horiz-adv-x="1034" 
d="M577 972l110 -152h-76l-95 93l-93 -93h-76l110 152h120zM907 735h89l-223 -735h-65l-191 470l-192 -470h-65l-223 735h90l173 -579l205 507h24l204 -507z" />
    <glyph glyph-name="wcircumflex" unicode="&#x175;" horiz-adv-x="847" 
d="M382 755h82l128 -180h-68l-101 106l-100 -106h-69zM27 486h88l140 -362l139 348h61l139 -348l140 362h86l-196 -486h-60l-141 341l-139 -341h-59z" />
    <glyph glyph-name="Ycircumflex" unicode="&#x176;" horiz-adv-x="677" 
d="M399 972l110 -152h-76l-95 93l-93 -93h-76l110 152h120zM383 0h-87v323l-268 412h103l208 -325l207 325h103l-266 -411v-324z" />
    <glyph glyph-name="ycircumflex" unicode="&#x177;" horiz-adv-x="534" 
d="M226 755h82l128 -180h-68l-101 106l-100 -106h-69zM258 -127q-49 -122 -174 -122q-12 0 -25 1t-22 3l5 68h41q37 0 59.5 15.5t36.5 47.5l47 115l-197 485h88l151 -385l151 385h88z" />
    <glyph glyph-name="Ydieresis" unicode="&#x178;" horiz-adv-x="677" 
d="M171 897q0 24 16.5 41.5t40.5 17.5t41.5 -17.5t17.5 -41.5q0 -23 -17.5 -40t-41.5 -17t-40.5 17t-16.5 40zM391 897q0 24 17 41.5t41 17.5t41 -17.5t17 -41.5q0 -23 -17 -40t-41 -17t-41 17t-17 40zM383 0h-87v323l-268 412h103l208 -325l207 325h103l-266 -411v-324z
" />
    <glyph glyph-name="Zacute" unicode="&#x179;" horiz-adv-x="708" 
d="M388 972h104l-109 -152h-74zM74 735h556v-65l-454 -592h475v-78h-594v65l454 592h-437v78z" />
    <glyph glyph-name="zacute" unicode="&#x17a;" horiz-adv-x="524" 
d="M278 755h98l-105 -180h-68zM60 486h406v-49l-297 -366h308v-71h-430v49l298 366h-285v71z" />
    <glyph glyph-name="Zdotaccent" unicode="&#x17b;" horiz-adv-x="708" 
d="M287 901q0 26 17.5 44.5t43.5 18.5t44.5 -18.5t18.5 -44.5t-18.5 -43.5t-44.5 -17.5t-43.5 17.5t-17.5 43.5zM74 735h556v-65l-454 -592h475v-78h-594v65l454 592h-437v78z" />
    <glyph glyph-name="zdotaccent" unicode="&#x17c;" horiz-adv-x="524" 
d="M203 652q0 26 17.5 43.5t42.5 17.5t43 -17.5t18 -43.5q0 -24 -18 -42t-43 -18t-42.5 18t-17.5 42zM60 486h406v-49l-297 -366h308v-71h-430v49l298 366h-285v71z" />
    <glyph glyph-name="Zcaron" unicode="&#x17d;" horiz-adv-x="708" 
d="M409 820h-120l-110 152h76l94 -93l94 93h76zM74 735h556v-65l-454 -592h475v-78h-594v65l454 592h-437v78z" />
    <glyph glyph-name="zcaron" unicode="&#x17e;" horiz-adv-x="524" 
d="M222 575l-128 180h69l100 -107l101 107h68l-128 -180h-82zM60 486h406v-49l-297 -366h308v-71h-430v49l298 366h-285v71z" />
    <glyph glyph-name="florin" unicode="&#x192;" horiz-adv-x="633" 
d="M286 -55q-10 -86 -59 -138t-141 -52q-13 0 -30 2.5t-29 6.5l13 71q14 -2 25 -4t22 -2q49 0 79.5 31t37.5 86l45 379h-90v67h100l20 174q11 93 63 142t143 49q23 0 48 -5t42 -13l-18 -69q-17 5 -34 8.5t-38 3.5q-56 0 -86.5 -32t-37.5 -84l-21 -174h160v-67h-168z" />
    <glyph glyph-name="uni0218" unicode="&#x218;" horiz-adv-x="626" 
d="M459 599q-31 29 -70.5 48t-87.5 19q-39 0 -66 -10t-44.5 -26t-25 -36t-7.5 -41q0 -41 30.5 -70t87.5 -44l97 -27q96 -26 145.5 -79.5t49.5 -130.5q0 -42 -17 -80t-50 -67.5t-82 -47t-112 -17.5q-35 0 -70.5 8.5t-68.5 24t-61.5 37t-49.5 46.5l63 54q40 -44 87 -67
t100 -23q44 0 76 11t53 29t31.5 42t10.5 50q0 45 -27.5 78t-97.5 54q-26 8 -50.5 15t-51.5 15q-89 25 -135.5 70.5t-46.5 119.5q0 37 16 71.5t46 61t73 42.5t97 16q57 0 114 -23t99 -65zM359 -85l-73 -152h-69l43 152h99z" />
    <glyph glyph-name="uni0219" unicode="&#x219;" horiz-adv-x="467" 
d="M334 389q-22 17 -49 26.5t-58 9.5q-38 0 -59 -19.5t-21 -48.5q0 -21 15.5 -38t50.5 -25l53 -11q78 -17 110.5 -54.5t32.5 -88.5q0 -32 -13 -59.5t-36.5 -47.5t-56.5 -31.5t-72 -11.5q-51 0 -97 19.5t-77 54.5l49 52q23 -26 56.5 -40t68.5 -14q49 0 72.5 24t23.5 55
q0 26 -18 45t-59 27l-57 12q-26 6 -49.5 16.5t-41 26t-28 38t-10.5 52.5q0 26 10.5 51t31.5 44.5t51.5 31t69.5 11.5q87 0 152 -51zM278 -85l-74 -160h-61l44 160h91z" />
    <glyph glyph-name="uni021A" unicode="&#x21a;" horiz-adv-x="637" 
d="M28 735h581v-80h-247v-655h-87v655h-247v80zM371 -85l-73 -152h-69l43 152h99z" />
    <glyph glyph-name="uni021B" unicode="&#x21b;" horiz-adv-x="407" 
d="M32 486h91l17 148l62 -1v-147h145v-70h-145v-259q0 -44 20 -66t52 -22h73l3 -69q-34 -6 -76 -6q-39 0 -68 12.5t-48 34.5t-28.5 52t-9.5 64v259h-88v70zM274 -85l-74 -160h-61l44 160h91z" />
    <glyph glyph-name="uni0237" unicode="&#x237;" horiz-adv-x="283" 
d="M113 486h82v-540q0 -90 -49.5 -143t-134.5 -53q-11 0 -22.5 1t-23.5 4q2 17 3 34.5t2 35.5h41q45 0 73.5 29t28.5 92v540z" />
    <glyph glyph-name="circumflex" unicode="&#x2c6;" horiz-adv-x="379" 
d="M230 755l128 -180h-68l-101 106l-100 -106h-69l128 180h82z" />
    <glyph glyph-name="caron" unicode="&#x2c7;" horiz-adv-x="379" 
d="M148 575l-128 180h69l100 -107l101 107h68l-128 -180h-82z" />
    <glyph glyph-name="breve" unicode="&#x2d8;" horiz-adv-x="375" 
d="M92 753q0 -48 25 -78t70 -30t70 30t25 78h74q0 -38 -13 -70.5t-35.5 -56t-53.5 -36.5t-67 -13t-66.5 13t-53 36.5t-35.5 56t-13 70.5h73z" />
    <glyph glyph-name="dotaccent" unicode="&#x2d9;" horiz-adv-x="160" 
d="M19 652q0 26 17.5 43.5t42.5 17.5t43 -17.5t18 -43.5q0 -24 -18 -42t-43 -18t-42.5 18t-17.5 42z" />
    <glyph glyph-name="ring" unicode="&#x2da;" horiz-adv-x="242" 
d="M25 664q0 20 7.5 37.5t20.5 30t30.5 20t36.5 7.5q40 0 68.5 -27.5t28.5 -67.5q0 -19 -7.5 -36.5t-21 -30.5t-31 -20.5t-37.5 -7.5q-19 0 -36.5 7.5t-30.5 20.5t-20.5 30.5t-7.5 36.5zM79 664q0 -17 12.5 -29t29.5 -12t29 12t12 29t-12 29t-29 12t-29.5 -12t-12.5 -29z
" />
    <glyph glyph-name="ogonek" unicode="&#x2db;" horiz-adv-x="290" 
d="M110 -120q0 -20 12.5 -35t41.5 -15q7 0 14 1t12 3l21 -71q-11 -5 -27 -9t-35 -4q-21 0 -41.5 7t-37 20.5t-27 34.5t-10.5 50q0 57 35.5 101.5t94.5 70.5l50 -34q-46 -21 -74.5 -52.5t-28.5 -67.5z" />
    <glyph glyph-name="tilde" unicode="&#x2dc;" horiz-adv-x="439" 
d="M25 621q11 49 42 77t77 28q22 0 42 -8t38.5 -18t36 -18t34.5 -8q23 0 36 15.5t17 35.5l66 -17q-4 -21 -13.5 -40t-24.5 -33.5t-35 -23t-45 -8.5q-21 0 -42 8t-40 17.5t-37 17.5t-33 8q-41 0 -53 -51z" />
    <glyph glyph-name="hungarumlaut" unicode="&#x2dd;" horiz-adv-x="422" 
d="M397 755l-114 -180h-68l84 180h98zM207 755l-114 -180h-68l84 180h98z" />
    <glyph glyph-name="uni0394" unicode="&#x394;" horiz-adv-x="756" 
d="M67 0v66l279 669h64l279 -669v-66h-622zM167 80h424l-213 514z" />
    <glyph glyph-name="uni03A9" unicode="&#x3a9;" horiz-adv-x="913" 
d="M531 77q48 12 88 39t68.5 65.5t44.5 85.5t16 99q0 59 -22 112t-61 94t-92.5 65t-116.5 24t-116 -24t-92 -65t-61 -94t-22 -112q0 -52 15.5 -99t44 -85.5t67.5 -65.5t87 -39v-77h-312v80h149q-65 50 -102.5 124t-37.5 162q0 77 29 146t80 120.5t120.5 81.5t150.5 30
q82 0 151.5 -30t120.5 -81.5t79.5 -120.5t28.5 -146q0 -88 -37.5 -162t-101.5 -124h148v-80h-314v77z" />
    <glyph glyph-name="uni03BC" unicode="&#x3bc;" horiz-adv-x="596" 
d="M427 487h82v-487h-52l-18 72q-24 -37 -65 -59.5t-89 -22.5q-39 0 -70.5 12.5t-54.5 34.5v-281h-83v731h83v-271q0 -72 31 -110t102 -38q60 0 97 37.5t37 108.5v273z" />
    <glyph glyph-name="pi" unicode="&#x3c0;" horiz-adv-x="676" 
d="M57 488h561v-70h-82v-418h-83v418h-230v-418h-83v418h-83v70z" />
    <glyph glyph-name="Wgrave" unicode="&#x1e80;" horiz-adv-x="1034" 
d="M479 972l75 -152h-75l-104 152h104zM907 735h89l-223 -735h-65l-191 470l-192 -470h-65l-223 735h90l173 -579l205 507h24l204 -507z" />
    <glyph glyph-name="wgrave" unicode="&#x1e81;" horiz-adv-x="847" 
d="M392 755l65 -180h-68l-95 180h98zM27 486h88l140 -362l139 348h61l139 -348l140 362h86l-196 -486h-60l-141 341l-139 -341h-59z" />
    <glyph glyph-name="Wacute" unicode="&#x1e82;" horiz-adv-x="1034" 
d="M558 972h104l-109 -152h-74zM907 735h89l-223 -735h-65l-191 470l-192 -470h-65l-223 735h90l173 -579l205 507h24l204 -507z" />
    <glyph glyph-name="wacute" unicode="&#x1e83;" horiz-adv-x="847" 
d="M460 755h98l-105 -180h-68zM27 486h88l140 -362l139 348h61l139 -348l140 362h86l-196 -486h-60l-141 341l-139 -341h-59z" />
    <glyph glyph-name="Wdieresis" unicode="&#x1e84;" horiz-adv-x="1034" 
d="M349 897q0 24 16.5 41.5t40.5 17.5t41.5 -17.5t17.5 -41.5q0 -23 -17.5 -40t-41.5 -17t-40.5 17t-16.5 40zM569 897q0 24 17 41.5t41 17.5t41 -17.5t17 -41.5q0 -23 -17 -40t-41 -17t-41 17t-17 40zM907 735h89l-223 -735h-65l-191 470l-192 -470h-65l-223 735h90
l173 -579l205 507h24l204 -507z" />
    <glyph glyph-name="wdieresis" unicode="&#x1e85;" horiz-adv-x="847" 
d="M256 652q0 26 17.5 43.5t42.5 17.5t42.5 -17.5t17.5 -43.5q0 -24 -17.5 -42t-42.5 -18t-42.5 18t-17.5 42zM470 652q0 26 17.5 43.5t42.5 17.5q26 0 43.5 -17.5t17.5 -43.5q0 -24 -17.5 -42t-43.5 -18q-25 0 -42.5 18t-17.5 42zM27 486h88l140 -362l139 348h61l139 -348
l140 362h86l-196 -486h-60l-141 341l-139 -341h-59z" />
    <glyph glyph-name="Germandbls" unicode="&#x1e9e;" horiz-adv-x="751" 
d="M88 0v129l-1 260v129q0 47 15.5 87t44.5 69t70 45t92 16h268v-65l-112 -182h10t11 -1q41 -5 80.5 -24t70 -50.5t49 -75t18.5 -97.5q0 -52 -19.5 -97.5t-54 -79.5t-81 -53.5t-100.5 -19.5q-64 0 -114 23t-88 58l54 59q29 -27 64 -43.5t84 -16.5q32 0 62.5 12.5t53.5 35
t37 53.5t14 69q0 39 -13.5 71t-37.5 54.5t-57 35t-72 12.5h-96v24l134 217h-155q-75 0 -110 -37t-35 -109v-127l1 -254v-127h-87z" />
    <glyph glyph-name="Ygrave" unicode="&#x1ef2;" horiz-adv-x="677" 
d="M303 972l75 -152h-75l-104 152h104zM383 0h-87v323l-268 412h103l208 -325l207 325h103l-266 -411v-324z" />
    <glyph glyph-name="ygrave" unicode="&#x1ef3;" horiz-adv-x="534" 
d="M256 755l65 -180h-68l-95 180h98zM258 -127q-49 -122 -174 -122q-12 0 -25 1t-22 3l5 68h41q37 0 59.5 15.5t36.5 47.5l47 115l-197 485h88l151 -385l151 385h88z" />
    <glyph glyph-name="endash" unicode="&#x2013;" horiz-adv-x="576" 
d="M67 302h442v-76h-442v76z" />
    <glyph glyph-name="emdash" unicode="&#x2014;" horiz-adv-x="937" 
d="M87 302h764v-76h-764v76z" />
    <glyph glyph-name="quoteleft" unicode="&#x2018;" horiz-adv-x="273" 
d="M155 735l31 -221h-55l-54 221h78z" />
    <glyph glyph-name="quoteright" unicode="&#x2019;" horiz-adv-x="273" 
d="M186 735l-54 -221h-55l31 221h78z" />
    <glyph glyph-name="quotesinglbase" unicode="&#x201a;" horiz-adv-x="253" 
d="M165 111l-14 -221h-49l-15 221h78z" />
    <glyph glyph-name="quotedblleft" unicode="&#x201c;" horiz-adv-x="426" 
d="M165 735l31 -221h-55l-54 221h78zM318 735l30 -221h-54l-54 221h78z" />
    <glyph glyph-name="quotedblright" unicode="&#x201d;" horiz-adv-x="426" 
d="M186 735l-54 -221h-55l31 221h78zM338 735l-54 -221h-54l30 221h78z" />
    <glyph glyph-name="quotedblbase" unicode="&#x201e;" horiz-adv-x="426" 
d="M186 111l-54 -222h-55l31 222h78zM338 111l-54 -222h-54l30 222h78z" />
    <glyph glyph-name="dagger" unicode="&#x2020;" horiz-adv-x="430" 
d="M47 478h124v257h87v-257h124v-76h-124v-545h-87v545h-124v76z" />
    <glyph glyph-name="daggerdbl" unicode="&#x2021;" horiz-adv-x="430" 
d="M47 478h124v257h87v-257h124v-76h-124v-130h124v-76h-124v-339h-87v339h-124v76h124v130h-124v76z" />
    <glyph glyph-name="bullet" unicode="&#x2022;" horiz-adv-x="447" 
d="M87 325q0 28 11 53t29.5 43.5t43.5 29t53 10.5t52.5 -10.5t43 -29t29.5 -43.5t11 -53t-11 -53t-29.5 -43.5t-43 -29t-52.5 -10.5t-53 10.5t-43.5 29t-29.5 43.5t-11 53z" />
    <glyph glyph-name="ellipsis" unicode="&#x2026;" horiz-adv-x="855" 
d="M102 51q0 27 18.5 45.5t44.5 18.5q27 0 45.5 -18.5t18.5 -45.5q0 -26 -18.5 -44.5t-45.5 -18.5q-26 0 -44.5 18.5t-18.5 44.5zM364 51q0 27 18.5 45.5t44.5 18.5q27 0 45.5 -18.5t18.5 -45.5q0 -26 -18.5 -44.5t-45.5 -18.5q-26 0 -44.5 18.5t-18.5 44.5zM625 51
q0 27 18.5 45.5t44.5 18.5q27 0 45.5 -18.5t18.5 -45.5q0 -26 -18.5 -44.5t-45.5 -18.5q-26 0 -44.5 18.5t-18.5 44.5z" />
    <glyph glyph-name="perthousand" unicode="&#x2030;" horiz-adv-x="1286" 
d="M95 566q0 36 12 68t34 56t53.5 37.5t69.5 13.5t69 -13.5t53.5 -37.5t35 -56t12.5 -68t-12.5 -68t-35 -56t-53.5 -38t-69 -14q-37 0 -68.5 14t-53.5 38t-34.5 56t-12.5 68zM674 735h98l-509 -735h-97zM169 566q0 -44 25.5 -74t69.5 -30q45 0 70.5 30t25.5 74t-25.5 74
t-70.5 30q-44 0 -69.5 -30t-25.5 -74zM509 169q0 36 12 68t34 56t53 38t69 14t69 -14t53.5 -38t35 -56t12.5 -68t-12.5 -68t-35 -56t-53.5 -38t-69 -14q-37 0 -68 14t-53.5 38t-34.5 56t-12 68zM893 169q0 36 12 68t34 56t53 38t69 14t69 -14t53.5 -38t35 -56t12.5 -68
t-12.5 -68t-35 -56t-53.5 -38t-69 -14q-37 0 -68 14t-53.5 38t-34.5 56t-12 68zM581 169q0 -44 26 -74t70 -30t70 30t26 74t-26 74t-70 30t-70 -30t-26 -74zM965 169q0 -44 26 -74t70 -30t70 30t26 74t-26 74t-70 30t-70 -30t-26 -74z" />
    <glyph glyph-name="guilsinglleft" unicode="&#x2039;" horiz-adv-x="449" 
d="M162 275l210 -214h-114l-211 214l209 213h116z" />
    <glyph glyph-name="guilsinglright" unicode="&#x203a;" horiz-adv-x="449" 
d="M77 488h116l209 -213l-211 -214h-114l210 214z" />
    <glyph glyph-name="fraction" unicode="&#x2044;" horiz-adv-x="161" 
d="M267 735h90l-464 -735h-89z" />
    <glyph glyph-name="uni2070" unicode="&#x2070;" horiz-adv-x="389" 
d="M37 683q0 43 9 81t28 66t48.5 44.5t71.5 16.5t71.5 -16.5t49 -44.5t28.5 -66t9 -81t-9 -81t-28.5 -66t-49 -44t-71.5 -16t-71.5 16t-48.5 44t-28 66t-9 81zM102 683q0 -28 4 -54.5t14 -46.5t28 -32t46 -12t46 12t28 32t14 46.5t4 54.5q0 29 -4 55t-14 46t-28 32t-46 12
t-46 -12t-28 -32t-14 -46t-4 -55z" />
    <glyph glyph-name="uni2074" unicode="&#x2074;" horiz-adv-x="347" 
d="M17 612l203 273h49v-262h65v-58h-65v-84h-66v84h-186v47zM97 623h106v140z" />
    <glyph glyph-name="uni2075" unicode="&#x2075;" horiz-adv-x="354" 
d="M69 885h222v-61h-163l-7 -78q5 5 19.5 7.5t26.5 2.5q32 0 59.5 -11t47.5 -30t31 -44.5t11 -54.5q0 -27 -10.5 -52.5t-30 -45t-47.5 -31.5t-62 -12q-41 0 -76.5 18t-55.5 51l57 29q13 -20 34 -27.5t40 -7.5q33 0 58.5 22t25.5 57q0 34 -24.5 56t-59.5 22q-38 0 -60 -19
h-52z" />
    <glyph glyph-name="uni2076" unicode="&#x2076;" horiz-adv-x="364" 
d="M159 748q3 2 10.5 3.5t17.5 1.5q28 0 53 -11t44 -29.5t30 -44t11 -55.5q0 -29 -11.5 -54.5t-31.5 -44t-46 -29.5t-56 -11t-56.5 10.5t-46.5 29.5t-31.5 44t-11.5 54q0 50 31 98l109 175h77zM98 612q0 -32 24.5 -54t57.5 -22q34 0 56.5 22.5t22.5 54.5q0 35 -23 57t-58 22
q-36 0 -55 -13q-11 -14 -18 -29.5t-7 -37.5z" />
    <glyph glyph-name="uni2077" unicode="&#x2077;" horiz-adv-x="318" 
d="M26 885h264v-48l-175 -356h-68l169 343h-190v61z" />
    <glyph glyph-name="uni2078" unicode="&#x2078;" horiz-adv-x="375" 
d="M318 778q0 -26 -13.5 -48t-34.5 -33q26 -13 46 -38t20 -57q0 -27 -10.5 -50t-30 -40t-47 -27t-60.5 -10t-60.5 10t-47 27t-30.5 40t-11 50q0 32 19.5 57.5t44.5 36.5q-20 11 -33 33t-13 49q0 26 11.5 46.5t30 35.5t42 23t47.5 8t47.5 -8t42 -22.5t29.5 -35.5t11 -47z
M188 828q-29 0 -46.5 -13.5t-17.5 -36.5t16.5 -38t47.5 -15q30 0 46.5 15.5t16.5 37.5q0 23 -18 36.5t-45 13.5zM270 602q0 26 -22 45t-60 19t-60 -19t-22 -45q0 -29 22 -46.5t60 -17.5q37 0 59.5 17.5t22.5 46.5z" />
    <glyph glyph-name="uni2079" unicode="&#x2079;" horiz-adv-x="364" 
d="M205 618q-13 -5 -27 -5q-29 0 -54.5 11t-44 29.5t-29.5 44t-11 55.5q0 29 11.5 54t31 43.5t45.5 29.5t56 11t57 -10.5t47 -29t31.5 -43.5t11.5 -54q0 -50 -31 -98l-109 -176h-76zM265 754q0 32 -23.5 53.5t-58.5 21.5q-33 0 -56 -22t-23 -54q0 -35 23 -56.5t58 -21.5
q17 0 33 4t23 8q11 14 17.5 29.5t6.5 37.5z" />
    <glyph glyph-name="uni2080" unicode="&#x2080;" horiz-adv-x="389" 
d="M37 52q0 43 9 81t28 66t48.5 44.5t71.5 16.5t71.5 -16.5t49 -44.5t28.5 -66t9 -81t-9 -81t-28.5 -66t-49 -44.5t-71.5 -16.5t-71.5 16.5t-48.5 44.5t-28 66t-9 81zM102 52q0 -28 4 -54.5t14 -46.5t28 -32t46 -12t46 12t28 32t14 46.5t4 54.5q0 29 -4 55t-14 46t-28 32
t-46 12t-46 -12t-28 -32t-14 -46t-4 -55z" />
    <glyph glyph-name="uni2081" unicode="&#x2081;" horiz-adv-x="240" 
d="M55 139l-32 55l99 60h50v-404h-66v320z" />
    <glyph glyph-name="uni2082" unicode="&#x2082;" horiz-adv-x="358" 
d="M43 -100l165 168q16 17 28 35.5t12 38.5q0 28 -21.5 41.5t-44.5 13.5q-20 0 -40.5 -10.5t-33.5 -39.5l-63 17q14 45 52 70.5t85 25.5q60 0 96 -33.5t36 -84.5q0 -36 -16.5 -63.5t-49.5 -59.5l-111 -109h179v-60h-273v50z" />
    <glyph glyph-name="uni2083" unicode="&#x2083;" horiz-adv-x="344" 
d="M131 88q15 0 32.5 2t32.5 8.5t25.5 18t10.5 30.5q0 26 -20 38t-46 12q-23 0 -40 -7.5t-31 -26.5l-53 37q22 31 54 45.5t70 14.5q30 0 54.5 -9t42 -24.5t27 -36t9.5 -43.5q0 -29 -13.5 -50t-30.5 -35q21 -15 35.5 -39.5t14.5 -54.5q0 -26 -11 -48.5t-30.5 -39.5t-47 -26.5
t-61.5 -9.5q-44 0 -79.5 20t-53.5 51l57 29q10 -18 31.5 -27.5t44.5 -9.5q37 0 60 17t23 44q0 57 -89 63h-4l-9 1h-5v56z" />
    <glyph glyph-name="uni2084" unicode="&#x2084;" horiz-adv-x="347" 
d="M17 -19l203 273h49v-262h65v-58h-65v-84h-66v84h-186v47zM97 -8h106v140z" />
    <glyph glyph-name="uni2085" unicode="&#x2085;" horiz-adv-x="354" 
d="M69 254h222v-60h-163l-7 -79q5 5 19.5 7.5t26.5 2.5q32 0 59.5 -11t47.5 -30t31 -44.5t11 -54.5q0 -27 -10.5 -52.5t-30 -45t-47.5 -31.5t-62 -12q-41 0 -76.5 18t-55.5 51l57 29q13 -20 34 -27.5t40 -7.5q33 0 58.5 22t25.5 57q0 34 -24.5 56t-59.5 22q-38 0 -60 -19
h-52z" />
    <glyph glyph-name="uni2086" unicode="&#x2086;" horiz-adv-x="364" 
d="M159 117q3 2 10.5 3.5t17.5 1.5q28 0 53 -11t44 -29.5t30 -44t11 -55.5q0 -29 -11.5 -54.5t-31.5 -44t-46 -29.5t-56 -11t-56.5 10.5t-46.5 29.5t-31.5 44t-11.5 54q0 50 31 98l109 175h77zM98 -19q0 -32 24.5 -54t57.5 -22q34 0 56.5 22.5t22.5 54.5q0 35 -23 57t-58 22
q-36 0 -55 -13q-11 -14 -18 -29.5t-7 -37.5z" />
    <glyph glyph-name="uni2087" unicode="&#x2087;" horiz-adv-x="318" 
d="M26 254h264v-49l-175 -355h-68l169 344h-190v60z" />
    <glyph glyph-name="uni2088" unicode="&#x2088;" horiz-adv-x="375" 
d="M318 147q0 -26 -13.5 -48t-34.5 -33q26 -13 46 -38t20 -57q0 -27 -10.5 -50t-30 -40t-47 -27t-60.5 -10t-60.5 10t-47 27t-30.5 40t-11 50q0 32 19.5 57.5t44.5 36.5q-20 11 -33 33t-13 49q0 26 11.5 46.5t30 35.5t42 23t47.5 8t47.5 -8t42 -22.5t29.5 -35.5t11 -47z
M188 197q-29 0 -46.5 -13.5t-17.5 -36.5t16.5 -38t47.5 -15q30 0 46.5 15.5t16.5 37.5q0 23 -18 36.5t-45 13.5zM270 -29q0 26 -22 45t-60 19t-60 -19t-22 -45q0 -29 22 -46.5t60 -17.5q37 0 59.5 17.5t22.5 46.5z" />
    <glyph glyph-name="uni2089" unicode="&#x2089;" horiz-adv-x="364" 
d="M205 -13q-13 -5 -27 -5q-29 0 -54.5 11t-44 29.5t-29.5 44t-11 54.5t11.5 54.5t31 44t45.5 29.5t56 11t57 -10.5t47 -29t31.5 -43.5t11.5 -54q0 -50 -31 -98l-109 -176h-76zM265 123q0 32 -23.5 53.5t-58.5 21.5q-33 0 -56 -22.5t-23 -54.5q0 -35 23 -56t58 -21
q17 0 33 4t23 8q11 14 17.5 29.5t6.5 37.5z" />
    <glyph glyph-name="Euro" unicode="&#x20ac;" horiz-adv-x="692" 
d="M37 484h92q12 57 36 105t60 82.5t82.5 54t103.5 19.5q66 0 117 -21.5t87 -59.5l-60 -50q-27 26 -63.5 38.5t-80.5 12.5q-41 0 -73 -13.5t-56 -38t-40 -57.5t-25 -72h280v-67h-291q-1 -13 -1 -21v-21v-20.5t1 -20.5h291v-67h-284q8 -42 23.5 -78t40 -62.5t58 -41.5
t76.5 -15q44 0 80.5 12.5t62.5 35.5l60 -51q-36 -36 -86.5 -56.5t-116.5 -20.5q-59 0 -107 20.5t-84 57.5t-59.5 88t-34.5 111h-89v67h82q-1 8 -1 20.5v20.5q0 13 0.5 21t1.5 21h-83v67z" />
    <glyph glyph-name="uni20B9" unicode="&#x20b9;" horiz-adv-x="628" 
d="M67 562h308q-12 41 -49.5 69t-103.5 28h-155v77h494v-72h-163q30 -20 46 -45.5t21 -56.5h96v-71h-94q-8 -70 -53.5 -116.5t-117.5 -60.5l-31 -6l242 -308h-105l-239 305v74h65q67 0 104.5 32.5t45.5 79.5h-311v71z" />
    <glyph glyph-name="uni20BA" unicode="&#x20ba;" horiz-adv-x="624" 
d="M42 349l122 44v75l-122 -45v72l122 44v196h82v-167l195 71v-71l-195 -71v-75l195 71v-71l-195 -71v-265q44 5 85 23t74.5 49.5t58 75.5t33.5 100l75 -13q-9 -67 -40.5 -125.5t-80 -102t-111 -68.5t-133.5 -25h-43v321l-122 -44v72z" />
    <glyph glyph-name="uni2113" unicode="&#x2113;" horiz-adv-x="505" 
d="M196 164q0 -46 22.5 -68t57.5 -22q24 0 42.5 9t31 20t19.5 20.5t7 10.5l62 -42q-1 -1 -11 -16.5t-29.5 -33.5t-50 -32.5t-71.5 -14.5q-42 0 -72.5 14t-50.5 37.5t-29.5 54t-9.5 62.5v92q-17 -2 -34.5 -3.5t-34.5 -1.5v78q17 0 34.5 1t34.5 4v275q0 30 10 57.5t29.5 48.5
t47.5 33.5t64 12.5q33 0 61.5 -13.5t49.5 -37.5t33 -57.5t12 -73.5q0 -56 -15.5 -105.5t-44.5 -89.5t-70.5 -69t-94.5 -44v-106zM196 353q37 13 64 35.5t44 52t25.5 64.5t8.5 72q0 51 -20.5 78t-52.5 27q-31 0 -50 -19t-19 -54v-256z" />
    <glyph glyph-name="uni2117" unicode="&#x2117;" horiz-adv-x="895" 
d="M67 367q0 77 29 145.5t80 120.5t120.5 82t150.5 30q82 0 151.5 -30t120.5 -82t79.5 -120.5t28.5 -145.5t-28.5 -145.5t-79.5 -120t-120.5 -81.5t-151.5 -30q-81 0 -150.5 30t-120.5 81.5t-80 120t-29 145.5zM141 367q0 -62 23 -118t63.5 -98.5t97 -67.5t122.5 -25
t122.5 25t97.5 67.5t64 98.5t23 118t-23 118.5t-64 99t-97.5 68t-122.5 25.5t-122.5 -25.5t-97 -68t-63.5 -99t-23 -118.5zM476 590q78 0 120.5 -41t42.5 -104q0 -31 -11 -57.5t-32 -45.5t-51.5 -30t-69.5 -11h-88v-172h-64v461h153zM387 529v-168h89q49 0 74 22.5t25 61.5
t-24.5 61.5t-74.5 22.5h-89z" />
    <glyph glyph-name="trademark" unicode="&#x2122;" horiz-adv-x="1014" 
d="M927 303h-59v323l-170 -257h-13l-171 258v-324h-60v432h54l183 -276l182 276h54v-432zM57 735h344v-55h-143v-377h-58v377h-143v55z" />
    <glyph glyph-name="uni2126" unicode="&#x2126;" horiz-adv-x="913" 
d="M531 77q48 12 88 39t68.5 65.5t44.5 85.5t16 99q0 59 -22 112t-61 94t-92.5 65t-116.5 24t-116 -24t-92 -65t-61 -94t-22 -112q0 -52 15.5 -99t44 -85.5t67.5 -65.5t87 -39v-77h-312v80h149q-65 50 -102.5 124t-37.5 162q0 77 29 146t80 120.5t120.5 81.5t150.5 30
q82 0 151.5 -30t120.5 -81.5t79.5 -120.5t28.5 -146q0 -88 -37.5 -162t-101.5 -124h148v-80h-314v77z" />
    <glyph glyph-name="estimated" unicode="&#x212e;" horiz-adv-x="957" 
d="M229 349v-194q24 -34 59 -60q31 -23 78 -41.5t113 -18.5t115 18t81 39q39 25 66 57h69q-27 -36 -63.5 -65t-79 -50t-90.5 -32.5t-98 -11.5q-85 0 -160.5 30t-131 81.5t-88 120t-32.5 145.5t32.5 146t88 120.5t131 81.5t160.5 30t159.5 -30t130.5 -81.5t88.5 -120.5
t32.5 -146v-18h-661zM735 388v201q-26 31 -63 56q-32 21 -79.5 38.5t-113.5 17.5t-113 -17t-78 -37q-35 -24 -59 -55v-204h506z" />
    <glyph glyph-name="onethird" unicode="&#x2153;" horiz-adv-x="824" 
d="M549 735h90l-464 -735h-89zM55 620l-32 55l99 60h50v-404h-66v320zM611 238h11t14 1q32 2 54 15.5t22 42.5q0 26 -20 38t-46 12q-23 0 -40 -7.5t-31 -26.5l-53 37q22 31 54 45.5t70 14.5q30 0 54.5 -9t42 -24.5t27 -36t9.5 -43.5q0 -29 -13.5 -50t-30.5 -35
q21 -15 35.5 -39.5t14.5 -54.5q0 -26 -11 -48.5t-30.5 -39.5t-47 -26.5t-61.5 -9.5q-44 0 -79.5 20t-53.5 51l57 29q10 -18 31.5 -27.5t44.5 -9.5q37 0 60 17t23 44q0 57 -89 63h-4l-9 1h-5v56z" />
    <glyph glyph-name="twothirds" unicode="&#x2154;" horiz-adv-x="935" 
d="M43 381l165 168q16 17 28 35.5t12 38.5q0 28 -21.5 41.5t-44.5 13.5q-20 0 -40.5 -10.5t-33.5 -39.5l-63 17q14 45 52 70.5t85 25.5q60 0 96 -33.5t36 -84.5q0 -36 -16.5 -63.5t-49.5 -59.5l-111 -109h179v-60h-273v50zM661 735h90l-464 -735h-89zM722 238h11t14 1
q32 2 54 15.5t22 42.5q0 26 -20 38t-46 12q-23 0 -40 -7.5t-31 -26.5l-53 37q22 31 54 45.5t70 14.5q30 0 54.5 -9t42 -24.5t27 -36t9.5 -43.5q0 -29 -13.5 -50t-30.5 -35q21 -15 35.5 -39.5t14.5 -54.5q0 -26 -11 -48.5t-30.5 -39.5t-47 -26.5t-61.5 -9.5q-44 0 -79.5 20
t-53.5 51l57 29q10 -18 31.5 -27.5t44.5 -9.5q37 0 60 17t23 44q0 57 -89 63h-4l-9 1h-5v56z" />
    <glyph glyph-name="oneeighth" unicode="&#x215b;" horiz-adv-x="840" 
d="M560 735h90l-464 -735h-89zM55 620l-32 55l99 60h50v-404h-66v320zM782 297q0 -26 -13.5 -48t-34.5 -33q26 -13 46 -38t20 -57q0 -27 -10.5 -50t-30 -40t-47 -27t-60.5 -10t-60.5 10t-47 27t-30.5 40t-11 50q0 32 19.5 57.5t44.5 36.5q-20 11 -33 33t-13 49
q0 26 11.5 46.5t30 35.5t42 23t47.5 8t47.5 -8t42 -22.5t29.5 -35.5t11 -47zM652 347q-29 0 -46.5 -13.5t-17.5 -36.5t16.5 -38t47.5 -15q30 0 46.5 15.5t16.5 37.5q0 23 -18 36.5t-45 13.5zM734 121q0 26 -22 45t-60 19t-60 -19t-22 -45q0 -29 22 -46.5t60 -17.5
q37 0 59.5 17.5t22.5 46.5z" />
    <glyph glyph-name="threeeighths" unicode="&#x215c;" horiz-adv-x="916" 
d="M131 569h11t14 1q32 2 54 17.5t22 40.5q0 26 -20 38t-46 12q-23 0 -40 -7.5t-31 -26.5l-53 37q22 31 54 45.5t70 14.5q30 0 54.5 -9t42 -24.5t27 -36t9.5 -43.5q0 -29 -13.5 -50t-30.5 -35q21 -15 35.5 -39.5t14.5 -54.5q0 -26 -11 -48.5t-30.5 -39t-47 -26t-61.5 -9.5
q-44 0 -79.5 19.5t-53.5 50.5l57 29q10 -18 31.5 -27.5t44.5 -9.5q37 0 60 17t23 44q0 57 -89 63h-4l-9 1h-5v56zM637 735h90l-464 -735h-89zM859 297q0 -26 -13.5 -48t-34.5 -33q26 -13 46 -38t20 -57q0 -27 -10.5 -50t-30 -40t-47 -27t-60.5 -10t-60.5 10t-47 27t-30.5 40
t-11 50q0 32 19.5 57.5t44.5 36.5q-20 11 -33 33t-13 49q0 26 11.5 46.5t30 35.5t42 23t47.5 8t47.5 -8t42 -22.5t29.5 -35.5t11 -47zM729 347q-29 0 -46.5 -13.5t-17.5 -36.5t16.5 -38t47.5 -15q30 0 46.5 15.5t16.5 37.5q0 23 -18 36.5t-45 13.5zM811 121q0 26 -22 45
t-60 19t-60 -19t-22 -45q0 -29 22 -46.5t60 -17.5q37 0 59.5 17.5t22.5 46.5z" />
    <glyph glyph-name="fiveeighths" unicode="&#x215d;" horiz-adv-x="921" 
d="M642 735h90l-464 -735h-89zM69 735h222v-61h-163l-7 -78q5 5 19.5 7.5t26.5 2.5q32 0 59.5 -11t47.5 -30t31 -44.5t11 -54.5q0 -27 -10.5 -52.5t-30 -45t-47.5 -31.5t-62 -12q-41 0 -76.5 18t-55.5 51l57 30q13 -20 34 -28t40 -8q33 0 58.5 22t25.5 57q0 34 -24.5 56
t-59.5 22q-38 0 -60 -19h-52zM863 297q0 -26 -13.5 -48t-34.5 -33q26 -13 46 -38t20 -57q0 -27 -10.5 -50t-30 -40t-47 -27t-60.5 -10t-60.5 10t-47 27t-30.5 40t-11 50q0 32 19.5 57.5t44.5 36.5q-20 11 -33 33t-13 49q0 26 11.5 46.5t30 35.5t42 23t47.5 8t47.5 -8
t42 -22.5t29.5 -35.5t11 -47zM733 347q-29 0 -46.5 -13.5t-17.5 -36.5t16.5 -38t47.5 -15q30 0 46.5 15.5t16.5 37.5q0 23 -18 36.5t-45 13.5zM815 121q0 26 -22 45t-60 19t-60 -19t-22 -45q0 -29 22 -46.5t60 -17.5q37 0 59.5 17.5t22.5 46.5z" />
    <glyph glyph-name="seveneighths" unicode="&#x215e;" horiz-adv-x="812" 
d="M533 735h90l-464 -735h-89zM26 735h264v-48l-175 -356h-68l169 343h-190v61zM755 297q0 -26 -13.5 -48t-34.5 -33q26 -13 46 -38t20 -57q0 -27 -10.5 -50t-30 -40t-47 -27t-60.5 -10t-60.5 10t-47 27t-30.5 40t-11 50q0 32 19.5 57.5t44.5 36.5q-20 11 -33 33t-13 49
q0 26 11.5 46.5t30 35.5t42 23t47.5 8t47.5 -8t42 -22.5t29.5 -35.5t11 -47zM625 347q-29 0 -46.5 -13.5t-17.5 -36.5t16.5 -38t47.5 -15q30 0 46.5 15.5t16.5 37.5q0 23 -18 36.5t-45 13.5zM707 121q0 26 -22 45t-60 19t-60 -19t-22 -45q0 -29 22 -46.5t60 -17.5
q37 0 59.5 17.5t22.5 46.5z" />
    <glyph glyph-name="partialdiff" unicode="&#x2202;" horiz-adv-x="685" 
d="M173 698q22 14 62.5 29t91.5 15q62 0 111.5 -21.5t85 -66t54.5 -113.5t19 -165q0 -82 -17.5 -153t-53 -123t-89 -81.5t-124.5 -29.5q-46 0 -87 16t-72 46t-49 74t-18 99q0 57 20 103.5t54 79.5t79 50.5t94 17.5q26 0 52 -5t49 -13.5t42.5 -20t32.5 -24.5v11q0 44 -9 87
t-30.5 76.5t-56.5 54.5t-87 21q-41 0 -73 -11t-49 -22zM509 306q-2 4 -15 18.5t-34 30.5t-50.5 28.5t-64.5 12.5q-40 0 -71.5 -13.5t-53.5 -37t-34 -54.5t-12 -67t11.5 -64.5t31 -48t45.5 -30t56 -10.5q43 0 78 20t60 53t39 75.5t14 86.5z" />
    <glyph glyph-name="uni2206" unicode="&#x2206;" horiz-adv-x="756" 
d="M67 0v66l279 669h64l279 -669v-66h-622zM167 80h424l-213 514z" />
    <glyph glyph-name="product" unicode="&#x220f;" horiz-adv-x="906" 
d="M97 735h711v-81h-83v-779h-87v779h-370v-779h-87v779h-84v81z" />
    <glyph glyph-name="summation" unicode="&#x2211;" horiz-adv-x="604" 
d="M47 735h494v-81h-394l215 -347l-215 -350h409v-81h-509v71l218 360l-218 356l1 1h-1v71z" />
    <glyph glyph-name="minus" unicode="&#x2212;" horiz-adv-x="619" 
d="M67 383h484v-77h-484v77z" />
    <glyph glyph-name="uni2215" unicode="&#x2215;" horiz-adv-x="667" 
d="M516 735h98l-464 -735h-98z" />
    <glyph glyph-name="uni2219" unicode="&#x2219;" horiz-adv-x="322" 
d="M97 348q0 27 18.5 45.5t44.5 18.5q27 0 45.5 -18.5t18.5 -45.5q0 -26 -18.5 -44.5t-45.5 -18.5q-26 0 -44.5 18.5t-18.5 44.5z" />
    <glyph glyph-name="radical" unicode="&#x221a;" horiz-adv-x="758" 
d="M67 317h151l140 -297l292 814h91q-38 -106 -81 -225.5t-87 -242t-88 -243.5t-83 -231h-76q-19 40 -40 84.5t-42 89.5t-41.5 88t-37.5 81h-98v82z" />
    <glyph glyph-name="infinity" unicode="&#x221e;" horiz-adv-x="1084" 
d="M778 104q-63 0 -116 29.5t-102 74.5l-85 78l-95 -79q-34 -27 -67 -39.5t-69 -12.5q-39 0 -72 14.5t-56 39t-36 58t-13 72.5t14.5 73t38.5 59t56 39.5t68 14.5q41 0 76.5 -15.5t76.5 -49.5l79 -67l96 87q45 41 96 67.5t110 26.5q41 0 83 -15t76.5 -44.5t56.5 -73.5
t22 -102t-22 -102t-56.5 -73.5t-76.5 -44.5t-83 -15zM926 339q0 38 -13 66.5t-34 47t-47.5 28t-53.5 9.5q-41 0 -79.5 -19.5t-76.5 -51.5l-93 -78l84 -72q42 -37 81 -59.5t83 -22.5q27 0 53.5 9.5t48 28t34.5 47t13 67.5zM244 237q26 0 51 10t60 38l68 55l-74 61
q-29 25 -54 33.5t-51 8.5q-38 0 -63.5 -28.5t-25.5 -75.5t25.5 -74.5t63.5 -27.5z" />
    <glyph glyph-name="integral" unicode="&#x222b;" horiz-adv-x="518" 
d="M300 -52q0 -45 -14 -81.5t-40 -62.5t-63 -40t-84 -14q-21 0 -47 3l4 75h43q23 0 44.5 6t38 20t26.5 37t10 57v694q0 44 14 80.5t40.5 62.5t63.5 40.5t83 14.5q28 0 47 -3l-4 -75h-43q-23 0 -44.5 -6t-38 -20t-26.5 -37t-10 -57v-694z" />
    <glyph glyph-name="approxequal" unicode="&#x2248;" horiz-adv-x="666" 
d="M63 378q8 9 20.5 20.5t31 22t43.5 17.5t56 7q26 0 51 -7t45 -18q38 -20 75 -38t69 -18q18 0 32.5 6.5t25.5 16.5t18.5 20.5t11.5 18.5l41 -62q-4 -9 -13.5 -22.5t-25.5 -25.5t-38 -21t-52 -9q-14 0 -28 3t-30 9t-36.5 16t-47.5 23q-20 10 -35 16t-26.5 9.5t-21 4.5
t-18.5 1q-36 0 -62 -16t-42 -37zM81 201q5 9 15.5 23t27.5 27.5t40 23.5t53 10q35 0 67.5 -15t64.5 -32q28 -14 54 -24.5t53 -10.5q22 0 39.5 5.5t30.5 14t22 18.5t14 18l41 -63q-9 -12 -21 -25t-28.5 -23t-38.5 -16.5t-51 -6.5q-34 0 -67.5 13.5t-68.5 31.5
q-21 11 -36.5 18t-28 11.5t-23.5 6.5t-23 2q-18 0 -32.5 -7t-26 -17.5t-20 -23t-14.5 -22.5z" />
    <glyph glyph-name="notequal" unicode="&#x2260;" horiz-adv-x="639" 
d="M77 492h279l58 111h83l-58 -111h122v-77h-162l-74 -143h236v-76h-276l-57 -111h-82l56 111h-125v76h166l73 143h-239v77z" />
    <glyph glyph-name="lessequal" unicode="&#x2264;" horiz-adv-x="670" 
d="M217 336l344 -139v-90l-484 197v62l484 217v-90zM78 80h484v-77h-484v77z" />
    <glyph glyph-name="greaterequal" unicode="&#x2265;" horiz-adv-x="670" 
d="M108 493v90l484 -217v-62l-484 -197v90l345 139zM107 80h484v-77h-484v77z" />
    <glyph glyph-name="lozenge" unicode="&#x25ca;" horiz-adv-x="499" 
d="M47 336l202 351l202 -351l-202 -351zM249 114l123 222l-123 222l-122 -222z" />
    <glyph glyph-name="uniF6C3" unicode="&#xf6c3;" horiz-adv-x="190" 
d="M153 -85l-74 -160h-61l44 160h91z" />
    <glyph glyph-name="uniF8FF" unicode="&#xf8ff;" horiz-adv-x="737" 
d="M97 735h543v-735h-543v735zM369 419l169 254h-337zM163 629v-520l172 259zM574 109v517l-172 -257zM199 62h339l-169 256z" />
    <glyph glyph-name="fi" unicode="&#xfb01;" horiz-adv-x="663" 
d="M576 0h-83v416h-271v-416h-83v416l-92 24v46h92v74q0 45 14.5 82t40.5 63.5t62 40.5t79 14q66 0 117 -34t84 -93l-67 -41q-26 47 -57.5 68.5t-76.5 21.5q-22 0 -42.5 -7t-36.5 -22t-25 -38t-9 -55v-74h354v-486z" />
    <glyph glyph-name="fl" unicode="&#xfb02;" horiz-adv-x="711" 
d="M47 486h92v72q0 45 14.5 82.5t41 64t64 41t84.5 14.5q18 0 36 -1t39 -4l-3 -73h-72q-23 0 -45 -6.5t-39 -21t-27 -38t-10 -58.5v-72h159v-70h-159v-416h-83v416l-92 24v46zM623 0h-82v755h82v-755z" />
    <glyph glyph-name="i.loclTRK" horiz-adv-x="257" 
d="M69 652q0 26 17.5 43.5t42.5 17.5t42.5 -17.5t17.5 -43.5q0 -24 -17.5 -42t-42.5 -18t-42.5 18t-17.5 42zM170 0h-83v486h83v-486z" />
    <glyph glyph-name="a.ss01" horiz-adv-x="550" 
d="M57 145q0 32 14 61t40 50.5t63.5 34t84.5 12.5q34 0 68 -5t63 -14v20q0 25 -9 47t-25 38t-39 25t-50 9q-42 0 -73 -13t-60 -33l-41 60q38 30 79 44.5t95 14.5q49 0 87 -15.5t64.5 -42.5t40 -64t13.5 -79v-295h-51l-20 78q-27 -41 -73.5 -64.5t-94.5 -23.5q-41 0 -74 12
t-55.5 33t-34.5 49.5t-12 60.5zM141 145q0 -34 21 -57t66 -24q10 -1 19.5 0.5t19.5 3.5q24 5 46 17t38.5 27t27 31t11.5 31v43q-32 9 -65.5 13t-65.5 4q-60 0 -89 -25.5t-29 -63.5z" />
    <glyph glyph-name="abreve.ss01" horiz-adv-x="550" 
d="M201 753q0 -48 25 -78t70 -30t70 30t25 78h74q0 -38 -13 -70.5t-35.5 -56t-53.5 -36.5t-67 -13t-66.5 13t-53 36.5t-35.5 56t-13 70.5h73zM57 145q0 32 14 61t40 50.5t63.5 34t84.5 12.5q34 0 68 -5t63 -14v20q0 25 -9 47t-25 38t-39 25t-50 9q-42 0 -73 -13t-60 -33
l-41 60q38 30 79 44.5t95 14.5q49 0 87 -15.5t64.5 -42.5t40 -64t13.5 -79v-295h-51l-20 78q-27 -41 -73.5 -64.5t-94.5 -23.5q-41 0 -74 12t-55.5 33t-34.5 49.5t-12 60.5zM141 145q0 -34 21 -57t66 -24q10 -1 19.5 0.5t19.5 3.5q24 5 46 17t38.5 27t27 31t11.5 31v43
q-32 9 -65.5 13t-65.5 4q-60 0 -89 -25.5t-29 -63.5z" />
    <glyph glyph-name="acircumflex.ss01" horiz-adv-x="550" 
d="M243 755h82l128 -180h-68l-101 106l-100 -106h-69zM57 145q0 32 14 61t40 50.5t63.5 34t84.5 12.5q34 0 68 -5t63 -14v20q0 25 -9 47t-25 38t-39 25t-50 9q-42 0 -73 -13t-60 -33l-41 60q38 30 79 44.5t95 14.5q49 0 87 -15.5t64.5 -42.5t40 -64t13.5 -79v-295h-51
l-20 78q-27 -41 -73.5 -64.5t-94.5 -23.5q-41 0 -74 12t-55.5 33t-34.5 49.5t-12 60.5zM141 145q0 -34 21 -57t66 -24q10 -1 19.5 0.5t19.5 3.5q24 5 46 17t38.5 27t27 31t11.5 31v43q-32 9 -65.5 13t-65.5 4q-60 0 -89 -25.5t-29 -63.5z" />
    <glyph glyph-name="adieresis.ss01" horiz-adv-x="550" 
d="M111 652q0 26 17.5 43.5t42.5 17.5t42.5 -17.5t17.5 -43.5q0 -24 -17.5 -42t-42.5 -18t-42.5 18t-17.5 42zM325 652q0 26 17.5 43.5t42.5 17.5q26 0 43.5 -17.5t17.5 -43.5q0 -24 -17.5 -42t-43.5 -18q-25 0 -42.5 18t-17.5 42zM57 145q0 32 14 61t40 50.5t63.5 34
t84.5 12.5q34 0 68 -5t63 -14v20q0 25 -9 47t-25 38t-39 25t-50 9q-42 0 -73 -13t-60 -33l-41 60q38 30 79 44.5t95 14.5q49 0 87 -15.5t64.5 -42.5t40 -64t13.5 -79v-295h-51l-20 78q-27 -41 -73.5 -64.5t-94.5 -23.5q-41 0 -74 12t-55.5 33t-34.5 49.5t-12 60.5zM141 145
q0 -34 21 -57t66 -24q10 -1 19.5 0.5t19.5 3.5q24 5 46 17t38.5 27t27 31t11.5 31v43q-32 9 -65.5 13t-65.5 4q-60 0 -89 -25.5t-29 -63.5z" />
    <glyph glyph-name="agrave.ss01" horiz-adv-x="550" 
d="M262 755l65 -180h-68l-95 180h98zM57 145q0 32 14 61t40 50.5t63.5 34t84.5 12.5q34 0 68 -5t63 -14v20q0 25 -9 47t-25 38t-39 25t-50 9q-42 0 -73 -13t-60 -33l-41 60q38 30 79 44.5t95 14.5q49 0 87 -15.5t64.5 -42.5t40 -64t13.5 -79v-295h-51l-20 78
q-27 -41 -73.5 -64.5t-94.5 -23.5q-41 0 -74 12t-55.5 33t-34.5 49.5t-12 60.5zM141 145q0 -34 21 -57t66 -24q10 -1 19.5 0.5t19.5 3.5q24 5 46 17t38.5 27t27 31t11.5 31v43q-32 9 -65.5 13t-65.5 4q-60 0 -89 -25.5t-29 -63.5z" />
    <glyph glyph-name="aacute.ss01" horiz-adv-x="550" 
d="M302 755h98l-105 -180h-68zM57 145q0 32 14 61t40 50.5t63.5 34t84.5 12.5q34 0 68 -5t63 -14v20q0 25 -9 47t-25 38t-39 25t-50 9q-42 0 -73 -13t-60 -33l-41 60q38 30 79 44.5t95 14.5q49 0 87 -15.5t64.5 -42.5t40 -64t13.5 -79v-295h-51l-20 78q-27 -41 -73.5 -64.5
t-94.5 -23.5q-41 0 -74 12t-55.5 33t-34.5 49.5t-12 60.5zM141 145q0 -34 21 -57t66 -24q10 -1 19.5 0.5t19.5 3.5q24 5 46 17t38.5 27t27 31t11.5 31v43q-32 9 -65.5 13t-65.5 4q-60 0 -89 -25.5t-29 -63.5z" />
    <glyph glyph-name="aogonek.ss01" horiz-adv-x="550" 
d="M370 -116q0 -23 13.5 -38.5t39.5 -15.5q8 0 15 1t12 3l21 -71q-12 -5 -28 -9t-34 -4q-25 0 -46 8.5t-37 24.5t-25 38t-9 49t10 51t26.5 44t38 36t45.5 28l-11 49q-27 -41 -73.5 -64.5t-94.5 -23.5q-41 0 -74 12t-55.5 33t-34.5 49.5t-12 60.5t14 61t40 50.5t63.5 34
t84.5 12.5q34 0 68 -5t63 -14v20q0 25 -9 47t-25 38t-39 25t-50 9q-42 0 -73 -13t-60 -33l-41 60q38 30 79 44.5t95 14.5q49 0 87 -15.5t64.5 -42.5t40 -64t13.5 -79v-295q-46 -21 -74 -51.5t-28 -64.5zM141 145q0 -34 21 -57t66 -24q10 -1 19.5 0.5t19.5 3.5q24 5 46 17
t38.5 27t27 31t11.5 31v43q-32 9 -65.5 13t-65.5 4q-60 0 -89 -25.5t-29 -63.5z" />
    <glyph glyph-name="amacron.ss01" horiz-adv-x="550" 
d="M88 697h381v-67h-381v67zM57 145q0 32 14 61t40 50.5t63.5 34t84.5 12.5q34 0 68 -5t63 -14v20q0 25 -9 47t-25 38t-39 25t-50 9q-42 0 -73 -13t-60 -33l-41 60q38 30 79 44.5t95 14.5q49 0 87 -15.5t64.5 -42.5t40 -64t13.5 -79v-295h-51l-20 78q-27 -41 -73.5 -64.5
t-94.5 -23.5q-41 0 -74 12t-55.5 33t-34.5 49.5t-12 60.5zM141 145q0 -34 21 -57t66 -24q10 -1 19.5 0.5t19.5 3.5q24 5 46 17t38.5 27t27 31t11.5 31v43q-32 9 -65.5 13t-65.5 4q-60 0 -89 -25.5t-29 -63.5z" />
    <glyph glyph-name="aring.ss01" horiz-adv-x="550" 
d="M194 664q0 20 7.5 37.5t20.5 30t30.5 20t36.5 7.5q40 0 68.5 -27.5t28.5 -67.5q0 -19 -7.5 -36.5t-21 -30.5t-31 -20.5t-37.5 -7.5q-19 0 -36.5 7.5t-30.5 20.5t-20.5 30.5t-7.5 36.5zM248 664q0 -17 12.5 -29t29.5 -12t29 12t12 29t-12 29t-29 12t-29.5 -12t-12.5 -29z
M57 145q0 32 14 61t40 50.5t63.5 34t84.5 12.5q34 0 68 -5t63 -14v20q0 25 -9 47t-25 38t-39 25t-50 9q-42 0 -73 -13t-60 -33l-41 60q38 30 79 44.5t95 14.5q49 0 87 -15.5t64.5 -42.5t40 -64t13.5 -79v-295h-51l-20 78q-27 -41 -73.5 -64.5t-94.5 -23.5q-41 0 -74 12
t-55.5 33t-34.5 49.5t-12 60.5zM141 145q0 -34 21 -57t66 -24q10 -1 19.5 0.5t19.5 3.5q24 5 46 17t38.5 27t27 31t11.5 31v43q-32 9 -65.5 13t-65.5 4q-60 0 -89 -25.5t-29 -63.5z" />
    <glyph glyph-name="atilde.ss01" horiz-adv-x="550" 
d="M79 621q11 49 42 77t77 28q22 0 42 -8t38.5 -18t36 -18t34.5 -8q23 0 36 15.5t17 35.5l66 -17q-4 -21 -13.5 -40t-24.5 -33.5t-35 -23t-45 -8.5q-21 0 -42 8t-40 17.5t-37 17.5t-33 8q-41 0 -53 -51zM57 145q0 32 14 61t40 50.5t63.5 34t84.5 12.5q34 0 68 -5t63 -14v20
q0 25 -9 47t-25 38t-39 25t-50 9q-42 0 -73 -13t-60 -33l-41 60q38 30 79 44.5t95 14.5q49 0 87 -15.5t64.5 -42.5t40 -64t13.5 -79v-295h-51l-20 78q-27 -41 -73.5 -64.5t-94.5 -23.5q-41 0 -74 12t-55.5 33t-34.5 49.5t-12 60.5zM141 145q0 -34 21 -57t66 -24
q10 -1 19.5 0.5t19.5 3.5q24 5 46 17t38.5 27t27 31t11.5 31v43q-32 9 -65.5 13t-65.5 4q-60 0 -89 -25.5t-29 -63.5z" />
    <glyph glyph-name="ae.ss01" horiz-adv-x="943" 
d="M661 63q39 0 74.5 15t61.5 52l70 -36q-37 -53 -90 -78.5t-116 -25.5q-75 0 -124.5 33t-75.5 84q-30 -59 -87 -88t-121 -29q-42 0 -78 12t-62.5 33.5t-41 50.5t-14.5 63q0 33 14 61.5t39.5 50t61.5 33.5t81 12q47 0 88 -5.5t76 -13.5v13q0 27 -12 49.5t-31.5 39
t-45.5 25.5t-53 9q-42 0 -77 -12.5t-64 -33.5l-41 60q38 29 83 44t99 15q67 0 116 -30t72 -80q26 48 72.5 79t112.5 31q53 0 95.5 -19.5t72 -53t45 -77t15.5 -91.5q0 -14 -0.5 -24.5t-1.5 -15.5h-374q5 -66 46.5 -109t114.5 -43zM649 423q-32 0 -58 -11t-45 -29.5t-30 -44
t-14 -55.5h289v1q-1 28 -12 53.5t-30 44.5t-44.5 30t-55.5 11zM141 149q0 -35 29.5 -60.5t83.5 -25.5q35 0 65 10.5t52 28.5t34 42.5t12 53.5v19q-36 9 -74 14t-77 5q-63 0 -94 -24.5t-31 -62.5z" />
    <glyph glyph-name="breve.cap" horiz-adv-x="374" 
d="M100 972q0 -35 24.5 -59t62.5 -24t62.5 24t24.5 59h75q0 -34 -12.5 -63t-34.5 -50t-51.5 -32.5t-63.5 -11.5t-63.5 11.5t-51.5 32.5t-34.5 50t-12.5 63h75z" />
    <glyph glyph-name="caron.alt" horiz-adv-x="239" 
d="M174 755l-47 -180h-54l23 180h78z" />
    <glyph glyph-name="caron.cap" horiz-adv-x="390" 
d="M135 820l-110 152h76l94 -93l94 93h76l-110 -152h-120z" />
    <glyph glyph-name="cedilla.cap" horiz-adv-x="231" 
d="M80 -247q-18 0 -36 3.5t-26 7.5l19 66q9 -3 21 -5t21 -2q53 0 53 40q0 20 -19 31t-49 11l17 111h59l-9 -67q37 -6 61 -29t24 -64q0 -44 -36.5 -73.5t-99.5 -29.5z" />
    <glyph glyph-name="circumflex.cap" horiz-adv-x="390" 
d="M255 972l110 -152h-76l-95 93l-93 -93h-76l110 152h120z" />
    <glyph glyph-name="acute.cap" horiz-adv-x="228" 
d="M208 972l-109 -152h-74l79 152h104z" />
    <glyph glyph-name="uni0326.alt" horiz-adv-x="292" 
d="M85 575l78 187h61l-38 -187h-101z" />
    <glyph glyph-name="dieresis.cap" horiz-adv-x="386" 
d="M25 897q0 24 16.5 41.5t40.5 17.5t41.5 -17.5t17.5 -41.5q0 -23 -17.5 -40t-41.5 -17t-40.5 17t-16.5 40zM245 897q0 24 17 41.5t41 17.5t41 -17.5t17 -41.5q0 -23 -17 -40t-41 -17t-41 17t-17 40z" />
    <glyph glyph-name="dotaccent.cap" horiz-adv-x="165" 
d="M21 901q0 26 17.5 44.5t43.5 18.5t44.5 -18.5t18.5 -44.5t-18.5 -43.5t-44.5 -17.5t-43.5 17.5t-17.5 43.5z" />
    <glyph glyph-name="grave.cap" horiz-adv-x="229" 
d="M129 972l75 -152h-75l-104 152h104z" />
    <glyph glyph-name="hungarumlaut.cap" horiz-adv-x="422" 
d="M397 972l-103 -152h-74l74 152h103zM202 972l-103 -152h-74l74 152h103z" />
    <glyph glyph-name="macron.cap" horiz-adv-x="462" 
d="M25 932h412v-72h-412v72z" />
    <glyph glyph-name="ogonek.cap" horiz-adv-x="301" 
d="M114 -116q0 -23 14.5 -37.5t39.5 -14.5q8 0 16.5 1t15.5 3l21 -74q-14 -5 -28.5 -8.5t-33.5 -3.5q-25 0 -47.5 9t-40 25t-28 38t-10.5 49q0 53 36 96t93 67l59 -34q-48 -21 -77.5 -51t-29.5 -65z" />
    <glyph glyph-name="ring.cap" horiz-adv-x="244" 
d="M25 913q0 41 28 69.5t69 28.5t69 -28.5t28 -69.5t-28 -69t-69 -28t-69 28t-28 69zM86 913q0 -15 10.5 -25.5t25.5 -10.5t26 10.5t11 25.5t-11 26t-26 11t-25.5 -11t-10.5 -26z" />
    <glyph glyph-name="tilde.cap" horiz-adv-x="477" 
d="M25 854q12 49 45.5 76t82.5 27q25 0 47.5 -8t43 -18t40.5 -18t39 -8q23 0 41.5 15t21.5 38l66 -19q-10 -43 -42.5 -74t-85.5 -31q-24 0 -47 8t-44.5 18t-41.5 18t-38 8q-26 0 -41.5 -14t-20.5 -37z" />
    <glyph glyph-name="uni0326.cap" horiz-adv-x="221" 
d="M177 -85l-73 -152h-69l43 152h99z" />
    <glyph glyph-name="zero.denominator" horiz-adv-x="389" 
d="M37 202q0 43 9 81t28 66t48.5 44.5t71.5 16.5t71.5 -16.5t49 -44.5t28.5 -66t9 -81t-9 -81t-28.5 -66t-49 -44.5t-71.5 -16.5t-71.5 16.5t-48.5 44.5t-28 66t-9 81zM102 202q0 -28 4 -54.5t14 -46.5t28 -32t46 -12t46 12t28 32t14 46.5t4 54.5q0 29 -4 55t-14 46t-28 32
t-46 12t-46 -12t-28 -32t-14 -46t-4 -55z" />
    <glyph glyph-name="one.denominator" horiz-adv-x="240" 
d="M55 289l-32 55l99 60h50v-404h-66v320z" />
    <glyph glyph-name="two.denominator" horiz-adv-x="358" 
d="M43 50l165 168q16 17 28 35.5t12 38.5q0 28 -21.5 41.5t-44.5 13.5q-20 0 -40.5 -10.5t-33.5 -39.5l-63 17q14 45 52 70.5t85 25.5q60 0 96 -33.5t36 -84.5q0 -36 -16.5 -63.5t-49.5 -59.5l-111 -109h179v-60h-273v50z" />
    <glyph glyph-name="three.denominator" horiz-adv-x="344" 
d="M131 238h11t14 1q32 2 54 15.5t22 42.5q0 26 -20 38t-46 12q-23 0 -40 -7.5t-31 -26.5l-53 37q22 31 54 45.5t70 14.5q30 0 54.5 -9t42 -24.5t27 -36t9.5 -43.5q0 -29 -13.5 -50t-30.5 -35q21 -15 35.5 -39.5t14.5 -54.5q0 -26 -11 -48.5t-30.5 -39.5t-47 -26.5
t-61.5 -9.5q-44 0 -79.5 20t-53.5 51l57 29q10 -18 31.5 -27.5t44.5 -9.5q37 0 60 17t23 44q0 57 -89 63h-4l-9 1h-5v56z" />
    <glyph glyph-name="four.denominator" horiz-adv-x="347" 
d="M17 131l203 273h49v-262h65v-58h-65v-84h-66v84h-186v47zM97 142h106v140z" />
    <glyph glyph-name="five.denominator" horiz-adv-x="354" 
d="M69 404h222v-61h-163l-7 -78q5 5 19.5 7.5t26.5 2.5q32 0 59.5 -11t47.5 -30t31 -44.5t11 -54.5q0 -27 -10.5 -52.5t-30 -45t-47.5 -31.5t-62 -12q-41 0 -76.5 18t-55.5 51l57 29q13 -20 34 -27.5t40 -7.5q33 0 58.5 22t25.5 57q0 34 -24.5 56t-59.5 22q-38 0 -60 -19
h-52z" />
    <glyph glyph-name="six.denominator" horiz-adv-x="364" 
d="M159 267q3 2 10.5 3.5t17.5 1.5q28 0 53 -11t44 -29.5t30 -44t11 -55.5q0 -29 -11.5 -54.5t-31.5 -44t-46 -29.5t-56 -11t-56.5 10.5t-46.5 29.5t-31.5 44t-11.5 54q0 50 31 98l109 175h77zM98 131q0 -32 24.5 -54t57.5 -22q34 0 56.5 22.5t22.5 54.5q0 35 -23 57t-58 22
q-36 0 -55 -13q-11 -14 -18 -29.5t-7 -37.5z" />
    <glyph glyph-name="seven.denominator" horiz-adv-x="318" 
d="M26 404h264v-48l-175 -356h-68l169 343h-190v61z" />
    <glyph glyph-name="eight.denominator" horiz-adv-x="375" 
d="M318 297q0 -26 -13.5 -48t-34.5 -33q26 -13 46 -38t20 -57q0 -27 -10.5 -50t-30 -40t-47 -27t-60.5 -10t-60.5 10t-47 27t-30.5 40t-11 50q0 32 19.5 57.5t44.5 36.5q-20 11 -33 33t-13 49q0 26 11.5 46.5t30 35.5t42 23t47.5 8t47.5 -8t42 -22.5t29.5 -35.5t11 -47z
M188 347q-29 0 -46.5 -13.5t-17.5 -36.5t16.5 -38t47.5 -15q30 0 46.5 15.5t16.5 37.5q0 23 -18 36.5t-45 13.5zM270 121q0 26 -22 45t-60 19t-60 -19t-22 -45q0 -29 22 -46.5t60 -17.5q37 0 59.5 17.5t22.5 46.5z" />
    <glyph glyph-name="nine.denominator" horiz-adv-x="364" 
d="M205 137q-13 -5 -27 -5q-29 0 -54.5 11t-44 29.5t-29.5 44t-11 54.5t11.5 54.5t31 44t45.5 29.5t56 11t57 -10.5t47 -29t31.5 -43.5t11.5 -54q0 -50 -31 -98l-109 -176h-76zM265 273q0 32 -23.5 53.5t-58.5 21.5q-33 0 -56 -22.5t-23 -54.5q0 -35 23 -56t58 -21
q17 0 33 4t23 8q11 14 17.5 29.5t6.5 37.5z" />
    <glyph glyph-name="zero.numerator" horiz-adv-x="389" 
d="M37 533q0 43 9 81t28 66t48.5 44.5t71.5 16.5t71.5 -16.5t49 -44.5t28.5 -66t9 -81t-9 -81t-28.5 -66t-49 -44t-71.5 -16t-71.5 16t-48.5 44t-28 66t-9 81zM102 533q0 -28 4 -54.5t14 -46.5t28 -32t46 -12t46 12t28 32t14 46.5t4 54.5q0 29 -4 55t-14 46t-28 32t-46 12
t-46 -12t-28 -32t-14 -46t-4 -55z" />
    <glyph glyph-name="one.numerator" horiz-adv-x="240" 
d="M55 620l-32 55l99 60h50v-404h-66v320z" />
    <glyph glyph-name="two.numerator" horiz-adv-x="358" 
d="M43 381l165 168q16 17 28 35.5t12 38.5q0 28 -21.5 41.5t-44.5 13.5q-20 0 -40.5 -10.5t-33.5 -39.5l-63 17q14 45 52 70.5t85 25.5q60 0 96 -33.5t36 -84.5q0 -36 -16.5 -63.5t-49.5 -59.5l-111 -109h179v-60h-273v50z" />
    <glyph glyph-name="three.numerator" horiz-adv-x="344" 
d="M131 569h11t14 1q32 2 54 17.5t22 40.5q0 26 -20 38t-46 12q-23 0 -40 -7.5t-31 -26.5l-53 37q22 31 54 45.5t70 14.5q30 0 54.5 -9t42 -24.5t27 -36t9.5 -43.5q0 -29 -13.5 -50t-30.5 -35q21 -15 35.5 -39.5t14.5 -54.5q0 -26 -11 -48.5t-30.5 -39t-47 -26t-61.5 -9.5
q-44 0 -79.5 19.5t-53.5 50.5l57 29q10 -18 31.5 -27.5t44.5 -9.5q37 0 60 17t23 44q0 57 -89 63h-4l-9 1h-5v56z" />
    <glyph glyph-name="four.numerator" horiz-adv-x="347" 
d="M17 462l203 273h49v-262h65v-58h-65v-84h-66v84h-186v47zM97 473h106v140z" />
    <glyph glyph-name="five.numerator" horiz-adv-x="354" 
d="M69 735h222v-61h-163l-7 -78q5 5 19.5 7.5t26.5 2.5q32 0 59.5 -11t47.5 -30t31 -44.5t11 -54.5q0 -27 -10.5 -52.5t-30 -45t-47.5 -31.5t-62 -12q-41 0 -76.5 18t-55.5 51l57 30q13 -20 34 -28t40 -8q33 0 58.5 22t25.5 57q0 34 -24.5 56t-59.5 22q-38 0 -60 -19h-52z
" />
    <glyph glyph-name="six.numerator" horiz-adv-x="364" 
d="M159 598q3 2 10.5 3.5t17.5 1.5q28 0 53 -11t44 -29.5t30 -44t11 -55.5q0 -29 -11.5 -54.5t-31.5 -44t-46 -29.5t-56 -11t-56.5 10.5t-46.5 29.5t-31.5 44t-11.5 54q0 50 31 98l109 175h77zM98 462q0 -32 24.5 -54t57.5 -22q34 0 56.5 22.5t22.5 54.5q0 35 -23 57t-58 22
q-36 0 -55 -13q-11 -14 -18 -29.5t-7 -37.5z" />
    <glyph glyph-name="seven.numerator" horiz-adv-x="318" 
d="M26 735h264v-48l-175 -356h-68l169 343h-190v61z" />
    <glyph glyph-name="eight.numerator" horiz-adv-x="375" 
d="M318 628q0 -26 -13.5 -48t-34.5 -33q26 -13 46 -38t20 -57q0 -27 -10.5 -50t-30 -40t-47 -27t-60.5 -10t-60.5 10t-47 27t-30.5 40t-11 50q0 32 19.5 57.5t44.5 36.5q-20 11 -33 33t-13 49q0 26 11.5 46.5t30 35.5t42 23t47.5 8t47.5 -8t42 -22.5t29.5 -35.5t11 -47z
M188 678q-29 0 -46.5 -13.5t-17.5 -36.5t16.5 -38t47.5 -15q30 0 46.5 15.5t16.5 37.5q0 23 -18 36.5t-45 13.5zM270 452q0 26 -22 45t-60 19t-60 -19t-22 -45q0 -29 22 -46.5t60 -17.5q37 0 59.5 17.5t22.5 46.5z" />
    <glyph glyph-name="nine.numerator" horiz-adv-x="364" 
d="M205 468q-13 -5 -27 -5q-29 0 -54.5 11t-44 29.5t-29.5 44t-11 55.5q0 29 11.5 54t31 43.5t45.5 29.5t56 11t57 -10.5t47 -29t31.5 -43.5t11.5 -54q0 -50 -31 -98l-109 -176h-76zM265 604q0 32 -23.5 53.5t-58.5 21.5q-33 0 -56 -22t-23 -54q0 -36 23 -57t58 -21
q17 0 33 4t23 8q11 14 17.5 29.5t6.5 37.5z" />
    <glyph glyph-name="A.sc" horiz-adv-x="666" 
d="M462 156h-259l-65 -156h-85l250 588h58l252 -588h-86zM235 231h195l-98 229z" />
    <glyph glyph-name="Aacute.sc" horiz-adv-x="666" 
d="M365 801h104l-109 -152h-74zM462 156h-259l-65 -156h-85l250 588h58l252 -588h-86zM235 231h195l-98 229z" />
    <glyph glyph-name="Abreve.sc" horiz-adv-x="666" 
d="M245 802q0 -35 24.5 -59t62.5 -24t62.5 24t24.5 59h75q0 -34 -12.5 -63t-34.5 -50t-51.5 -32.5t-63.5 -11.5t-63.5 11.5t-51.5 32.5t-34.5 50t-12.5 63h75zM462 156h-259l-65 -156h-85l250 588h58l252 -588h-86zM235 231h195l-98 229z" />
    <glyph glyph-name="Acircumflex.sc" horiz-adv-x="666" 
d="M392 801l110 -152h-76l-95 93l-93 -93h-76l110 152h120zM462 156h-259l-65 -156h-85l250 588h58l252 -588h-86zM235 231h195l-98 229z" />
    <glyph glyph-name="Adieresis.sc" horiz-adv-x="666" 
d="M164 726q0 24 16.5 41.5t40.5 17.5t41.5 -17.5t17.5 -41.5q0 -23 -17.5 -40t-41.5 -17t-40.5 17t-16.5 40zM384 726q0 24 17 41.5t41 17.5t41 -17.5t17 -41.5q0 -23 -17 -40t-41 -17t-41 17t-17 40zM462 156h-259l-65 -156h-85l250 588h58l252 -588h-86zM235 231h195
l-98 229z" />
    <glyph glyph-name="Agrave.sc" horiz-adv-x="666" 
d="M304 801l75 -152h-75l-104 152h104zM462 156h-259l-65 -156h-85l250 588h58l252 -588h-86zM235 231h195l-98 229z" />
    <glyph glyph-name="Amacron.sc" horiz-adv-x="666" 
d="M126 755h412v-72h-412v72zM462 156h-259l-65 -156h-85l250 588h58l252 -588h-86zM235 231h195l-98 229z" />
    <glyph glyph-name="Aogonek.sc" horiz-adv-x="666" 
d="M527 -89q0 -16 10.5 -26.5t30.5 -10.5q6 0 13.5 0.5t12.5 2.5l19 -67q-11 -5 -24 -8t-29 -3q-47 0 -79 25.5t-32 70.5q0 30 16 60.5t57 54.5l-60 146h-259l-65 -156h-85l250 588h58l252 -588q-41 -17 -63.5 -40t-22.5 -49zM332 460q-24 -58 -48 -115t-49 -114h195z" />
    <glyph glyph-name="Aring.sc" horiz-adv-x="666" 
d="M235 739q0 41 28 69.5t69 28.5t69 -28.5t28 -69.5t-28 -69t-69 -28t-69 28t-28 69zM296 739q0 -15 10.5 -25.5t25.5 -10.5t26 10.5t11 25.5t-11 26t-26 11t-25.5 -11t-10.5 -26zM462 156h-259l-65 -156h-85l250 588h58l252 -588h-86zM235 231h195l-98 229z" />
    <glyph glyph-name="Atilde.sc" horiz-adv-x="666" 
d="M119 680q12 49 45.5 76t82.5 27q25 0 47.5 -8t43 -18t40.5 -18t39 -8q23 0 41.5 15t21.5 38l66 -19q-10 -43 -42.5 -74t-85.5 -31q-24 0 -47 8t-44.5 18t-41.5 18t-38 8q-26 0 -41.5 -14t-20.5 -37zM462 156h-259l-65 -156h-85l250 588h58l252 -588h-86zM235 231h195
l-98 229z" />
    <glyph glyph-name="B.sc" horiz-adv-x="601" 
d="M325 588q37 0 70 -11t57.5 -32t38.5 -50.5t14 -65.5q0 -38 -17 -68.5t-43 -50.5q41 -22 63.5 -56.5t22.5 -83.5q0 -40 -15 -71.5t-41 -53.5t-59.5 -33.5t-71.5 -11.5h-250v588h231zM426 429q0 42 -29 65t-78 23h-147v-180h153q52 0 76.5 25t24.5 67zM452 170
q0 100 -124 100h-156v-200h165q54 2 84.5 28t30.5 72z" />
    <glyph glyph-name="C.sc" horiz-adv-x="655" 
d="M146 293q0 -45 16.5 -85.5t46.5 -71t71 -49t89 -18.5q53 0 98.5 19.5t79.5 51.5l55 -53q-43 -44 -103.5 -69.5t-129.5 -25.5q-65 0 -120.5 24t-96 65t-63.5 96t-23 116q0 62 23 117t63.5 96t96 65.5t120.5 24.5q66 0 122.5 -25t98.5 -67l-56 -51q-32 30 -74.5 48.5
t-90.5 18.5t-89 -18.5t-71 -50t-46.5 -72.5t-16.5 -86z" />
    <glyph glyph-name="Cacute.sc" horiz-adv-x="654" 
d="M402 801h104l-109 -152h-74zM146 293q0 -45 16.5 -85.5t46.5 -71t71 -49t89 -18.5q53 0 98.5 19.5t79.5 51.5l55 -53q-43 -44 -103.5 -69.5t-129.5 -25.5q-65 0 -120.5 24t-96 65t-63.5 96t-23 116q0 62 23 117t63.5 96t96 65.5t120.5 24.5q66 0 122.5 -25t98.5 -67
l-56 -51q-32 30 -74.5 48.5t-90.5 18.5t-89 -18.5t-71 -50t-46.5 -72.5t-16.5 -86z" />
    <glyph glyph-name="Ccaron.sc" horiz-adv-x="654" 
d="M429 649h-120l-110 152h76l94 -93l94 93h76zM146 293q0 -45 16.5 -85.5t46.5 -71t71 -49t89 -18.5q53 0 98.5 19.5t79.5 51.5l55 -53q-43 -44 -103.5 -69.5t-129.5 -25.5q-65 0 -120.5 24t-96 65t-63.5 96t-23 116q0 62 23 117t63.5 96t96 65.5t120.5 24.5
q66 0 122.5 -25t98.5 -67l-56 -51q-32 30 -74.5 48.5t-90.5 18.5t-89 -18.5t-71 -50t-46.5 -72.5t-16.5 -86z" />
    <glyph glyph-name="Ccedilla.sc" horiz-adv-x="654" 
d="M146 293q0 -45 16.5 -85.5t46.5 -71t71 -49t89 -18.5q53 0 98.5 19.5t79.5 51.5l55 -53q-39 -40 -92.5 -64.5t-115.5 -29.5l-4 -33q37 -6 61 -29t24 -64q0 -44 -36.5 -73.5t-99.5 -29.5q-18 0 -36 3.5t-26 7.5l19 66q9 -3 21 -5t21 -2q54 0 54 40q0 20 -19.5 31t-49.5 11
l12 78q-58 6 -107.5 32t-85.5 66t-56 92t-20 109q0 62 23 117t63.5 96t96 65.5t120.5 24.5q66 0 122.5 -25t98.5 -67l-56 -51q-32 30 -74.5 48.5t-90.5 18.5t-89 -18.5t-71 -50t-46.5 -72.5t-16.5 -86z" />
    <glyph glyph-name="Ccircumflex.sc" horiz-adv-x="654" 
d="M429 801l110 -152h-76l-95 93l-93 -93h-76l110 152h120zM146 293q0 -45 16.5 -85.5t46.5 -71t71 -49t89 -18.5q53 0 98.5 19.5t79.5 51.5l55 -53q-43 -44 -103.5 -69.5t-129.5 -25.5q-65 0 -120.5 24t-96 65t-63.5 96t-23 116q0 62 23 117t63.5 96t96 65.5t120.5 24.5
q66 0 122.5 -25t98.5 -67l-56 -51q-32 30 -74.5 48.5t-90.5 18.5t-89 -18.5t-71 -50t-46.5 -72.5t-16.5 -86z" />
    <glyph glyph-name="Cdotaccent.sc" horiz-adv-x="654" 
d="M307 729q0 26 17.5 44.5t43.5 18.5t44.5 -18.5t18.5 -44.5t-18.5 -43.5t-44.5 -17.5t-43.5 17.5t-17.5 43.5zM146 293q0 -45 16.5 -85.5t46.5 -71t71 -49t89 -18.5q53 0 98.5 19.5t79.5 51.5l55 -53q-43 -44 -103.5 -69.5t-129.5 -25.5q-65 0 -120.5 24t-96 65t-63.5 96
t-23 116q0 62 23 117t63.5 96t96 65.5t120.5 24.5q66 0 122.5 -25t98.5 -67l-56 -51q-32 30 -74.5 48.5t-90.5 18.5t-89 -18.5t-71 -50t-46.5 -72.5t-16.5 -86z" />
    <glyph glyph-name="D.sc" horiz-adv-x="669" 
d="M94 588h198q73 0 131 -22.5t98 -62.5t61 -93.5t21 -115.5t-21 -115.5t-61 -93.5t-97.5 -62.5t-130.5 -22.5h-199v588zM521 294q0 47 -15.5 87.5t-45 70t-72 46.5t-96.5 17h-120v-442h121q54 0 96.5 16.5t72 46t44.5 70t15 88.5z" />
    <glyph glyph-name="Dcaron.sc" horiz-adv-x="669" 
d="M354 649h-120l-110 152h76l94 -93l94 93h76zM94 588h198q73 0 131 -22.5t98 -62.5t61 -93.5t21 -115.5t-21 -115.5t-61 -93.5t-97.5 -62.5t-130.5 -22.5h-199v588zM521 294q0 47 -15.5 87.5t-45 70t-72 46.5t-96.5 17h-120v-442h121q54 0 96.5 16.5t72 46t44.5 70
t15 88.5z" />
    <glyph glyph-name="Eth.sc" horiz-adv-x="669" 
d="M20 340h75v248h198q73 0 131 -22.5t98 -62.5t61 -93.5t21 -115.5t-21 -115.5t-61 -93.5t-97.5 -62.5t-130.5 -22.5h-199v267h-75v73zM522 294q0 47 -15.5 87.5t-45 70t-72 46.5t-96.5 17h-120v-175h118v-73h-118v-194h121q54 0 96.5 16.5t72 46t44.5 70t15 88.5z" />
    <glyph glyph-name="Dcroat.sc" horiz-adv-x="669" 
d="M20 340h75v248h198q73 0 131 -22.5t98 -62.5t61 -93.5t21 -115.5t-21 -115.5t-61 -93.5t-97.5 -62.5t-130.5 -22.5h-199v267h-75v73zM522 294q0 47 -15.5 87.5t-45 70t-72 46.5t-96.5 17h-120v-175h118v-73h-118v-194h121q54 0 96.5 16.5t72 46t44.5 70t15 88.5z" />
    <glyph glyph-name="E.sc" horiz-adv-x="568" 
d="M94 588h392v-73h-314v-174h273v-74h-273v-194h326v-73h-404v588z" />
    <glyph glyph-name="Eacute.sc" horiz-adv-x="568" 
d="M325 801h104l-109 -152h-74zM94 588h392v-73h-314v-174h273v-74h-273v-194h326v-73h-404v588z" />
    <glyph glyph-name="Ebreve.sc" horiz-adv-x="568" 
d="M205 802q0 -35 24.5 -59t62.5 -24t62.5 24t24.5 59h75q0 -34 -12.5 -63t-34.5 -50t-51.5 -32.5t-63.5 -11.5t-63.5 11.5t-51.5 32.5t-34.5 50t-12.5 63h75zM94 588h392v-73h-314v-174h273v-74h-273v-194h326v-73h-404v588z" />
    <glyph glyph-name="Ecaron.sc" horiz-adv-x="568" 
d="M353 649h-120l-110 152h76l94 -93l94 93h76zM94 588h392v-73h-314v-174h273v-74h-273v-194h326v-73h-404v588z" />
    <glyph glyph-name="Ecircumflex.sc" horiz-adv-x="568" 
d="M352 801l110 -152h-76l-95 93l-93 -93h-76l110 152h120zM94 588h392v-73h-314v-174h273v-74h-273v-194h326v-73h-404v588z" />
    <glyph glyph-name="Edieresis.sc" horiz-adv-x="568" 
d="M125 726q0 24 16.5 41.5t40.5 17.5t41.5 -17.5t17.5 -41.5q0 -23 -17.5 -40t-41.5 -17t-40.5 17t-16.5 40zM345 726q0 24 17 41.5t41 17.5t41 -17.5t17 -41.5q0 -23 -17 -40t-41 -17t-41 17t-17 40zM94 588h392v-73h-314v-174h273v-74h-273v-194h326v-73h-404v588z" />
    <glyph glyph-name="Edotaccent.sc" horiz-adv-x="568" 
d="M231 729q0 26 17.5 44.5t43.5 18.5t44.5 -18.5t18.5 -44.5t-18.5 -43.5t-44.5 -17.5t-43.5 17.5t-17.5 43.5zM94 588h392v-73h-314v-174h273v-74h-273v-194h326v-73h-404v588z" />
    <glyph glyph-name="Egrave.sc" horiz-adv-x="568" 
d="M279 801l75 -152h-75l-104 152h104zM94 588h392v-73h-314v-174h273v-74h-273v-194h326v-73h-404v588z" />
    <glyph glyph-name="Emacron.sc" horiz-adv-x="568" 
d="M87 755h412v-72h-412v72zM94 588h392v-73h-314v-174h273v-74h-273v-194h326v-73h-404v588z" />
    <glyph glyph-name="Eogonek.sc" horiz-adv-x="568" 
d="M94 588h392v-73h-314v-174h273v-74h-273v-194h326v-73q-40 -17 -63 -40t-23 -49q0 -16 10.5 -26.5t30.5 -10.5q6 0 13.5 1t12.5 2l20 -67q-12 -5 -24.5 -8t-29.5 -3q-43 0 -74.5 27.5t-31.5 73.5q0 29 14 54.5t40 45.5h-299v588z" />
    <glyph glyph-name="F.sc" horiz-adv-x="523" 
d="M94 588h376v-73h-298v-174h269v-74h-269v-267h-78v588z" />
    <glyph glyph-name="G.sc" horiz-adv-x="696" 
d="M340 322h278v-224q-96 -106 -245 -106q-66 0 -122 23.5t-97 64.5t-64.5 96t-23.5 117q0 63 23.5 118.5t64.5 96.5t97 64.5t122 23.5t124 -25t100 -68l-57 -52q-29 31 -73.5 50t-93.5 19q-50 0 -92 -19t-72 -50.5t-46.5 -72.5t-16.5 -85q0 -46 17 -87t47 -71.5t71.5 -48
t91.5 -17.5q49 0 93.5 14.5t72.5 43.5v121h-199v74z" />
    <glyph glyph-name="Gbreve.sc" horiz-adv-x="696" 
d="M286 802q0 -35 24.5 -59t62.5 -24t62.5 24t24.5 59h75q0 -34 -12.5 -63t-34.5 -50t-51.5 -32.5t-63.5 -11.5t-63.5 11.5t-51.5 32.5t-34.5 50t-12.5 63h75zM340 322h278v-224q-96 -106 -245 -106q-66 0 -122 23.5t-97 64.5t-64.5 96t-23.5 117q0 63 23.5 118.5t64.5 96.5
t97 64.5t122 23.5t124 -25t100 -68l-57 -52q-29 31 -73.5 50t-93.5 19q-50 0 -92 -19t-72 -50.5t-46.5 -72.5t-16.5 -85q0 -46 17 -87t47 -71.5t71.5 -48t91.5 -17.5q49 0 93.5 14.5t72.5 43.5v121h-199v74z" />
    <glyph glyph-name="Gcircumflex.sc" horiz-adv-x="696" 
d="M433 801l110 -152h-76l-95 93l-93 -93h-76l110 152h120zM340 322h278v-224q-96 -106 -245 -106q-66 0 -122 23.5t-97 64.5t-64.5 96t-23.5 117q0 63 23.5 118.5t64.5 96.5t97 64.5t122 23.5t124 -25t100 -68l-57 -52q-29 31 -73.5 50t-93.5 19q-50 0 -92 -19t-72 -50.5
t-46.5 -72.5t-16.5 -85q0 -46 17 -87t47 -71.5t71.5 -48t91.5 -17.5q49 0 93.5 14.5t72.5 43.5v121h-199v74z" />
    <glyph glyph-name="uni0122.sc" horiz-adv-x="696" 
d="M340 322h278v-224q-96 -106 -245 -106q-66 0 -122 23.5t-97 64.5t-64.5 96t-23.5 117q0 63 23.5 118.5t64.5 96.5t97 64.5t122 23.5t124 -25t100 -68l-57 -52q-29 31 -73.5 50t-93.5 19q-50 0 -92 -19t-72 -50.5t-46.5 -72.5t-16.5 -85q0 -46 17 -87t47 -71.5t71.5 -48
t91.5 -17.5q49 0 93.5 14.5t72.5 43.5v121h-199v74zM429 -61l-73 -152h-69l43 152h99z" />
    <glyph glyph-name="Gdotaccent.sc" horiz-adv-x="696" 
d="M311 729q0 26 17.5 44.5t43.5 18.5t44.5 -18.5t18.5 -44.5t-18.5 -43.5t-44.5 -17.5t-43.5 17.5t-17.5 43.5zM340 322h278v-224q-96 -106 -245 -106q-66 0 -122 23.5t-97 64.5t-64.5 96t-23.5 117q0 63 23.5 118.5t64.5 96.5t97 64.5t122 23.5t124 -25t100 -68l-57 -52
q-29 31 -73.5 50t-93.5 19q-50 0 -92 -19t-72 -50.5t-46.5 -72.5t-16.5 -85q0 -46 17 -87t47 -71.5t71.5 -48t91.5 -17.5q49 0 93.5 14.5t72.5 43.5v121h-199v74z" />
    <glyph glyph-name="H.sc" horiz-adv-x="656" 
d="M562 0h-79v267h-311v-267h-78v588h78v-248h311v248h79v-588z" />
    <glyph glyph-name="Hcircumflex.sc" horiz-adv-x="656" 
d="M287 827h82l128 -180h-68l-101 106l-100 -106h-69zM562 0h-79v267h-311v-267h-78v588h78v-248h311v248h79v-588z" />
    <glyph glyph-name="Hbar.sc" horiz-adv-x="656" 
d="M562 498h57v-69h-57v-429h-79v267h-311v-267h-78v429h-57v69h57v90h78v-90h311v90h79v-90zM483 340v89h-311v-89h311z" />
    <glyph glyph-name="I.sc" horiz-adv-x="266" 
d="M172 0h-78v588h78v-588z" />
    <glyph glyph-name="Iacute.sc" horiz-adv-x="266" 
d="M178 801h104l-109 -152h-74zM172 0h-78v588h78v-588z" />
    <glyph glyph-name="Ibreve.sc" horiz-adv-x="266" 
d="M46 802q0 -35 24.5 -59t62.5 -24t62.5 24t24.5 59h75q0 -34 -12.5 -63t-34.5 -50t-51.5 -32.5t-63.5 -11.5t-63.5 11.5t-51.5 32.5t-34.5 50t-12.5 63h75zM172 0h-78v588h78v-588z" />
    <glyph glyph-name="Icircumflex.sc" horiz-adv-x="266" 
d="M194 801l110 -152h-76l-95 93l-93 -93h-76l110 152h120zM172 0h-78v588h78v-588z" />
    <glyph glyph-name="Idieresis.sc" horiz-adv-x="266" 
d="M-35 726q0 24 16.5 41.5t40.5 17.5t41.5 -17.5t17.5 -41.5q0 -23 -17.5 -40t-41.5 -17t-40.5 17t-16.5 40zM185 726q0 24 17 41.5t41 17.5t41 -17.5t17 -41.5q0 -23 -17 -40t-41 -17t-41 17t-17 40zM172 0h-78v588h78v-588z" />
    <glyph glyph-name="Idotaccent.sc" horiz-adv-x="266" 
d="M71 729q0 26 17.5 44.5t43.5 18.5t44.5 -18.5t18.5 -44.5t-18.5 -43.5t-44.5 -17.5t-43.5 17.5t-17.5 43.5zM172 0h-78v588h78v-588z" />
    <glyph glyph-name="Igrave.sc" horiz-adv-x="266" 
d="M95 801l75 -152h-75l-104 152h104zM172 0h-78v588h78v-588z" />
    <glyph glyph-name="Imacron.sc" horiz-adv-x="266" 
d="M-73 755h412v-72h-412v72zM172 0h-78v588h78v-588z" />
    <glyph glyph-name="Iogonek.sc" horiz-adv-x="267" 
d="M87 -89q0 -16 10.5 -26.5t31.5 -10.5q5 0 12.5 1t12.5 2l19 -67q-11 -5 -23.5 -8t-29.5 -3q-20 0 -40 6.5t-35.5 19t-25 31t-9.5 42.5q0 36 20.5 65t63.5 55v570h79v-588q-40 -17 -63 -40t-23 -49z" />
    <glyph glyph-name="Itilde.sc" horiz-adv-x="266" 
d="M-79 680q12 49 45.5 76t82.5 27q25 0 47.5 -8t43 -18t40.5 -18t39 -8q23 0 41.5 15t21.5 38l66 -19q-10 -43 -42.5 -74t-85.5 -31q-24 0 -47 8t-44.5 18t-41.5 18t-38 8q-26 0 -41.5 -14t-20.5 -37zM172 0h-78v588h78v-588z" />
    <glyph glyph-name="i.loclTRK.sc" horiz-adv-x="266" 
d="M71 729q0 26 17.5 44.5t43.5 18.5t44.5 -18.5t18.5 -44.5t-18.5 -43.5t-44.5 -17.5t-43.5 17.5t-17.5 43.5zM172 0h-78v588h78v-588z" />
    <glyph glyph-name="IJ.sc" horiz-adv-x="692" 
d="M172 0h-78v588h78v-588zM607 200q0 -47 -14 -85.5t-39.5 -66t-62.5 -42.5t-84 -15q-50 0 -94 21.5t-75 67.5l62 46q17 -27 44.5 -41.5t62.5 -14.5q60 0 91 33.5t31 96.5v388h78v-388z" />
    <glyph glyph-name="J.sc" horiz-adv-x="491" 
d="M405 200q0 -47 -14 -85.5t-39.5 -66t-62.5 -42.5t-84 -15q-50 0 -94 21.5t-75 67.5l62 46q17 -27 44.5 -41.5t62.5 -14.5q60 0 91 33.5t31 96.5v388h78v-388z" />
    <glyph glyph-name="Jcircumflex.sc" horiz-adv-x="491" 
d="M427 801l110 -152h-76l-95 93l-93 -93h-76l110 152h120zM405 200q0 -47 -14 -85.5t-39.5 -66t-62.5 -42.5t-84 -15q-50 0 -94 21.5t-75 67.5l62 46q17 -27 44.5 -41.5t62.5 -14.5q60 0 91 33.5t31 96.5v388h78v-388z" />
    <glyph glyph-name="K.sc" horiz-adv-x="596" 
d="M276 301l275 -301h-104l-233 258h-42v-258h-78v588h78v-257h31l226 257h102z" />
    <glyph glyph-name="uni0136.sc" horiz-adv-x="596" 
d="M276 301l275 -301h-104l-233 258h-42v-258h-78v588h78v-257h31l226 257h102zM353 -61l-73 -152h-69l43 152h99z" />
    <glyph glyph-name="L.sc" horiz-adv-x="519" 
d="M94 588h78v-515h302v-73h-380v588z" />
    <glyph glyph-name="Lacute.sc" horiz-adv-x="519" 
d="M177 801h104l-109 -152h-74zM94 588h78v-515h302v-73h-380v588z" />
    <glyph glyph-name="Lcaron.sc" horiz-adv-x="519" 
d="M94 588h78v-515h302v-73h-380v588zM326 587l-47 -180h-54l23 180h78z" />
    <glyph glyph-name="uni013B.sc" horiz-adv-x="519" 
d="M94 588h78v-515h302v-73h-380v588zM334 -61l-73 -152h-69l43 152h99z" />
    <glyph glyph-name="Ldot.sc" horiz-adv-x="519" 
d="M94 588h78v-515h302v-73h-380v588zM247 280q0 27 18.5 45.5t44.5 18.5q27 0 45.5 -18.5t18.5 -45.5q0 -26 -18.5 -44.5t-45.5 -18.5q-26 0 -44.5 18.5t-18.5 44.5z" />
    <glyph glyph-name="Lslash.sc" horiz-adv-x="519" 
d="M21 242l74 42v304h78v-260l124 71v-80l-124 -70v-176h301v-73h-379v205l-74 -42v79z" />
    <glyph glyph-name="M.sc" horiz-adv-x="828" 
d="M734 0h-78v432l-232 -349h-19l-233 350v-433h-78v588h70l251 -382l249 382h70v-588z" />
    <glyph glyph-name="N.sc" horiz-adv-x="681" 
d="M587 0h-70l-345 450v-450h-78v588h70l345 -451v451h78v-588z" />
    <glyph glyph-name="Nacute.sc" horiz-adv-x="681" 
d="M373 801h104l-109 -152h-74zM587 0h-70l-345 450v-450h-78v588h70l345 -451v451h78v-588z" />
    <glyph glyph-name="Ncaron.sc" horiz-adv-x="681" 
d="M400 649h-120l-110 152h76l94 -93l94 93h76zM587 0h-70l-345 450v-450h-78v588h70l345 -451v451h78v-588z" />
    <glyph glyph-name="uni0145.sc" horiz-adv-x="681" 
d="M587 0h-70l-345 450v-450h-78v588h70l345 -451v451h78v-588zM396 -61l-73 -152h-69l43 152h99z" />
    <glyph glyph-name="Ntilde.sc" horiz-adv-x="681" 
d="M127 680q12 49 45.5 76t82.5 27q25 0 47.5 -8t43 -18t40.5 -18t39 -8q23 0 41.5 15t21.5 38l66 -19q-10 -43 -42.5 -74t-85.5 -31q-24 0 -47 8t-44.5 18t-41.5 18t-38 8q-26 0 -41.5 -14t-20.5 -37zM587 0h-70l-345 450v-450h-78v588h70l345 -451v451h78v-588z" />
    <glyph glyph-name="Eng.sc" horiz-adv-x="681" 
d="M587 3q0 -95 -50 -147.5t-138 -52.5q-31 0 -62 9t-54 24l38 68q17 -11 37 -16.5t38 -5.5q57 0 84 30t29 90v9l-337 439v-450h-78v588h70l345 -451v451h78v-585z" />
    <glyph glyph-name="O.sc" horiz-adv-x="738" 
d="M66 294q0 62 23 116.5t63.5 96t96 65.5t120.5 24t120.5 -24t96.5 -65.5t64 -96t23 -116.5q0 -61 -23 -116t-64 -96.5t-96.5 -65.5t-120.5 -24t-120.5 24t-96 65.5t-63.5 96.5t-23 116zM146 294q0 -45 16.5 -86t46.5 -71.5t71 -49t89 -18.5t89 18.5t70.5 49t46.5 71.5
t17 86q0 44 -17 85t-46.5 72.5t-70.5 50t-89 18.5t-89 -18.5t-71 -50t-46.5 -72.5t-16.5 -85z" />
    <glyph glyph-name="Oacute.sc" horiz-adv-x="738" 
d="M401 801h104l-109 -152h-74zM66 294q0 62 23 116.5t63.5 96t96 65.5t120.5 24t120.5 -24t96.5 -65.5t64 -96t23 -116.5q0 -61 -23 -116t-64 -96.5t-96.5 -65.5t-120.5 -24t-120.5 24t-96 65.5t-63.5 96.5t-23 116zM146 294q0 -45 16.5 -86t46.5 -71.5t71 -49t89 -18.5
t89 18.5t70.5 49t46.5 71.5t17 86q0 44 -17 85t-46.5 72.5t-70.5 50t-89 18.5t-89 -18.5t-71 -50t-46.5 -72.5t-16.5 -85z" />
    <glyph glyph-name="Obreve.sc" horiz-adv-x="738" 
d="M281 802q0 -35 24.5 -59t62.5 -24t62.5 24t24.5 59h75q0 -34 -12.5 -63t-34.5 -50t-51.5 -32.5t-63.5 -11.5t-63.5 11.5t-51.5 32.5t-34.5 50t-12.5 63h75zM66 294q0 62 23 116.5t63.5 96t96 65.5t120.5 24t120.5 -24t96.5 -65.5t64 -96t23 -116.5q0 -61 -23 -116
t-64 -96.5t-96.5 -65.5t-120.5 -24t-120.5 24t-96 65.5t-63.5 96.5t-23 116zM146 294q0 -45 16.5 -86t46.5 -71.5t71 -49t89 -18.5t89 18.5t70.5 49t46.5 71.5t17 86q0 44 -17 85t-46.5 72.5t-70.5 50t-89 18.5t-89 -18.5t-71 -50t-46.5 -72.5t-16.5 -85z" />
    <glyph glyph-name="Ocircumflex.sc" horiz-adv-x="738" 
d="M428 801l110 -152h-76l-95 93l-93 -93h-76l110 152h120zM66 294q0 62 23 116.5t63.5 96t96 65.5t120.5 24t120.5 -24t96.5 -65.5t64 -96t23 -116.5q0 -61 -23 -116t-64 -96.5t-96.5 -65.5t-120.5 -24t-120.5 24t-96 65.5t-63.5 96.5t-23 116zM146 294q0 -45 16.5 -86
t46.5 -71.5t71 -49t89 -18.5t89 18.5t70.5 49t46.5 71.5t17 86q0 44 -17 85t-46.5 72.5t-70.5 50t-89 18.5t-89 -18.5t-71 -50t-46.5 -72.5t-16.5 -85z" />
    <glyph glyph-name="Odieresis.sc" horiz-adv-x="738" 
d="M201 726q0 24 16.5 41.5t40.5 17.5t41.5 -17.5t17.5 -41.5q0 -23 -17.5 -40t-41.5 -17t-40.5 17t-16.5 40zM421 726q0 24 17 41.5t41 17.5t41 -17.5t17 -41.5q0 -23 -17 -40t-41 -17t-41 17t-17 40zM66 294q0 62 23 116.5t63.5 96t96 65.5t120.5 24t120.5 -24t96.5 -65.5
t64 -96t23 -116.5q0 -61 -23 -116t-64 -96.5t-96.5 -65.5t-120.5 -24t-120.5 24t-96 65.5t-63.5 96.5t-23 116zM146 294q0 -45 16.5 -86t46.5 -71.5t71 -49t89 -18.5t89 18.5t70.5 49t46.5 71.5t17 86q0 44 -17 85t-46.5 72.5t-70.5 50t-89 18.5t-89 -18.5t-71 -50
t-46.5 -72.5t-16.5 -85z" />
    <glyph glyph-name="Ograve.sc" horiz-adv-x="738" 
d="M339 801l75 -152h-75l-104 152h104zM66 294q0 62 23 116.5t63.5 96t96 65.5t120.5 24t120.5 -24t96.5 -65.5t64 -96t23 -116.5q0 -61 -23 -116t-64 -96.5t-96.5 -65.5t-120.5 -24t-120.5 24t-96 65.5t-63.5 96.5t-23 116zM146 294q0 -45 16.5 -86t46.5 -71.5t71 -49
t89 -18.5t89 18.5t70.5 49t46.5 71.5t17 86q0 44 -17 85t-46.5 72.5t-70.5 50t-89 18.5t-89 -18.5t-71 -50t-46.5 -72.5t-16.5 -85z" />
    <glyph glyph-name="Ohungarumlaut.sc" horiz-adv-x="738" 
d="M490 801h103l-103 -152h-74zM295 801h103l-103 -152h-74zM66 294q0 62 23 116.5t63.5 96t96 65.5t120.5 24t120.5 -24t96.5 -65.5t64 -96t23 -116.5q0 -61 -23 -116t-64 -96.5t-96.5 -65.5t-120.5 -24t-120.5 24t-96 65.5t-63.5 96.5t-23 116zM146 294q0 -45 16.5 -86
t46.5 -71.5t71 -49t89 -18.5t89 18.5t70.5 49t46.5 71.5t17 86q0 44 -17 85t-46.5 72.5t-70.5 50t-89 18.5t-89 -18.5t-71 -50t-46.5 -72.5t-16.5 -85z" />
    <glyph glyph-name="Omacron.sc" horiz-adv-x="738" 
d="M163 755h412v-72h-412v72zM66 294q0 62 23 116.5t63.5 96t96 65.5t120.5 24t120.5 -24t96.5 -65.5t64 -96t23 -116.5q0 -61 -23 -116t-64 -96.5t-96.5 -65.5t-120.5 -24t-120.5 24t-96 65.5t-63.5 96.5t-23 116zM146 294q0 -45 16.5 -86t46.5 -71.5t71 -49t89 -18.5
t89 18.5t70.5 49t46.5 71.5t17 86q0 44 -17 85t-46.5 72.5t-70.5 50t-89 18.5t-89 -18.5t-71 -50t-46.5 -72.5t-16.5 -85z" />
    <glyph glyph-name="Otilde.sc" horiz-adv-x="738" 
d="M155 680q12 49 45.5 76t82.5 27q25 0 47.5 -8t43 -18t40.5 -18t39 -8q23 0 41.5 15t21.5 38l66 -19q-10 -43 -42.5 -74t-85.5 -31q-24 0 -47 8t-44.5 18t-41.5 18t-38 8q-26 0 -41.5 -14t-20.5 -37zM66 294q0 62 23 116.5t63.5 96t96 65.5t120.5 24t120.5 -24t96.5 -65.5
t64 -96t23 -116.5q0 -61 -23 -116t-64 -96.5t-96.5 -65.5t-120.5 -24t-120.5 24t-96 65.5t-63.5 96.5t-23 116zM146 294q0 -45 16.5 -86t46.5 -71.5t71 -49t89 -18.5t89 18.5t70.5 49t46.5 71.5t17 86q0 44 -17 85t-46.5 72.5t-70.5 50t-89 18.5t-89 -18.5t-71 -50
t-46.5 -72.5t-16.5 -85z" />
    <glyph glyph-name="Oslash.sc" horiz-adv-x="754" 
d="M74 294q0 62 23 116.5t63.5 96t96 65.5t120.5 24q50 0 94 -14.5t81 -40.5l41 47h84l-77 -88q38 -42 59.5 -94t21.5 -112q0 -61 -23 -116t-64 -96.5t-96.5 -65.5t-120.5 -24q-50 0 -94.5 14t-80.5 40l-41 -46h-84l77 88q-38 41 -59 93.5t-21 112.5zM154 294q0 -84 53 -146
l293 334q-26 17 -57 27.5t-66 10.5q-48 0 -89 -18.5t-71 -50t-46.5 -72.5t-16.5 -85zM600 294q0 40 -14 77.5t-39 67.5l-293 -334q53 -36 123 -36q48 0 89 18.5t70.5 49t46.5 71.5t17 86z" />
    <glyph glyph-name="P.sc" horiz-adv-x="571" 
d="M510 402q0 -40 -14.5 -74.5t-42.5 -59.5t-68.5 -39t-91.5 -14h-121v-215h-78v588h200q51 0 91 -14t68 -38.5t42.5 -58.5t14.5 -75zM172 515v-227h122q66 0 100.5 31.5t34.5 82.5q0 48 -33.5 80.5t-101.5 32.5h-122z" />
    <glyph glyph-name="Q.sc" horiz-adv-x="746" 
d="M66 294q0 62 23 116.5t63.5 96t96 65.5t120.5 24t120.5 -24t96.5 -65.5t64 -96t23 -116.5t-22.5 -116t-64.5 -95l53 -59l-47 -41l-62 54q-71 -45 -161 -45q-65 0 -120.5 24t-96 65.5t-63.5 96.5t-23 116zM146 294q0 -45 16.5 -86t46.5 -71.5t71 -49t89 -18.5q29 0 57 6
t51 19l-105 122l58 50l107 -123q26 31 40.5 70t14.5 81q0 44 -17 85t-46.5 72.5t-70.5 50t-89 18.5t-89 -18.5t-71 -50t-46.5 -72.5t-16.5 -85z" />
    <glyph glyph-name="R.sc" horiz-adv-x="596" 
d="M510 414q0 -66 -40.5 -110.5t-111.5 -58.5l182 -245h-96l-177 240h-95v-240h-78v588h214q45 0 82 -12.5t64 -35t41.5 -54.5t14.5 -72zM172 515v-202h141q60 2 88.5 30t28.5 71q0 48 -31.5 74.5t-93.5 26.5h-133z" />
    <glyph glyph-name="Racute.sc" horiz-adv-x="596" 
d="M311 801h104l-109 -152h-74zM510 414q0 -66 -40.5 -110.5t-111.5 -58.5l182 -245h-96l-177 240h-95v-240h-78v588h214q45 0 82 -12.5t64 -35t41.5 -54.5t14.5 -72zM172 515v-202h141q60 2 88.5 30t28.5 71q0 48 -31.5 74.5t-93.5 26.5h-133z" />
    <glyph glyph-name="Rcaron.sc" horiz-adv-x="596" 
d="M338 649h-120l-110 152h76l94 -93l94 93h76zM510 414q0 -66 -40.5 -110.5t-111.5 -58.5l182 -245h-96l-177 240h-95v-240h-78v588h214q45 0 82 -12.5t64 -35t41.5 -54.5t14.5 -72zM172 515v-202h141q60 2 88.5 30t28.5 71q0 48 -31.5 74.5t-93.5 26.5h-133z" />
    <glyph glyph-name="uni0156.sc" horiz-adv-x="596" 
d="M510 414q0 -66 -40.5 -110.5t-111.5 -58.5l182 -245h-96l-177 240h-95v-240h-78v588h214q45 0 82 -12.5t64 -35t41.5 -54.5t14.5 -72zM172 515v-202h141q60 2 88.5 30t28.5 71q0 48 -31.5 74.5t-93.5 26.5h-133zM360 -61l-73 -152h-69l43 152h99z" />
    <glyph glyph-name="S.sc" horiz-adv-x="543" 
d="M388 473q-26 23 -56.5 37.5t-68.5 14.5q-32 0 -53.5 -8t-34.5 -20.5t-18.5 -27.5t-5.5 -29q0 -29 23 -51.5t71 -34.5l76 -20q79 -20 120.5 -63.5t41.5 -106.5q0 -34 -14 -65t-41.5 -55t-68 -38t-92.5 -14q-27 0 -55.5 5.5t-55.5 17t-51.5 29t-43.5 41.5l57 49
q36 -41 73.5 -55.5t75.5 -14.5q69 0 101.5 30.5t32.5 69.5q0 32 -21.5 58t-77.5 42q-20 5 -39 10t-40 11q-78 22 -115.5 59.5t-37.5 96.5q0 29 13 57t38 50t61 35t81 13q44 0 91.5 -17.5t82.5 -52.5z" />
    <glyph glyph-name="Sacute.sc" horiz-adv-x="543" 
d="M295 801h104l-109 -152h-74zM388 473q-26 23 -56.5 37.5t-68.5 14.5q-32 0 -53.5 -8t-34.5 -20.5t-18.5 -27.5t-5.5 -29q0 -29 23 -51.5t71 -34.5l76 -20q79 -20 120.5 -63.5t41.5 -106.5q0 -34 -14 -65t-41.5 -55t-68 -38t-92.5 -14q-27 0 -55.5 5.5t-55.5 17t-51.5 29
t-43.5 41.5l57 49q36 -41 73.5 -55.5t75.5 -14.5q69 0 101.5 30.5t32.5 69.5q0 32 -21.5 58t-77.5 42q-20 5 -39 10t-40 11q-78 22 -115.5 59.5t-37.5 96.5q0 29 13 57t38 50t61 35t81 13q44 0 91.5 -17.5t82.5 -52.5z" />
    <glyph glyph-name="Scaron.sc" horiz-adv-x="543" 
d="M323 649h-120l-110 152h76l94 -93l94 93h76zM388 473q-26 23 -56.5 37.5t-68.5 14.5q-32 0 -53.5 -8t-34.5 -20.5t-18.5 -27.5t-5.5 -29q0 -29 23 -51.5t71 -34.5l76 -20q79 -20 120.5 -63.5t41.5 -106.5q0 -34 -14 -65t-41.5 -55t-68 -38t-92.5 -14q-27 0 -55.5 5.5
t-55.5 17t-51.5 29t-43.5 41.5l57 49q36 -41 73.5 -55.5t75.5 -14.5q69 0 101.5 30.5t32.5 69.5q0 32 -21.5 58t-77.5 42q-20 5 -39 10t-40 11q-78 22 -115.5 59.5t-37.5 96.5q0 29 13 57t38 50t61 35t81 13q44 0 91.5 -17.5t82.5 -52.5z" />
    <glyph glyph-name="Scedilla.sc" horiz-adv-x="543" 
d="M388 473q-26 23 -56.5 37.5t-68.5 14.5q-32 0 -53.5 -8t-34.5 -20.5t-18.5 -27.5t-5.5 -29q0 -29 23 -51.5t71 -34.5l76 -20q79 -20 120.5 -63.5t41.5 -106.5q0 -32 -12.5 -61.5t-37 -52.5t-60 -38.5t-81.5 -18.5l-4 -33q37 -6 61 -28.5t24 -64.5q0 -44 -36.5 -73.5
t-99.5 -29.5q-17 0 -35.5 3.5t-26.5 7.5l20 66q8 -3 20.5 -5t20.5 -2q54 0 54 40q0 20 -19.5 31t-49.5 11l12 78q-48 6 -94 28.5t-78 62.5l57 49q36 -41 73.5 -55.5t75.5 -14.5q69 0 101.5 30.5t32.5 69.5q0 32 -21.5 58t-77.5 42q-20 5 -39 10t-40 11q-78 22 -115.5 59.5
t-37.5 96.5q0 29 13 57t38 50t61 35t81 13q44 0 91.5 -17.5t82.5 -52.5z" />
    <glyph glyph-name="Scircumflex.sc" horiz-adv-x="543" 
d="M323 801l110 -152h-76l-95 93l-93 -93h-76l110 152h120zM388 473q-26 23 -56.5 37.5t-68.5 14.5q-32 0 -53.5 -8t-34.5 -20.5t-18.5 -27.5t-5.5 -29q0 -29 23 -51.5t71 -34.5l76 -20q79 -20 120.5 -63.5t41.5 -106.5q0 -34 -14 -65t-41.5 -55t-68 -38t-92.5 -14
q-27 0 -55.5 5.5t-55.5 17t-51.5 29t-43.5 41.5l57 49q36 -41 73.5 -55.5t75.5 -14.5q69 0 101.5 30.5t32.5 69.5q0 32 -21.5 58t-77.5 42q-20 5 -39 10t-40 11q-78 22 -115.5 59.5t-37.5 96.5q0 29 13 57t38 50t61 35t81 13q44 0 91.5 -17.5t82.5 -52.5z" />
    <glyph glyph-name="uni0218.sc" horiz-adv-x="543" 
d="M388 473q-26 23 -56.5 37.5t-68.5 14.5q-32 0 -53.5 -8t-34.5 -20.5t-18.5 -27.5t-5.5 -29q0 -29 23 -51.5t71 -34.5l76 -20q79 -20 120.5 -63.5t41.5 -106.5q0 -34 -14 -65t-41.5 -55t-68 -38t-92.5 -14q-27 0 -55.5 5.5t-55.5 17t-51.5 29t-43.5 41.5l57 49
q36 -41 73.5 -55.5t75.5 -14.5q69 0 101.5 30.5t32.5 69.5q0 32 -21.5 58t-77.5 42q-20 5 -39 10t-40 11q-78 22 -115.5 59.5t-37.5 96.5q0 29 13 57t38 50t61 35t81 13q44 0 91.5 -17.5t82.5 -52.5zM323 -61l-73 -152h-69l43 152h99z" />
    <glyph glyph-name="T.sc" horiz-adv-x="550" 
d="M37 588h476v-73h-198v-515h-80v515h-198v73z" />
    <glyph glyph-name="Tcaron.sc" horiz-adv-x="550" 
d="M335 649h-120l-110 152h76l94 -93l94 93h76zM37 588h476v-73h-198v-515h-80v515h-198v73z" />
    <glyph glyph-name="uni0162.sc" horiz-adv-x="550" 
d="M37 588h476v-73h-198v-515h-80v515h-198v73zM330 -61l-73 -152h-69l43 152h99z" />
    <glyph glyph-name="uni021A.sc" horiz-adv-x="550" 
d="M37 588h476v-73h-198v-515h-80v515h-198v73zM330 -61l-73 -152h-69l43 152h99z" />
    <glyph glyph-name="Tbar.sc" horiz-adv-x="566" 
d="M45 588h476v-73h-198v-180h117v-70h-117v-265h-80v265h-118v70h118v180h-198v73z" />
    <glyph glyph-name="U.sc" horiz-adv-x="640" 
d="M86 588h79v-369q0 -31 11.5 -58t32.5 -47t49.5 -31.5t61.5 -11.5t61.5 11.5t49.5 31.5t33 47t12 58v369h78v-369q0 -46 -18 -87t-49.5 -72t-74 -49.5t-92.5 -18.5q-51 0 -94 18.5t-74 49.5t-48.5 72t-17.5 87v369z" />
    <glyph glyph-name="Uacute.sc" horiz-adv-x="640" 
d="M352 801h104l-109 -152h-74zM86 588h79v-369q0 -31 11.5 -58t32.5 -47t49.5 -31.5t61.5 -11.5t61.5 11.5t49.5 31.5t33 47t12 58v369h78v-369q0 -46 -18 -87t-49.5 -72t-74 -49.5t-92.5 -18.5q-51 0 -94 18.5t-74 49.5t-48.5 72t-17.5 87v369z" />
    <glyph glyph-name="Ubreve.sc" horiz-adv-x="640" 
d="M232 802q0 -35 24.5 -59t62.5 -24t62.5 24t24.5 59h75q0 -34 -12.5 -63t-34.5 -50t-51.5 -32.5t-63.5 -11.5t-63.5 11.5t-51.5 32.5t-34.5 50t-12.5 63h75zM86 588h79v-369q0 -31 11.5 -58t32.5 -47t49.5 -31.5t61.5 -11.5t61.5 11.5t49.5 31.5t33 47t12 58v369h78v-369
q0 -46 -18 -87t-49.5 -72t-74 -49.5t-92.5 -18.5q-51 0 -94 18.5t-74 49.5t-48.5 72t-17.5 87v369z" />
    <glyph glyph-name="Ucircumflex.sc" horiz-adv-x="640" 
d="M379 801l110 -152h-76l-95 93l-93 -93h-76l110 152h120zM86 588h79v-369q0 -31 11.5 -58t32.5 -47t49.5 -31.5t61.5 -11.5t61.5 11.5t49.5 31.5t33 47t12 58v369h78v-369q0 -46 -18 -87t-49.5 -72t-74 -49.5t-92.5 -18.5q-51 0 -94 18.5t-74 49.5t-48.5 72t-17.5 87v369z
" />
    <glyph glyph-name="Udieresis.sc" horiz-adv-x="640" 
d="M151 726q0 24 16.5 41.5t40.5 17.5t41.5 -17.5t17.5 -41.5q0 -23 -17.5 -40t-41.5 -17t-40.5 17t-16.5 40zM371 726q0 24 17 41.5t41 17.5t41 -17.5t17 -41.5q0 -23 -17 -40t-41 -17t-41 17t-17 40zM86 588h79v-369q0 -31 11.5 -58t32.5 -47t49.5 -31.5t61.5 -11.5
t61.5 11.5t49.5 31.5t33 47t12 58v369h78v-369q0 -46 -18 -87t-49.5 -72t-74 -49.5t-92.5 -18.5q-51 0 -94 18.5t-74 49.5t-48.5 72t-17.5 87v369z" />
    <glyph glyph-name="Ugrave.sc" horiz-adv-x="640" 
d="M291 801l75 -152h-75l-104 152h104zM86 588h79v-369q0 -31 11.5 -58t32.5 -47t49.5 -31.5t61.5 -11.5t61.5 11.5t49.5 31.5t33 47t12 58v369h78v-369q0 -46 -18 -87t-49.5 -72t-74 -49.5t-92.5 -18.5q-51 0 -94 18.5t-74 49.5t-48.5 72t-17.5 87v369z" />
    <glyph glyph-name="Uhungarumlaut.sc" horiz-adv-x="640" 
d="M441 801h103l-103 -152h-74zM246 801h103l-103 -152h-74zM86 588h79v-369q0 -31 11.5 -58t32.5 -47t49.5 -31.5t61.5 -11.5t61.5 11.5t49.5 31.5t33 47t12 58v369h78v-369q0 -46 -18 -87t-49.5 -72t-74 -49.5t-92.5 -18.5q-51 0 -94 18.5t-74 49.5t-48.5 72t-17.5 87v369
z" />
    <glyph glyph-name="Umacron.sc" horiz-adv-x="640" 
d="M114 755h412v-72h-412v72zM86 588h79v-369q0 -31 11.5 -58t32.5 -47t49.5 -31.5t61.5 -11.5t61.5 11.5t49.5 31.5t33 47t12 58v369h78v-369q0 -46 -18 -87t-49.5 -72t-74 -49.5t-92.5 -18.5q-51 0 -94 18.5t-74 49.5t-48.5 72t-17.5 87v369z" />
    <glyph glyph-name="Uogonek.sc" horiz-adv-x="640" 
d="M86 588h79v-369q0 -31 11.5 -58t32.5 -47t49.5 -31.5t61.5 -11.5t61.5 11.5t49.5 31.5t33 47t12 58v369h78v-369q0 -49 -20 -91t-59 -86q-37 -40 -59.5 -68t-22.5 -61q0 -18 11.5 -28.5t33.5 -10.5q5 0 12 1t12 2l19 -66q-10 -5 -23 -8.5t-30 -3.5q-47 0 -77.5 24.5
t-30.5 70.5q0 35 11.5 58t27.5 46q-7 -2 -18 -4t-21 -2q-51 0 -94 18.5t-74 49.5t-48.5 72t-17.5 87v369z" />
    <glyph glyph-name="Uring.sc" horiz-adv-x="640" 
d="M222 739q0 41 28 69.5t69 28.5t69 -28.5t28 -69.5t-28 -69t-69 -28t-69 28t-28 69zM283 739q0 -15 10.5 -25.5t25.5 -10.5t26 10.5t11 25.5t-11 26t-26 11t-25.5 -11t-10.5 -26zM86 588h79v-369q0 -31 11.5 -58t32.5 -47t49.5 -31.5t61.5 -11.5t61.5 11.5t49.5 31.5
t33 47t12 58v369h78v-369q0 -46 -18 -87t-49.5 -72t-74 -49.5t-92.5 -18.5q-51 0 -94 18.5t-74 49.5t-48.5 72t-17.5 87v369z" />
    <glyph glyph-name="Utilde.sc" horiz-adv-x="640" 
d="M106 680q12 49 45.5 76t82.5 27q25 0 47.5 -8t43 -18t40.5 -18t39 -8q23 0 41.5 15t21.5 38l66 -19q-10 -43 -42.5 -74t-85.5 -31q-24 0 -47 8t-44.5 18t-41.5 18t-38 8q-26 0 -41.5 -14t-20.5 -37zM86 588h79v-369q0 -31 11.5 -58t32.5 -47t49.5 -31.5t61.5 -11.5
t61.5 11.5t49.5 31.5t33 47t12 58v369h78v-369q0 -46 -18 -87t-49.5 -72t-74 -49.5t-92.5 -18.5q-51 0 -94 18.5t-74 49.5t-48.5 72t-17.5 87v369z" />
    <glyph glyph-name="V.sc" horiz-adv-x="616" 
d="M308 128l186 460h85l-241 -588h-60l-241 588h85z" />
    <glyph glyph-name="W.sc" horiz-adv-x="871" 
d="M745 588h81l-177 -588h-60l-153 355l-154 -355h-59l-178 588h81l133 -447l166 390h21l165 -390z" />
    <glyph glyph-name="Wacute.sc" horiz-adv-x="871" 
d="M468 801h104l-109 -152h-74zM745 588h81l-177 -588h-60l-153 355l-154 -355h-59l-178 588h81l133 -447l166 390h21l165 -390z" />
    <glyph glyph-name="Wcircumflex.sc" horiz-adv-x="871" 
d="M495 801l110 -152h-76l-95 93l-93 -93h-76l110 152h120zM745 588h81l-177 -588h-60l-153 355l-154 -355h-59l-178 588h81l133 -447l166 390h21l165 -390z" />
    <glyph glyph-name="Wdieresis.sc" horiz-adv-x="871" 
d="M267 726q0 24 16.5 41.5t40.5 17.5t41.5 -17.5t17.5 -41.5q0 -23 -17.5 -40t-41.5 -17t-40.5 17t-16.5 40zM487 726q0 24 17 41.5t41 17.5t41 -17.5t17 -41.5q0 -23 -17 -40t-41 -17t-41 17t-17 40zM745 588h81l-177 -588h-60l-153 355l-154 -355h-59l-178 588h81
l133 -447l166 390h21l165 -390z" />
    <glyph glyph-name="Wgrave.sc" horiz-adv-x="871" 
d="M406 801l75 -152h-75l-104 152h104zM745 588h81l-177 -588h-60l-153 355l-154 -355h-59l-178 588h81l133 -447l166 390h21l165 -390z" />
    <glyph glyph-name="X.sc" horiz-adv-x="632" 
d="M141 0h-96l218 308l-194 280h95l152 -222l153 222h93l-194 -280l219 -308h-96l-175 251z" />
    <glyph glyph-name="Y.sc" horiz-adv-x="590" 
d="M334 0h-78v256l-219 332h93l164 -253l165 253h94l-219 -331v-257z" />
    <glyph glyph-name="Yacute.sc" horiz-adv-x="590" 
d="M327 801h104l-109 -152h-74zM334 0h-78v256l-219 332h93l164 -253l165 253h94l-219 -331v-257z" />
    <glyph glyph-name="Ycircumflex.sc" horiz-adv-x="590" 
d="M355 801l110 -152h-76l-95 93l-93 -93h-76l110 152h120zM334 0h-78v256l-219 332h93l164 -253l165 253h94l-219 -331v-257z" />
    <glyph glyph-name="Ydieresis.sc" horiz-adv-x="590" 
d="M126 726q0 24 16.5 41.5t40.5 17.5t41.5 -17.5t17.5 -41.5q0 -23 -17.5 -40t-41.5 -17t-40.5 17t-16.5 40zM346 726q0 24 17 41.5t41 17.5t41 -17.5t17 -41.5q0 -23 -17 -40t-41 -17t-41 17t-17 40zM334 0h-78v256l-219 332h93l164 -253l165 253h94l-219 -331v-257z" />
    <glyph glyph-name="Ygrave.sc" horiz-adv-x="590" 
d="M265 801l75 -152h-75l-104 152h104zM334 0h-78v256l-219 332h93l164 -253l165 253h94l-219 -331v-257z" />
    <glyph glyph-name="Z.sc" horiz-adv-x="613" 
d="M75 588h459v-59l-366 -459h385v-70h-492v59l365 458h-351v71z" />
    <glyph glyph-name="Zacute.sc" horiz-adv-x="613" 
d="M334 801h104l-109 -152h-74zM75 588h459v-59l-366 -459h385v-70h-492v59l365 458h-351v71z" />
    <glyph glyph-name="Zcaron.sc" horiz-adv-x="613" 
d="M362 649h-120l-110 152h76l94 -93l94 93h76zM75 588h459v-59l-366 -459h385v-70h-492v59l365 458h-351v71z" />
    <glyph glyph-name="Zdotaccent.sc" horiz-adv-x="613" 
d="M239 729q0 26 17.5 44.5t43.5 18.5t44.5 -18.5t18.5 -44.5t-18.5 -43.5t-44.5 -17.5t-43.5 17.5t-17.5 43.5zM75 588h459v-59l-366 -459h385v-70h-492v59l365 458h-351v71z" />
    <glyph glyph-name="AE.sc" horiz-adv-x="873" 
d="M791 515h-286v-174h245v-74h-245v-194h298v-73h-376v156h-212l-92 -156h-88l352 588h404v-73zM261 231h166v282z" />
    <glyph glyph-name="Germandbls.sc" horiz-adv-x="648" 
d="M86 413q0 38 12.5 70t36.5 55t57.5 36.5t75.5 13.5h224v-59l-83 -135h3l5 -1h3q33 -4 64.5 -19.5t56.5 -41t40 -60.5t15 -78q0 -42 -16 -79t-44.5 -64t-67.5 -43t-84 -16q-95 0 -165 64l49 54q27 -26 54 -36t62 -10q26 0 50 9.5t42 26.5t29 41t11 53q0 60 -39.5 95.5
t-102.5 35.5h-79v23l102 167h-120q-60 0 -86 -28.5t-26 -82.5v-404h-79v413z" />
    <glyph glyph-name="Thorn.sc" horiz-adv-x="566" 
d="M172 480h121q52 0 92 -14t67.5 -39t42 -59t14.5 -74t-14.5 -74t-42 -58.5t-67.5 -38.5t-92 -14h-121v-109h-78v588h78v-108zM172 407v-226h122q66 0 100.5 32t34.5 81q0 48 -34.5 80.5t-101.5 32.5h-121z" />
    <glyph glyph-name="OE.sc" horiz-adv-x="1035" 
d="M66 294q0 62 23 116.5t63.5 96t96 65.5t120.5 24q52 0 103 -20.5t89 -57.5v70h393v-73h-314v-174h273v-74h-273v-194h326v-73h-405v69q-39 -37 -90 -57t-102 -20q-65 0 -120.5 24t-96 65.5t-63.5 96.5t-23 116zM146 294q0 -45 16.5 -86t46.5 -71.5t71 -49t89 -18.5
q63 0 113 30.5t79 80.5v227q-29 50 -79 81.5t-113 31.5q-48 0 -89 -18.5t-71 -50t-46.5 -72.5t-16.5 -85z" />
    <glyph glyph-name="ampersand.sc" horiz-adv-x="632" 
d="M147 466q0 28 10.5 51.5t29.5 41t44.5 27t55.5 9.5q29 0 54.5 -9.5t44.5 -26.5t29.5 -40.5t10.5 -51.5q0 -30 -13.5 -58t-46.5 -54l-17 -14l118 -168q11 16 18.5 32.5t12.5 33.5l66 -22q-6 -28 -19 -55t-34 -50l82 -112h-86l-51 56q-40 -29 -86.5 -46.5t-94.5 -17.5
q-51 0 -88.5 14t-61.5 36.5t-35.5 51.5t-11.5 59q0 36 17 71.5t59 67.5l53 40l-28 38q-17 24 -24.5 48.5t-7.5 47.5zM227 466q0 -12 4.5 -27.5t20.5 -39.5l17 -25l41 29q18 14 27.5 28.5t9.5 34.5q0 29 -17 43.5t-43 14.5q-24 0 -42 -14t-18 -44zM275 62q35 0 70.5 14
t67.5 38l-128 185l-79 -61q-28 -20 -39 -39.5t-11 -45.5q0 -39 31.5 -65t87.5 -26z" />
    <glyph glyph-name="backslash.sc" horiz-adv-x="503" 
d="M450 0h-83l-314 588h84z" />
    <glyph glyph-name="bar.sc" horiz-adv-x="270" 
d="M172 -114h-78v702h78v-702z" />
    <glyph glyph-name="braceleft.sc" horiz-adv-x="426" 
d="M70 328h11t10 1q22 2 34.5 9t19 17.5t8 25.5t1.5 34v103q0 33 12.5 61.5t34 50t51.5 33.5t66 12h30v-70h-30q-40 0 -62.5 -26t-22.5 -60v-135q0 -12 -1.5 -26t-8 -27.5t-19.5 -24.5t-35 -15q22 -6 34.5 -18t19 -26.5t8.5 -28t2 -22.5v-132q0 -33 22.5 -59.5t62.5 -26.5
h30v-69h-30q-36 0 -66 12t-51.5 33t-34 49.5t-12.5 61.5v131q0 25 -13 40t-51 18q-5 1 -10 1h-10v73z" />
    <glyph glyph-name="braceright.sc" horiz-adv-x="426" 
d="M356 255q-5 0 -8.5 -1t-7.5 -1q-42 0 -55 -20.5t-13 -64.5v-103q0 -34 -12.5 -62.5t-34.5 -49.5t-52 -32.5t-65 -11.5h-30v69h30q39 0 62 26t23 60v132q0 9 1.5 22.5t8 28t19 26.5t34.5 18q-22 4 -34.5 15t-19 24.5t-8 27.5t-1.5 26v135q0 34 -23 60t-62 26h-30v70h30
q35 0 65 -11.5t52 -32.5t34.5 -50t12.5 -63v-103q0 -27 3.5 -43.5t13 -26.5t26 -13.5t41.5 -3.5v-73z" />
    <glyph glyph-name="bracketleft.sc" horiz-adv-x="403" 
d="M111 674h198v-69h-120v-628h120v-69h-198v766z" />
    <glyph glyph-name="bracketright.sc" horiz-adv-x="403" 
d="M94 -23h120v628h-120v69h199v-766h-199v69z" />
    <glyph glyph-name="emdash.sc" horiz-adv-x="800" 
d="M86 247h628v-69h-628v69z" />
    <glyph glyph-name="endash.sc" horiz-adv-x="501" 
d="M70 247h362v-69h-362v69z" />
    <glyph glyph-name="exclam.sc" horiz-adv-x="328" 
d="M202 153h-77v435h77v-435zM111 35q0 23 15 38.5t37 15.5q23 0 38.5 -15.5t15.5 -38.5q0 -21 -15.5 -36.5t-38.5 -15.5q-22 0 -37 15.5t-15 36.5z" />
    <glyph glyph-name="guillemotleft.sc" horiz-adv-x="616" 
d="M157 220l172 -171h-103l-173 171l171 170h105zM367 220l171 -171h-102l-174 171l172 170h104z" />
    <glyph glyph-name="guillemotright.sc" horiz-adv-x="616" 
d="M78 390h105l171 -170l-173 -171h-103l172 171zM287 390h106l170 -170l-172 -171h-104l173 171z" />
    <glyph glyph-name="guilsinglleft.sc" horiz-adv-x="407" 
d="M157 220l172 -171h-103l-173 171l171 170h105z" />
    <glyph glyph-name="guilsinglright.sc" horiz-adv-x="407" 
d="M78 390h105l171 -170l-173 -171h-103l172 171z" />
    <glyph glyph-name="hyphen.sc" horiz-adv-x="462" 
d="M94 247h274v-69h-274v69z" />
    <glyph glyph-name="parenleft.sc" horiz-adv-x="398" 
d="M94 294q0 55 11.5 109.5t35 105t57.5 95t79 78.5l43 -62q-68 -64 -101.5 -148t-33.5 -178q0 -95 33.5 -179t101.5 -147l-43 -63q-45 35 -79 79.5t-57.5 95t-35 105t-11.5 109.5z" />
    <glyph glyph-name="parenright.sc" horiz-adv-x="398" 
d="M304 294q0 -55 -12 -109.5t-35.5 -105t-57.5 -95t-79 -79.5l-42 63q66 63 99.5 147t33.5 179q0 94 -33.5 178t-99.5 148l42 62q45 -34 79 -78.5t57.5 -95t35.5 -105t12 -109.5z" />
    <glyph glyph-name="question.sc" horiz-adv-x="461" 
d="M248 199q0 -18 4 -37l-75 -9q-2 7 -3.5 20t-1.5 26q0 57 50 111q18 20 34 36t28 29q19 22 29 39.5t10 37.5q0 17 -7.5 29.5t-19 21t-26 13t-28.5 4.5q-38 0 -66 -19t-41 -57l-74 22q17 57 64.5 93.5t116.5 36.5q34 0 63.5 -10t51.5 -28.5t34.5 -45.5t12.5 -60
q0 -32 -15 -60.5t-42 -57.5l-72 -75q-16 -17 -21.5 -31t-5.5 -29zM166 29q0 23 16.5 39.5t39.5 16.5t39.5 -16.5t16.5 -39.5t-16.5 -39t-39.5 -16t-39.5 16t-16.5 39z" />
    <glyph glyph-name="questiondown.sc" horiz-adv-x="462" 
d="M270 363q0 -24 -16 -40t-39 -16q-24 0 -40.5 16t-16.5 40q0 23 16.5 39t40.5 16q23 0 39 -16t16 -39zM189 193q0 18 -4 37l74 9q3 -7 4.5 -20t1.5 -26q0 -57 -50 -110l-56 -59q-26 -24 -36 -42t-10 -42q0 -17 7.5 -29.5t19.5 -21t26.5 -13t27.5 -4.5q38 0 66 19t42 57
l74 -22q-17 -57 -64.5 -93.5t-117.5 -36.5q-34 0 -63 10t-51 28.5t-34.5 45.5t-12.5 60q0 31 14.5 60.5t40.5 57.5l73 75q15 17 21.5 31t6.5 29z" />
    <glyph glyph-name="slash.sc" horiz-adv-x="503" 
d="M366 588h84l-314 -588h-83z" />
    <glyph glyph-name="copyright.sc" horiz-adv-x="762" 
d="M70 294q0 62 23.5 116.5t65.5 96t99 65.5t124 24t124 -24t98.5 -65.5t65 -96t23.5 -116.5q0 -61 -23.5 -116t-65 -96.5t-98.5 -65.5t-124 -24t-124 24t-99 65.5t-65.5 96.5t-23.5 116zM136 294q0 -48 18.5 -91.5t51 -77t77.5 -53t99 -19.5q53 0 98 19.5t77.5 53t51 77
t18.5 91.5t-18.5 91.5t-51 76.5t-77.5 53t-98 20q-54 0 -99 -20t-77.5 -53t-51 -76.5t-18.5 -91.5zM271 293q0 -22 8 -42t22.5 -35t34.5 -24t44 -9q29 0 51.5 7.5t45.5 27.5l39 -46q-25 -25 -59.5 -39.5t-76.5 -14.5q-37 0 -69.5 14t-56.5 38t-37.5 56t-13.5 67t13.5 67
t37 56.5t56 39t70.5 14.5q39 0 72 -14.5t57 -39.5l-42 -44q-18 18 -38.5 25.5t-48.5 7.5q-24 0 -44 -9t-34.5 -24t-22.5 -35.5t-8 -43.5z" />
    <glyph glyph-name="registered.sc" horiz-adv-x="620" 
d="M70 364q0 47 18 89.5t50.5 74t76.5 50t95 18.5t95 -18.5t76.5 -50t51 -74t18.5 -89.5q0 -48 -18.5 -90.5t-51 -74.5t-76.5 -50.5t-95 -18.5t-95 18.5t-76.5 50.5t-50.5 74.5t-18 90.5zM124 362q0 -37 14 -70t38.5 -58t59 -39.5t74.5 -14.5t74 14.5t59 39.5t39 58t14 70
t-14 70.5t-39 59t-59 40.5t-74 15t-74.5 -15t-59 -40.5t-38.5 -59t-14 -70.5zM402 415q0 -27 -16.5 -46.5t-46.5 -24.5l70 -102h-51l-67 101h-18v-101h-46v244h88q38 0 62.5 -17.5t24.5 -53.5zM273 447v-65h42q22 0 31 9t9 24q0 32 -42 32h-40z" />
    <glyph glyph-name="trademark.sc" horiz-adv-x="860" 
d="M774 242h-53v248l-136 -200h-11l-136 201v-249h-55v346h50l146 -215l147 215h48v-346zM61 588h280v-50h-115v-296h-52v296h-113v50z" />
    <glyph glyph-name="uni2117.sc" horiz-adv-x="762" 
d="M70 294q0 62 23.5 116.5t65.5 96t99 65.5t124 24t124 -24t98.5 -65.5t65 -96t23.5 -116.5q0 -61 -23.5 -116t-65 -96.5t-98.5 -65.5t-124 -24t-124 24t-99 65.5t-65.5 96.5t-23.5 116zM136 294q0 -48 18.5 -91.5t51 -77t77.5 -53t99 -19.5q53 0 98 19.5t77.5 53t51 77
t18.5 91.5t-18.5 91.5t-51 76.5t-77.5 53t-98 20q-54 0 -99 -20t-77.5 -53t-51 -76.5t-18.5 -91.5zM405 472q65 0 100.5 -33t35.5 -84t-35.5 -83.5t-100.5 -32.5h-69v-136h-58v369h127zM336 417v-124h69q77 0 77 62q0 29 -19 45.5t-58 16.5h-69z" />
    <glyph glyph-name="Euro.tn" 
d="M30 484h89q12 57 35.5 105t58 82.5t80 54t100.5 19.5q64 0 113.5 -21.5t84.5 -59.5l-59 -50q-26 26 -61.5 38.5t-77.5 12.5q-39 0 -70 -13.5t-54 -38t-38 -57.5t-24 -72h270v-67h-281q-1 -13 -1 -21v-21v-20.5t1 -20.5h281v-67h-274q8 -42 23 -78t38.5 -62.5t55.5 -41.5
t73 -15q42 0 77 12.5t60 35.5l61 -51q-35 -36 -84.5 -56.5t-113.5 -20.5q-57 0 -104 20.5t-82 57.5t-58 88t-33 111h-86v67h79q-1 8 -1 20.5v20.5q0 13 0.5 21t1.5 21h-80v67z" />
    <glyph glyph-name="cent.tn" 
d="M399 -98h-79v92q-50 6 -90.5 28t-69 55.5t-44 76t-15.5 89.5q0 48 15 90.5t43.5 75.5t69 55t91.5 29v89h79v-90q51 -7 92 -32t73 -64l-64 -47q-27 31 -63.5 49.5t-81.5 18.5q-39 0 -70.5 -13.5t-54 -37t-34.5 -55.5t-12 -68t12.5 -67.5t35.5 -55.5t55.5 -37.5t72.5 -13.5
q45 0 79 13.5t63 39.5l55 -55q-29 -29 -69.5 -48.5t-88.5 -25.5v-91z" />
    <glyph glyph-name="dollar.tn" 
d="M481 599q-32 29 -72.5 48t-90.5 19q-40 0 -68 -10t-46 -26t-26 -36t-8 -41q0 -44 36 -73t91 -43l95 -25q97 -26 148 -79.5t51 -130.5q0 -38 -15 -73.5t-43.5 -64t-71 -47.5t-96.5 -24v-91h-79v91q-66 7 -124 38.5t-93 74.5l62 54q40 -44 88.5 -67.5t105.5 -23.5
q45 0 78 11t54.5 29.5t32.5 42.5t11 50q0 45 -28.5 78t-100.5 54l-99 28q-43 12 -78.5 29.5t-60.5 40.5t-38.5 53t-13.5 69q0 34 13.5 65.5t39 57t62.5 43t83 22.5v86h79v-87q49 -5 95.5 -27.5t81.5 -56.5z" />
    <glyph glyph-name="florin.tn" 
d="M297 -55q-11 -87 -61 -138.5t-144 -51.5q-14 0 -30.5 2.5t-29.5 6.5l13 71q15 -2 26.5 -4t22.5 -2q51 0 82.5 31t38.5 86l47 379h-93v67h102l21 174q11 93 65 142t147 49q23 0 48.5 -5t44.5 -13l-19 -69q-17 5 -34.5 8.5t-39.5 3.5q-59 0 -91 -32t-38 -84l-22 -174h166
v-67h-174z" />
    <glyph glyph-name="numbersign.tn" 
d="M194 534l24 140h82l-23 -140h172l24 140h83l-25 -140h114v-82h-131l-39 -237h114v-82h-130l-23 -133h-83l23 133h-173l-22 -133h-82l22 133h-106v82h123l40 237h-107v82h123zM220 215h173l40 237h-173z" />
    <glyph glyph-name="percent.tn" 
d="M20 583q0 33 10 61.5t28 49.5t44 33t58 12t58 -12t44.5 -33t29 -49.5t10.5 -61.5q0 -32 -10.5 -60.5t-29 -50t-44.5 -34t-58 -12.5q-31 0 -57 12.5t-44.5 34t-28.5 50t-10 60.5zM509 735h98l-462 -735h-96zM93 583q0 -36 18 -60.5t49 -24.5q32 0 50.5 24.5t18.5 60.5
t-18.5 60.5t-50.5 24.5q-31 0 -49 -24.5t-18 -60.5zM358 149q0 32 10 60.5t28.5 50t44.5 34t58 12.5q31 0 57 -12.5t44.5 -34t29 -50t10.5 -60.5q0 -33 -10.5 -61.5t-29 -49.5t-44.5 -33.5t-57 -12.5t-57 12.5t-45 33.5t-29 49.5t-10 61.5zM430 149q0 -36 18.5 -60.5
t50.5 -24.5q31 0 49.5 24.5t18.5 60.5q0 35 -18.5 60t-49.5 25q-32 0 -50.5 -25t-18.5 -60z" />
    <glyph glyph-name="sterling.tn" 
d="M80 426h73v123q0 42 14.5 78t40.5 62t63.5 41t83.5 15q45 0 78 -13.5t56.5 -32.5t38 -40t23.5 -36l-68 -34q-21 36 -52.5 56t-75.5 20q-52 0 -84 -32t-32 -84v-123h210v-67h-210v-216q0 -26 -9 -42.5t-26 -20.5h395v-80h-522l-5 80q42 3 61.5 26t19.5 64v189h-73v67z" />
    <glyph glyph-name="uni20B9.tn" 
d="M77 562h319q-12 41 -51.5 69t-109.5 28h-158v77h506v-72h-169q32 -20 49 -45.5t23 -56.5h97v-71h-95q-9 -70 -56 -116.5t-123 -60.5l-32 -6l250 -308h-106l-247 305v74h68q70 0 109.5 32.5t47.5 79.5h-322v71z" />
    <glyph glyph-name="uni20BA.tn" 
d="M52 349l125 44v75l-125 -45v72l125 44v196h82v-167l204 71v-71l-204 -71v-75l204 71v-71l-204 -71v-265q46 5 89.5 23.5t79 49.5t61 75t34.5 100l75 -13q-9 -67 -41.5 -125t-82.5 -101.5t-114.5 -68.5t-138.5 -26h-44v321l-125 -44v72z" />
    <glyph glyph-name="yen.tn" 
d="M374 0h-87v162h-169v67h169v93h-169v67h126l-216 346h103l199 -320l199 320h103l-217 -346h133v-67h-174v-93h174v-67h-174v-162z" />
    <glyph glyph-name="zero.tn" 
d="M64 367q0 78 15.5 147t48 120.5t82.5 81t120 29.5t120 -29.5t82.5 -81t48 -120.5t15.5 -147t-15.5 -147t-48 -120t-82.5 -80.5t-120 -29.5t-120 29.5t-82.5 80.5t-48 120t-15.5 147zM151 367q0 -59 8.5 -112t29 -93.5t55 -64.5t86.5 -24t86.5 24t55 64.5t29 93.5t8.5 112
t-8.5 112.5t-29 94t-55 64.5t-86.5 24t-86.5 -24t-55 -64.5t-29 -94t-8.5 -112.5z" />
    <glyph glyph-name="one.tn" 
d="M164 549l-43 73l240 113h65v-735h-87v621z" />
    <glyph glyph-name="two.tn" 
d="M89 66l297 308q41 42 66.5 80.5t25.5 83.5q0 27 -11 50t-30.5 39.5t-45.5 25.5t-56 9q-54 0 -95 -30.5t-61 -86.5l-84 23q11 38 33 70t53 56t70 37.5t84 13.5q53 0 95.5 -16.5t72.5 -45t46 -66t16 -79.5q0 -33 -8 -61.5t-23.5 -55.5t-39 -54t-54.5 -58l-226 -229h359v-80
h-484v66z" />
    <glyph glyph-name="three.tn" 
d="M256 421h23t30 1q71 2 114 36.5t43 88.5q0 26 -11.5 47.5t-31 36.5t-46 23t-55.5 8q-56 0 -95 -21t-62 -56l-70 48q35 51 92.5 81.5t134.5 30.5q51 0 94 -15.5t74 -42.5t48 -63t17 -77q0 -57 -29 -97.5t-75 -63.5q51 -23 84.5 -69.5t33.5 -109.5q0 -46 -19.5 -86t-54 -69
t-83 -45.5t-107.5 -16.5q-83 0 -147 35.5t-99 92.5l75 39q25 -39 70.5 -61.5t100.5 -22.5q38 0 70.5 9.5t56 27t36.5 42.5t13 55q0 63 -48 99t-133 39q-12 1 -22.5 1h-21.5v75z" />
    <glyph glyph-name="four.tn" 
d="M44 226l378 509h65v-495h134v-80h-134v-160h-87v160h-356v66zM158 240h242v320z" />
    <glyph glyph-name="five.tn" 
d="M142 735h384v-80h-305l-16 -183q21 11 47 18t58 7q55 0 103 -19t84 -53t57 -80.5t21 -100.5q0 -52 -20 -98.5t-56 -81t-84.5 -54.5t-105.5 -20q-78 0 -140 35t-94 90l75 40q24 -38 66 -60t92 -22q34 0 66.5 12.5t57.5 35t40 54t15 70.5q0 38 -14.5 69.5t-38.5 54t-56 35
t-67 12.5q-43 0 -74.5 -12.5t-55.5 -32.5h-69z" />
    <glyph glyph-name="six.tn" 
d="M262 476q12 4 30 7t40 3q51 0 96 -19.5t78.5 -53t53 -78.5t19.5 -97q0 -51 -19.5 -96.5t-54 -79.5t-80.5 -53.5t-99 -19.5q-54 0 -100.5 19t-81 52t-54 78t-19.5 97q0 48 15.5 94t44.5 90l210 316h101zM157 235q0 -34 13 -64t36 -52t54 -34.5t66 -12.5q36 0 66 13
t52.5 35.5t35 53t12.5 64.5q0 36 -12.5 66.5t-35 52.5t-53.5 34.5t-67 12.5q-37 0 -68.5 -9t-48.5 -20q-24 -30 -37 -64t-13 -76z" />
    <glyph glyph-name="seven.tn" 
d="M76 735h505v-65l-363 -670h-92l355 655h-405v80z" />
    <glyph glyph-name="eight.tn" 
d="M551 548q0 -51 -25.5 -91t-63.5 -63q25 -12 47 -30t38.5 -41t26.5 -51.5t10 -60.5q0 -46 -18.5 -86.5t-52 -70.5t-80.5 -47t-103 -17t-103 17.5t-80.5 47.5t-52 70t-18.5 86q0 32 9.5 60.5t26 52t38.5 41.5t47 30q-39 23 -63.5 62.5t-24.5 90.5q0 45 18.5 81t49.5 62
t70.5 40t82.5 14t83 -14t70.5 -39.5t49 -62t18.5 -81.5zM330 662q-57 0 -94.5 -30.5t-37.5 -83.5q0 -24 9.5 -45t27 -37t41.5 -25t54 -9t54 9t41.5 24.5t27 37t9.5 45.5q0 53 -37.5 83.5t-94.5 30.5zM495 211q0 30 -12 56t-33.5 45.5t-52 30.5t-67.5 11t-67.5 -11t-52 -30.5
t-33.5 -45.5t-12 -56q0 -29 12 -54.5t33.5 -44t52 -29t67.5 -10.5t67.5 10.5t52 29t33.5 44t12 54.5z" />
    <glyph glyph-name="nine.tn" 
d="M397 259q-11 -5 -29 -8t-40 -3q-51 0 -96 19.5t-78 53t-52.5 79t-19.5 97.5q0 51 19.5 96t54 79t80.5 53.5t98 19.5q53 0 99.5 -19t80.5 -52t53.5 -78t19.5 -97q0 -94 -60 -183l-207 -317h-102zM502 499q0 35 -13 64.5t-36 52t-53.5 35t-65.5 12.5t-65.5 -13.5t-52.5 -36
t-34.5 -52.5t-12.5 -64q0 -36 12.5 -67t35 -53t53 -34.5t66.5 -12.5q37 0 68 9t48 20q23 30 36.5 64t13.5 76z" />
    <glyph glyph-name="Euro.on" horiz-adv-x="621" 
d="M32 437h83q11 51 32.5 94t54 74t74.5 48.5t93 17.5q60 0 106 -19.5t78 -53.5l-57 -47q-24 22 -56.5 32.5t-70.5 10.5q-36 0 -64.5 -11.5t-49 -32.5t-34.5 -50t-22 -63h248v-63h-259q-1 -11 -1 -18v-18v-17.5t1 -18.5h259v-63h-252q7 -37 21 -68.5t35.5 -54.5t50.5 -36
t67 -13t70 11t55 31l58 -49q-32 -32 -78 -50.5t-105 -18.5q-53 0 -96.5 18.5t-75.5 51.5t-53.5 78.5t-31.5 99.5h-80v63h74q-1 8 -1 18.5v17.5v10l1 16v10h-74v63z" />
    <glyph glyph-name="cent.on" horiz-adv-x="490" 
d="M309 -88h-75v83q-42 6 -76 26t-58 50t-37 68t-13 80q0 44 12.5 82t36.5 67.5t58 49.5t77 27v79h75v-80q43 -7 78.5 -29.5t61.5 -57.5l-61 -45q-23 28 -52.5 44t-66.5 16q-32 0 -58 -12t-44 -32.5t-27.5 -48.5t-9.5 -60q0 -31 10.5 -59t29 -49t45 -33t58.5 -12q37 0 65 12
t52 34l53 -52q-25 -26 -59 -43.5t-75 -22.5v-82z" />
    <glyph glyph-name="dollar.on" horiz-adv-x="581" 
d="M419 536q-28 26 -62.5 42.5t-76.5 16.5q-35 0 -59 -9t-38.5 -23t-21 -31.5t-6.5 -34.5q0 -37 27.5 -62.5t78.5 -39.5l83 -22q87 -23 132 -72t45 -118q0 -34 -13 -66.5t-38 -58t-61.5 -43t-84.5 -21.5v-82h-75v82q-54 6 -105 33t-85 69l60 51q38 -42 79.5 -61t86.5 -19
q38 0 66.5 9.5t47 25.5t27.5 37t9 44q0 38 -24 67.5t-86 48.5l-88 25q-82 23 -124.5 64t-42.5 110q0 30 11.5 58t34 51.5t55 39.5t73.5 21v77h75v-78q41 -5 81.5 -25t71.5 -50z" />
    <glyph glyph-name="florin.on" horiz-adv-x="565" 
d="M257 -49q-9 -77 -53 -124.5t-128 -47.5q-11 0 -26.5 2.5t-26.5 5.5l12 68l23 -4q5 -1 10 -1.5t10 -0.5q43 0 69.5 27.5t31.5 75.5l41 338h-82v63h90l18 156q11 83 58 127.5t129 44.5q20 0 42.5 -4t38.5 -12l-18 -65q-14 5 -29 7.5t-34 2.5q-50 0 -76.5 -28t-31.5 -73
l-19 -156h140v-63h-148z" />
    <glyph glyph-name="numbersign.on" horiz-adv-x="785" 
d="M252 483l26 124h79l-26 -124h190l27 124h78l-26 -124h125v-78h-141l-44 -209h126v-78h-142l-24 -118h-78l24 118h-191l-24 -118h-79l25 118h-118v78h134l43 209h-118v78h134zM271 196h191l43 209h-191z" />
    <glyph glyph-name="percent.on" horiz-adv-x="850" 
d="M86 509q0 33 11 62t31 50.5t48.5 34t62.5 12.5t62 -12.5t48.5 -34t32 -50.5t11.5 -62t-11.5 -61.5t-32 -50.5t-48.5 -34.5t-62 -12.5t-62 12.5t-48.5 34.5t-31.5 50.5t-11 61.5zM605 662h93l-457 -662h-93zM156 509q0 -38 22.5 -64t60.5 -26t60.5 26t22.5 64t-22.5 64.5
t-60.5 26.5t-60.5 -26.5t-22.5 -64.5zM459 152q0 33 10.5 62t30.5 50.5t48 34t63 12.5q34 0 62 -12.5t48.5 -34t31.5 -50.5t11 -62t-11 -62t-31.5 -50.5t-48.5 -34t-62 -12.5t-62 12.5t-48 34t-31 50.5t-11 62zM527 152q0 -38 23 -64.5t61 -26.5t60.5 26.5t22.5 64.5
t-22.5 64.5t-60.5 26.5t-61 -26.5t-23 -64.5z" />
    <glyph glyph-name="sterling.on" horiz-adv-x="580" 
d="M67 385h65v109q0 38 12.5 70t36 56t57 37.5t75.5 13.5q40 0 69.5 -12t50 -29.5t34 -36t20.5 -32.5l-66 -33q-37 66 -108 66q-45 0 -72 -28t-27 -72v-109h182v-63h-182v-192q0 -47 -30 -53h345v-77h-465l-5 77q73 5 73 79v166h-65v63z" />
    <glyph glyph-name="uni20B9.on" horiz-adv-x="564" 
d="M59 507h272q-11 34 -43.5 58t-89.5 24h-139v73h446v-68h-142q24 -17 37 -39t18 -48h87v-68h-85q-8 -62 -47.5 -103t-101.5 -55l-27 -6l216 -275h-100l-214 273v70h59q57 0 89 28t40 68h-275v68z" />
    <glyph glyph-name="uni20BA.on" horiz-adv-x="560" 
d="M36 316l110 39v63l-110 -39v68l110 40v175h78v-147l172 63v-68l-172 -63v-64l172 63v-68l-172 -63v-233q38 5 74 21t65 43.5t50 66.5t29 88l73 -12q-8 -60 -36.5 -112.5t-72 -91.5t-99.5 -62t-121 -23h-40v287l-110 -39v68z" />
    <glyph glyph-name="yen.on" horiz-adv-x="628" 
d="M356 0h-83v145h-156v64h156v80h-156v63h114l-199 310h99l183 -285l183 285h98l-200 -310h122v-63h-161v-80h161v-64h-161v-145z" />
    <glyph glyph-name="zero.on" horiz-adv-x="619" 
d="M63 244q0 48 16 93t47 80.5t77 56.5t106 21q61 0 107.5 -21t77.5 -56.5t46.5 -80.5t15.5 -93q0 -49 -15.5 -94t-46.5 -80t-77.5 -56t-107.5 -21q-60 0 -106 21t-77 56t-47 80t-16 94zM147 244q0 -30 9 -60t28.5 -55t50 -40.5t74.5 -15.5t75.5 15.5t51 40.5t28.5 55t9 60
t-9 60t-28.5 55t-51 40.5t-75.5 15.5t-74.5 -15.5t-50 -40.5t-28.5 -55t-9 -60z" />
    <glyph glyph-name="one.on" horiz-adv-x="375" 
d="M66 77h113v310l-96 -42l-34 73l151 70h62v-411h92v-77h-288v77z" />
    <glyph glyph-name="two.on" horiz-adv-x="576" 
d="M74 63l232 153q54 35 80.5 62.5t26.5 59.5q0 37 -31 59t-82 22q-44 0 -83.5 -21t-57.5 -68l-81 22q10 32 31.5 58.5t51 45.5t65 29t74.5 10q48 0 84.5 -12.5t61.5 -34t38 -50t13 -60.5q0 -56 -36.5 -97.5t-107.5 -86.5l-119 -77h269v-77h-429v63z" />
    <glyph glyph-name="three.on" horiz-adv-x="552" 
d="M212 206h19t25 1q58 2 94.5 32.5t36.5 77.5t-35 73.5t-84 26.5q-44 0 -76 -17.5t-53 -49.5l-66 46q31 48 81 74.5t114 26.5q45 0 82.5 -14.5t64.5 -39t42 -57t15 -69.5q0 -51 -24 -87t-60 -57q41 -21 68 -62.5t27 -97.5q0 -42 -17 -78t-47 -62t-72.5 -41t-93.5 -15
q-71 0 -126.5 32t-85.5 83l72 38q20 -34 57.5 -53.5t82.5 -19.5q64 0 105 31.5t41 84.5q0 39 -17.5 63t-45 37t-60.5 17.5t-64 4.5v71z" />
    <glyph glyph-name="four.on" horiz-adv-x="562" 
d="M32 31l328 457h62v-444h112v-76h-112v-142h-83v142h-307v63zM140 44h199v276z" />
    <glyph glyph-name="five.on" horiz-adv-x="568" 
d="M118 488h338v-77h-263l-13 -157q19 8 39.5 14t46.5 6q49 0 91.5 -17.5t74 -48t50 -72t18.5 -90.5q0 -47 -17.5 -88.5t-48.5 -73t-73.5 -49.5t-93.5 -18q-69 0 -124 31t-84 81l72 38q21 -34 57 -52t78 -18q28 0 55 11t48 30.5t33.5 47t12.5 61.5q0 33 -12 60.5t-32.5 47
t-47.5 30.5t-57 11q-35 0 -62 -10t-47 -28h-65z" />
    <glyph glyph-name="six.on" horiz-adv-x="580" 
d="M234 428q20 10 59 10q45 0 84.5 -17.5t69 -47.5t47 -71t17.5 -88q0 -46 -17.5 -87t-48 -71.5t-71.5 -48t-87 -17.5q-48 0 -89.5 17t-72 47t-48.5 70.5t-18 87.5q0 43 14 84.5t39 80.5l182 284h97zM142 212q0 -30 11.5 -56t31 -45.5t46 -30.5t56.5 -11t56 11.5t44.5 31
t29.5 46t11 56.5q0 32 -11 58.5t-30 46t-45 30.5t-57 11q-32 0 -59 -7.5t-42 -17.5q-20 -26 -31 -56t-11 -67z" />
    <glyph glyph-name="seven.on" horiz-adv-x="516" 
d="M47 488h418v-62l-292 -600h-93l285 585h-318v77z" />
    <glyph glyph-name="eight.on" horiz-adv-x="599" 
d="M500 492q0 -45 -22 -80.5t-54 -57.5q43 -21 74.5 -63.5t31.5 -99.5q0 -42 -17 -78.5t-47.5 -63.5t-73 -42.5t-93.5 -15.5t-93.5 15.5t-73 42.5t-47.5 63.5t-17 78.5q0 29 8.5 54t23 46t34 37t40.5 27q-33 21 -54.5 56t-21.5 81q0 41 17 74t45 56t64.5 36t74.5 13
q39 0 75 -12.5t64 -35.5t45 -56.5t17 -74.5zM299 591q-50 0 -83 -27t-33 -72q0 -42 32 -72t84 -30q53 0 85 29.5t32 72.5q0 45 -33 72t-84 27zM445 191q0 26 -10.5 48.5t-29.5 39.5t-46 27t-60 10t-59.5 -10t-46 -27t-30 -39.5t-10.5 -48.5q0 -25 10.5 -47t29.5 -38.5
t46 -25.5t60 -9t59.5 9t46 25.5t30 38.5t10.5 47z" />
    <glyph glyph-name="nine.on" horiz-adv-x="580" 
d="M345 59q-22 -11 -58 -11q-45 0 -85 17.5t-69.5 48t-47 71.5t-17.5 88q0 46 17.5 87t48.5 71.5t72 48t87 17.5q47 0 88.5 -17t72.5 -47t48.5 -70.5t17.5 -87.5q0 -44 -13 -84.5t-39 -79.5l-182 -286h-98zM438 275q0 30 -11.5 56t-31 45.5t-46 30.5t-56.5 11t-56 -11.5
t-45 -31.5t-29.5 -46t-10.5 -56q0 -32 10.5 -59t29.5 -46.5t45.5 -30t57.5 -10.5q32 0 58.5 7.5t41.5 16.5q20 26 31.5 56t11.5 68z" />
    <glyph glyph-name="Euro.ton" 
d="M41 437h87q11 51 33.5 94t55.5 74t76.5 48.5t96.5 17.5q63 0 109.5 -19.5t80.5 -53.5l-55 -47q-52 43 -135 43q-38 0 -68 -11.5t-51.5 -32.5t-36 -50t-22.5 -63h259v-63h-270q-1 -11 -1 -18v-18v-17.5t1 -18.5h270v-63h-263q7 -37 21.5 -68.5t37 -54.5t53 -36t70.5 -13
q82 0 132 42l58 -49q-34 -32 -81 -50.5t-109 -18.5q-55 0 -99.5 18.5t-78 51.5t-55.5 78.5t-32 99.5h-84v63h78q-2 11 -2 23v23l2 16v10h-78v63z" />
    <glyph glyph-name="cent.ton" 
d="M382 -88h-77v83q-45 6 -81.5 26t-62 50t-39.5 68t-14 80q0 44 13.5 82t39 67.5t62 49.5t82.5 27v79h77v-80q45 -7 83.5 -29.5t65.5 -57.5l-61 -45q-24 28 -58 44t-73 16q-35 0 -63 -12t-48 -32.5t-30.5 -48.5t-10.5 -60q0 -31 11 -59t31.5 -49t49.5 -33t65 -12
q41 0 71.5 12t55.5 34l53 -52q-26 -26 -62 -43.5t-80 -22.5v-82z" />
    <glyph glyph-name="dollar.ton" 
d="M473 536q-30 26 -68.5 42.5t-86.5 16.5q-38 0 -64.5 -9t-43.5 -23t-24.5 -31.5t-7.5 -34.5q0 -37 33.5 -63t86.5 -39l90 -22q93 -23 141.5 -72t48.5 -118q0 -34 -14 -66.5t-41.5 -58t-67.5 -43t-91 -21.5v-82h-76v82q-62 6 -117.5 33t-88.5 69l59 51q39 -42 84.5 -61
t99.5 -19q42 0 73.5 9.5t52 25.5t31 37t10.5 44q0 38 -27 67.5t-96 48.5l-94 25q-83 23 -133 64.5t-50 109.5q0 30 13 58t38 51.5t60 39.5t79 21v77h76v-78q47 -5 91 -25t76 -50z" />
    <glyph glyph-name="florin.ton" 
d="M298 -49q-10 -78 -58 -125t-139 -47q-13 0 -29.5 2.5t-27.5 5.5l11 68q14 -2 25.5 -4t22.5 -2q49 0 79.5 27.5t37.5 75.5l45 338h-89v63h97l21 156q11 83 63 127.5t140 44.5q23 0 47.5 -4t42.5 -12l-18 -65q-17 5 -33.5 7.5t-38.5 2.5q-55 0 -86.5 -28t-37.5 -73
l-22 -156h161v-63h-168z" />
    <glyph glyph-name="numbersign.ton" 
d="M200 483l23 124h77l-20 -124h164l24 124h78l-24 -124h110v-78h-125l-38 -209h109v-78h-125l-22 -118h-78l22 118h-166l-22 -118h-79l22 118h-102v78h118l38 209h-102v78h118zM224 196h167l38 209h-166z" />
    </font>
</defs>
</svg>
