<?xml version="1.0" standalone="no"?>
<!DOCTYPE svg PUBLIC "-//W3C//DTD SVG 1.1//EN" "http://www.w3.org/Graphics/SVG/1.1/DTD/svg11.dtd" >
<svg xmlns="http://www.w3.org/2000/svg" xmlns:xlink="http://www.w3.org/1999/xlink" version="1.1">
<metadata>
Created by FontForge 20170731 at Thu Apr 15 12:42:27 2021
 By Aleksey,,,
Copyright (c) 2016 by Taner Ardali. All rights reserved.
</metadata>
<defs>
<font id="Santral-SemiBold" horiz-adv-x="660" >
  <font-face 
    font-family="Santral SemiBold"
    font-weight="600"
    font-stretch="normal"
    units-per-em="1000"
    panose-1="0 0 0 0 0 0 0 0 0 0"
    ascent="800"
    descent="-200"
    x-height="490"
    cap-height="735"
    bbox="-203 -256 1245 1026"
    underline-thickness="50"
    underline-position="-150"
    unicode-range="U+000D-FB02"
  />
<missing-glyph horiz-adv-x="736" 
d="M91 735h554v-735h-554v735zM368 429l155 234h-307zM168 611v-484l159 241zM567 127v481l-159 -239zM214 73h309l-155 234z" />
    <glyph glyph-name="fi.1" unicode="fi" horiz-adv-x="670" 
d="M590 0h-107v400h-243v-400h-107v401l-92 27v62h92v64q0 46 15 84t42.5 65t65 42t82.5 15q70 0 123.5 -34t85.5 -91l-84 -53q-26 41 -53.5 60t-67.5 19q-20 0 -38.5 -6.5t-32.5 -20t-22.5 -34t-8.5 -48.5v-62h350v-490z" />
    <glyph glyph-name="fl.1" unicode="fl" horiz-adv-x="726" 
d="M41 490h92v67q0 46 15 83.5t42 64t65.5 41t85.5 14.5q18 0 39 -1t45 -5l-5 -93h-75q-20 0 -39 -5.5t-33.5 -18t-23.5 -33t-9 -51.5v-63h149v-90h-149v-400h-107v401l-92 27v62zM646 0h-107v755h107v-755z" />
    <glyph glyph-name=".notdef" horiz-adv-x="736" 
d="M91 735h554v-735h-554v735zM368 429l155 234h-307zM168 611v-484l159 241zM567 127v481l-159 -239zM214 73h309l-155 234z" />
    <glyph glyph-name=".null" horiz-adv-x="0" 
 />
    <glyph glyph-name=".null" horiz-adv-x="0" 
 />
    <glyph glyph-name="uni000D" unicode="&#xd;" horiz-adv-x="0" 
 />
    <glyph glyph-name="space" unicode=" " horiz-adv-x="292" 
 />
    <glyph glyph-name="exclam" unicode="!" horiz-adv-x="370" 
d="M241 193h-113v542h113v-542zM111 39q0 32 21 53.5t52 21.5q32 0 53.5 -21.5t21.5 -53.5q0 -30 -21.5 -51t-53.5 -21q-31 0 -52 21t-21 51z" />
    <glyph glyph-name="quotedbl" unicode="&#x22;" horiz-adv-x="430" 
d="M182 735l-17 -231h-67l-17 231h101zM348 735l-17 -231h-66l-17 231h100z" />
    <glyph glyph-name="numbersign" unicode="#" horiz-adv-x="877" 
d="M272 543l28 132h107l-28 -132h196l28 132h108l-29 -132h134v-102h-154l-45 -213h134v-102h-154l-27 -126h-107l26 126h-196l-26 -126h-107l26 126h-125v102h146l44 213h-125v102h146zM314 228h196l44 213h-195z" />
    <glyph glyph-name="dollar" unicode="$" horiz-adv-x="647" 
d="M464 579q-29 30 -66.5 48t-82.5 18q-35 0 -59 -8.5t-38.5 -22t-21 -31.5t-6.5 -36q0 -35 25.5 -60t78.5 -39l91 -25q98 -28 149 -83t51 -134q0 -38 -14 -73.5t-41 -64.5t-67 -48.5t-93 -25.5v-95h-102v95q-58 8 -113 36.5t-94 76.5l78 71q42 -46 87.5 -66t91.5 -20
q38 0 66 9.5t47 25.5t28 36.5t9 42.5q0 29 -10.5 48.5t-34.5 35t-63.5 29t-98.5 30.5q-94 27 -140.5 75t-46.5 124q0 33 13 65t37 58.5t59.5 45t80.5 24.5v89h103v-90q45 -7 89 -29.5t80 -58.5z" />
    <glyph glyph-name="percent" unicode="%" horiz-adv-x="950" 
d="M91 567q0 37 12.5 69.5t35 56.5t54 38t70.5 14q38 0 70 -14t54.5 -38t35 -56.5t12.5 -69.5t-12.5 -69.5t-35 -56.5t-54.5 -38t-70 -14t-70 14t-54.5 38t-35 56.5t-12.5 69.5zM666 735h121l-508 -735h-120zM180 567q0 -39 22.5 -66t60.5 -27t61 27t23 66q0 38 -23 65
t-61 27t-60.5 -27t-22.5 -65zM515 169q0 37 12 69.5t34.5 56.5t54 38t70.5 14q38 0 70 -14t55 -38t35.5 -56.5t12.5 -69.5t-12.5 -69.5t-35.5 -56.5t-55 -38t-70 -14t-69.5 14t-54 38t-35 56.5t-12.5 69.5zM602 169q0 -39 23 -66t61 -27t61 27t23 66q0 38 -23 65t-61 27
t-61 -27t-23 -65z" />
    <glyph glyph-name="ampersand" unicode="&#x26;" horiz-adv-x="741" 
d="M155 582q0 35 13.5 65t37 51.5t56 34t71.5 12.5q38 0 70.5 -12t56 -34t37 -51.5t13.5 -65.5q0 -24 -5 -44t-16.5 -38.5t-29 -37t-42.5 -39.5l133 -193q25 37 37 80l91 -31q-8 -37 -25 -71.5t-40 -63.5l103 -144h-121l-60 67q-47 -35 -103 -56.5t-114 -21.5
q-64 0 -110.5 17.5t-77 46t-45 64.5t-14.5 74q0 33 8.5 60.5t27 53t48 52t71.5 58.5l-34 49q-20 29 -28.5 59t-8.5 59zM265 580q0 -16 5.5 -34t22.5 -44l20 -31l45 32q20 17 31.5 35t11.5 43q0 29 -18.5 49t-49.5 20q-28 0 -48 -17.5t-20 -52.5zM319 89q39 0 80 15.5
t77 44.5l-148 218q-29 -22 -55.5 -42t-46 -40t-31 -41.5t-11.5 -47.5q0 -45 35 -76t100 -31z" />
    <glyph glyph-name="quotesingle" unicode="'" horiz-adv-x="260" 
d="M180 735l-17 -231h-66l-17 231h100z" />
    <glyph glyph-name="parenleft" unicode="(" horiz-adv-x="450" 
d="M91 367q0 70 14.5 138.5t43 131.5t70.5 119t97 100l63 -81q-79 -79 -120.5 -183t-41.5 -225t41.5 -225t120.5 -183l-63 -81q-55 44 -97 100t-70.5 119t-43 131.5t-14.5 138.5z" />
    <glyph glyph-name="parenright" unicode=")" horiz-adv-x="450" 
d="M362 367q0 -70 -14.5 -138.5t-43 -131.5t-70.5 -119t-97 -100l-63 81q79 79 120.5 183t41.5 225t-41.5 225t-120.5 183l63 81q55 -44 97 -100t70.5 -119t43 -131.5t14.5 -138.5z" />
    <glyph glyph-name="asterisk" unicode="*" horiz-adv-x="694" 
d="M301 512l-12 167h116l-12 -167l154 64l35 -110l-161 -40l108 -127l-93 -68l-89 142l-87 -143l-94 69l107 127l-162 40l36 109z" />
    <glyph glyph-name="plus" unicode="+" horiz-adv-x="614" 
d="M61 397h194v193h104v-193h193v-100h-193v-192h-104v192h-194v100z" />
    <glyph glyph-name="comma" unicode="," horiz-adv-x="312" 
d="M241 121l-94 -249h-76l47 249h123z" />
    <glyph glyph-name="hyphen" unicode="-" horiz-adv-x="526" 
d="M91 318h344v-99h-344v99z" />
    <glyph glyph-name="period" unicode="." horiz-adv-x="339" 
d="M94 62q0 32 21.5 54t53.5 22t54 -22t22 -54q0 -31 -22 -52.5t-54 -21.5t-53.5 21.5t-21.5 52.5z" />
    <glyph glyph-name="slash" unicode="/" horiz-adv-x="582" 
d="M423 735h117l-383 -735h-116z" />
    <glyph glyph-name="zero" unicode="0" horiz-adv-x="692" 
d="M66 367q0 78 16.5 147t50.5 120.5t87 81.5t126 30t126 -29.5t87 -81t50.5 -120.5t16.5 -148t-16.5 -148t-50.5 -120t-87 -80.5t-126 -29.5t-126 29.5t-87 81t-50.5 120.5t-16.5 147zM183 367q0 -54 7.5 -102.5t26.5 -85t50 -58.5t79 -22t79 22t50 58.5t26.5 85t7.5 102.5
t-7.5 102.5t-26.5 85.5t-50 59t-79 22t-79 -22t-50 -59t-26.5 -85.5t-7.5 -102.5z" />
    <glyph glyph-name="one" unicode="1" horiz-adv-x="431" 
d="M194 0v588l-101 -64l-53 95l185 116h85v-735h-116z" />
    <glyph glyph-name="two" unicode="2" horiz-adv-x="643" 
d="M79 86l287 301q33 35 56 70t23 73q0 24 -9.5 43.5t-26 34t-38.5 22t-46 7.5q-43 0 -78.5 -26t-53.5 -79l-111 29q12 41 35 75t55 58.5t71.5 38t84.5 13.5q53 0 96 -16.5t73.5 -45.5t47 -67.5t16.5 -82.5q0 -33 -8 -62t-24 -56.5t-39.5 -55t-54.5 -58.5l-192 -197h323
v-105h-487v86z" />
    <glyph glyph-name="three" unicode="3" horiz-adv-x="621" 
d="M240 429h44q29 0 54 8.5t43 23.5t28 35t10 44t-9.5 42.5t-26 31t-38 19.5t-45.5 7q-44 0 -76.5 -18.5t-53.5 -52.5l-94 56q36 57 93.5 89t132.5 32q53 0 96 -16t73.5 -44t47.5 -64.5t17 -77.5q0 -55 -24 -94.5t-62 -63.5q42 -25 71 -70.5t29 -103.5q0 -48 -19.5 -88.5
t-54 -70.5t-83 -47t-106.5 -17q-84 0 -147.5 37.5t-98.5 99.5l101 48q20 -37 59 -57.5t84 -20.5q32 0 59 9t46.5 24.5t30.5 37.5t11 49q0 56 -41 88t-113 32h-38v93z" />
    <glyph glyph-name="four" unicode="4" horiz-adv-x="629" 
d="M31 234l363 501h87v-484h121v-101h-121v-150h-110v150h-337zM172 251h199v275z" />
    <glyph glyph-name="five" unicode="5" horiz-adv-x="640" 
d="M128 735h391v-102h-288l-12 -152q19 8 40 13t46 5q55 0 103 -19t84 -53t56.5 -80.5t20.5 -100.5q0 -52 -19.5 -99t-55 -82t-84.5 -55.5t-108 -20.5q-80 0 -143.5 37t-97.5 98l103 47q20 -37 57.5 -56t78.5 -19q29 0 56 11t48 30.5t33.5 47.5t12.5 62t-12 62t-33 48
t-48 31t-57 11q-35 0 -63 -11t-48 -29h-90z" />
    <glyph glyph-name="six" unicode="6" horiz-adv-x="649" 
d="M283 481q9 3 23 5t32 2q48 0 91.5 -19t76.5 -52t52.5 -78.5t19.5 -98.5q0 -52 -20 -98t-54.5 -80t-81.5 -54t-101 -20q-55 0 -102.5 19t-82.5 52.5t-55 79t-20 99.5q0 48 16 94.5t44 91.5l198 311h133zM176 238q0 -30 11.5 -56t31 -45.5t46 -31t56.5 -11.5t56 11.5
t44.5 31.5t29.5 47t11 57q0 32 -11 59t-30 46.5t-45 30.5t-57 11q-22 0 -41.5 -3.5t-33.5 -8.5q-17 -7 -30 -21.5t-21.5 -33t-12.5 -40.5t-4 -43z" />
    <glyph glyph-name="seven" unicode="7" horiz-adv-x="577" 
d="M48 735h477v-79l-318 -656h-122l304 629h-341v106z" />
    <glyph glyph-name="eight" unicode="8" horiz-adv-x="671" 
d="M567 545q0 -48 -22.5 -87.5t-57.5 -63.5q46 -25 79.5 -71t33.5 -109q0 -47 -19 -88t-54 -71.5t-84 -48t-108 -17.5t-107.5 17.5t-83.5 48.5t-54 72t-19 87q0 63 33 109t79 71q-35 24 -57 63t-22 88q0 45 19 82t51 63.5t73.5 41t87.5 14.5t88 -14t74 -40.5t51 -63.5
t19 -83zM335 642q-50 0 -82.5 -27t-32.5 -72q0 -44 31.5 -73t83.5 -29q53 0 84.5 29t31.5 73q0 45 -32.5 72t-83.5 27zM481 218q0 26 -10.5 49.5t-29.5 40.5t-46 27t-60 10t-59.5 -10t-45.5 -27t-29.5 -40.5t-10.5 -49.5q0 -53 39.5 -88t105.5 -35q33 0 60 9.5t46 26
t29.5 39t10.5 48.5z" />
    <glyph glyph-name="nine" unicode="9" horiz-adv-x="649" 
d="M366 253q-19 -7 -54 -7q-48 0 -92 19t-77 52t-52.5 78.5t-19.5 98.5t20 98.5t55 80t82 54t101 19.5q55 0 102 -19t82 -52.5t55 -79t20 -99.5q0 -48 -15.5 -94.5t-44.5 -91.5l-198 -311h-134zM474 496q0 30 -11.5 56.5t-31 46t-46 30.5t-56.5 11t-56 -11.5t-45 -31.5
t-30 -47t-11 -57q0 -32 11 -59t30 -46.5t45.5 -30.5t57.5 -11t57.5 7t40.5 17q20 25 32.5 56t12.5 70z" />
    <glyph glyph-name="colon" unicode=":" horiz-adv-x="413" 
d="M131 379q0 32 21.5 53.5t53.5 21.5t54 -21.5t22 -53.5t-22 -53.5t-54 -21.5t-53.5 21.5t-21.5 53.5zM131 62q0 32 21.5 54t53.5 22t54 -22t22 -54q0 -31 -22 -52.5t-54 -21.5t-53.5 21.5t-21.5 52.5z" />
    <glyph glyph-name="semicolon" unicode=";" horiz-adv-x="413" 
d="M206 454q32 0 54 -21.5t22 -53.5t-22 -53.5t-54 -21.5t-53.5 21.5t-21.5 53.5t21.5 53.5t53.5 21.5zM153 121h123l-93 -249h-76z" />
    <glyph glyph-name="less" unicode="&#x3c;" horiz-adv-x="661" 
d="M245 342l315 -123v-115l-489 197v78l489 217v-115z" />
    <glyph glyph-name="equal" unicode="=" horiz-adv-x="605" 
d="M56 509h493v-100h-493v100zM56 284h493v-100h-493v100z" />
    <glyph glyph-name="greater" unicode="&#x3e;" horiz-adv-x="661" 
d="M73 481v115l488 -217v-78l-488 -197v115l314 123z" />
    <glyph glyph-name="question" unicode="?" horiz-adv-x="528" 
d="M296 246q0 -11 1 -22t3 -23l-106 -12q-4 10 -6 26.5t-2 33.5q0 38 15 71t47 68q23 26 44 48.5t41 45.5q16 17 25 36t9 42q0 19 -8.5 34t-21.5 25t-29 15.5t-32 5.5q-42 0 -74 -23.5t-46 -68.5l-105 30q12 38 33 68.5t50 53t65.5 34.5t79.5 12q41 0 77.5 -12.5t63.5 -35.5
t43.5 -55.5t17.5 -73.5q1 -16 -2 -35q-5 -33 -21.5 -62.5t-43.5 -59.5l-85 -90q-19 -20 -26 -38.5t-7 -37.5zM181 32q0 32 22 54.5t54 22.5t54.5 -22.5t22.5 -54.5t-22.5 -53.5t-54.5 -21.5t-54 21.5t-22 53.5z" />
    <glyph glyph-name="at" unicode="@" horiz-adv-x="1011" 
d="M301 201q0 43 15 81t41.5 66.5t62.5 45t79 16.5q39 0 76.5 -17t62.5 -48l30 59h45v-330h107q12 29 18 65.5t6 69.5q0 74 -26 135t-71 104.5t-105.5 67.5t-130.5 24q-69 0 -130 -26t-106.5 -71.5t-72 -106.5t-26.5 -130q0 -70 26.5 -131t72 -106.5t106.5 -72t130 -26.5
q46 0 80 7t69 22l30 -75q-42 -19 -86.5 -28t-92.5 -9q-87 0 -163.5 32.5t-134 89.5t-90.5 133.5t-33 163.5t33 163.5t90.5 133t134 89.5t163.5 33q89 0 165.5 -32t132.5 -87.5t87.5 -131.5t31.5 -165q0 -52 -13 -106t-39 -103h-230l-19 56q-21 -29 -55 -46.5t-76 -17.5
q-39 0 -74.5 16.5t-62.5 44.5t-42.5 66.5t-15.5 81.5zM389 201q0 -26 8.5 -48.5t23.5 -39.5t36 -26.5t45 -9.5t46.5 9t39.5 25.5t27 39.5t10 50q0 26 -9 49t-25.5 40t-39 26.5t-49.5 9.5q-24 0 -45 -9.5t-36 -26.5t-23.5 -40t-8.5 -49z" />
    <glyph glyph-name="A" unicode="A" horiz-adv-x="781" 
d="M540 185h-300l-75 -185h-124l302 735h94l303 -735h-126zM280 284h222l-112 282z" />
    <glyph glyph-name="B" unicode="B" horiz-adv-x="700" 
d="M382 735q48 0 89 -14t71 -39.5t47.5 -62.5t17.5 -82q0 -49 -21 -87t-53 -61q50 -26 78 -70t28 -106q0 -50 -18.5 -89.5t-50.5 -67t-75 -42t-91 -14.5h-313v735h291zM493 533q0 48 -33 75.5t-87 27.5h-167v-211h173q58 0 86 29.5t28 78.5zM523 216q0 58 -35.5 87.5
t-103.5 29.5h-178v-234h187q56 0 93 31t37 86z" />
    <glyph glyph-name="C" unicode="C" horiz-adv-x="763" 
d="M175 367q0 -54 19 -102t53 -84.5t80.5 -58t101.5 -21.5q63 0 116.5 24.5t93.5 65.5l83 -73q-51 -56 -126 -92.5t-166 -36.5q-81 0 -149.5 30t-118.5 81.5t-78 120t-28 146.5t28.5 146.5t78.5 120.5t118 82t147 30q85 0 157 -34t123 -91l-87 -71q-36 38 -85.5 61.5
t-107.5 23.5q-55 0 -101 -22t-80 -59t-53 -85.5t-19 -101.5z" />
    <glyph glyph-name="D" unicode="D" horiz-adv-x="775" 
d="M91 735h248q89 0 159.5 -28t119.5 -77.5t75 -117t26 -145.5t-26 -145t-75 -116.5t-119.5 -77.5t-159.5 -28h-248v735zM599 367q0 56 -17.5 104t-51 83t-82 55t-109.5 20h-133v-523h133q62 0 110.5 19.5t81.5 54.5t50.5 82.5t17.5 104.5z" />
    <glyph glyph-name="E" unicode="E" horiz-adv-x="655" 
d="M91 735h488v-105h-373v-200h324v-100h-324v-225h388v-105h-503v735z" />
    <glyph glyph-name="F" unicode="F" horiz-adv-x="602" 
d="M91 735h470v-105h-354v-203h320v-103h-320v-324h-116v735z" />
    <glyph glyph-name="G" unicode="G" horiz-adv-x="809" 
d="M395 406h343v-283q-57 -66 -133.5 -100t-170.5 -34q-81 0 -150.5 29.5t-120 81t-79 120.5t-28.5 147q0 79 28.5 148t79 120.5t119 81t149.5 29.5q85 0 157.5 -33.5t123.5 -91.5l-88 -69q-34 38 -85.5 61t-108.5 23t-104.5 -22t-81.5 -59t-53 -86t-19 -102
q0 -55 19 -103.5t53.5 -85t83 -58t106.5 -21.5q56 0 106.5 17.5t82.5 50.5v137h-229v102z" />
    <glyph glyph-name="H" unicode="H" horiz-adv-x="765" 
d="M674 0h-115v326h-353v-326h-115v735h115v-302h353v302h115v-735z" />
    <glyph glyph-name="I" unicode="I" horiz-adv-x="298" 
d="M206 0h-115v735h115v-735z" />
    <glyph glyph-name="J" unicode="J" horiz-adv-x="576" 
d="M495 261q0 -62 -18 -112.5t-51 -86t-80.5 -55t-106.5 -19.5q-64 0 -120.5 28t-95.5 85l87 71q20 -32 52.5 -51t76.5 -19q68 0 104.5 41.5t36.5 119.5v472h115v-474z" />
    <glyph glyph-name="K" unicode="K" horiz-adv-x="704" 
d="M350 377l323 -377h-148l-268 317h-51v-317h-115v735h115v-314h39l258 314h144z" />
    <glyph glyph-name="L" unicode="L" horiz-adv-x="597" 
d="M91 735h115v-628h359v-107h-474v735z" />
    <glyph glyph-name="M" unicode="M" horiz-adv-x="973" 
d="M882 0h-115v509l-261 -409h-38l-262 411v-511h-115v735h101l295 -467l295 467h100v-735z" />
    <glyph glyph-name="N" unicode="N" horiz-adv-x="794" 
d="M703 0h-101l-396 534v-534h-115v735h101l396 -535v535h115v-735z" />
    <glyph glyph-name="O" unicode="O" horiz-adv-x="857" 
d="M56 367q0 78 28.5 146.5t78.5 120.5t118.5 82t147.5 30t147 -30t118 -82t78.5 -120.5t28.5 -146.5t-28.5 -146.5t-78.5 -120t-118 -81.5t-147 -30t-147.5 30t-118.5 81.5t-78.5 120t-28.5 146.5zM175 367q0 -53 19 -101.5t53 -85t80.5 -58t101.5 -21.5t101.5 21.5
t80.5 58t53 85t19 101.5t-19 101.5t-53 85.5t-80.5 59t-101.5 22t-101.5 -22t-80.5 -59t-53 -85.5t-19 -101.5z" />
    <glyph glyph-name="P" unicode="P" horiz-adv-x="663" 
d="M612 498q0 -52 -18 -95t-52.5 -74.5t-84.5 -49t-114 -17.5h-137v-262h-115v735h253q64 0 113.5 -17.5t84 -49t52.5 -75t18 -95.5zM206 632v-268h135q75 0 114.5 37t39.5 97q0 58 -38.5 96t-115.5 38h-135z" />
    <glyph glyph-name="Q" unicode="Q" horiz-adv-x="867" 
d="M56 367q0 78 28.5 146.5t78.5 120.5t118.5 82t147.5 30t147 -30t118 -82t78.5 -120.5t28.5 -146.5q0 -75 -26.5 -141t-74.5 -117l64 -75l-64 -56l-76 68q-43 -27 -92 -42t-103 -15q-79 0 -147.5 30t-118.5 81.5t-78.5 120t-28.5 146.5zM175 367q0 -53 19 -101.5
t52.5 -85.5t80.5 -59t102 -22q32 0 62 8t56 22l-123 145l78 66l123 -145q28 35 43.5 79.5t15.5 92.5q0 53 -19.5 101.5t-53.5 85.5t-80.5 59t-101.5 22t-102 -22t-80.5 -59t-52.5 -85.5t-19 -101.5z" />
    <glyph glyph-name="R" unicode="R" horiz-adv-x="695" 
d="M614 514q0 -81 -47 -137t-129 -75l211 -302h-135l-201 292h-107v-292h-115v735h269q57 0 104 -15.5t80.5 -44.5t51.5 -70t18 -91zM206 632v-239h155q69 2 102.5 35t33.5 85q0 57 -36.5 88t-107.5 31h-147z" />
    <glyph glyph-name="S" unicode="S" horiz-adv-x="627" 
d="M454 579q-29 30 -66.5 48t-82.5 18q-35 0 -59 -8.5t-38.5 -22.5t-21 -31.5t-6.5 -35.5q0 -34 25 -59.5t79 -39.5l91 -25q98 -28 149 -83t51 -134q0 -42 -17.5 -81.5t-51 -69.5t-83.5 -48t-115 -18q-34 0 -69.5 7.5t-69 22.5t-64 37t-54.5 51l78 71q42 -46 87.5 -66
t91.5 -20q38 0 66.5 9.5t47 25.5t27.5 36.5t9 42.5q0 45 -26.5 70.5t-89.5 45.5l-91 27q-94 29 -140.5 76t-46.5 123q0 38 16.5 73.5t47 63.5t75 44.5t101.5 16.5q58 0 117 -23t105 -71z" />
    <glyph glyph-name="T" unicode="T" horiz-adv-x="630" 
d="M21 735h588v-107h-236v-628h-116v628h-236v107z" />
    <glyph glyph-name="U" unicode="U" horiz-adv-x="745" 
d="M81 735h115v-456q0 -37 13.5 -69t37 -56t56 -37.5t69.5 -13.5q38 0 70 13.5t55.5 37.5t37 56t13.5 69v456h115v-456q0 -59 -22 -111.5t-60.5 -92.5t-92 -63t-116.5 -23q-64 0 -117.5 23t-92 63t-60 92.5t-21.5 111.5v456z" />
    <glyph glyph-name="V" unicode="V" horiz-adv-x="717" 
d="M358 186l213 549h125l-292 -735h-91l-292 735h125z" />
    <glyph glyph-name="W" unicode="W" horiz-adv-x="1033" 
d="M881 735h121l-219 -735h-91l-176 428l-176 -428h-89l-220 735h121l155 -535l187 467h45l188 -468z" />
    <glyph glyph-name="X" unicode="X" horiz-adv-x="746" 
d="M172 0h-141l265 384l-235 351h137l175 -265l175 265h137l-237 -351l267 -384h-141l-201 299z" />
    <glyph glyph-name="Y" unicode="Y" horiz-adv-x="687" 
d="M401 0h-115v319l-265 416h136l186 -300l186 300h136l-264 -415v-320z" />
    <glyph glyph-name="Z" unicode="Z" horiz-adv-x="704" 
d="M69 735h563v-88l-425 -543h446v-104h-602v87l424 544h-406v104z" />
    <glyph glyph-name="bracketleft" unicode="[" horiz-adv-x="460" 
d="M369 746h-147v-765h147v-98h-258v961h258v-98z" />
    <glyph glyph-name="backslash" unicode="\" horiz-adv-x="582" 
d="M543 0h-116l-383 735h117z" />
    <glyph glyph-name="bracketright" unicode="]" horiz-adv-x="460" 
d="M94 844h258v-961h-258v98h147v765h-147v98z" />
    <glyph glyph-name="asciicircum" unicode="^" horiz-adv-x="580" 
d="M81 344l174 358h69l175 -358h-112l-97 210l-97 -210h-112z" />
    <glyph glyph-name="underscore" unicode="_" horiz-adv-x="791" 
d="M91 -40h609v-95h-609v95z" />
    <glyph glyph-name="grave" unicode="`" horiz-adv-x="235" 
d="M147 756l63 -183h-86l-99 183h122z" />
    <glyph glyph-name="a" unicode="a" horiz-adv-x="632" 
d="M51 245q0 54 19 100t52 80.5t78 54t97 19.5q45 0 91 -19t79 -57l34 69h52v-492h-91l-6 70q-28 -38 -74 -59t-92 -21q-50 0 -93.5 19.5t-76 53.5t-51 81t-18.5 101zM158 245q0 -33 10.5 -61.5t30 -49.5t46 -33t57.5 -12q32 0 58.5 12t46 33.5t30 51t10.5 64.5
q0 31 -10.5 58t-30 47.5t-46 32.5t-58.5 12q-31 0 -57.5 -12t-45.5 -33t-30 -49t-11 -61z" />
    <glyph glyph-name="b" unicode="b" horiz-adv-x="625" 
d="M574 245q0 -53 -17.5 -99.5t-49 -81t-76 -54.5t-98.5 -20q-48 0 -90.5 19.5t-74.5 55.5l-21 -65h-67v755h106v-322q29 32 68 49t84 17q51 0 94 -20t74.5 -54.5t49.5 -80.5t18 -99zM468 245q0 32 -9.5 60.5t-27.5 49.5t-43 33t-55 12q-31 0 -58 -11.5t-47 -32t-31.5 -49
t-11.5 -62.5q0 -35 11 -64t30.5 -49.5t45.5 -31.5t57 -11t56.5 12.5t44 33.5t28.5 49.5t10 60.5z" />
    <glyph glyph-name="c" unicode="c" horiz-adv-x="543" 
d="M158 245q0 -33 10.5 -61t30 -49t46 -33t59.5 -12q38 0 66 12.5t54 35.5l71 -71q-35 -35 -84 -56t-108 -21q-55 0 -101.5 20t-80 54.5t-52 81t-18.5 99.5t17.5 99t50 80.5t78 54.5t102.5 20q63 0 114.5 -25.5t88.5 -74.5l-80 -62q-23 29 -54 45.5t-68 16.5
q-32 0 -58.5 -12t-45 -33t-28.5 -49t-10 -60z" />
    <glyph glyph-name="d" unicode="d" horiz-adv-x="625" 
d="M51 244q0 53 18 99.5t50 81t76.5 54.5t98.5 20q43 0 81 -15.5t64 -44.5v316h107v-755h-68l-22 71q-25 -33 -68 -57t-102 -24q-51 0 -94 20t-74.5 54.5t-49 80.5t-17.5 99zM158 245q0 -33 10.5 -61.5t29 -49.5t44 -33t56.5 -12q63 0 102.5 42t39.5 114q0 34 -10.5 62.5
t-29 49t-44.5 32t-58 11.5q-31 0 -56.5 -11.5t-44 -32.5t-29 -49.5t-10.5 -61.5z" />
    <glyph glyph-name="e" unicode="e" horiz-adv-x="592" 
d="M309 81q35 0 68.5 13.5t59.5 47.5l83 -50q-38 -52 -93 -77t-119 -25q-58 0 -105.5 19t-81.5 53t-52 81t-18 102q0 53 16.5 99t48 80.5t76.5 54.5t101 20q55 0 99 -20t75 -53.5t47.5 -78t16.5 -93.5q0 -14 -0.5 -25.5t-1.5 -17.5h-369q5 -58 44.5 -94t104.5 -36zM294 410
q-56 0 -91 -35t-40 -86h259q-1 25 -11.5 47t-27 38.5t-39.5 26t-50 9.5z" />
    <glyph glyph-name="f" unicode="f" horiz-adv-x="440" 
d="M41 490h92v67q0 46 15 83.5t42 64t65.5 41t85.5 14.5q18 0 39 -1t45 -5l-5 -93h-75q-20 0 -39 -5.5t-33.5 -18t-23.5 -33t-9 -51.5v-63h149v-90h-149v-400h-107v401l-92 27v62z" />
    <glyph glyph-name="g" unicode="g" horiz-adv-x="625" 
d="M293 -251q-71 0 -128 31.5t-89 82.5l82 53q20 -32 56 -51t78 -19q67 0 107 36.5t40 103.5v81q-27 -36 -66.5 -56t-84.5 -20q-52 0 -95.5 19.5t-75 54t-49 81t-17.5 99.5t17 99t48.5 80.5t76.5 54.5t102 20q53 0 96 -23t69 -53l34 69h52v-504q0 -56 -18 -100t-51.5 -75
t-80 -47.5t-103.5 -16.5zM158 245q0 -32 10 -60t28 -49t44.5 -33.5t59.5 -12.5q31 0 57 12t44.5 33.5t28.5 50.5t10 62q0 31 -10.5 59t-29 49t-44.5 33t-57 12q-33 0 -59 -12.5t-44 -33.5t-28 -49.5t-10 -60.5z" />
    <glyph glyph-name="h" unicode="h" horiz-adv-x="601" 
d="M186 0h-106v755h106v-312q27 28 64 42t75 14q44 0 82 -15t65.5 -43.5t43 -68.5t15.5 -90v-282h-106v274q0 54 -26.5 89.5t-84.5 35.5q-40 0 -75.5 -22.5t-52.5 -58.5v-318z" />
    <glyph glyph-name="i" unicode="i" horiz-adv-x="266" 
d="M63 658q0 29 20.5 50t49.5 21t50 -21t21 -50t-21 -49.5t-50 -20.5t-49.5 20.5t-20.5 49.5zM186 0h-106v490h106v-490z" />
    <glyph glyph-name="j" unicode="j" horiz-adv-x="292" 
d="M88 658q0 29 20.5 50t49.5 21t49.5 -21t20.5 -50t-20.5 -49.5t-49.5 -20.5t-49.5 20.5t-20.5 49.5zM105 490h107v-541q0 -45 -14 -81.5t-39 -63t-60.5 -40.5t-78.5 -14q-28 0 -56 7l8 89h45q38 0 63 24.5t25 79.5v540z" />
    <glyph glyph-name="k" unicode="k" horiz-adv-x="570" 
d="M186 294h35l174 196h132l-212 -239l233 -251h-136l-187 200h-39v-200h-106v755h106v-461z" />
    <glyph glyph-name="l" unicode="l" horiz-adv-x="266" 
d="M186 0h-106v755h106v-755z" />
    <glyph glyph-name="m" unicode="m" horiz-adv-x="918" 
d="M520 0h-105v274q0 57 -28 91t-84 34q-39 0 -71 -22t-46 -59v-318h-106v492h51l38 -66q24 32 61.5 52.5t82.5 20.5q52 0 95.5 -21.5t72.5 -62.5q31 42 73.5 63t90.5 21q44 0 81 -15t64 -42.5t42.5 -68t15.5 -91.5v-282h-105v274q0 54 -25 89.5t-83 35.5q-39 0 -70 -23
t-45 -58v-318z" />
    <glyph glyph-name="n" unicode="n" horiz-adv-x="601" 
d="M186 0h-106v492h51l38 -67q26 33 66.5 53.5t86.5 20.5q44 0 82.5 -14.5t66.5 -42.5t44 -68.5t16 -91.5v-282h-106v273q0 55 -28 90.5t-86 35.5q-40 0 -74 -22.5t-51 -58.5v-318z" />
    <glyph glyph-name="o" unicode="o" horiz-adv-x="598" 
d="M51 245q0 53 17.5 99t50 80.5t78.5 54.5t102 20q55 0 100.5 -20t78.5 -54.5t51 -80.5t18 -99t-18 -99.5t-51 -81t-78.5 -54.5t-100.5 -20t-100.5 20t-78.5 54.5t-51 81t-18 99.5zM158 245q0 -32 10 -60t28.5 -49t44.5 -33t58 -12t58 12t44.5 33t28.5 49t10 60t-10 60
t-28.5 49t-44.5 33t-58 12t-58 -12t-44.5 -33t-28.5 -49t-10 -60z" />
    <glyph glyph-name="p" unicode="p" horiz-adv-x="622" 
d="M571 247q0 -52 -17 -99t-48 -82t-75.5 -55.5t-99.5 -20.5q-42 0 -81.5 18t-63.5 48v-300h-106v736h51l39 -77q29 41 70.5 62.5t94.5 21.5q51 0 94.5 -19.5t75 -53t49 -79.5t17.5 -100zM462 247q0 32 -9 60t-26.5 48.5t-42 32.5t-55.5 12q-65 0 -104.5 -43t-39.5 -113
q0 -35 11.5 -63.5t31 -49t45 -31.5t53.5 -11q31 0 56 12.5t43 34t27.5 50.5t9.5 61z" />
    <glyph glyph-name="q" unicode="q" horiz-adv-x="620" 
d="M51 247q0 54 18 100t49.5 79.5t75.5 53t95 19.5q49 0 91 -20t74 -56l35 69h51v-737h-106v302q-27 -32 -65.5 -49.5t-81.5 -17.5q-53 0 -96.5 20.5t-74.5 55.5t-48 82t-17 99zM158 247q0 -32 10 -61t28 -50.5t43 -34t56 -12.5q29 0 54 11t44.5 31.5t30.5 49t11 63.5
q0 70 -39 113t-103 43q-31 0 -56 -12t-42.5 -32.5t-27 -48.5t-9.5 -60z" />
    <glyph glyph-name="r" unicode="r" horiz-adv-x="456" 
d="M186 0h-106v492h51l36 -70q21 35 59 56t85 21q35 0 69.5 -12t63.5 -35l-53 -82q-21 15 -41.5 22.5t-44.5 7.5q-44 0 -77.5 -29t-41.5 -74v-297z" />
    <glyph glyph-name="s" unicode="s" horiz-adv-x="468" 
d="M336 378q-46 34 -102 34q-33 0 -50.5 -16t-17.5 -41q0 -17 12.5 -31.5t42.5 -20.5l48 -11q82 -18 115 -57t33 -91q0 -32 -13 -60t-37.5 -49t-59 -33t-76.5 -12q-51 0 -99 18.5t-82 53.5l58 68q24 -26 56.5 -38.5t63.5 -12.5q42 0 61.5 20t19.5 46q0 20 -15.5 36.5
t-49.5 24.5l-55 13q-25 6 -49 16t-42 26.5t-29 39.5t-11 54q0 28 11.5 54t33 46t54 32t74.5 12q45 0 84.5 -12.5t74.5 -38.5z" />
    <glyph glyph-name="t" unicode="t" horiz-adv-x="406" 
d="M26 490h89l19 146l83 -2v-144h135v-90h-135v-234q0 -39 18 -57t44 -18h72l4 -90q-41 -7 -85 -7q-40 0 -69.5 13t-49.5 35.5t-30 52.5t-10 65v240h-85v90z" />
    <glyph glyph-name="u" unicode="u" horiz-adv-x="593" 
d="M407 490h107v-490h-68l-21 62q-23 -31 -62 -51.5t-86 -20.5q-104 0 -155.5 61.5t-51.5 163.5v275h106v-271q0 -63 26.5 -96t88.5 -33q53 0 85.5 32t30.5 92v276z" />
    <glyph glyph-name="v" unicode="v" horiz-adv-x="537" 
d="M21 490h114l134 -337l135 337h112l-209 -490h-77z" />
    <glyph glyph-name="w" unicode="w" horiz-adv-x="841" 
d="M21 490h112l125 -332l125 319h77l124 -319l126 332h109l-196 -490h-76l-127 312l-127 -312h-76z" />
    <glyph glyph-name="x" unicode="x" horiz-adv-x="548" 
d="M341 254l181 -254h-124l-124 184l-124 -184h-124l182 254l-166 236h123l109 -166l111 166h122z" />
    <glyph glyph-name="y" unicode="y" horiz-adv-x="541" 
d="M274 -123q-25 -62 -69.5 -94t-110.5 -32q-14 0 -29 1.5t-27 3.5l7 88h45q32 0 52.5 13.5t32.5 41.5l42 102l-196 489h112l137 -356l138 356h112z" />
    <glyph glyph-name="z" unicode="z" horiz-adv-x="519" 
d="M53 490h415v-64l-273 -335h283v-91h-437v64l273 335h-261v91z" />
    <glyph glyph-name="braceleft" unicode="{" horiz-adv-x="482" 
d="M61 416q59 0 80 26t21 76v130q0 39 13.5 74.5t39 62.5t63 43t86.5 16h47v-98h-41q-22 0 -40 -8t-31 -22t-19.5 -32.5t-6.5 -39.5v-166q0 -15 -2.5 -32t-10 -33.5t-22.5 -29.5t-39 -19q24 -7 39 -21.5t22.5 -32t10 -34t2.5 -28.5v-163q0 -42 26 -72.5t71 -30.5h41v-97h-47
q-47 0 -84.5 15.5t-63.5 42t-40 62t-14 75.5v159q0 36 -20.5 55t-80.5 19v103z" />
    <glyph glyph-name="bar" unicode="|" horiz-adv-x="303" 
d="M206 -143h-115v878h115v-878z" />
    <glyph glyph-name="braceright" unicode="}" horiz-adv-x="482" 
d="M424 313q-31 0 -50.5 -5.5t-30.5 -18t-15.5 -32t-4.5 -46.5v-131q0 -37 -13 -72t-38.5 -62.5t-63 -44t-87.5 -16.5h-47v97h41q45 0 71 30t26 73v163q0 12 2.5 28.5t10 34t22.5 32t39 21.5q-24 6 -39 19t-22.5 29.5t-10 33.5t-2.5 32v166q0 21 -6.5 39.5t-19.5 32.5
t-30.5 22t-40.5 8h-41v98h47q50 0 88 -15.5t63.5 -42.5t38 -62.5t12.5 -75.5v-130q0 -25 4.5 -44t15.5 -32t30.5 -19.5t50.5 -6.5v-103z" />
    <glyph glyph-name="asciitilde" unicode="~" horiz-adv-x="675" 
d="M618 225q-8 -14 -21 -33t-32.5 -36.5t-47.5 -30t-66 -12.5q-32 0 -62 13.5t-57.5 30t-54.5 30t-53 13.5q-21 0 -37 -8t-28 -19.5t-20 -23.5t-13 -20l-70 63q8 12 20 31t31.5 36.5t47.5 30t66 12.5q33 0 63 -13.5t58 -29.5t54.5 -29.5t51.5 -13.5q21 0 37.5 8.5t28.5 19.5
t20 23.5t13 19.5z" />
    <glyph glyph-name="uni00A0" unicode="&#xa0;" horiz-adv-x="292" 
 />
    <glyph glyph-name="exclamdown" unicode="&#xa1;" horiz-adv-x="371" 
d="M112 451q0 30 21 51t52 21q32 0 53 -21t21 -51q0 -32 -21 -53.5t-53 -21.5q-31 0 -52 21.5t-21 53.5zM242 -245h-114v542h114v-542z" />
    <glyph glyph-name="cent" unicode="&#xa2;" horiz-adv-x="547" 
d="M245 -4q-44 9 -79.5 32t-61 56t-39.5 74t-14 87t13.5 87t38.5 74t61 56t81 32v89h99v-88q97 -15 158 -96l-80 -62q-23 29 -54 45.5t-68 16.5q-32 0 -58.5 -12t-45 -33t-28.5 -49t-10 -60q0 -33 10.5 -61t30 -49t46 -33t59.5 -12q38 0 66 12.5t54 35.5l71 -71
q-29 -29 -67.5 -48.5t-83.5 -25.5v-91h-99v94z" />
    <glyph glyph-name="sterling" unicode="&#xa3;" horiz-adv-x="649" 
d="M70 432h72v110q0 44 14.5 81t41.5 64.5t65.5 43t86.5 15.5q45 0 79 -13.5t58.5 -33t40.5 -42t25 -40.5l-92 -42q-36 68 -108 68q-45 0 -71.5 -28t-26.5 -73v-110h191v-87h-191v-180q0 -24 -9 -41.5t-26 -20.5h378v-103h-531l-6 103q40 2 60.5 25.5t20.5 61.5v155h-72v87z
" />
    <glyph glyph-name="currency" unicode="&#xa4;" horiz-adv-x="750" 
d="M117 347q0 44 13.5 83t38.5 71l-78 90l78 68l78 -90q28 16 60 24.5t68 8.5q35 0 67 -8.5t60 -24.5l79 90l77 -68l-79 -90q25 -32 39 -71t14 -83t-13.5 -83t-38.5 -71l78 -88l-77 -68l-79 89q-55 -33 -127 -33q-36 0 -68 8.5t-60 24.5l-78 -89l-78 68l78 89
q-25 32 -38.5 70.5t-13.5 82.5zM225 347q0 -32 11.5 -60t31.5 -49t47.5 -33t59.5 -12t59.5 12t48 33t32 49t11.5 60t-11.5 60t-32 49t-48 33t-59.5 12t-59.5 -12t-47.5 -33t-31.5 -49t-11.5 -60z" />
    <glyph glyph-name="yen" unicode="&#xa5;" horiz-adv-x="707" 
d="M411 0h-115v155h-166v82h166v79h-166v82h116l-215 337h136l186 -296l186 296h136l-215 -337h123v-82h-172v-79h172v-82h-172v-155z" />
    <glyph glyph-name="brokenbar" unicode="&#xa6;" horiz-adv-x="298" 
d="M202 372h-111v363h111v-363zM202 -143h-111v364h111v-364z" />
    <glyph glyph-name="section" unicode="&#xa7;" horiz-adv-x="612" 
d="M455 592q-38 27 -80 40.5t-83 13.5q-31 0 -52 -8t-34 -20t-19 -26.5t-6 -27.5q0 -22 8.5 -38t25 -27t39.5 -19t51 -15l79 -19q48 -12 81.5 -34t54.5 -49.5t30.5 -59t9.5 -61.5q0 -38 -18 -79.5t-55 -71.5q32 -29 48.5 -64t16.5 -72q0 -38 -15 -74t-45.5 -64t-78.5 -44.5
t-114 -16.5q-63 0 -127.5 22t-113.5 64l61 79q37 -30 85 -47t95 -17q39 0 65.5 9t42 23.5t22 31.5t6.5 34q0 38 -27.5 61t-93.5 40q-20 5 -42 11.5t-47 14.5q-81 23 -126.5 70t-45.5 122q0 48 23 87t55 64q-66 53 -66 139q0 35 15 67.5t43.5 58t70.5 41t96 15.5
q60 0 115.5 -17t112.5 -59zM236 378q-36 -15 -54 -42.5t-18 -59.5q0 -20 6.5 -34.5t20.5 -26.5t37.5 -22t57.5 -20q26 -8 57 -17t51 -14q26 20 39 48t13 51q0 36 -21 67t-74 43z" />
    <glyph glyph-name="dieresis" unicode="&#xa8;" horiz-adv-x="404" 
d="M20 658q0 29 20.5 50t49.5 21t50 -21t21 -50t-21 -49.5t-50 -20.5t-49.5 20.5t-20.5 49.5zM244 658q0 29 20.5 50t49.5 21t49.5 -21t20.5 -50t-20.5 -49.5t-49.5 -20.5t-49.5 20.5t-20.5 49.5z" />
    <glyph glyph-name="copyright" unicode="&#xa9;" horiz-adv-x="890" 
d="M61 367q0 78 29 147t80.5 121t122 82.5t152.5 30.5t152.5 -30.5t122 -82.5t80.5 -121t29 -147t-29 -147t-80.5 -120.5t-122 -82t-152.5 -30.5t-152.5 30.5t-122 82t-80.5 120.5t-29 147zM145 367q0 -61 22.5 -115.5t62.5 -96t95 -66t120 -24.5t120.5 24.5t95.5 66
t62.5 96t22.5 115.5q0 60 -22.5 115t-62.5 97t-95.5 67t-120.5 25t-120 -25t-95 -67t-62.5 -97t-22.5 -115zM322 369q0 -28 9 -52.5t25.5 -42.5t39 -28t50.5 -10q33 0 57.5 10t46.5 30l62 -60q-30 -31 -72.5 -49t-93.5 -18q-48 0 -87.5 17.5t-68.5 47.5t-45 70t-16 85t15 85
t43 70t67.5 47t88.5 17q110 0 174 -87l-69 -53q-20 25 -46.5 39.5t-58.5 14.5q-27 0 -49.5 -10.5t-38.5 -28.5t-24.5 -42t-8.5 -52z" />
    <glyph glyph-name="ordfeminine" unicode="&#xaa;" horiz-adv-x="420" 
d="M41 590q0 34 11 64t31.5 52.5t49.5 35.5t64 13q32 0 58.5 -13t46.5 -34l17 42h41v-319h-63l-4 36q-19 -21 -45 -31.5t-55 -10.5q-33 0 -60.5 13t-48 35t-32 52.5t-11.5 64.5zM125 590q0 -35 21 -60.5t54 -25.5q34 0 55.5 24t21.5 62q0 35 -20.5 60t-57.5 25
q-35 0 -54.5 -25.5t-19.5 -59.5z" />
    <glyph glyph-name="guillemotleft" unicode="&#xab;" horiz-adv-x="737" 
d="M187 275l208 -215h-144l-210 215l208 214h146zM458 275l208 -215h-145l-209 215l208 214h146z" />
    <glyph glyph-name="logicalnot" unicode="&#xac;" horiz-adv-x="620" 
d="M61 453h497v-295h-104v195h-393v100z" />
    <glyph glyph-name="uni00AD" unicode="&#xad;" horiz-adv-x="415" 
d="M91 318h233v-99h-233v99z" />
    <glyph glyph-name="registered" unicode="&#xae;" horiz-adv-x="710" 
d="M61 455q0 59 22.5 112t62 92.5t93 63t116.5 23.5q62 0 116 -23.5t93.5 -63t62 -92.5t22.5 -112q0 -60 -22.5 -113t-62 -93t-93.5 -63.5t-116 -23.5q-63 0 -116.5 23.5t-93 63.5t-62 93t-22.5 113zM129 453q0 -46 17 -88t47 -73t71.5 -49.5t90.5 -18.5t90.5 18.5
t71.5 49.5t47 73t17 88t-17 87.5t-47 73.5t-71.5 51t-90.5 19t-90.5 -19t-71.5 -51t-47 -73.5t-17 -87.5zM470 517q0 -34 -19 -57t-54 -31l83 -126h-69l-77 122h-21v-122h-62v305h110q48 0 78.5 -22.5t30.5 -68.5zM313 556v-80h46q25 0 36.5 11t11.5 29q0 40 -49 40h-45z
" />
    <glyph glyph-name="macron" unicode="&#xaf;" horiz-adv-x="440" 
d="M25 704h390v-84h-390v84z" />
    <glyph glyph-name="degree" unicode="&#xb0;" horiz-adv-x="351" 
d="M41 611q0 28 10.5 53t28.5 43.5t42.5 29t52.5 10.5t52.5 -10.5t43 -29t29 -43.5t10.5 -53t-10.5 -52t-29 -42t-43 -28.5t-52.5 -10.5t-52.5 10.5t-42.5 28.5t-28.5 42t-10.5 52zM119 611q0 -23 16.5 -39t39.5 -16t40 16t17 39t-17 40.5t-40 17.5t-39.5 -17.5t-16.5 -40.5
z" />
    <glyph glyph-name="plusminus" unicode="&#xb1;" horiz-adv-x="614" 
d="M61 452h194v193h104v-193h193v-100h-193v-193h-104v193h-194v100zM61 100h491v-100h-491v100z" />
    <glyph glyph-name="twosuperior" unicode="&#xb2;" horiz-adv-x="368" 
d="M42 534l160 162q17 17 29 34.5t12 35.5q0 23 -17 36t-41 13q-21 0 -39 -13t-26 -40l-77 20q14 50 53 79.5t93 29.5q30 0 55 -9.5t42.5 -25.5t27.5 -38t10 -47q0 -38 -19 -67.5t-56 -65.5l-91 -89h169v-74h-285v59z" />
    <glyph glyph-name="threesuperior" unicode="&#xb3;" horiz-adv-x="359" 
d="M140 718h24q30 1 48.5 16t18.5 38t-17.5 36t-41.5 13q-43 0 -65 -39l-68 34q22 35 56.5 55t79.5 20q31 0 56.5 -9t44 -24.5t28.5 -36t10 -43.5q0 -30 -13 -52t-34 -35q23 -15 38.5 -39.5t15.5 -56.5q0 -27 -11 -50t-31.5 -40t-48.5 -26.5t-61 -9.5q-52 0 -89.5 22.5
t-59.5 61.5l71 30q11 -20 31 -30.5t43 -10.5q32 0 52.5 15.5t20.5 41.5q0 56 -76 59h-22v60z" />
    <glyph glyph-name="acute" unicode="&#xb4;" horiz-adv-x="233" 
d="M222 756l-107 -183h-86l71 183h122z" />
    <glyph glyph-name="uni00B5" unicode="&#xb5;" horiz-adv-x="596" 
d="M410 490h107v-490h-68l-21 62q-23 -32 -61 -52t-83 -20q-33 0 -60 8.5t-49 24.5v-267h-104v734h107v-271q0 -63 26.5 -96t88.5 -33q53 0 85 32t32 92v276z" />
    <glyph glyph-name="paragraph" unicode="&#xb6;" horiz-adv-x="691" 
d="M61 516q0 45 17 84.5t46.5 69.5t69 47.5t83.5 17.5h343v-88h-81v-790h-91v790h-87v-790h-91v441q-44 2 -82 19.5t-66.5 47t-44.5 68.5t-16 83z" />
    <glyph glyph-name="periodcentered" unicode="&#xb7;" horiz-adv-x="373" 
d="M111 347q0 32 21.5 53.5t53.5 21.5t54 -21.5t22 -53.5q0 -31 -22 -53t-54 -22t-53.5 22t-21.5 53z" />
    <glyph glyph-name="cedilla" unicode="&#xb8;" horiz-adv-x="244" 
d="M86 -239q-17 0 -36 4t-25 9l16 57q18 -8 41 -8t37.5 11t14.5 30q0 20 -19.5 30t-46.5 10l18 121h58l-9 -73q16 -3 31 -9.5t27 -17t19 -25.5t7 -34q0 -46 -36.5 -75.5t-96.5 -29.5z" />
    <glyph glyph-name="onesuperior" unicode="&#xb9;" horiz-adv-x="256" 
d="M108 475v308l-54 -31l-35 65l112 68h59v-410h-82z" />
    <glyph glyph-name="ordmasculine" unicode="&#xba;" horiz-adv-x="405" 
d="M41 590q0 34 11.5 64t32.5 52.5t50.5 35.5t66.5 13q36 0 65.5 -13t50.5 -35.5t33 -52.5t12 -64t-12 -64t-33 -52.5t-50.5 -35.5t-65.5 -13t-65.5 13t-50.5 35.5t-33 52.5t-12 64zM125 590q0 -36 21 -61t56 -25t56.5 25t21.5 61q0 35 -21.5 60t-56.5 25t-56 -25t-21 -60z
" />
    <glyph glyph-name="guillemotright" unicode="&#xbb;" horiz-adv-x="737" 
d="M345 489h146l208 -214l-209 -215h-145l209 215zM74 489h146l208 -214l-209 -215h-145l209 215z" />
    <glyph glyph-name="onequarter" unicode="&#xbc;" horiz-adv-x="780" 
d="M555 735h113l-464 -735h-112zM108 325v308l-54 -31l-35 65l112 68h59v-410h-82zM434 135l205 275h62v-264h67v-68h-67v-78h-74v78h-188zM529 146h98v133z" />
    <glyph glyph-name="onehalf" unicode="&#xbd;" horiz-adv-x="843" 
d="M555 735h113l-464 -735h-112zM108 325v308l-54 -31l-35 65l112 68h59v-410h-82zM517 59l160 162q17 17 29 34t12 35q0 23 -17 36.5t-41 13.5q-21 0 -39 -13.5t-26 -39.5l-77 20q14 49 53 79t93 30q30 0 55 -9.5t42.5 -25.5t27.5 -38t10 -47q0 -39 -19 -68t-56 -66
l-91 -88h169v-74h-285v59z" />
    <glyph glyph-name="threequarters" unicode="&#xbe;" horiz-adv-x="858" 
d="M140 568h24q30 1 48.5 16t18.5 38t-17.5 36t-41.5 13q-43 0 -65 -39l-68 34q22 35 56.5 55t79.5 20q31 0 56.5 -9t44 -24.5t28.5 -36t10 -43.5q0 -30 -13 -52t-34 -35q23 -15 38.5 -39.5t15.5 -56.5q0 -27 -11 -50t-31.5 -40t-48.5 -26.5t-61 -9.5q-52 0 -89.5 22.5
t-59.5 61.5l71 30q11 -20 31 -30.5t43 -10.5q32 0 52.5 15.5t20.5 41.5q0 56 -76 59h-22v60zM634 735h113l-464 -735h-112zM512 135l205 275h62v-264h67v-68h-67v-78h-74v78h-188zM607 146h98v133z" />
    <glyph glyph-name="questiondown" unicode="&#xbf;" horiz-adv-x="528" 
d="M325 458q0 -32 -22.5 -54.5t-54.5 -22.5t-54.5 22.5t-22.5 54.5q0 31 22.5 53t54.5 22t54.5 -22t22.5 -53zM210 244q0 11 -1 22t-4 22l107 13q3 -10 5 -26.5t2 -33.5q0 -38 -15 -71t-46 -68q-6 -7 -16.5 -18.5t-22.5 -25t-24.5 -26.5t-22.5 -24q-18 -20 -25.5 -37.5
t-7.5 -40.5q0 -19 8 -34t21 -25t29 -15.5t32 -5.5q43 0 74.5 23.5t45.5 68.5l105 -30q-12 -38 -32.5 -68.5t-49.5 -53t-65.5 -34.5t-79.5 -12q-42 0 -79 13t-64.5 37t-43.5 58t-16 76q0 41 17.5 78t50.5 72l84 90q19 20 26.5 38.5t7.5 37.5z" />
    <glyph glyph-name="Agrave" unicode="&#xc0;" horiz-adv-x="781" 
d="M365 977l72 -157h-94l-109 157h131zM540 185h-300l-75 -185h-124l302 735h94l303 -735h-126zM280 284h222l-112 282z" />
    <glyph glyph-name="Aacute" unicode="&#xc1;" horiz-adv-x="781" 
d="M419 977h131l-113 -157h-95zM540 185h-300l-75 -185h-124l302 735h94l303 -735h-126zM280 284h222l-112 282z" />
    <glyph glyph-name="Acircumflex" unicode="&#xc2;" horiz-adv-x="781" 
d="M464 977l110 -157h-98l-85 83l-85 -83h-98l110 157h146zM540 185h-300l-75 -185h-124l302 735h94l303 -735h-126zM280 284h222l-112 282z" />
    <glyph glyph-name="Atilde" unicode="&#xc3;" horiz-adv-x="781" 
d="M169 853q11 53 46.5 84t89.5 31q23 0 44.5 -7.5t41.5 -17t40 -17t41 -7.5q29 0 43 17.5t16 33.5l82 -22q-10 -48 -45 -83t-92 -35q-24 0 -47 7.5t-44 17t-39.5 17t-35.5 7.5q-51 0 -59 -49zM540 185h-300l-75 -185h-124l302 735h94l303 -735h-126zM280 284h222l-112 282z
" />
    <glyph glyph-name="Adieresis" unicode="&#xc4;" horiz-adv-x="781" 
d="M204 903q0 29 20 49.5t49 20.5t49 -20.5t20 -49.5t-20 -48.5t-49 -19.5t-49 19.5t-20 48.5zM439 903q0 29 20 49.5t49 20.5t49.5 -20.5t20.5 -49.5t-20.5 -48.5t-49.5 -19.5t-49 19.5t-20 48.5zM540 185h-300l-75 -185h-124l302 735h94l303 -735h-126zM280 284h222
l-112 282z" />
    <glyph glyph-name="Aring" unicode="&#xc5;" horiz-adv-x="781" 
d="M284 919q0 22 8 41.5t22.5 34t34 23t41.5 8.5t41.5 -8.5t34 -23t23 -34t8.5 -41.5t-8.5 -41.5t-23 -34t-34 -22.5t-41.5 -8t-41.5 8t-34 22.5t-22.5 34t-8 41.5zM357 919q0 -14 9.5 -24t23.5 -10t24 10t10 24t-10 24t-24 10t-23.5 -10t-9.5 -24zM540 185h-300l-75 -185
h-124l302 735h94l303 -735h-126zM280 284h222l-112 282z" />
    <glyph glyph-name="AE" unicode="&#xc6;" horiz-adv-x="1030" 
d="M504 185h-247l-107 -185h-131l431 735h504v-105h-335v-200h287v-100h-287v-225h350v-105h-465v185zM315 284h189v335z" />
    <glyph glyph-name="Ccedilla" unicode="&#xc7;" horiz-adv-x="763" 
d="M399 -251q-17 0 -37.5 4t-30.5 9l23 78q10 -4 21.5 -6t19.5 -2q22 0 34.5 8t12.5 26t-18.5 28t-46.5 10l13 88q-73 7 -134.5 39.5t-105.5 82.5t-69 115t-25 138q0 78 28.5 146.5t78.5 120.5t118 82t147 30q85 0 157 -34t123 -91l-87 -71q-36 38 -85.5 61.5t-107.5 23.5
q-55 0 -101 -22t-80 -59t-53 -85.5t-19 -101.5q0 -54 19 -102t53 -84.5t80.5 -58t101.5 -21.5q63 0 116.5 24.5t93.5 65.5l83 -73q-46 -51 -112 -85.5t-147 -41.5l-4 -39q32 -6 57.5 -28.5t25.5 -64.5q0 -47 -37.5 -78.5t-105.5 -31.5z" />
    <glyph glyph-name="Egrave" unicode="&#xc8;" horiz-adv-x="655" 
d="M321 977l72 -157h-94l-109 157h131zM91 735h488v-105h-373v-200h324v-100h-324v-225h388v-105h-503v735z" />
    <glyph glyph-name="Eacute" unicode="&#xc9;" horiz-adv-x="655" 
d="M363 977h131l-113 -157h-95zM91 735h488v-105h-373v-200h324v-100h-324v-225h388v-105h-503v735z" />
    <glyph glyph-name="Ecircumflex" unicode="&#xca;" horiz-adv-x="655" 
d="M412 977l110 -157h-98l-85 83l-85 -83h-98l110 157h146zM91 735h488v-105h-373v-200h324v-100h-324v-225h388v-105h-503v735z" />
    <glyph glyph-name="Edieresis" unicode="&#xcb;" horiz-adv-x="655" 
d="M151 903q0 29 20 49.5t49 20.5t49 -20.5t20 -49.5t-20 -48.5t-49 -19.5t-49 19.5t-20 48.5zM386 903q0 29 20 49.5t49 20.5t49.5 -20.5t20.5 -49.5t-20.5 -48.5t-49.5 -19.5t-49 19.5t-20 48.5zM91 735h488v-105h-373v-200h324v-100h-324v-225h388v-105h-503v735z" />
    <glyph glyph-name="Igrave" unicode="&#xcc;" horiz-adv-x="298" 
d="M126 977l72 -157h-94l-109 157h131zM206 0h-115v735h115v-735z" />
    <glyph glyph-name="Iacute" unicode="&#xcd;" horiz-adv-x="298" 
d="M176 977h131l-113 -157h-95zM206 0h-115v735h115v-735z" />
    <glyph glyph-name="Icircumflex" unicode="&#xce;" horiz-adv-x="298" 
d="M222 977l110 -157h-98l-85 83l-85 -83h-98l110 157h146zM206 0h-115v735h115v-735z" />
    <glyph glyph-name="Idieresis" unicode="&#xcf;" horiz-adv-x="298" 
d="M-38 903q0 29 20 49.5t49 20.5t49 -20.5t20 -49.5t-20 -48.5t-49 -19.5t-49 19.5t-20 48.5zM197 903q0 29 20 49.5t49 20.5t49.5 -20.5t20.5 -49.5t-20.5 -48.5t-49.5 -19.5t-49 19.5t-20 48.5zM206 0h-115v735h115v-735z" />
    <glyph glyph-name="Eth" unicode="&#xd0;" horiz-adv-x="775" 
d="M0 425h91v310h248q89 0 159.5 -28t119.5 -77.5t75 -117t26 -145.5t-26 -145t-75 -116.5t-119.5 -77.5t-159.5 -28h-248v332h-91v93zM599 367q0 56 -17.5 104t-51 83t-82 55t-109.5 20h-133v-204h143v-93h-143v-226h133q62 0 110.5 19.5t81.5 54.5t50.5 82.5t17.5 104.5z
" />
    <glyph glyph-name="Ntilde" unicode="&#xd1;" horiz-adv-x="794" 
d="M176 853q11 53 46.5 84t89.5 31q23 0 44.5 -7.5t41.5 -17t40 -17t41 -7.5q29 0 43 17.5t16 33.5l82 -22q-10 -48 -45 -83t-92 -35q-24 0 -47 7.5t-44 17t-39.5 17t-35.5 7.5q-51 0 -59 -49zM703 0h-101l-396 534v-534h-115v735h101l396 -535v535h115v-735z" />
    <glyph glyph-name="Ograve" unicode="&#xd2;" horiz-adv-x="857" 
d="M407 977l72 -157h-94l-109 157h131zM56 367q0 78 28.5 146.5t78.5 120.5t118.5 82t147.5 30t147 -30t118 -82t78.5 -120.5t28.5 -146.5t-28.5 -146.5t-78.5 -120t-118 -81.5t-147 -30t-147.5 30t-118.5 81.5t-78.5 120t-28.5 146.5zM175 367q0 -53 19 -101.5t53 -85
t80.5 -58t101.5 -21.5t101.5 21.5t80.5 58t53 85t19 101.5t-19 101.5t-53 85.5t-80.5 59t-101.5 22t-101.5 -22t-80.5 -59t-53 -85.5t-19 -101.5z" />
    <glyph glyph-name="Oacute" unicode="&#xd3;" horiz-adv-x="857" 
d="M457 977h131l-113 -157h-95zM56 367q0 78 28.5 146.5t78.5 120.5t118.5 82t147.5 30t147 -30t118 -82t78.5 -120.5t28.5 -146.5t-28.5 -146.5t-78.5 -120t-118 -81.5t-147 -30t-147.5 30t-118.5 81.5t-78.5 120t-28.5 146.5zM175 367q0 -53 19 -101.5t53 -85t80.5 -58
t101.5 -21.5t101.5 21.5t80.5 58t53 85t19 101.5t-19 101.5t-53 85.5t-80.5 59t-101.5 22t-101.5 -22t-80.5 -59t-53 -85.5t-19 -101.5z" />
    <glyph glyph-name="Ocircumflex" unicode="&#xd4;" horiz-adv-x="857" 
d="M502 977l110 -157h-98l-85 83l-85 -83h-98l110 157h146zM56 367q0 78 28.5 146.5t78.5 120.5t118.5 82t147.5 30t147 -30t118 -82t78.5 -120.5t28.5 -146.5t-28.5 -146.5t-78.5 -120t-118 -81.5t-147 -30t-147.5 30t-118.5 81.5t-78.5 120t-28.5 146.5zM175 367
q0 -53 19 -101.5t53 -85t80.5 -58t101.5 -21.5t101.5 21.5t80.5 58t53 85t19 101.5t-19 101.5t-53 85.5t-80.5 59t-101.5 22t-101.5 -22t-80.5 -59t-53 -85.5t-19 -101.5z" />
    <glyph glyph-name="Otilde" unicode="&#xd5;" horiz-adv-x="857" 
d="M207 853q11 53 46.5 84t89.5 31q23 0 44.5 -7.5t41.5 -17t40 -17t41 -7.5q29 0 43 17.5t16 33.5l82 -22q-10 -48 -45 -83t-92 -35q-24 0 -47 7.5t-44 17t-39.5 17t-35.5 7.5q-51 0 -59 -49zM56 367q0 78 28.5 146.5t78.5 120.5t118.5 82t147.5 30t147 -30t118 -82
t78.5 -120.5t28.5 -146.5t-28.5 -146.5t-78.5 -120t-118 -81.5t-147 -30t-147.5 30t-118.5 81.5t-78.5 120t-28.5 146.5zM175 367q0 -53 19 -101.5t53 -85t80.5 -58t101.5 -21.5t101.5 21.5t80.5 58t53 85t19 101.5t-19 101.5t-53 85.5t-80.5 59t-101.5 22t-101.5 -22
t-80.5 -59t-53 -85.5t-19 -101.5z" />
    <glyph glyph-name="Odieresis" unicode="&#xd6;" horiz-adv-x="857" 
d="M242 903q0 29 20 49.5t49 20.5t49 -20.5t20 -49.5t-20 -48.5t-49 -19.5t-49 19.5t-20 48.5zM477 903q0 29 20 49.5t49 20.5t49.5 -20.5t20.5 -49.5t-20.5 -48.5t-49.5 -19.5t-49 19.5t-20 48.5zM56 367q0 78 28.5 146.5t78.5 120.5t118.5 82t147.5 30t147 -30t118 -82
t78.5 -120.5t28.5 -146.5t-28.5 -146.5t-78.5 -120t-118 -81.5t-147 -30t-147.5 30t-118.5 81.5t-78.5 120t-28.5 146.5zM175 367q0 -53 19 -101.5t53 -85t80.5 -58t101.5 -21.5t101.5 21.5t80.5 58t53 85t19 101.5t-19 101.5t-53 85.5t-80.5 59t-101.5 22t-101.5 -22
t-80.5 -59t-53 -85.5t-19 -101.5z" />
    <glyph glyph-name="multiply" unicode="&#xd7;" horiz-adv-x="631" 
d="M61 172l178 179l-169 169l74 72l172 -173l174 173l71 -70l-169 -169l178 -177l-73 -74l-183 183l-183 -183z" />
    <glyph glyph-name="Oslash" unicode="&#xd8;" horiz-adv-x="877" 
d="M163 110q-46 51 -71.5 116.5t-25.5 140.5q0 78 28.5 146.5t78.5 120.5t118.5 82t147.5 30q59 0 111.5 -17t97.5 -48l47 54h112l-94 -111q46 -51 72 -116.5t26 -140.5q0 -78 -28.5 -146.5t-78.5 -120t-118 -81.5t-147 -30q-60 0 -113.5 17t-98.5 48l-46 -54h-111zM185 367
q0 -47 14.5 -89t40.5 -77l333 394q-29 19 -62.5 29.5t-71.5 10.5q-55 0 -101.5 -22t-80.5 -59t-53 -85.5t-19 -101.5zM693 367q0 47 -15 89.5t-41 77.5l-334 -393q29 -19 63.5 -29.5t72.5 -10.5q55 0 101.5 21.5t80.5 58t53 85t19 101.5z" />
    <glyph glyph-name="Ugrave" unicode="&#xd9;" horiz-adv-x="745" 
d="M349 977l72 -157h-94l-109 157h131zM81 735h115v-456q0 -37 13.5 -69t37 -56t56 -37.5t69.5 -13.5q38 0 70 13.5t55.5 37.5t37 56t13.5 69v456h115v-456q0 -59 -22 -111.5t-60.5 -92.5t-92 -63t-116.5 -23q-64 0 -117.5 23t-92 63t-60 92.5t-21.5 111.5v456z" />
    <glyph glyph-name="Uacute" unicode="&#xda;" horiz-adv-x="745" 
d="M400 977h131l-113 -157h-95zM81 735h115v-456q0 -37 13.5 -69t37 -56t56 -37.5t69.5 -13.5q38 0 70 13.5t55.5 37.5t37 56t13.5 69v456h115v-456q0 -59 -22 -111.5t-60.5 -92.5t-92 -63t-116.5 -23q-64 0 -117.5 23t-92 63t-60 92.5t-21.5 111.5v456z" />
    <glyph glyph-name="Ucircumflex" unicode="&#xdb;" horiz-adv-x="745" 
d="M445 977l110 -157h-98l-85 83l-85 -83h-98l110 157h146zM81 735h115v-456q0 -37 13.5 -69t37 -56t56 -37.5t69.5 -13.5q38 0 70 13.5t55.5 37.5t37 56t13.5 69v456h115v-456q0 -59 -22 -111.5t-60.5 -92.5t-92 -63t-116.5 -23q-64 0 -117.5 23t-92 63t-60 92.5
t-21.5 111.5v456z" />
    <glyph glyph-name="Udieresis" unicode="&#xdc;" horiz-adv-x="745" 
d="M185 903q0 29 20 49.5t49 20.5t49 -20.5t20 -49.5t-20 -48.5t-49 -19.5t-49 19.5t-20 48.5zM420 903q0 29 20 49.5t49 20.5t49.5 -20.5t20.5 -49.5t-20.5 -48.5t-49.5 -19.5t-49 19.5t-20 48.5zM81 735h115v-456q0 -37 13.5 -69t37 -56t56 -37.5t69.5 -13.5q38 0 70 13.5
t55.5 37.5t37 56t13.5 69v456h115v-456q0 -59 -22 -111.5t-60.5 -92.5t-92 -63t-116.5 -23q-64 0 -117.5 23t-92 63t-60 92.5t-21.5 111.5v456z" />
    <glyph glyph-name="Yacute" unicode="&#xdd;" horiz-adv-x="687" 
d="M370 977h131l-113 -157h-95zM401 0h-115v319l-265 416h136l186 -300l186 300h136l-264 -415v-320z" />
    <glyph glyph-name="Thorn" unicode="&#xde;" horiz-adv-x="656" 
d="M202 603h142q63 0 112.5 -17.5t83.5 -48.5t52 -74t18 -95t-18 -95t-52 -74t-83.5 -48.5t-113.5 -17.5h-141v-133h-111v735h111v-132zM202 501v-266h142q75 0 115 36.5t40 96.5q0 57 -40 95t-115 38h-142z" />
    <glyph glyph-name="germandbls" unicode="&#xdf;" horiz-adv-x="663" 
d="M506 225q0 31 -11.5 57t-32 44.5t-48 29t-60.5 10.5h-95v80q22 0 43 9.5t37.5 26t27 39t10.5 49.5q0 38 -24.5 64.5t-67.5 26.5q-45 0 -69.5 -27.5t-24.5 -75.5v-558h-106v558q0 43 13.5 80t39 64t63 42.5t84.5 15.5q42 0 78 -15t62 -40t40.5 -58t14.5 -70q0 -24 -7 -45
t-17 -38t-21 -29t-19 -19q36 -4 71.5 -21t63 -45.5t44.5 -68t17 -87.5q0 -50 -18.5 -93t-50.5 -74.5t-74.5 -49t-90.5 -17.5q-38 0 -74.5 10t-62.5 27l43 84q18 -12 41.5 -19t49.5 -7q29 0 53 11t41 30.5t27 45t10 53.5z" />
    <glyph glyph-name="agrave" unicode="&#xe0;" horiz-adv-x="632" 
d="M304 756l63 -183h-86l-99 183h122zM51 245q0 54 19 100t52 80.5t78 54t97 19.5q45 0 91 -19t79 -57l34 69h52v-492h-91l-6 70q-28 -38 -74 -59t-92 -21q-50 0 -93.5 19.5t-76 53.5t-51 81t-18.5 101zM158 245q0 -33 10.5 -61.5t30 -49.5t46 -33t57.5 -12q32 0 58.5 12
t46 33.5t30 51t10.5 64.5q0 31 -10.5 58t-30 47.5t-46 32.5t-58.5 12q-31 0 -57.5 -12t-45.5 -33t-30 -49t-11 -61z" />
    <glyph glyph-name="aacute" unicode="&#xe1;" horiz-adv-x="632" 
d="M321 756h121l-107 -183h-86zM51 245q0 54 19 100t52 80.5t78 54t97 19.5q45 0 91 -19t79 -57l34 69h52v-492h-91l-6 70q-28 -38 -74 -59t-92 -21q-50 0 -93.5 19.5t-76 53.5t-51 81t-18.5 101zM158 245q0 -33 10.5 -61.5t30 -49.5t46 -33t57.5 -12q32 0 58.5 12t46 33
t30 50t10.5 63q0 30 -10.5 57.5t-29 49t-45.5 34t-60 12.5q-31 0 -57.5 -12t-45.5 -33t-30 -49t-11 -61z" />
    <glyph glyph-name="acircumflex" unicode="&#xe2;" horiz-adv-x="632" 
d="M267 756h104l128 -183h-87l-93 96l-93 -96h-87zM51 245q0 54 19 100t52 80.5t78 54t97 19.5q45 0 91 -19t79 -57l34 69h52v-492h-91l-6 70q-28 -38 -74 -59t-92 -21q-50 0 -93.5 19.5t-76 53.5t-51 81t-18.5 101zM158 245q0 -33 10.5 -61.5t30 -49.5t46 -33t57.5 -12
q32 0 58.5 12t46 33.5t30 51t10.5 64.5q0 31 -10.5 58t-30 47.5t-46 32.5t-58.5 12q-31 0 -57.5 -12t-45.5 -33t-30 -49t-11 -61z" />
    <glyph glyph-name="atilde" unicode="&#xe3;" horiz-adv-x="632" 
d="M115 619q11 54 44.5 84.5t82.5 30.5q22 0 42.5 -7.5t39.5 -16.5t35.5 -16.5t30.5 -7.5q25 0 36.5 17t13.5 31l82 -20q-4 -23 -13.5 -44t-24.5 -37t-35 -25.5t-46 -9.5q-21 0 -42.5 7.5t-41.5 16.5t-38.5 16.5t-33.5 7.5q-21 0 -33 -13t-17 -35zM51 245q0 54 19 100
t52 80.5t78 54t97 19.5q45 0 91 -19t79 -57l34 69h52v-492h-91l-6 70q-28 -38 -74 -59t-92 -21q-50 0 -93.5 19.5t-76 53.5t-51 81t-18.5 101zM158 245q0 -33 10.5 -61.5t30 -49.5t46 -33t57.5 -12q32 0 58.5 12t46 33.5t30 51t10.5 64.5q0 31 -10.5 58t-30 47.5t-46 32.5
t-58.5 12q-31 0 -57.5 -12t-45.5 -33t-30 -49t-11 -61z" />
    <glyph glyph-name="adieresis" unicode="&#xe4;" horiz-adv-x="632" 
d="M138 658q0 29 20.5 50t49.5 21t50 -21t21 -50t-21 -49.5t-50 -20.5t-49.5 20.5t-20.5 49.5zM362 658q0 29 20.5 50t49.5 21t49.5 -21t20.5 -50t-20.5 -49.5t-49.5 -20.5t-49.5 20.5t-20.5 49.5zM51 245q0 54 19 100t52 80.5t78 54t97 19.5q45 0 91 -19t79 -57l34 69h52
v-492h-91l-6 70q-28 -38 -74 -59t-92 -21q-50 0 -93.5 19.5t-76 53.5t-51 81t-18.5 101zM158 245q0 -33 10.5 -61.5t30 -49.5t46 -33t57.5 -12q32 0 58.5 12t46 33.5t30 51t10.5 64.5q0 31 -10.5 58t-30 47.5t-46 32.5t-58.5 12q-31 0 -57.5 -12t-45.5 -33t-30 -49t-11 -61z
" />
    <glyph glyph-name="aring" unicode="&#xe5;" horiz-adv-x="632" 
d="M214 670q0 22 8 40.5t22 32t32.5 21.5t39.5 8t40.5 -8t33.5 -21.5t22.5 -32t8.5 -40.5q0 -21 -8.5 -39.5t-22.5 -32.5t-33.5 -22t-40.5 -8t-39.5 8t-32.5 22t-22 32.5t-8 39.5zM280 670q0 -15 11 -26t26 -11q16 0 26.5 11t10.5 26q0 16 -10.5 27t-26.5 11q-15 0 -26 -11
t-11 -27zM51 245q0 54 19 100t52 80.5t78 54t97 19.5q45 0 91 -19t79 -57l34 69h52v-492h-91l-6 70q-28 -38 -74 -59t-92 -21q-50 0 -93.5 19.5t-76 53.5t-51 81t-18.5 101zM158 245q0 -33 10.5 -61.5t30 -49.5t46 -33t57.5 -12q32 0 58.5 12t46 33.5t30 51t10.5 64.5
q0 31 -10.5 58t-30 47.5t-46 32.5t-58.5 12q-31 0 -57.5 -12t-45.5 -33t-30 -49t-11 -61z" />
    <glyph glyph-name="ae" unicode="&#xe6;" horiz-adv-x="984" 
d="M702 80q35 0 68.5 14t58.5 48l83 -50q-38 -51 -92 -76.5t-117 -25.5q-61 0 -106 22.5t-74 63.5l-12 -76h-72l-6 73q-20 -44 -60 -63.5t-87 -19.5q-50 0 -93 19.5t-74.5 54t-49.5 81t-18 100.5t18 100.5t50 80.5t76.5 53.5t96.5 19.5q45 0 86 -20t64 -57l34 70h49v-75
q27 38 67 60t94 22q55 0 99 -20t74.5 -53.5t46.5 -78t16 -93.5q0 -14 -0.5 -25.5t-1.5 -17.5h-368q2 -28 13 -52t30.5 -41.5t46.5 -27.5t60 -10zM686 410q-28 0 -51 -9.5t-40 -25.5t-27.5 -38t-13.5 -48h259q-1 25 -11 47t-27 38.5t-39.5 26t-49.5 9.5zM158 245
q0 -32 10 -60.5t28.5 -49.5t44.5 -33.5t58 -12.5q30 0 56 12t44.5 33t29.5 50t11 63q0 30 -10 57.5t-28 49t-44 34t-59 12.5q-32 0 -58 -12.5t-44.5 -33.5t-28.5 -49t-10 -60z" />
    <glyph glyph-name="ccedilla" unicode="&#xe7;" horiz-adv-x="543" 
d="M274 -239q-17 0 -36 4t-25 9l16 57q18 -8 41 -8t37.5 11t14.5 30q0 20 -19.5 30t-46.5 10l13 88q-49 6 -89 28t-68.5 56t-44.5 77t-16 92q0 53 17.5 99t50 80.5t78 54.5t102.5 20q63 0 114.5 -25.5t88.5 -74.5l-80 -62q-23 29 -54 45.5t-68 16.5q-32 0 -58.5 -12t-45 -33
t-28.5 -49t-10 -60q0 -33 10.5 -61t30 -49t46 -33t59.5 -12q38 0 66 12.5t54 35.5l71 -71q-32 -32 -74 -51.5t-93 -24.5l-5 -39q16 -3 31 -9.5t27 -17t19 -25.5t7 -34q0 -46 -36.5 -75.5t-96.5 -29.5z" />
    <glyph glyph-name="egrave" unicode="&#xe8;" horiz-adv-x="592" 
d="M278 756l63 -183h-86l-99 183h122zM309 81q35 0 68.5 13.5t59.5 47.5l83 -50q-38 -52 -93 -77t-119 -25q-58 0 -105.5 19t-81.5 53t-52 81t-18 102q0 53 16.5 99t48 80.5t76.5 54.5t101 20q55 0 99 -20t75 -53.5t47.5 -78t16.5 -93.5q0 -14 -0.5 -25.5t-1.5 -17.5h-369
q5 -58 44.5 -94t104.5 -36zM294 410q-56 0 -91 -35t-40 -86h259q-1 25 -11.5 47t-27 38.5t-39.5 26t-50 9.5z" />
    <glyph glyph-name="eacute" unicode="&#xe9;" horiz-adv-x="592" 
d="M301 756h122l-107 -183h-86zM309 81q35 0 68.5 13.5t59.5 47.5l83 -50q-38 -52 -93 -77t-119 -25q-58 0 -105.5 19t-81.5 53t-52 81t-18 102q0 53 16.5 99t48 80.5t76.5 54.5t101 20q55 0 99 -20t75 -53.5t47.5 -78t16.5 -93.5q0 -14 -0.5 -25.5t-1.5 -17.5h-369
q5 -58 44.5 -94t104.5 -36zM294 410q-56 0 -91 -35t-40 -86h259q-1 25 -11.5 47t-27 38.5t-39.5 26t-50 9.5z" />
    <glyph glyph-name="ecircumflex" unicode="&#xea;" horiz-adv-x="592" 
d="M242 756h104l128 -183h-87l-93 96l-93 -96h-87zM309 81q35 0 68.5 13.5t59.5 47.5l83 -50q-38 -52 -93 -77t-119 -25q-58 0 -105.5 19t-81.5 53t-52 81t-18 102q0 53 16.5 99t48 80.5t76.5 54.5t101 20q55 0 99 -20t75 -53.5t47.5 -78t16.5 -93.5q0 -14 -0.5 -25.5
t-1.5 -17.5h-369q5 -58 44.5 -94t104.5 -36zM294 410q-56 0 -91 -35t-40 -86h259q-1 25 -11.5 47t-27 38.5t-39.5 26t-50 9.5z" />
    <glyph glyph-name="edieresis" unicode="&#xeb;" horiz-adv-x="592" 
d="M111 658q0 29 20.5 50t49.5 21t50 -21t21 -50t-21 -49.5t-50 -20.5t-49.5 20.5t-20.5 49.5zM335 658q0 29 20.5 50t49.5 21t49.5 -21t20.5 -50t-20.5 -49.5t-49.5 -20.5t-49.5 20.5t-20.5 49.5zM309 81q35 0 68.5 13.5t59.5 47.5l83 -50q-38 -52 -93 -77t-119 -25
q-58 0 -105.5 19t-81.5 53t-52 81t-18 102q0 53 16.5 99t48 80.5t76.5 54.5t101 20q55 0 99 -20t75 -53.5t47.5 -78t16.5 -93.5q0 -14 -0.5 -25.5t-1.5 -17.5h-369q5 -58 44.5 -94t104.5 -36zM294 410q-56 0 -91 -35t-40 -86h259q-1 25 -11.5 47t-27 38.5t-39.5 26t-50 9.5z
" />
    <glyph glyph-name="igrave" unicode="&#xec;" horiz-adv-x="266" 
d="M119 756l63 -183h-86l-99 183h122zM186 0h-106v490h106v-490z" />
    <glyph glyph-name="iacute" unicode="&#xed;" horiz-adv-x="266" 
d="M155 756h122l-107 -183h-86zM186 0h-106v490h106v-490z" />
    <glyph glyph-name="icircumflex" unicode="&#xee;" horiz-adv-x="266" 
d="M82 756h104l128 -183h-87l-93 96l-93 -96h-87zM186 0h-106v490h106v-490z" />
    <glyph glyph-name="idieresis" unicode="&#xef;" horiz-adv-x="266" 
d="M-49 658q0 29 20.5 50t49.5 21t50 -21t21 -50t-21 -49.5t-50 -20.5t-49.5 20.5t-20.5 49.5zM175 658q0 29 20.5 50t49.5 21t49.5 -21t20.5 -50t-20.5 -49.5t-49.5 -20.5t-49.5 20.5t-20.5 49.5zM186 0h-106v490h106v-490z" />
    <glyph glyph-name="eth" unicode="&#xf0;" horiz-adv-x="619" 
d="M232 604l97 56q-14 21 -29 38t-28 31l80 55q15 -16 31 -34t33 -40l89 52l39 -65l-86 -50q42 -70 71.5 -158t29.5 -191q0 -68 -19 -125t-53.5 -97.5t-83.5 -63t-109 -22.5q-54 0 -98.5 20t-77 55t-50 81.5t-17.5 98.5q0 53 17.5 99t50 80.5t77.5 54.5t100 20
q38 0 75 -11.5t63 -31.5q-11 41 -25.5 73t-37.5 68l-101 -58zM159 245q0 -32 9.5 -60t27.5 -49t43 -33t56 -12q42 0 72 18t49.5 46.5t29 64t9.5 69.5q0 18 -1.5 28.5t-3.5 17.5q-26 28 -65.5 47.5t-84.5 19.5q-32 0 -58 -12.5t-44.5 -34t-28.5 -50t-10 -60.5z" />
    <glyph glyph-name="ntilde" unicode="&#xf1;" horiz-adv-x="601" 
d="M111 619q11 54 44.5 84.5t82.5 30.5q22 0 42.5 -7.5t39.5 -16.5t35.5 -16.5t30.5 -7.5q25 0 36.5 17t13.5 31l82 -20q-4 -23 -13.5 -44t-24.5 -37t-35 -25.5t-46 -9.5q-21 0 -42.5 7.5t-41.5 16.5t-38.5 16.5t-33.5 7.5q-21 0 -33 -13t-17 -35zM186 0h-106v492h51l38 -67
q26 33 66.5 53.5t86.5 20.5q44 0 82.5 -14.5t66.5 -42.5t44 -68.5t16 -91.5v-282h-106v273q0 55 -28 90.5t-86 35.5q-40 0 -74 -22.5t-51 -58.5v-318z" />
    <glyph glyph-name="ograve" unicode="&#xf2;" horiz-adv-x="598" 
d="M284 756l63 -183h-86l-99 183h122zM51 245q0 53 17.5 99t50 80.5t78.5 54.5t102 20q55 0 100.5 -20t78.5 -54.5t51 -80.5t18 -99t-18 -99.5t-51 -81t-78.5 -54.5t-100.5 -20t-100.5 20t-78.5 54.5t-51 81t-18 99.5zM158 245q0 -32 10 -60t28.5 -49t44.5 -33t58 -12t58 12
t44.5 33t28.5 49t10 60t-10 60t-28.5 49t-44.5 33t-58 12t-58 -12t-44.5 -33t-28.5 -49t-10 -60z" />
    <glyph glyph-name="oacute" unicode="&#xf3;" horiz-adv-x="598" 
d="M301 756h122l-107 -183h-86zM51 245q0 53 17.5 99t50 80.5t78.5 54.5t102 20q55 0 100.5 -20t78.5 -54.5t51 -80.5t18 -99t-18 -99.5t-51 -81t-78.5 -54.5t-100.5 -20t-100.5 20t-78.5 54.5t-51 81t-18 99.5zM158 245q0 -32 10 -60t28.5 -49t44.5 -33t58 -12t58 12
t44.5 33t28.5 49t10 60t-10 60t-28.5 49t-44.5 33t-58 12t-58 -12t-44.5 -33t-28.5 -49t-10 -60z" />
    <glyph glyph-name="ocircumflex" unicode="&#xf4;" horiz-adv-x="598" 
d="M248 756h104l128 -183h-87l-93 96l-93 -96h-87zM51 245q0 53 17.5 99t50 80.5t78.5 54.5t102 20q55 0 100.5 -20t78.5 -54.5t51 -80.5t18 -99t-18 -99.5t-51 -81t-78.5 -54.5t-100.5 -20t-100.5 20t-78.5 54.5t-51 81t-18 99.5zM158 245q0 -32 10 -60t28.5 -49t44.5 -33
t58 -12t58 12t44.5 33t28.5 49t10 60t-10 60t-28.5 49t-44.5 33t-58 12t-58 -12t-44.5 -33t-28.5 -49t-10 -60z" />
    <glyph glyph-name="otilde" unicode="&#xf5;" horiz-adv-x="598" 
d="M96 619q11 54 44.5 84.5t82.5 30.5q22 0 42.5 -7.5t39.5 -16.5t35.5 -16.5t30.5 -7.5q25 0 36.5 17t13.5 31l82 -20q-4 -23 -13.5 -44t-24.5 -37t-35 -25.5t-46 -9.5q-21 0 -42.5 7.5t-41.5 16.5t-38.5 16.5t-33.5 7.5q-21 0 -33 -13t-17 -35zM51 245q0 53 17.5 99
t50 80.5t78.5 54.5t102 20q55 0 100.5 -20t78.5 -54.5t51 -80.5t18 -99t-18 -99.5t-51 -81t-78.5 -54.5t-100.5 -20t-100.5 20t-78.5 54.5t-51 81t-18 99.5zM158 245q0 -32 10 -60t28.5 -49t44.5 -33t58 -12t58 12t44.5 33t28.5 49t10 60t-10 60t-28.5 49t-44.5 33t-58 12
t-58 -12t-44.5 -33t-28.5 -49t-10 -60z" />
    <glyph glyph-name="odieresis" unicode="&#xf6;" horiz-adv-x="598" 
d="M117 658q0 29 20.5 50t49.5 21t50 -21t21 -50t-21 -49.5t-50 -20.5t-49.5 20.5t-20.5 49.5zM341 658q0 29 20.5 50t49.5 21t49.5 -21t20.5 -50t-20.5 -49.5t-49.5 -20.5t-49.5 20.5t-20.5 49.5zM51 245q0 53 17.5 99t50 80.5t78.5 54.5t102 20q55 0 100.5 -20t78.5 -54.5
t51 -80.5t18 -99t-18 -99.5t-51 -81t-78.5 -54.5t-100.5 -20t-100.5 20t-78.5 54.5t-51 81t-18 99.5zM158 245q0 -32 10 -60t28.5 -49t44.5 -33t58 -12t58 12t44.5 33t28.5 49t10 60t-10 60t-28.5 49t-44.5 33t-58 12t-58 -12t-44.5 -33t-28.5 -49t-10 -60z" />
    <glyph glyph-name="divide" unicode="&#xf7;" horiz-adv-x="617" 
d="M236 567q0 30 21 51t50 21q30 0 51 -21t21 -51t-21 -50.5t-51 -20.5q-29 0 -50 20.5t-21 50.5zM64 311v101h494v-101h-494zM236 156q0 30 21 51t50 21q30 0 51 -21t21 -51q0 -29 -21 -50t-51 -21q-29 0 -50 21t-21 50z" />
    <glyph glyph-name="oslash" unicode="&#xf8;" horiz-adv-x="616" 
d="M124 70q-31 34 -47.5 79t-16.5 96q0 53 17.5 99t50 80.5t78.5 54.5t102 20q37 0 70 -9.5t61 -26.5l21 27h92l-59 -73q30 -34 46.5 -78t16.5 -94q0 -53 -18 -99.5t-51 -81t-78.5 -54.5t-100.5 -20q-74 0 -130 35l-20 -25h-90zM165 245q0 -52 25 -93l186 233q-31 17 -68 17
q-32 0 -58.5 -12.5t-45 -33.5t-29 -49.5t-10.5 -61.5zM452 245q0 25 -6.5 48t-17.5 42l-187 -232q32 -16 67 -16q32 0 58.5 12.5t45.5 34t29.5 50t10.5 61.5z" />
    <glyph glyph-name="ugrave" unicode="&#xf9;" horiz-adv-x="593" 
d="M278 756l63 -183h-86l-99 183h122zM407 490h107v-490h-68l-21 62q-23 -31 -62 -51.5t-86 -20.5q-104 0 -155.5 61.5t-51.5 163.5v275h106v-271q0 -63 26.5 -96t88.5 -33q53 0 85.5 32t30.5 92v276z" />
    <glyph glyph-name="uacute" unicode="&#xfa;" horiz-adv-x="593" 
d="M296 756h122l-107 -183h-86zM407 490h107v-490h-68l-21 62q-23 -31 -62 -51.5t-86 -20.5q-104 0 -155.5 61.5t-51.5 163.5v275h106v-271q0 -63 26.5 -96t88.5 -33q53 0 85.5 32t30.5 92v276z" />
    <glyph glyph-name="ucircumflex" unicode="&#xfb;" horiz-adv-x="593" 
d="M241 756h104l128 -183h-87l-93 96l-93 -96h-87zM407 490h107v-490h-68l-21 62q-23 -31 -62 -51.5t-86 -20.5q-104 0 -155.5 61.5t-51.5 163.5v275h106v-271q0 -63 26.5 -96t88.5 -33q53 0 85.5 32t30.5 92v276z" />
    <glyph glyph-name="udieresis" unicode="&#xfc;" horiz-adv-x="593" 
d="M110 658q0 29 20.5 50t49.5 21t50 -21t21 -50t-21 -49.5t-50 -20.5t-49.5 20.5t-20.5 49.5zM334 658q0 29 20.5 50t49.5 21t49.5 -21t20.5 -50t-20.5 -49.5t-49.5 -20.5t-49.5 20.5t-20.5 49.5zM407 490h107v-490h-68l-21 62q-23 -31 -62 -51.5t-86 -20.5
q-104 0 -155.5 61.5t-51.5 163.5v275h106v-271q0 -63 26.5 -96t88.5 -33q53 0 85.5 32t30.5 92v276z" />
    <glyph glyph-name="yacute" unicode="&#xfd;" horiz-adv-x="541" 
d="M276 756h122l-107 -183h-86zM274 -123q-25 -62 -69.5 -94t-110.5 -32q-14 0 -29 1.5t-27 3.5l7 88h45q32 0 52.5 13.5t32.5 41.5l42 102l-196 489h112l137 -356l138 356h112z" />
    <glyph glyph-name="thorn" unicode="&#xfe;" horiz-adv-x="622" 
d="M186 -245h-106v1000h106v-323q29 32 66.5 49.5t83.5 17.5q51 0 94 -19.5t74.5 -54t49 -80t17.5 -98.5q0 -52 -16.5 -99t-47.5 -82t-75.5 -55.5t-99.5 -20.5q-42 0 -81 17t-65 46v-298zM464 247q0 32 -9.5 60t-26.5 48.5t-42 32.5t-56 12t-58 -11.5t-46 -32.5t-30 -49.5
t-11 -62.5q0 -71 40 -113t102 -42q31 0 56 12.5t43 34t28 50.5t10 61z" />
    <glyph glyph-name="ydieresis" unicode="&#xff;" horiz-adv-x="541" 
d="M88 658q0 29 20.5 50t49.5 21t50 -21t21 -50t-21 -49.5t-50 -20.5t-49.5 20.5t-20.5 49.5zM312 658q0 29 20.5 50t49.5 21t49.5 -21t20.5 -50t-20.5 -49.5t-49.5 -20.5t-49.5 20.5t-20.5 49.5zM274 -123q-25 -62 -69.5 -94t-110.5 -32q-14 0 -29 1.5t-27 3.5l7 88h45
q32 0 52.5 13.5t32.5 41.5l42 102l-196 489h112l137 -356l138 356h112z" />
    <glyph glyph-name="Amacron" unicode="&#x100;" horiz-adv-x="781" 
d="M181 942h418v-91h-418v91zM540 185h-300l-75 -185h-124l302 735h94l303 -735h-126zM280 284h222l-112 282z" />
    <glyph glyph-name="amacron" unicode="&#x101;" horiz-adv-x="632" 
d="M123 704h390v-84h-390v84zM51 245q0 54 19 100t52 80.5t78 54t97 19.5q45 0 91 -19t79 -57l34 69h52v-492h-91l-6 70q-28 -38 -74 -59t-92 -21q-50 0 -93.5 19.5t-76 53.5t-51 81t-18.5 101zM158 245q0 -33 10.5 -61.5t30 -49.5t46 -33t57.5 -12q32 0 58.5 12t46 33.5
t30 51t10.5 64.5q0 31 -10.5 58t-30 47.5t-46 32.5t-58.5 12q-31 0 -57.5 -12t-45.5 -33t-30 -49t-11 -61z" />
    <glyph glyph-name="Abreve" unicode="&#x102;" horiz-adv-x="781" 
d="M317 977q0 -31 21 -52t54 -21q32 0 53.5 21t21.5 52h93q0 -35 -12.5 -64.5t-35 -51.5t-53.5 -34t-67 -12t-67 12t-53.5 34t-35.5 51.5t-13 64.5h94zM540 185h-300l-75 -185h-124l302 735h94l303 -735h-126zM280 284h222l-112 282z" />
    <glyph glyph-name="abreve" unicode="&#x103;" horiz-adv-x="632" 
d="M235 756q0 -44 22 -70.5t62 -26.5q39 0 61 26.5t22 70.5h90q0 -39 -13 -72t-36 -57.5t-54.5 -38t-69.5 -13.5t-70 13.5t-55 38t-36 57.5t-13 72h90zM51 245q0 54 19 100t52 80.5t78 54t97 19.5q45 0 91 -19t79 -57l34 69h52v-492h-91l-6 70q-28 -38 -74 -59t-92 -21
q-50 0 -93.5 19.5t-76 53.5t-51 81t-18.5 101zM158 245q0 -33 10.5 -61.5t30 -49.5t46 -33t57.5 -12q32 0 58.5 12t46 33.5t30 51t10.5 64.5q0 31 -10.5 58t-30 47.5t-46 32.5t-58.5 12q-31 0 -57.5 -12t-45.5 -33t-30 -49t-11 -61z" />
    <glyph glyph-name="Aogonek" unicode="&#x104;" horiz-adv-x="781" 
d="M634 -111q0 -20 13 -33.5t36 -13.5q7 0 16 1t15 3l25 -86q-14 -6 -31 -9.5t-38 -3.5q-27 0 -51 9.5t-42 26.5t-28.5 40t-10.5 51q0 25 8 46.5t19.5 38.5t25.5 30.5t26 21.5h-8l-69 174h-300l-75 -185h-124l302 735h94l303 -735q-48 -20 -77 -49.5t-29 -61.5zM280 284h222
l-112 282z" />
    <glyph glyph-name="aogonek" unicode="&#x105;" horiz-adv-x="632" 
d="M452 -108q0 -20 12.5 -35t36.5 -15q8 0 14.5 1t11.5 3l25 -81q-13 -6 -30.5 -10.5t-38.5 -4.5q-52 0 -87 34t-35 90q0 48 28.5 85.5t70.5 62.5l-4 48q-28 -38 -74 -59t-92 -21q-50 0 -93.5 19.5t-76 53.5t-51 81t-18.5 101t19 100t52 80.5t78 54t97 19.5q45 0 91 -19
t79 -57l34 69h52v-492q-45 -19 -73 -47.5t-28 -60.5zM158 245q0 -33 10.5 -61.5t30 -49.5t46 -33t57.5 -12q32 0 58.5 12t46 33.5t30 51t10.5 64.5q0 31 -10.5 58t-30 47.5t-46 32.5t-58.5 12q-31 0 -57.5 -12t-45.5 -33t-30 -49t-11 -61z" />
    <glyph glyph-name="Cacute" unicode="&#x106;" horiz-adv-x="763" 
d="M457 977h131l-113 -157h-95zM175 367q0 -54 19 -102t53 -84.5t80.5 -58t101.5 -21.5q63 0 116.5 24.5t93.5 65.5l83 -73q-51 -56 -126 -92.5t-166 -36.5q-81 0 -149.5 30t-118.5 81.5t-78 120t-28 146.5t28.5 146.5t78.5 120.5t118 82t147 30q85 0 157 -34t123 -91
l-87 -71q-36 38 -85.5 61.5t-107.5 23.5q-55 0 -101 -22t-80 -59t-53 -85.5t-19 -101.5z" />
    <glyph glyph-name="cacute" unicode="&#x107;" horiz-adv-x="543" 
d="M302 756h122l-107 -183h-86zM158 245q0 -33 10.5 -61t30 -49t46 -33t59.5 -12q38 0 66 12.5t54 35.5l71 -71q-35 -35 -84 -56t-108 -21q-55 0 -101.5 20t-80 54.5t-52 81t-18.5 99.5t17.5 99t50 80.5t78 54.5t102.5 20q63 0 114.5 -25.5t88.5 -74.5l-80 -62
q-23 29 -54 45.5t-68 16.5q-32 0 -58.5 -12t-45 -33t-28.5 -49t-10 -60z" />
    <glyph glyph-name="Ccircumflex" unicode="&#x108;" horiz-adv-x="763" 
d="M502 977l110 -157h-98l-85 83l-85 -83h-98l110 157h146zM175 367q0 -54 19 -102t53 -84.5t80.5 -58t101.5 -21.5q63 0 116.5 24.5t93.5 65.5l83 -73q-51 -56 -126 -92.5t-166 -36.5q-81 0 -149.5 30t-118.5 81.5t-78 120t-28 146.5t28.5 146.5t78.5 120.5t118 82t147 30
q85 0 157 -34t123 -91l-87 -71q-36 38 -85.5 61.5t-107.5 23.5q-55 0 -101 -22t-80 -59t-53 -85.5t-19 -101.5z" />
    <glyph glyph-name="ccircumflex" unicode="&#x109;" horiz-adv-x="543" 
d="M247 756h104l128 -183h-87l-93 96l-93 -96h-87zM158 245q0 -33 10.5 -61t30 -49t46 -33t59.5 -12q38 0 66 12.5t54 35.5l71 -71q-35 -35 -84 -56t-108 -21q-55 0 -101.5 20t-80 54.5t-52 81t-18.5 99.5t17.5 99t50 80.5t78 54.5t102.5 20q63 0 114.5 -25.5t88.5 -74.5
l-80 -62q-23 29 -54 45.5t-68 16.5q-32 0 -58.5 -12t-45 -33t-28.5 -49t-10 -60z" />
    <glyph glyph-name="Cdotaccent" unicode="&#x10a;" horiz-adv-x="763" 
d="M356 907q0 30 21 51.5t51 21.5q31 0 52.5 -21.5t21.5 -51.5t-21.5 -51t-52.5 -21q-30 0 -51 21t-21 51zM175 367q0 -54 19 -102t53 -84.5t80.5 -58t101.5 -21.5q63 0 116.5 24.5t93.5 65.5l83 -73q-51 -56 -126 -92.5t-166 -36.5q-81 0 -149.5 30t-118.5 81.5t-78 120
t-28 146.5t28.5 146.5t78.5 120.5t118 82t147 30q85 0 157 -34t123 -91l-87 -71q-36 38 -85.5 61.5t-107.5 23.5q-55 0 -101 -22t-80 -59t-53 -85.5t-19 -101.5z" />
    <glyph glyph-name="cdotaccent" unicode="&#x10b;" horiz-adv-x="543" 
d="M230 658q0 29 20.5 50t49.5 21t50 -21t21 -50t-21 -49.5t-50 -20.5t-49.5 20.5t-20.5 49.5zM158 245q0 -33 10.5 -61t30 -49t46 -33t59.5 -12q38 0 66 12.5t54 35.5l71 -71q-35 -35 -84 -56t-108 -21q-55 0 -101.5 20t-80 54.5t-52 81t-18.5 99.5t17.5 99t50 80.5
t78 54.5t102.5 20q63 0 114.5 -25.5t88.5 -74.5l-80 -62q-23 29 -54 45.5t-68 16.5q-32 0 -58.5 -12t-45 -33t-28.5 -49t-10 -60z" />
    <glyph glyph-name="Ccaron" unicode="&#x10c;" horiz-adv-x="763" 
d="M502 820h-143l-111 157h96l86 -85l86 85h96zM175 367q0 -54 19 -102t53 -84.5t80.5 -58t101.5 -21.5q63 0 116.5 24.5t93.5 65.5l83 -73q-51 -56 -126 -92.5t-166 -36.5q-81 0 -149.5 30t-118.5 81.5t-78 120t-28 146.5t28.5 146.5t78.5 120.5t118 82t147 30
q85 0 157 -34t123 -91l-87 -71q-36 38 -85.5 61.5t-107.5 23.5q-55 0 -101 -22t-80 -59t-53 -85.5t-19 -101.5z" />
    <glyph glyph-name="ccaron" unicode="&#x10d;" horiz-adv-x="543" 
d="M246 573l-128 183h87l93 -97l93 97h87l-127 -183h-105zM158 245q0 -33 10.5 -61t30 -49t46 -33t59.5 -12q38 0 66 12.5t54 35.5l71 -71q-35 -35 -84 -56t-108 -21q-55 0 -101.5 20t-80 54.5t-52 81t-18.5 99.5t17.5 99t50 80.5t78 54.5t102.5 20q63 0 114.5 -25.5
t88.5 -74.5l-80 -62q-23 29 -54 45.5t-68 16.5q-32 0 -58.5 -12t-45 -33t-28.5 -49t-10 -60z" />
    <glyph glyph-name="Dcaron" unicode="&#x10e;" horiz-adv-x="775" 
d="M417 820h-143l-111 157h96l86 -85l86 85h96zM91 735h248q89 0 159.5 -28t119.5 -77.5t75 -117t26 -145.5t-26 -145t-75 -116.5t-119.5 -77.5t-159.5 -28h-248v735zM599 367q0 56 -17.5 104t-51 83t-82 55t-109.5 20h-133v-523h133q62 0 110.5 19.5t81.5 54.5t50.5 82.5
t17.5 104.5z" />
    <glyph glyph-name="dcaron" unicode="&#x10f;" horiz-adv-x="703" 
d="M51 244q0 53 18 99.5t50 81t76.5 54.5t98.5 20q43 0 81 -15.5t64 -44.5v316h107v-755h-68l-22 71q-25 -33 -68 -57t-102 -24q-51 0 -94 20t-74.5 54.5t-49 80.5t-17.5 99zM739 755l-51 -184h-70l22 184h99zM158 245q0 -33 10.5 -61.5t29 -49.5t44 -33t56.5 -12
q63 0 102.5 42t39.5 114q0 34 -10.5 62.5t-29 49t-44.5 32t-58 11.5q-31 0 -56.5 -11.5t-44 -32.5t-29 -49.5t-10.5 -61.5z" />
    <glyph glyph-name="Dcroat" unicode="&#x110;" horiz-adv-x="775" 
d="M0 425h91v310h248q89 0 159.5 -28t119.5 -77.5t75 -117t26 -145.5t-26 -145t-75 -116.5t-119.5 -77.5t-159.5 -28h-248v332h-91v93zM599 367q0 56 -17.5 104t-51 83t-82 55t-109.5 20h-133v-204h143v-93h-143v-226h133q62 0 110.5 19.5t81.5 54.5t50.5 82.5t17.5 104.5z
" />
    <glyph glyph-name="dcroat" unicode="&#x111;" horiz-adv-x="625" 
d="M289 665h150v90h107v-90h83v-81h-83v-584h-68l-22 71q-25 -33 -68 -57t-102 -24q-51 0 -94 20t-74.5 54.5t-49 80.5t-17.5 99t18 99.5t50 81t76.5 54.5t98.5 20q43 0 81 -15.5t64 -44.5v145h-150v81zM158 245q0 -33 10.5 -61.5t29 -49.5t44 -33t56.5 -12q63 0 102.5 42
t39.5 114q0 34 -10.5 62.5t-29 49t-44.5 32t-58 11.5q-31 0 -56.5 -11.5t-44 -32.5t-29 -49.5t-10.5 -61.5z" />
    <glyph glyph-name="Emacron" unicode="&#x112;" horiz-adv-x="655" 
d="M128 942h418v-91h-418v91zM91 735h488v-105h-373v-200h324v-100h-324v-225h388v-105h-503v735z" />
    <glyph glyph-name="emacron" unicode="&#x113;" horiz-adv-x="592" 
d="M97 704h390v-84h-390v84zM309 81q35 0 68.5 13.5t59.5 47.5l83 -50q-38 -52 -93 -77t-119 -25q-58 0 -105.5 19t-81.5 53t-52 81t-18 102q0 53 16.5 99t48 80.5t76.5 54.5t101 20q55 0 99 -20t75 -53.5t47.5 -78t16.5 -93.5q0 -14 -0.5 -25.5t-1.5 -17.5h-369
q5 -58 44.5 -94t104.5 -36zM294 410q-56 0 -91 -35t-40 -86h259q-1 25 -11.5 47t-27 38.5t-39.5 26t-50 9.5z" />
    <glyph glyph-name="Ebreve" unicode="&#x114;" horiz-adv-x="655" 
d="M263 977q0 -31 21 -52t54 -21q32 0 53.5 21t21.5 52h93q0 -35 -12.5 -64.5t-35 -51.5t-53.5 -34t-67 -12t-67 12t-53.5 34t-35.5 51.5t-13 64.5h94zM91 735h488v-105h-373v-200h324v-100h-324v-225h388v-105h-503v735z" />
    <glyph glyph-name="ebreve" unicode="&#x115;" horiz-adv-x="592" 
d="M210 756q0 -44 22 -70.5t62 -26.5q39 0 61 26.5t22 70.5h90q0 -39 -13 -72t-36 -57.5t-54.5 -38t-69.5 -13.5t-70 13.5t-55 38t-36 57.5t-13 72h90zM309 81q35 0 68.5 13.5t59.5 47.5l83 -50q-38 -52 -93 -77t-119 -25q-58 0 -105.5 19t-81.5 53t-52 81t-18 102
q0 53 16.5 99t48 80.5t76.5 54.5t101 20q55 0 99 -20t75 -53.5t47.5 -78t16.5 -93.5q0 -14 -0.5 -25.5t-1.5 -17.5h-369q5 -58 44.5 -94t104.5 -36zM294 410q-56 0 -91 -35t-40 -86h259q-1 25 -11.5 47t-27 38.5t-39.5 26t-50 9.5z" />
    <glyph glyph-name="Edotaccent" unicode="&#x116;" horiz-adv-x="655" 
d="M266 907q0 30 21 51.5t51 21.5q31 0 52.5 -21.5t21.5 -51.5t-21.5 -51t-52.5 -21q-30 0 -51 21t-21 51zM91 735h488v-105h-373v-200h324v-100h-324v-225h388v-105h-503v735z" />
    <glyph glyph-name="edotaccent" unicode="&#x117;" horiz-adv-x="592" 
d="M225 658q0 29 20.5 50t49.5 21t50 -21t21 -50t-21 -49.5t-50 -20.5t-49.5 20.5t-20.5 49.5zM309 81q35 0 68.5 13.5t59.5 47.5l83 -50q-38 -52 -93 -77t-119 -25q-58 0 -105.5 19t-81.5 53t-52 81t-18 102q0 53 16.5 99t48 80.5t76.5 54.5t101 20q55 0 99 -20t75 -53.5
t47.5 -78t16.5 -93.5q0 -14 -0.5 -25.5t-1.5 -17.5h-369q5 -58 44.5 -94t104.5 -36zM294 410q-56 0 -91 -35t-40 -86h259q-1 25 -11.5 47t-27 38.5t-39.5 26t-50 9.5z" />
    <glyph glyph-name="Eogonek" unicode="&#x118;" horiz-adv-x="655" 
d="M91 735h488v-105h-373v-200h324v-100h-324v-225h388v-105q-48 -20 -76.5 -49.5t-28.5 -61.5q0 -20 12.5 -33.5t35.5 -13.5q8 0 16.5 1t15.5 3l25 -86q-15 -6 -32 -9.5t-38 -3.5q-27 0 -51 9.5t-42 26.5t-28.5 40t-10.5 51q0 36 17 68.5t47 57.5h-365v735z" />
    <glyph glyph-name="eogonek" unicode="&#x119;" horiz-adv-x="592" 
d="M309 81q35 0 68.5 13.5t59.5 47.5l83 -50q-7 -9 -20.5 -25t-28.5 -36q-33 -43 -47 -73.5t-14 -59.5q0 -56 51 -56q6 0 12.5 1t13.5 3l25 -81q-14 -6 -29.5 -10.5t-36.5 -4.5q-26 0 -49 9t-40.5 26t-28 41t-10.5 53q0 34 12.5 63.5t29.5 52.5q-28 -5 -52 -5
q-58 0 -105.5 19t-81.5 53t-52 81t-18 102q0 53 16.5 99t48 80.5t76.5 54.5t101 20q55 0 99 -20t75 -53.5t47.5 -78t16.5 -93.5q0 -14 -0.5 -25.5t-1.5 -17.5h-369q5 -58 44.5 -94t104.5 -36zM294 410q-56 0 -91 -35t-40 -86h259q-1 25 -11.5 47t-27 38.5t-39.5 26t-50 9.5z
" />
    <glyph glyph-name="Ecaron" unicode="&#x11a;" horiz-adv-x="655" 
d="M412 820h-143l-111 157h96l86 -85l86 85h96zM91 735h488v-105h-373v-200h324v-100h-324v-225h388v-105h-503v735z" />
    <glyph glyph-name="ecaron" unicode="&#x11b;" horiz-adv-x="592" 
d="M241 573l-128 183h87l93 -97l93 97h87l-127 -183h-105zM309 81q35 0 68.5 13.5t59.5 47.5l83 -50q-38 -52 -93 -77t-119 -25q-58 0 -105.5 19t-81.5 53t-52 81t-18 102q0 53 16.5 99t48 80.5t76.5 54.5t101 20q55 0 99 -20t75 -53.5t47.5 -78t16.5 -93.5
q0 -14 -0.5 -25.5t-1.5 -17.5h-369q5 -58 44.5 -94t104.5 -36zM294 410q-56 0 -91 -35t-40 -86h259q-1 25 -11.5 47t-27 38.5t-39.5 26t-50 9.5z" />
    <glyph glyph-name="Gcircumflex" unicode="&#x11c;" horiz-adv-x="809" 
d="M505 977l110 -157h-98l-85 83l-85 -83h-98l110 157h146zM395 406h343v-283q-57 -66 -133.5 -100t-170.5 -34q-81 0 -150.5 29.5t-120 81t-79 120.5t-28.5 147q0 79 28.5 148t79 120.5t119 81t149.5 29.5q85 0 157.5 -33.5t123.5 -91.5l-88 -69q-34 38 -85.5 61t-108.5 23
t-104.5 -22t-81.5 -59t-53 -86t-19 -102q0 -55 19 -103.5t53.5 -85t83 -58t106.5 -21.5q56 0 106.5 17.5t82.5 50.5v137h-229v102z" />
    <glyph glyph-name="gcircumflex" unicode="&#x11d;" horiz-adv-x="625" 
d="M250 756h104l128 -183h-87l-93 96l-93 -96h-87zM293 -251q-71 0 -128 31.5t-89 82.5l82 53q20 -32 56 -51t78 -19q67 0 107 36.5t40 103.5v81q-27 -36 -66.5 -56t-84.5 -20q-52 0 -95.5 19.5t-75 54t-49 81t-17.5 99.5t17 99t48.5 80.5t76.5 54.5t102 20q53 0 96 -23
t69 -53l34 69h52v-504q0 -56 -18 -100t-51.5 -75t-80 -47.5t-103.5 -16.5zM158 245q0 -32 10 -60t28 -49t44.5 -33.5t59.5 -12.5q31 0 57 12t44.5 33.5t28.5 50.5t10 62q0 31 -10.5 59t-29 49t-44.5 33t-57 12q-33 0 -59 -12.5t-44 -33.5t-28 -49.5t-10 -60.5z" />
    <glyph glyph-name="Gbreve" unicode="&#x11e;" horiz-adv-x="809" 
d="M359 977q0 -31 21 -52t54 -21q32 0 53.5 21t21.5 52h93q0 -35 -12.5 -64.5t-35 -51.5t-53.5 -34t-67 -12t-67 12t-53.5 34t-35.5 51.5t-13 64.5h94zM395 406h343v-283q-57 -66 -133.5 -100t-170.5 -34q-81 0 -150.5 29.5t-120 81t-79 120.5t-28.5 147q0 79 28.5 148
t79 120.5t119 81t149.5 29.5q85 0 157.5 -33.5t123.5 -91.5l-88 -69q-34 38 -85.5 61t-108.5 23t-104.5 -22t-81.5 -59t-53 -86t-19 -102q0 -55 19 -103.5t53.5 -85t83 -58t106.5 -21.5q56 0 106.5 17.5t82.5 50.5v137h-229v102z" />
    <glyph glyph-name="gbreve" unicode="&#x11f;" horiz-adv-x="625" 
d="M216 756q0 -44 22 -70.5t62 -26.5q39 0 61 26.5t22 70.5h90q0 -39 -13 -72t-36 -57.5t-54.5 -38t-69.5 -13.5t-70 13.5t-55 38t-36 57.5t-13 72h90zM293 -251q-71 0 -128 31.5t-89 82.5l82 53q20 -32 56 -51t78 -19q67 0 107 36.5t40 103.5v81q-27 -36 -66.5 -56
t-84.5 -20q-52 0 -95.5 19.5t-75 54t-49 81t-17.5 99.5t17 99t48.5 80.5t76.5 54.5t102 20q53 0 96 -23t69 -53l34 69h52v-504q0 -56 -18 -100t-51.5 -75t-80 -47.5t-103.5 -16.5zM158 245q0 -32 10 -60t28 -49t44.5 -33.5t59.5 -12.5q31 0 57 12t44.5 33.5t28.5 50.5t10 62
q0 31 -10.5 59t-29 49t-44.5 33t-57 12q-33 0 -59 -12.5t-44 -33.5t-28 -49.5t-10 -60.5z" />
    <glyph glyph-name="Gdotaccent" unicode="&#x120;" horiz-adv-x="809" 
d="M359 907q0 30 21 51.5t51 21.5q31 0 52.5 -21.5t21.5 -51.5t-21.5 -51t-52.5 -21q-30 0 -51 21t-21 51zM395 406h343v-283q-57 -66 -133.5 -100t-170.5 -34q-81 0 -150.5 29.5t-120 81t-79 120.5t-28.5 147q0 79 28.5 148t79 120.5t119 81t149.5 29.5q85 0 157.5 -33.5
t123.5 -91.5l-88 -69q-34 38 -85.5 61t-108.5 23t-104.5 -22t-81.5 -59t-53 -86t-19 -102q0 -55 19 -103.5t53.5 -85t83 -58t106.5 -21.5q56 0 106.5 17.5t82.5 50.5v137h-229v102z" />
    <glyph glyph-name="gdotaccent" unicode="&#x121;" horiz-adv-x="625" 
d="M251 658q0 29 20.5 50t49.5 21t50 -21t21 -50t-21 -49.5t-50 -20.5t-49.5 20.5t-20.5 49.5zM293 -251q-71 0 -128 31.5t-89 82.5l82 53q20 -32 56 -51t78 -19q67 0 107 36.5t40 103.5v81q-27 -36 -66.5 -56t-84.5 -20q-52 0 -95.5 19.5t-75 54t-49 81t-17.5 99.5t17 99
t48.5 80.5t76.5 54.5t102 20q53 0 96 -23t69 -53l34 69h52v-504q0 -56 -18 -100t-51.5 -75t-80 -47.5t-103.5 -16.5zM158 245q0 -32 10 -60t28 -49t44.5 -33.5t59.5 -12.5q31 0 57 12t44.5 33.5t28.5 50.5t10 62q0 31 -10.5 59t-29 49t-44.5 33t-57 12q-33 0 -59 -12.5
t-44 -33.5t-28 -49.5t-10 -60.5z" />
    <glyph glyph-name="uni0122" unicode="&#x122;" horiz-adv-x="809" 
d="M395 406h343v-283q-57 -66 -133.5 -100t-170.5 -34q-81 0 -150.5 29.5t-120 81t-79 120.5t-28.5 147q0 79 28.5 148t79 120.5t119 81t149.5 29.5q85 0 157.5 -33.5t123.5 -91.5l-88 -69q-34 38 -85.5 61t-108.5 23t-104.5 -22t-81.5 -59t-53 -86t-19 -102
q0 -55 19 -103.5t53.5 -85t83 -58t106.5 -21.5q56 0 106.5 17.5t82.5 50.5v137h-229v102zM497 -83l-74 -157h-87l40 157h121z" />
    <glyph glyph-name="uni0123" unicode="&#x123;" horiz-adv-x="625" 
d="M243 573l80 190h76l-36 -190h-120zM293 -251q-71 0 -128 31.5t-89 82.5l82 53q20 -32 56 -51t78 -19q67 0 107 36.5t40 103.5v81q-27 -36 -66.5 -56t-84.5 -20q-52 0 -95.5 19.5t-75 54t-49 81t-17.5 99.5t17 99t48.5 80.5t76.5 54.5t102 20q53 0 96 -23t69 -53l34 69h52
v-504q0 -56 -18 -100t-51.5 -75t-80 -47.5t-103.5 -16.5zM158 245q0 -32 10 -60t28 -49t44.5 -33.5t59.5 -12.5q31 0 57 12t44.5 33.5t28.5 50.5t10 62q0 31 -10.5 59t-29 49t-44.5 33t-57 12q-33 0 -59 -12.5t-44 -33.5t-28 -49.5t-10 -60.5z" />
    <glyph glyph-name="Hcircumflex" unicode="&#x124;" horiz-adv-x="765" 
d="M331 1003h104l128 -183h-87l-93 96l-93 -96h-87zM674 0h-115v326h-353v-326h-115v735h115v-302h353v302h115v-735z" />
    <glyph glyph-name="hcircumflex" unicode="&#x125;" horiz-adv-x="601" 
d="M82 1003h104l128 -183h-87l-93 96l-93 -96h-87zM186 0h-106v755h106v-312q27 28 64 42t75 14q44 0 82 -15t65.5 -43.5t43 -68.5t15.5 -90v-282h-106v274q0 54 -26.5 89.5t-84.5 35.5q-40 0 -75.5 -22.5t-52.5 -58.5v-318z" />
    <glyph glyph-name="Hbar" unicode="&#x126;" horiz-adv-x="765" 
d="M17 624h74v111h115v-111h353v111h115v-111h74v-89h-74v-535h-115v322h-353v-322h-115v535h-74v89zM559 429v106h-353v-106h353z" />
    <glyph glyph-name="hbar" unicode="&#x127;" horiz-adv-x="601" 
d="M-3 664h83v91h106v-91h151v-79h-151v-142q27 28 64 42t75 14q44 0 82 -15t65.5 -43.5t43 -68.5t15.5 -90v-282h-106v274q0 54 -26.5 89.5t-84.5 35.5q-40 0 -75.5 -22.5t-52.5 -58.5v-318h-106v585h-83v79z" />
    <glyph glyph-name="Itilde" unicode="&#x128;" horiz-adv-x="298" 
d="M-73 853q11 53 46.5 84t89.5 31q23 0 44.5 -7.5t41.5 -17t40 -17t41 -7.5q29 0 43 17.5t16 33.5l82 -22q-10 -48 -45 -83t-92 -35q-24 0 -47 7.5t-44 17t-39.5 17t-35.5 7.5q-51 0 -59 -49zM206 0h-115v735h115v-735z" />
    <glyph glyph-name="itilde" unicode="&#x129;" horiz-adv-x="266" 
d="M-70 619q11 54 44.5 84.5t82.5 30.5q22 0 42.5 -7.5t39.5 -16.5t35.5 -16.5t30.5 -7.5q25 0 36.5 17t13.5 31l82 -20q-4 -23 -13.5 -44t-24.5 -37t-35 -25.5t-46 -9.5q-21 0 -42.5 7.5t-41.5 16.5t-38.5 16.5t-33.5 7.5q-21 0 -33 -13t-17 -35zM186 0h-106v490h106v-490z
" />
    <glyph glyph-name="Imacron" unicode="&#x12a;" horiz-adv-x="298" 
d="M-61 942h418v-91h-418v91zM206 0h-115v735h115v-735z" />
    <glyph glyph-name="imacron" unicode="&#x12b;" horiz-adv-x="266" 
d="M-62 704h390v-84h-390v84zM186 0h-106v490h106v-490z" />
    <glyph glyph-name="Ibreve" unicode="&#x12c;" horiz-adv-x="298" 
d="M74 977q0 -31 21 -52t54 -21q32 0 53.5 21t21.5 52h93q0 -35 -12.5 -64.5t-35 -51.5t-53.5 -34t-67 -12t-67 12t-53.5 34t-35.5 51.5t-13 64.5h94zM206 0h-115v735h115v-735z" />
    <glyph glyph-name="ibreve" unicode="&#x12d;" horiz-adv-x="266" 
d="M49 756q0 -44 22 -70.5t62 -26.5q39 0 61 26.5t22 70.5h90q0 -39 -13 -72t-36 -57.5t-54.5 -38t-69.5 -13.5t-70 13.5t-55 38t-36 57.5t-13 72h90zM186 0h-106v490h106v-490z" />
    <glyph glyph-name="Iogonek" unicode="&#x12e;" horiz-adv-x="298" 
d="M101 -111q0 -20 13 -33.5t36 -13.5q7 0 16 1t15 3l25 -86q-14 -6 -31 -9.5t-38 -3.5q-19 0 -42.5 7t-43.5 22.5t-33.5 39.5t-13.5 58q0 43 25 80.5t67 63.5h-5v717h115v-735q-48 -20 -76.5 -49.5t-28.5 -61.5z" />
    <glyph glyph-name="iogonek" unicode="&#x12f;" horiz-adv-x="266" 
d="M63 658q0 29 20.5 50t49.5 21t50 -21t21 -50t-21 -49.5t-50 -20.5t-49.5 20.5t-20.5 49.5zM86 -108q0 -20 12.5 -35t36.5 -15q7 0 14 1t12 3l25 -81q-13 -6 -30.5 -10.5t-38.5 -4.5q-52 0 -87.5 34t-35.5 90q0 45 26 81t63 59h-3v476h106v-490q-45 -19 -72.5 -47.5
t-27.5 -60.5z" />
    <glyph glyph-name="Idotaccent" unicode="&#x130;" horiz-adv-x="298" 
d="M75 907q0 30 21 51.5t51 21.5q31 0 52.5 -21.5t21.5 -51.5t-21.5 -51t-52.5 -21q-30 0 -51 21t-21 51zM206 0h-115v735h115v-735z" />
    <glyph glyph-name="dotlessi" unicode="&#x131;" horiz-adv-x="266" 
d="M186 0h-106v490h106v-490z" />
    <glyph glyph-name="IJ" unicode="&#x132;" horiz-adv-x="835" 
d="M206 0h-115v735h115v-735zM754 261q0 -62 -18 -112.5t-51 -86t-80.5 -55t-106.5 -19.5q-64 0 -120.5 28t-95.5 85l87 71q20 -32 52.5 -51t76.5 -19q68 0 104.5 41.5t36.5 119.5v472h115v-474z" />
    <glyph glyph-name="ij" unicode="&#x133;" horiz-adv-x="535" 
d="M63 658q0 29 20.5 50t49.5 21t50 -21t21 -50t-21 -49.5t-50 -20.5t-49.5 20.5t-20.5 49.5zM332 658q0 29 20.5 50t49.5 21t50 -21t21 -50t-21 -49.5t-50 -20.5t-49.5 20.5t-20.5 49.5zM186 0h-106v490h106v-490zM349 490h106v-541q0 -45 -14 -81.5t-39 -63t-60.5 -40.5
t-78.5 -14q-28 0 -55 7l7 89h46q38 0 63 24.5t25 79.5v540z" />
    <glyph glyph-name="Jcircumflex" unicode="&#x134;" horiz-adv-x="576" 
d="M512 977l110 -157h-98l-85 83l-85 -83h-98l110 157h146zM495 261q0 -62 -18 -112.5t-51 -86t-80.5 -55t-106.5 -19.5q-64 0 -120.5 28t-95.5 85l87 71q20 -32 52.5 -51t76.5 -19q68 0 104.5 41.5t36.5 119.5v472h115v-474z" />
    <glyph glyph-name="jcircumflex" unicode="&#x135;" horiz-adv-x="292" 
d="M107 756h104l128 -183h-87l-93 96l-93 -96h-87zM105 490h107v-541q0 -45 -14 -81.5t-39 -63t-60.5 -40.5t-78.5 -14q-28 0 -56 7l8 89h45q38 0 63 24.5t25 79.5v540z" />
    <glyph glyph-name="uni0136" unicode="&#x136;" horiz-adv-x="704" 
d="M350 377l323 -377h-148l-268 317h-51v-317h-115v735h115v-314h39l258 314h144zM414 -83l-74 -157h-87l40 157h121z" />
    <glyph glyph-name="uni0137" unicode="&#x137;" horiz-adv-x="570" 
d="M186 294h35l174 196h132l-212 -239l233 -251h-136l-187 200h-39v-200h-106v755h106v-461zM333 -83l-75 -163h-75l42 163h108z" />
    <glyph glyph-name="kgreenlandic" unicode="&#x138;" horiz-adv-x="545" 
d="M311 250l213 -250h-130l-172 201h-36v-201h-106v490h106v-196h34l159 196h122z" />
    <glyph glyph-name="Lacute" unicode="&#x139;" horiz-adv-x="597" 
d="M176 977h131l-113 -157h-95zM91 735h115v-628h359v-107h-474v735z" />
    <glyph glyph-name="lacute" unicode="&#x13a;" horiz-adv-x="266" 
d="M150 1003h122l-99 -183h-86zM186 0h-106v755h106v-755z" />
    <glyph glyph-name="uni013B" unicode="&#x13b;" horiz-adv-x="597" 
d="M91 735h115v-628h359v-107h-474v735zM386 -83l-74 -157h-87l40 157h121z" />
    <glyph glyph-name="uni013C" unicode="&#x13c;" horiz-adv-x="266" 
d="M186 0h-106v755h106v-755zM184 -83l-75 -163h-75l42 163h108z" />
    <glyph glyph-name="Lcaron" unicode="&#x13d;" horiz-adv-x="597" 
d="M403 735l-51 -186h-73l23 186h101zM91 735h115v-628h359v-107h-474v735z" />
    <glyph glyph-name="lcaron" unicode="&#x13e;" horiz-adv-x="344" 
d="M186 0h-106v755h106v-755zM381 755l-51 -184h-70l22 184h99z" />
    <glyph glyph-name="Ldot" unicode="&#x13f;" horiz-adv-x="603" 
d="M91 735h115v-628h359v-107h-474v735zM303 355q0 32 21.5 54t53.5 22t54 -22t22 -54q0 -31 -22 -52.5t-54 -21.5t-53.5 21.5t-21.5 52.5z" />
    <glyph glyph-name="ldot" unicode="&#x140;" horiz-adv-x="426" 
d="M186 0h-106v755h106v-755zM241 273q0 29 20.5 50t49.5 21t50 -21t21 -50t-21 -49.5t-50 -20.5t-49.5 20.5t-20.5 49.5z" />
    <glyph glyph-name="Lslash" unicode="&#x141;" horiz-adv-x="597" 
d="M0 311l91 51v373h115v-308l153 86v-111l-153 -86v-209h359v-107h-474v252l-91 -51v110z" />
    <glyph glyph-name="lslash" unicode="&#x142;" horiz-adv-x="266" 
d="M186 350v-350h-106v291l-73 -41v101l73 41v363h106v-304l112 63v-101z" />
    <glyph glyph-name="Nacute" unicode="&#x143;" horiz-adv-x="794" 
d="M423 977h131l-113 -157h-95zM703 0h-101l-396 534v-534h-115v735h101l396 -535v535h115v-735z" />
    <glyph glyph-name="nacute" unicode="&#x144;" horiz-adv-x="601" 
d="M320 756h122l-107 -183h-86zM186 0h-106v492h51l38 -67q26 33 66.5 53.5t86.5 20.5q44 0 82.5 -14.5t66.5 -42.5t44 -68.5t16 -91.5v-282h-106v273q0 55 -28 90.5t-86 35.5q-40 0 -74 -22.5t-51 -58.5v-318z" />
    <glyph glyph-name="uni0145" unicode="&#x145;" horiz-adv-x="794" 
d="M703 0h-101l-396 534v-534h-115v735h101l396 -535v535h115v-735zM462 -83l-74 -157h-87l40 157h121z" />
    <glyph glyph-name="uni0146" unicode="&#x146;" horiz-adv-x="601" 
d="M186 0h-106v492h51l38 -67q26 33 66.5 53.5t86.5 20.5q44 0 82.5 -14.5t66.5 -42.5t44 -68.5t16 -91.5v-282h-106v273q0 55 -28 90.5t-86 35.5q-40 0 -74 -22.5t-51 -58.5v-318zM361 -83l-75 -163h-75l42 163h108z" />
    <glyph glyph-name="Ncaron" unicode="&#x147;" horiz-adv-x="794" 
d="M469 820h-143l-111 157h96l86 -85l86 85h96zM703 0h-101l-396 534v-534h-115v735h101l396 -535v535h115v-735z" />
    <glyph glyph-name="ncaron" unicode="&#x148;" horiz-adv-x="601" 
d="M264 573l-128 183h87l93 -97l93 97h87l-127 -183h-105zM186 0h-106v492h51l38 -67q26 33 66.5 53.5t86.5 20.5q44 0 82.5 -14.5t66.5 -42.5t44 -68.5t16 -91.5v-282h-106v273q0 55 -28 90.5t-86 35.5q-40 0 -74 -22.5t-51 -58.5v-318z" />
    <glyph glyph-name="napostrophe" unicode="&#x149;" horiz-adv-x="601" 
d="M201 755l-51 -184h-70l22 184h99zM186 0h-106v492h51l38 -67q26 33 66.5 53.5t86.5 20.5q44 0 82.5 -14.5t66.5 -42.5t44 -68.5t16 -91.5v-282h-106v273q0 55 -28 90.5t-86 35.5q-40 0 -74 -22.5t-51 -58.5v-318z" />
    <glyph glyph-name="Eng" unicode="&#x14a;" horiz-adv-x="794" 
d="M703 21q0 -124 -61 -195.5t-177 -71.5q-38 0 -78 12.5t-70 34.5l57 93q18 -13 41.5 -21t45.5 -8q122 0 127 139v15l-382 515v-534h-115v735h101l396 -535v535h115v-714z" />
    <glyph glyph-name="eng" unicode="&#x14b;" horiz-adv-x="601" 
d="M311 399q-40 0 -74 -22.5t-51 -58.5v-318h-106v492h51l38 -67q26 33 66.5 53.5t86.5 20.5q44 0 82.5 -14.5t66.5 -42.5t44 -68.5t16 -91.5v-334q0 -45 -13.5 -81.5t-38.5 -62.5t-60.5 -40t-78.5 -14q-14 0 -26 1t-26 4l7 90h42q38 0 63 24.5t25 78.5v325q0 53 -28 89.5
t-86 36.5z" />
    <glyph glyph-name="Omacron" unicode="&#x14c;" horiz-adv-x="857" 
d="M219 942h418v-91h-418v91zM56 367q0 78 28.5 146.5t78.5 120.5t118.5 82t147.5 30t147 -30t118 -82t78.5 -120.5t28.5 -146.5t-28.5 -146.5t-78.5 -120t-118 -81.5t-147 -30t-147.5 30t-118.5 81.5t-78.5 120t-28.5 146.5zM175 367q0 -53 19 -101.5t53 -85t80.5 -58
t101.5 -21.5t101.5 21.5t80.5 58t53 85t19 101.5t-19 101.5t-53 85.5t-80.5 59t-101.5 22t-101.5 -22t-80.5 -59t-53 -85.5t-19 -101.5z" />
    <glyph glyph-name="omacron" unicode="&#x14d;" horiz-adv-x="598" 
d="M104 704h390v-84h-390v84zM51 245q0 53 17.5 99t50 80.5t78.5 54.5t102 20q55 0 100.5 -20t78.5 -54.5t51 -80.5t18 -99t-18 -99.5t-51 -81t-78.5 -54.5t-100.5 -20t-100.5 20t-78.5 54.5t-51 81t-18 99.5zM158 245q0 -32 10 -60t28.5 -49t44.5 -33t58 -12t58 12t44.5 33
t28.5 49t10 60t-10 60t-28.5 49t-44.5 33t-58 12t-58 -12t-44.5 -33t-28.5 -49t-10 -60z" />
    <glyph glyph-name="Obreve" unicode="&#x14e;" horiz-adv-x="857" 
d="M354 977q0 -31 21 -52t54 -21q32 0 53.5 21t21.5 52h93q0 -35 -12.5 -64.5t-35 -51.5t-53.5 -34t-67 -12t-67 12t-53.5 34t-35.5 51.5t-13 64.5h94zM56 367q0 78 28.5 146.5t78.5 120.5t118.5 82t147.5 30t147 -30t118 -82t78.5 -120.5t28.5 -146.5t-28.5 -146.5
t-78.5 -120t-118 -81.5t-147 -30t-147.5 30t-118.5 81.5t-78.5 120t-28.5 146.5zM175 367q0 -53 19 -101.5t53 -85t80.5 -58t101.5 -21.5t101.5 21.5t80.5 58t53 85t19 101.5t-19 101.5t-53 85.5t-80.5 59t-101.5 22t-101.5 -22t-80.5 -59t-53 -85.5t-19 -101.5z" />
    <glyph glyph-name="obreve" unicode="&#x14f;" horiz-adv-x="598" 
d="M215 756q0 -44 22 -70.5t62 -26.5q39 0 61 26.5t22 70.5h90q0 -39 -13 -72t-36 -57.5t-54.5 -38t-69.5 -13.5t-70 13.5t-55 38t-36 57.5t-13 72h90zM51 245q0 53 17.5 99t50 80.5t78.5 54.5t102 20q55 0 100.5 -20t78.5 -54.5t51 -80.5t18 -99t-18 -99.5t-51 -81
t-78.5 -54.5t-100.5 -20t-100.5 20t-78.5 54.5t-51 81t-18 99.5zM158 245q0 -32 10 -60t28.5 -49t44.5 -33t58 -12t58 12t44.5 33t28.5 49t10 60t-10 60t-28.5 49t-44.5 33t-58 12t-58 -12t-44.5 -33t-28.5 -49t-10 -60z" />
    <glyph glyph-name="Ohungarumlaut" unicode="&#x150;" horiz-adv-x="857" 
d="M553 977h128l-109 -157h-95zM345 977h128l-107 -157h-94zM56 367q0 78 28.5 146.5t78.5 120.5t118.5 82t147.5 30t147 -30t118 -82t78.5 -120.5t28.5 -146.5t-28.5 -146.5t-78.5 -120t-118 -81.5t-147 -30t-147.5 30t-118.5 81.5t-78.5 120t-28.5 146.5zM175 367
q0 -53 19 -101.5t53 -85t80.5 -58t101.5 -21.5t101.5 21.5t80.5 58t53 85t19 101.5t-19 101.5t-53 85.5t-80.5 59t-101.5 22t-101.5 -22t-80.5 -59t-53 -85.5t-19 -101.5z" />
    <glyph glyph-name="ohungarumlaut" unicode="&#x151;" horiz-adv-x="598" 
d="M222 756h120l-116 -183h-86zM423 756h121l-119 -183h-86zM51 245q0 53 17.5 99t50 80.5t78.5 54.5t102 20q55 0 100.5 -20t78.5 -54.5t51 -80.5t18 -99t-18 -99.5t-51 -81t-78.5 -54.5t-100.5 -20t-100.5 20t-78.5 54.5t-51 81t-18 99.5zM158 245q0 -32 10 -60t28.5 -49
t44.5 -33t58 -12t58 12t44.5 33t28.5 49t10 60t-10 60t-28.5 49t-44.5 33t-58 12t-58 -12t-44.5 -33t-28.5 -49t-10 -60z" />
    <glyph glyph-name="OE" unicode="&#x152;" horiz-adv-x="1216" 
d="M56 367q0 78 28 146.5t77.5 120.5t117.5 82t147 30q62 0 122.5 -24.5t106.5 -67.5v81h485v-105h-375v-200h327v-100h-327v-225h390v-105h-500v80q-48 -44 -108 -67.5t-121 -23.5q-79 0 -147 30t-117.5 81.5t-77.5 120t-28 146.5zM175 367q0 -54 19 -102t53 -84.5
t80.5 -58t101.5 -21.5q75 0 133 39t88 102v250q-15 32 -37.5 58t-51 45t-62 29.5t-70.5 10.5q-55 0 -101.5 -22t-80.5 -59t-53 -85.5t-19 -101.5z" />
    <glyph glyph-name="oe" unicode="&#x153;" horiz-adv-x="977" 
d="M694 81q35 0 68.5 13.5t59.5 47.5l83 -50q-38 -52 -93 -77t-119 -25q-72 0 -122.5 28.5t-82.5 77.5q-30 -48 -78.5 -77t-111.5 -29q-54 0 -99.5 20t-78.5 54.5t-51 81t-18 99.5t18 99t50 80.5t78 54.5t101 20q62 0 110 -28.5t79 -75.5q28 45 75 74.5t116 29.5
q55 0 99 -20t75 -53.5t47.5 -78t16.5 -93.5q0 -14 -0.5 -23t-1.5 -20h-369q6 -57 44.5 -93.5t104.5 -36.5zM679 410q-57 0 -91.5 -35t-39.5 -86h259q-1 26 -11.5 48t-27.5 38t-39.5 25.5t-49.5 9.5zM158 245q0 -32 10 -60t28 -49t44 -33t58 -12t58 12t44.5 33t28.5 49t10 60
t-10 60t-28.5 49t-44.5 33t-58 12t-58 -12t-44 -33t-28 -49t-10 -60z" />
    <glyph glyph-name="Racute" unicode="&#x154;" horiz-adv-x="695" 
d="M349 977h131l-113 -157h-95zM614 514q0 -81 -47 -137t-129 -75l211 -302h-135l-201 292h-107v-292h-115v735h269q57 0 104 -15.5t80.5 -44.5t51.5 -70t18 -91zM206 632v-239h155q69 2 102.5 35t33.5 85q0 57 -36.5 88t-107.5 31h-147z" />
    <glyph glyph-name="racute" unicode="&#x155;" horiz-adv-x="458" 
d="M269 756h122l-107 -183h-86zM186 0h-106v492h51l36 -70q21 35 59 56t85 21q35 0 69.5 -12t63.5 -35l-53 -82q-21 15 -41.5 22.5t-44.5 7.5q-44 0 -77.5 -29t-41.5 -74v-297z" />
    <glyph glyph-name="uni0156" unicode="&#x156;" horiz-adv-x="695" 
d="M614 514q0 -81 -47 -137t-129 -75l211 -302h-135l-201 292h-107v-292h-115v735h269q57 0 104 -15.5t80.5 -44.5t51.5 -70t18 -91zM206 632v-239h155q69 2 102.5 35t33.5 85q0 57 -36.5 88t-107.5 31h-147zM418 -83l-74 -157h-87l40 157h121z" />
    <glyph glyph-name="uni0157" unicode="&#x157;" horiz-adv-x="458" 
d="M186 0h-106v492h51l36 -70q21 35 59 56t85 21q35 0 69.5 -12t63.5 -35l-53 -82q-21 15 -41.5 22.5t-44.5 7.5q-44 0 -77.5 -29t-41.5 -74v-297zM182 -83l-75 -163h-75l42 163h108z" />
    <glyph glyph-name="Rcaron" unicode="&#x158;" horiz-adv-x="695" 
d="M397 820h-143l-111 157h96l86 -85l86 85h96zM614 514q0 -81 -47 -137t-129 -75l211 -302h-135l-201 292h-107v-292h-115v735h269q57 0 104 -15.5t80.5 -44.5t51.5 -70t18 -91zM206 632v-239h155q69 2 102.5 35t33.5 85q0 57 -36.5 88t-107.5 31h-147z" />
    <glyph glyph-name="rcaron" unicode="&#x159;" horiz-adv-x="458" 
d="M203 573l-128 183h87l93 -97l93 97h87l-127 -183h-105zM186 0h-106v492h51l36 -70q21 35 59 56t85 21q35 0 69.5 -12t63.5 -35l-53 -82q-21 15 -41.5 22.5t-44.5 7.5q-44 0 -77.5 -29t-41.5 -74v-297z" />
    <glyph glyph-name="Sacute" unicode="&#x15a;" horiz-adv-x="627" 
d="M332 977h131l-113 -157h-95zM454 579q-29 30 -66.5 48t-82.5 18q-35 0 -59 -8.5t-38.5 -22.5t-21 -31.5t-6.5 -35.5q0 -34 25 -59.5t79 -39.5l91 -25q98 -28 149 -83t51 -134q0 -42 -17.5 -81.5t-51 -69.5t-83.5 -48t-115 -18q-34 0 -69.5 7.5t-69 22.5t-64 37t-54.5 51
l78 71q42 -46 87.5 -66t91.5 -20q38 0 66.5 9.5t47 25.5t27.5 36.5t9 42.5q0 45 -26.5 70.5t-89.5 45.5l-91 27q-94 29 -140.5 76t-46.5 123q0 38 16.5 73.5t47 63.5t75 44.5t101.5 16.5q58 0 117 -23t105 -71z" />
    <glyph glyph-name="sacute" unicode="&#x15b;" horiz-adv-x="468" 
d="M233 756h122l-107 -183h-86zM336 378q-46 34 -102 34q-33 0 -50.5 -16t-17.5 -41q0 -17 12.5 -31.5t42.5 -20.5l48 -11q82 -18 115 -57t33 -91q0 -32 -13 -60t-37.5 -49t-59 -33t-76.5 -12q-51 0 -99 18.5t-82 53.5l58 68q24 -26 56.5 -38.5t63.5 -12.5q42 0 61.5 20
t19.5 46q0 20 -15.5 36.5t-49.5 24.5l-55 13q-25 6 -49 16t-42 26.5t-29 39.5t-11 54q0 28 11.5 54t33 46t54 32t74.5 12q45 0 84.5 -12.5t74.5 -38.5z" />
    <glyph glyph-name="Scircumflex" unicode="&#x15c;" horiz-adv-x="627" 
d="M377 977l110 -157h-98l-85 83l-85 -83h-98l110 157h146zM454 579q-29 30 -66.5 48t-82.5 18q-35 0 -59 -8.5t-38.5 -22.5t-21 -31.5t-6.5 -35.5q0 -34 25 -59.5t79 -39.5l91 -25q98 -28 149 -83t51 -134q0 -42 -17.5 -81.5t-51 -69.5t-83.5 -48t-115 -18q-34 0 -69.5 7.5
t-69 22.5t-64 37t-54.5 51l78 71q42 -46 87.5 -66t91.5 -20q38 0 66.5 9.5t47 25.5t27.5 36.5t9 42.5q0 45 -26.5 70.5t-89.5 45.5l-91 27q-94 29 -140.5 76t-46.5 123q0 38 16.5 73.5t47 63.5t75 44.5t101.5 16.5q58 0 117 -23t105 -71z" />
    <glyph glyph-name="scircumflex" unicode="&#x15d;" horiz-adv-x="468" 
d="M179 756h104l128 -183h-87l-93 96l-93 -96h-87zM336 378q-46 34 -102 34q-33 0 -50.5 -16t-17.5 -41q0 -17 12.5 -31.5t42.5 -20.5l48 -11q82 -18 115 -57t33 -91q0 -32 -13 -60t-37.5 -49t-59 -33t-76.5 -12q-51 0 -99 18.5t-82 53.5l58 68q24 -26 56.5 -38.5
t63.5 -12.5q42 0 61.5 20t19.5 46q0 20 -15.5 36.5t-49.5 24.5l-55 13q-25 6 -49 16t-42 26.5t-29 39.5t-11 54q0 28 11.5 54t33 46t54 32t74.5 12q45 0 84.5 -12.5t74.5 -38.5z" />
    <glyph glyph-name="Scedilla" unicode="&#x15e;" horiz-adv-x="627" 
d="M278 -251q-17 0 -37.5 4t-30.5 9l23 78q10 -4 21.5 -6t19.5 -2q22 0 34.5 8t12.5 26t-18.5 28t-46.5 10l13 88q-60 7 -118.5 36t-99.5 79l78 71q42 -46 87.5 -66t91.5 -20q38 0 66.5 9.5t47 25.5t27.5 36.5t9 42.5q0 45 -26.5 70.5t-89.5 45.5l-91 27q-94 29 -140.5 76
t-46.5 123q0 38 16.5 73.5t47 63.5t75 44.5t101.5 16.5q58 0 117 -23t105 -71l-72 -73q-29 30 -66.5 48t-82.5 18q-35 0 -59 -8.5t-38.5 -22.5t-21 -31.5t-6.5 -35.5q0 -34 25 -59.5t79 -39.5l91 -25q98 -28 149 -83t51 -134q0 -39 -15 -76t-44.5 -66.5t-73 -49
t-100.5 -23.5l-4 -39q32 -6 57.5 -28.5t25.5 -64.5q0 -47 -37.5 -78.5t-105.5 -31.5z" />
    <glyph glyph-name="scedilla" unicode="&#x15f;" horiz-adv-x="468" 
d="M203 -239q-17 0 -36 4t-25 9l16 57q18 -8 41 -8t37.5 11t14.5 30q0 20 -19.5 30t-46.5 10l13 88q-43 5 -81.5 22.5t-66.5 47.5l58 68q24 -26 56.5 -38.5t63.5 -12.5q42 0 61.5 20t19.5 46q0 20 -15.5 36.5t-49.5 24.5l-55 13q-25 6 -49 16t-42 26.5t-29 39.5t-11 54
q0 28 11.5 54t33 46t54 32t74.5 12q45 0 84.5 -12.5t74.5 -38.5l-54 -70q-46 34 -102 34q-33 0 -50.5 -16t-17.5 -41q0 -17 12.5 -31.5t42.5 -20.5l48 -11q82 -18 115 -57t33 -91q0 -60 -43 -103t-117 -50l-5 -39q16 -3 31 -9.5t27 -17t19 -25.5t7 -34q0 -46 -36.5 -75.5
t-96.5 -29.5z" />
    <glyph glyph-name="Scaron" unicode="&#x160;" horiz-adv-x="627" 
d="M377 820h-143l-111 157h96l86 -85l86 85h96zM454 579q-29 30 -66.5 48t-82.5 18q-35 0 -59 -8.5t-38.5 -22.5t-21 -31.5t-6.5 -35.5q0 -34 25 -59.5t79 -39.5l91 -25q98 -28 149 -83t51 -134q0 -42 -17.5 -81.5t-51 -69.5t-83.5 -48t-115 -18q-34 0 -69.5 7.5t-69 22.5
t-64 37t-54.5 51l78 71q42 -46 87.5 -66t91.5 -20q38 0 66.5 9.5t47 25.5t27.5 36.5t9 42.5q0 45 -26.5 70.5t-89.5 45.5l-91 27q-94 29 -140.5 76t-46.5 123q0 38 16.5 73.5t47 63.5t75 44.5t101.5 16.5q58 0 117 -23t105 -71z" />
    <glyph glyph-name="scaron" unicode="&#x161;" horiz-adv-x="468" 
d="M180 573l-128 183h87l93 -97l93 97h87l-127 -183h-105zM336 378q-46 34 -102 34q-33 0 -50.5 -16t-17.5 -41q0 -17 12.5 -31.5t42.5 -20.5l48 -11q82 -18 115 -57t33 -91q0 -32 -13 -60t-37.5 -49t-59 -33t-76.5 -12q-51 0 -99 18.5t-82 53.5l58 68q24 -26 56.5 -38.5
t63.5 -12.5q42 0 61.5 20t19.5 46q0 20 -15.5 36.5t-49.5 24.5l-55 13q-25 6 -49 16t-42 26.5t-29 39.5t-11 54q0 28 11.5 54t33 46t54 32t74.5 12q45 0 84.5 -12.5t74.5 -38.5z" />
    <glyph glyph-name="uni0162" unicode="&#x162;" horiz-adv-x="630" 
d="M21 735h588v-107h-236v-628h-116v628h-236v107zM376 -83l-74 -157h-87l40 157h121z" />
    <glyph glyph-name="uni0163" unicode="&#x163;" horiz-adv-x="406" 
d="M26 490h89l19 146l83 -2v-144h135v-90h-135v-234q0 -39 18 -57t44 -18h72l4 -90q-41 -7 -85 -7q-40 0 -69.5 13t-49.5 35.5t-30 52.5t-10 65v240h-85v90zM286 -83l-75 -163h-75l42 163h108z" />
    <glyph glyph-name="Tcaron" unicode="&#x164;" horiz-adv-x="630" 
d="M387 820h-143l-111 157h96l86 -85l86 85h96zM21 735h588v-107h-236v-628h-116v628h-236v107z" />
    <glyph glyph-name="tcaron" unicode="&#x165;" horiz-adv-x="396" 
d="M411 738l-51 -184h-70l22 184h99zM26 490h89l19 146l83 -2v-144h135v-90h-135v-234q0 -39 18 -57t44 -18h72l4 -90q-41 -7 -85 -7q-40 0 -69.5 13t-49.5 35.5t-30 52.5t-10 65v240h-85v90z" />
    <glyph glyph-name="Tbar" unicode="&#x166;" horiz-adv-x="650" 
d="M31 735h588v-107h-236v-211h137v-89h-137v-328h-116v328h-138v89h138v211h-236v107z" />
    <glyph glyph-name="tbar" unicode="&#x167;" horiz-adv-x="406" 
d="M26 300h85v102h-85v88h89l19 146l83 -2v-144h135v-88h-135v-102h135v-79h-135v-57q0 -38 18 -56.5t44 -18.5h72l4 -88q-41 -7 -85 -7q-40 0 -69.5 13t-49.5 35.5t-30 52.5t-10 65v61h-85v79z" />
    <glyph glyph-name="Utilde" unicode="&#x168;" horiz-adv-x="745" 
d="M150 853q11 53 46.5 84t89.5 31q23 0 44.5 -7.5t41.5 -17t40 -17t41 -7.5q29 0 43 17.5t16 33.5l82 -22q-10 -48 -45 -83t-92 -35q-24 0 -47 7.5t-44 17t-39.5 17t-35.5 7.5q-51 0 -59 -49zM81 735h115v-456q0 -37 13.5 -69t37 -56t56 -37.5t69.5 -13.5q38 0 70 13.5
t55.5 37.5t37 56t13.5 69v456h115v-456q0 -59 -22 -111.5t-60.5 -92.5t-92 -63t-116.5 -23q-64 0 -117.5 23t-92 63t-60 92.5t-21.5 111.5v456z" />
    <glyph glyph-name="utilde" unicode="&#x169;" horiz-adv-x="593" 
d="M89 619q11 54 44.5 84.5t82.5 30.5q22 0 42.5 -7.5t39.5 -16.5t35.5 -16.5t30.5 -7.5q25 0 36.5 17t13.5 31l82 -20q-4 -23 -13.5 -44t-24.5 -37t-35 -25.5t-46 -9.5q-21 0 -42.5 7.5t-41.5 16.5t-38.5 16.5t-33.5 7.5q-21 0 -33 -13t-17 -35zM407 490h107v-490h-68
l-21 62q-23 -31 -62 -51.5t-86 -20.5q-104 0 -155.5 61.5t-51.5 163.5v275h106v-271q0 -63 26.5 -96t88.5 -33q53 0 85.5 32t30.5 92v276z" />
    <glyph glyph-name="Umacron" unicode="&#x16a;" horiz-adv-x="745" 
d="M163 942h418v-91h-418v91zM81 735h115v-456q0 -37 13.5 -69t37 -56t56 -37.5t69.5 -13.5q38 0 70 13.5t55.5 37.5t37 56t13.5 69v456h115v-456q0 -59 -22 -111.5t-60.5 -92.5t-92 -63t-116.5 -23q-64 0 -117.5 23t-92 63t-60 92.5t-21.5 111.5v456z" />
    <glyph glyph-name="umacron" unicode="&#x16b;" horiz-adv-x="593" 
d="M97 704h390v-84h-390v84zM407 490h107v-490h-68l-21 62q-23 -31 -62 -51.5t-86 -20.5q-104 0 -155.5 61.5t-51.5 163.5v275h106v-271q0 -63 26.5 -96t88.5 -33q53 0 85.5 32t30.5 92v276z" />
    <glyph glyph-name="Ubreve" unicode="&#x16c;" horiz-adv-x="745" 
d="M297 977q0 -31 21 -52t54 -21q32 0 53.5 21t21.5 52h93q0 -35 -12.5 -64.5t-35 -51.5t-53.5 -34t-67 -12t-67 12t-53.5 34t-35.5 51.5t-13 64.5h94zM81 735h115v-456q0 -37 13.5 -69t37 -56t56 -37.5t69.5 -13.5q38 0 70 13.5t55.5 37.5t37 56t13.5 69v456h115v-456
q0 -59 -22 -111.5t-60.5 -92.5t-92 -63t-116.5 -23q-64 0 -117.5 23t-92 63t-60 92.5t-21.5 111.5v456z" />
    <glyph glyph-name="ubreve" unicode="&#x16d;" horiz-adv-x="593" 
d="M208 756q0 -44 22 -70.5t62 -26.5q39 0 61 26.5t22 70.5h90q0 -39 -13 -72t-36 -57.5t-54.5 -38t-69.5 -13.5t-70 13.5t-55 38t-36 57.5t-13 72h90zM407 490h107v-490h-68l-21 62q-23 -31 -62 -51.5t-86 -20.5q-104 0 -155.5 61.5t-51.5 163.5v275h106v-271
q0 -63 26.5 -96t88.5 -33q53 0 85.5 32t30.5 92v276z" />
    <glyph glyph-name="Uring" unicode="&#x16e;" horiz-adv-x="745" 
d="M266 919q0 22 8 41.5t22.5 34t34 23t41.5 8.5t41.5 -8.5t34 -23t23 -34t8.5 -41.5t-8.5 -41.5t-23 -34t-34 -22.5t-41.5 -8t-41.5 8t-34 22.5t-22.5 34t-8 41.5zM339 919q0 -14 9.5 -24t23.5 -10t24 10t10 24t-10 24t-24 10t-23.5 -10t-9.5 -24zM81 735h115v-456
q0 -37 13.5 -69t37 -56t56 -37.5t69.5 -13.5q38 0 70 13.5t55.5 37.5t37 56t13.5 69v456h115v-456q0 -59 -22 -111.5t-60.5 -92.5t-92 -63t-116.5 -23q-64 0 -117.5 23t-92 63t-60 92.5t-21.5 111.5v456z" />
    <glyph glyph-name="uring" unicode="&#x16f;" horiz-adv-x="593" 
d="M190 670q0 22 8 40.5t22 32t32.5 21.5t39.5 8t40.5 -8t33.5 -21.5t22.5 -32t8.5 -40.5q0 -21 -8.5 -39.5t-22.5 -32.5t-33.5 -22t-40.5 -8t-39.5 8t-32.5 22t-22 32.5t-8 39.5zM256 670q0 -15 11 -26t26 -11q16 0 26.5 11t10.5 26q0 16 -10.5 27t-26.5 11q-15 0 -26 -11
t-11 -27zM407 490h107v-490h-68l-21 62q-23 -31 -62 -51.5t-86 -20.5q-104 0 -155.5 61.5t-51.5 163.5v275h106v-271q0 -63 26.5 -96t88.5 -33q53 0 85.5 32t30.5 92v276z" />
    <glyph glyph-name="Uhungarumlaut" unicode="&#x170;" horiz-adv-x="745" 
d="M494 977h128l-109 -157h-95zM286 977h128l-107 -157h-94zM81 735h115v-456q0 -37 13.5 -69t37 -56t56 -37.5t69.5 -13.5q38 0 70 13.5t55.5 37.5t37 56t13.5 69v456h115v-456q0 -59 -22 -111.5t-60.5 -92.5t-92 -63t-116.5 -23q-64 0 -117.5 23t-92 63t-60 92.5
t-21.5 111.5v456z" />
    <glyph glyph-name="uhungarumlaut" unicode="&#x171;" horiz-adv-x="593" 
d="M214 756h120l-116 -183h-86zM415 756h121l-119 -183h-86zM407 490h107v-490h-68l-21 62q-23 -31 -62 -51.5t-86 -20.5q-104 0 -155.5 61.5t-51.5 163.5v275h106v-271q0 -63 26.5 -96t88.5 -33q53 0 85.5 32t30.5 92v276z" />
    <glyph glyph-name="Uogonek" unicode="&#x172;" horiz-adv-x="745" 
d="M81 735h115v-456q0 -37 13.5 -69t37 -56t56 -37.5t69.5 -13.5q38 0 70 13.5t55.5 37.5t37 56t13.5 69v456h115v-456q0 -61 -23.5 -114t-68.5 -106q-18 -21 -36 -41t-33 -39.5t-24 -39.5t-9 -41q0 -20 12.5 -38t38.5 -18q7 0 15 1t14 3l25 -84q-14 -6 -30.5 -10.5
t-39.5 -4.5q-27 0 -51 11.5t-42 30.5t-28.5 44t-10.5 52q0 31 10.5 57t27.5 50q-18 -3 -38 -3q-64 0 -117.5 23t-92 63t-60 92.5t-21.5 111.5v456z" />
    <glyph glyph-name="uogonek" unicode="&#x173;" horiz-adv-x="593" 
d="M414 -108q0 -20 12 -35t36 -15q8 0 14.5 1t11.5 3l26 -81q-14 -6 -31.5 -10.5t-38.5 -4.5q-52 0 -87 34t-35 90q0 26 9 49.5t25 43t36.5 35.5t43.5 28l-11 32q-23 -31 -62 -51.5t-86 -20.5q-104 0 -155.5 61.5t-51.5 163.5v275h106v-271q0 -63 26 -96t89 -33
q35 0 57.5 11.5t35.5 33.5t18 54t5 72v229h107v-490q-45 -19 -72.5 -47.5t-27.5 -60.5z" />
    <glyph glyph-name="Wcircumflex" unicode="&#x174;" horiz-adv-x="1033" 
d="M590 977l110 -157h-98l-85 83l-85 -83h-98l110 157h146zM881 735h121l-219 -735h-91l-176 428l-176 -428h-89l-220 735h121l155 -535l187 467h45l188 -468z" />
    <glyph glyph-name="wcircumflex" unicode="&#x175;" horiz-adv-x="841" 
d="M368 756h104l128 -183h-87l-93 96l-93 -96h-87zM21 490h112l125 -332l125 319h77l124 -319l126 332h109l-196 -490h-76l-127 312l-127 -312h-76z" />
    <glyph glyph-name="Ycircumflex" unicode="&#x176;" horiz-adv-x="687" 
d="M417 977l110 -157h-98l-85 83l-85 -83h-98l110 157h146zM401 0h-115v319l-265 416h136l186 -300l186 300h136l-264 -415v-320z" />
    <glyph glyph-name="ycircumflex" unicode="&#x177;" horiz-adv-x="541" 
d="M219 756h104l128 -183h-87l-93 96l-93 -96h-87zM274 -123q-25 -62 -69.5 -94t-110.5 -32q-14 0 -29 1.5t-27 3.5l7 88h45q32 0 52.5 13.5t32.5 41.5l42 102l-196 489h112l137 -356l138 356h112z" />
    <glyph glyph-name="Ydieresis" unicode="&#x178;" horiz-adv-x="687" 
d="M157 903q0 29 20 49.5t49 20.5t49 -20.5t20 -49.5t-20 -48.5t-49 -19.5t-49 19.5t-20 48.5zM392 903q0 29 20 49.5t49 20.5t49.5 -20.5t20.5 -49.5t-20.5 -48.5t-49.5 -19.5t-49 19.5t-20 48.5zM401 0h-115v319l-265 416h136l186 -300l186 300h136l-264 -415v-320z" />
    <glyph glyph-name="Zacute" unicode="&#x179;" horiz-adv-x="704" 
d="M374 977h131l-113 -157h-95zM69 735h563v-88l-425 -543h446v-104h-602v87l424 544h-406v104z" />
    <glyph glyph-name="zacute" unicode="&#x17a;" horiz-adv-x="519" 
d="M265 756h122l-107 -183h-86zM53 490h415v-64l-273 -335h283v-91h-437v64l273 335h-261v91z" />
    <glyph glyph-name="Zdotaccent" unicode="&#x17b;" horiz-adv-x="704" 
d="M275 907q0 30 21 51.5t51 21.5q31 0 52.5 -21.5t21.5 -51.5t-21.5 -51t-52.5 -21q-30 0 -51 21t-21 51zM69 735h563v-88l-425 -543h446v-104h-602v87l424 544h-406v104z" />
    <glyph glyph-name="zdotaccent" unicode="&#x17c;" horiz-adv-x="519" 
d="M191 658q0 29 20.5 50t49.5 21t50 -21t21 -50t-21 -49.5t-50 -20.5t-49.5 20.5t-20.5 49.5zM53 490h415v-64l-273 -335h283v-91h-437v64l273 335h-261v91z" />
    <glyph glyph-name="Zcaron" unicode="&#x17d;" horiz-adv-x="704" 
d="M420 820h-143l-111 157h96l86 -85l86 85h96zM69 735h563v-88l-425 -543h446v-104h-602v87l424 544h-406v104z" />
    <glyph glyph-name="zcaron" unicode="&#x17e;" horiz-adv-x="519" 
d="M208 573l-128 183h87l93 -97l93 97h87l-127 -183h-105zM53 490h415v-64l-273 -335h283v-91h-437v64l273 335h-261v91z" />
    <glyph glyph-name="florin" unicode="&#x192;" horiz-adv-x="628" 
d="M299 -51q-4 -39 -18.5 -74t-40 -62t-63 -42.5t-88.5 -15.5q-17 0 -36.5 3.5t-31.5 8.5l17 92q24 -7 52 -7q42 0 68.5 27t31.5 74l43 357h-88v86h99l19 160q13 103 71 152t142 49q26 0 53.5 -6t47.5 -15l-25 -89q-17 6 -34 9.5t-37 3.5q-51 0 -77.5 -29t-31.5 -74
l-20 -161h148v-86h-158z" />
    <glyph glyph-name="uni0218" unicode="&#x218;" horiz-adv-x="627" 
d="M454 579q-29 30 -66.5 48t-82.5 18q-35 0 -59 -8.5t-38.5 -22.5t-21 -31.5t-6.5 -35.5q0 -34 25 -59.5t79 -39.5l91 -25q98 -28 149 -83t51 -134q0 -42 -17.5 -81.5t-51 -69.5t-83.5 -48t-115 -18q-34 0 -69.5 7.5t-69 22.5t-64 37t-54.5 51l78 71q42 -46 87.5 -66
t91.5 -20q38 0 66.5 9.5t47 25.5t27.5 36.5t9 42.5q0 45 -26.5 70.5t-89.5 45.5l-91 27q-94 29 -140.5 76t-46.5 123q0 38 16.5 73.5t47 63.5t75 44.5t101.5 16.5q58 0 117 -23t105 -71zM372 -83l-74 -157h-87l40 157h121z" />
    <glyph glyph-name="uni0219" unicode="&#x219;" horiz-adv-x="468" 
d="M336 378q-46 34 -102 34q-33 0 -50.5 -16t-17.5 -41q0 -17 12.5 -31.5t42.5 -20.5l48 -11q82 -18 115 -57t33 -91q0 -32 -13 -60t-37.5 -49t-59 -33t-76.5 -12q-51 0 -99 18.5t-82 53.5l58 68q24 -26 56.5 -38.5t63.5 -12.5q42 0 61.5 20t19.5 46q0 20 -15.5 36.5
t-49.5 24.5l-55 13q-25 6 -49 16t-42 26.5t-29 39.5t-11 54q0 28 11.5 54t33 46t54 32t74.5 12q45 0 84.5 -12.5t74.5 -38.5zM288 -83l-75 -163h-75l42 163h108z" />
    <glyph glyph-name="uni021A" unicode="&#x21a;" horiz-adv-x="630" 
d="M21 735h588v-107h-236v-628h-116v628h-236v107zM376 -83l-74 -157h-87l40 157h121z" />
    <glyph glyph-name="uni021B" unicode="&#x21b;" horiz-adv-x="406" 
d="M26 490h89l19 146l83 -2v-144h135v-90h-135v-234q0 -39 18 -57t44 -18h72l4 -90q-41 -7 -85 -7q-40 0 -69.5 13t-49.5 35.5t-30 52.5t-10 65v240h-85v90zM286 -83l-75 -163h-75l42 163h108z" />
    <glyph glyph-name="uni0237" unicode="&#x237;" horiz-adv-x="292" 
d="M105 490h107v-541q0 -45 -14 -81.5t-39 -63t-60.5 -40.5t-78.5 -14q-28 0 -56 7l8 89h45q38 0 63 24.5t25 79.5v540z" />
    <glyph glyph-name="circumflex" unicode="&#x2c6;" horiz-adv-x="400" 
d="M252 756l128 -183h-87l-93 96l-93 -96h-87l128 183h104z" />
    <glyph glyph-name="caron" unicode="&#x2c7;" horiz-adv-x="400" 
d="M148 573l-128 183h87l93 -97l93 97h87l-127 -183h-105z" />
    <glyph glyph-name="breve" unicode="&#x2d8;" horiz-adv-x="385" 
d="M109 756q0 -44 22 -70.5t62 -26.5q39 0 61 26.5t22 70.5h90q0 -39 -13 -72t-36 -57.5t-54.5 -38t-69.5 -13.5t-70 13.5t-55 38t-36 57.5t-13 72h90z" />
    <glyph glyph-name="dotaccent" unicode="&#x2d9;" horiz-adv-x="180" 
d="M19 658q0 29 20.5 50t49.5 21t50 -21t21 -50t-21 -49.5t-50 -20.5t-49.5 20.5t-20.5 49.5z" />
    <glyph glyph-name="ring" unicode="&#x2da;" horiz-adv-x="257" 
d="M25 670q0 22 8 40.5t22 32t32.5 21.5t39.5 8t40.5 -8t33.5 -21.5t22.5 -32t8.5 -40.5q0 -21 -8.5 -39.5t-22.5 -32.5t-33.5 -22t-40.5 -8t-39.5 8t-32.5 22t-22 32.5t-8 39.5zM91 670q0 -15 11 -26t26 -11q16 0 26.5 11t10.5 26q0 16 -10.5 27t-26.5 11q-15 0 -26 -11
t-11 -27z" />
    <glyph glyph-name="ogonek" unicode="&#x2db;" horiz-adv-x="301" 
d="M124 -108q0 -20 12.5 -35t36.5 -15q7 0 14 1t12 3l25 -81q-14 -6 -31 -10.5t-38 -4.5q-53 0 -88 34t-35 90q0 28 11 53.5t29.5 46.5t42.5 37.5t50 26.5l59 -38q-45 -19 -72.5 -47.5t-27.5 -60.5z" />
    <glyph glyph-name="tilde" unicode="&#x2dc;" horiz-adv-x="457" 
d="M25 619q11 54 44.5 84.5t82.5 30.5q22 0 42.5 -7.5t39.5 -16.5t35.5 -16.5t30.5 -7.5q25 0 36.5 17t13.5 31l82 -20q-4 -23 -13.5 -44t-24.5 -37t-35 -25.5t-46 -9.5q-21 0 -42.5 7.5t-41.5 16.5t-38.5 16.5t-33.5 7.5q-21 0 -33 -13t-17 -35z" />
    <glyph glyph-name="hungarumlaut" unicode="&#x2dd;" horiz-adv-x="454" 
d="M227 756l-116 -183h-86l82 183h120zM429 756l-119 -183h-86l84 183h121z" />
    <glyph glyph-name="uni0394" unicode="&#x394;" horiz-adv-x="753" 
d="M61 0v82l273 653h84l273 -653v-82h-630zM192 103h371l-187 454z" />
    <glyph glyph-name="uni03A9" unicode="&#x3a9;" horiz-adv-x="906" 
d="M61 104h128q-55 49 -86.5 117.5t-31.5 149.5q0 76 29 144t80 119.5t121 81.5t152 30t152 -30t121 -81.5t80 -119.5t29 -144q0 -81 -31.5 -149.5t-86.5 -117.5h128v-104h-320v98q43 12 78.5 37.5t61 61.5t39.5 79.5t14 89.5q0 54 -20 103t-55.5 86t-84 59t-105.5 22
t-106 -22t-84 -59t-55 -86t-20 -103q0 -46 14 -89.5t39 -79t60 -61.5t78 -38v-98h-318v104z" />
    <glyph glyph-name="uni03BC" unicode="&#x3bc;" horiz-adv-x="596" 
d="M410 490h107v-490h-68l-21 62q-23 -32 -61 -52t-83 -20q-33 0 -60 8.5t-49 24.5v-267h-104v734h107v-271q0 -63 26.5 -96t88.5 -33q53 0 85 32t32 92v276z" />
    <glyph glyph-name="pi" unicode="&#x3c0;" horiz-adv-x="672" 
d="M51 490h569v-91h-79v-399h-104v399h-203v-399h-103v399h-80v91z" />
    <glyph glyph-name="Wgrave" unicode="&#x1e80;" horiz-adv-x="1033" 
d="M491 977l72 -157h-94l-109 157h131zM881 735h121l-219 -735h-91l-176 428l-176 -428h-89l-220 735h121l155 -535l187 467h45l188 -468z" />
    <glyph glyph-name="wgrave" unicode="&#x1e81;" horiz-adv-x="841" 
d="M404 756l63 -183h-86l-99 183h122zM21 490h112l125 -332l125 319h77l124 -319l126 332h109l-196 -490h-76l-127 312l-127 -312h-76z" />
    <glyph glyph-name="Wacute" unicode="&#x1e82;" horiz-adv-x="1033" 
d="M548 977h131l-113 -157h-95zM881 735h121l-219 -735h-91l-176 428l-176 -428h-89l-220 735h121l155 -535l187 467h45l188 -468z" />
    <glyph glyph-name="wacute" unicode="&#x1e83;" horiz-adv-x="841" 
d="M443 756h122l-107 -183h-86zM21 490h112l125 -332l125 319h77l124 -319l126 332h109l-196 -490h-76l-127 312l-127 -312h-76z" />
    <glyph glyph-name="Wdieresis" unicode="&#x1e84;" horiz-adv-x="1033" 
d="M329 903q0 29 20 49.5t49 20.5t49 -20.5t20 -49.5t-20 -48.5t-49 -19.5t-49 19.5t-20 48.5zM564 903q0 29 20 49.5t49 20.5t49.5 -20.5t20.5 -49.5t-20.5 -48.5t-49.5 -19.5t-49 19.5t-20 48.5zM881 735h121l-219 -735h-91l-176 428l-176 -428h-89l-220 735h121l155 -535
l187 467h45l188 -468z" />
    <glyph glyph-name="wdieresis" unicode="&#x1e85;" horiz-adv-x="841" 
d="M238 658q0 29 20.5 50t49.5 21t50 -21t21 -50t-21 -49.5t-50 -20.5t-49.5 20.5t-20.5 49.5zM462 658q0 29 20.5 50t49.5 21t49.5 -21t20.5 -50t-20.5 -49.5t-49.5 -20.5t-49.5 20.5t-20.5 49.5zM21 490h112l125 -332l125 319h77l124 -319l126 332h109l-196 -490h-76
l-127 312l-127 -312h-76z" />
    <glyph glyph-name="Germandbls" unicode="&#x1e9e;" horiz-adv-x="770" 
d="M81 514q0 47 16 87.5t46 70t72.5 46.5t94.5 17h293v-84l-94 -159q42 -3 81.5 -22.5t70 -52t49.5 -77t19 -96.5q0 -53 -20 -99.5t-55.5 -81t-84 -54.5t-105.5 -20q-60 0 -111 21.5t-93 60.5l69 76q31 -30 62 -43t73 -13q29 0 56 11t48 31t33.5 48t12.5 63t-12 64t-33.5 49
t-51 31t-64.5 11h-102v35l119 197h-147q-66 0 -96.5 -33.5t-30.5 -96.5v-501h-115v514z" />
    <glyph glyph-name="Ygrave" unicode="&#x1ef2;" horiz-adv-x="687" 
d="M322 977l72 -157h-94l-109 157h131zM401 0h-115v319l-265 416h136l186 -300l186 300h136l-264 -415v-320z" />
    <glyph glyph-name="ygrave" unicode="&#x1ef3;" horiz-adv-x="541" 
d="M272 756l63 -183h-86l-99 183h122zM274 -123q-25 -62 -69.5 -94t-110.5 -32q-14 0 -29 1.5t-27 3.5l7 88h45q32 0 52.5 13.5t32.5 41.5l42 102l-196 489h112l137 -356l138 356h112z" />
    <glyph glyph-name="endash" unicode="&#x2013;" horiz-adv-x="574" 
d="M61 315h451v-99h-451v99z" />
    <glyph glyph-name="emdash" unicode="&#x2014;" horiz-adv-x="931" 
d="M81 315h769v-99h-769v99z" />
    <glyph glyph-name="quoteleft" unicode="&#x2018;" horiz-adv-x="283" 
d="M172 735l31 -231h-74l-58 231h101z" />
    <glyph glyph-name="quoteright" unicode="&#x2019;" horiz-adv-x="284" 
d="M203 735l-58 -231h-74l31 231h101z" />
    <glyph glyph-name="quotesinglbase" unicode="&#x201a;" horiz-adv-x="260" 
d="M180 111l-17 -231h-66l-17 231h100z" />
    <glyph glyph-name="quotedblleft" unicode="&#x201c;" horiz-adv-x="452" 
d="M180 735l32 -231h-74l-58 231h100zM349 735l31 -231h-73l-59 231h101z" />
    <glyph glyph-name="quotedblright" unicode="&#x201d;" horiz-adv-x="452" 
d="M203 735l-58 -231h-74l31 231h101zM372 735l-58 -231h-74l31 231h101z" />
    <glyph glyph-name="quotedblbase" unicode="&#x201e;" horiz-adv-x="452" 
d="M203 111l-58 -231h-74l31 231h101zM372 111l-58 -231h-74l31 231h101z" />
    <glyph glyph-name="dagger" unicode="&#x2020;" horiz-adv-x="431" 
d="M41 479h119v256h111v-256h119v-96h-119v-526h-111v526h-119v96z" />
    <glyph glyph-name="daggerdbl" unicode="&#x2021;" horiz-adv-x="431" 
d="M41 482h119v253h111v-253h119v-92h-119v-112h119v-92h-119v-329h-111v329h-119v92h119v112h-119v92z" />
    <glyph glyph-name="bullet" unicode="&#x2022;" horiz-adv-x="442" 
d="M81 325q0 29 11 54.5t30 44.5t44.5 30t54.5 11t54.5 -11t44.5 -30t30 -44.5t11 -54.5t-11 -54.5t-30 -44.5t-44.5 -30t-54.5 -11t-54.5 11t-44.5 30t-30 44.5t-11 54.5z" />
    <glyph glyph-name="ellipsis" unicode="&#x2026;" horiz-adv-x="889" 
d="M96 62q0 32 21.5 54t53.5 22t54 -22t22 -54q0 -31 -22 -52.5t-54 -21.5t-53.5 21.5t-21.5 52.5zM642 62q0 32 21.5 54t52.5 22q32 0 54 -22t22 -54q0 -31 -22 -52.5t-54 -21.5q-31 0 -52.5 21.5t-21.5 52.5zM369 62q0 32 21.5 54t53.5 22t54 -22t22 -54q0 -31 -22 -52.5
t-54 -21.5t-53.5 21.5t-21.5 52.5z" />
    <glyph glyph-name="perthousand" unicode="&#x2030;" horiz-adv-x="1297" 
d="M91 567q0 37 12.5 69.5t35 56.5t54 38t70.5 14q38 0 70 -14t54.5 -38t35 -56.5t12.5 -69.5t-12.5 -69.5t-35 -56.5t-54.5 -38t-70 -14t-70 14t-54.5 38t-35 56.5t-12.5 69.5zM666 735h121l-508 -735h-120zM180 567q0 -39 22.5 -66t60.5 -27t61 27t23 66q0 38 -23 65
t-61 27t-60.5 -27t-22.5 -65zM515 169q0 37 12 69.5t34.5 56.5t54 38t70.5 14q38 0 70 -14t55 -38t35.5 -56.5t12.5 -69.5t-12.5 -69.5t-35.5 -56.5t-55 -38t-70 -14t-69.5 14t-54 38t-35 56.5t-12.5 69.5zM901 169q0 37 12.5 69.5t35 56.5t54 38t70.5 14q38 0 70 -14
t54.5 -38t35 -56.5t12.5 -69.5t-12.5 -69.5t-35 -56.5t-54.5 -38t-70 -14t-70 14t-54.5 38t-35 56.5t-12.5 69.5zM602 169q0 -39 23 -66t61 -27t61 27t23 66q0 38 -23 65t-61 27t-61 -27t-23 -65zM989 169q0 -39 23 -66t61 -27t61 27t23 66q0 38 -23 65t-61 27t-61 -27
t-23 -65z" />
    <glyph glyph-name="guilsinglleft" unicode="&#x2039;" horiz-adv-x="466" 
d="M187 275l208 -215h-144l-210 215l208 214h146z" />
    <glyph glyph-name="guilsinglright" unicode="&#x203a;" horiz-adv-x="466" 
d="M71 489h146l208 -214l-209 -215h-145l209 215z" />
    <glyph glyph-name="fraction" unicode="&#x2044;" horiz-adv-x="170" 
d="M260 735h113l-464 -735h-112z" />
    <glyph glyph-name="uni2070" unicode="&#x2070;" horiz-adv-x="395" 
d="M35 680q0 44 9.5 82.5t29.5 67t50.5 45t73.5 16.5q42 0 73 -16.5t50.5 -45t29 -67t9.5 -82.5t-9.5 -82.5t-29 -67t-50.5 -45t-73 -16.5q-43 0 -73.5 16.5t-50.5 45t-29.5 67t-9.5 82.5zM117 680q0 -27 4 -51.5t13 -42.5t24.5 -29t39.5 -11q31 0 48.5 18.5t24.5 48.5t7 67
q0 36 -7 66.5t-24.5 49t-48.5 18.5q-24 0 -39.5 -11t-24.5 -29t-13 -42.5t-4 -51.5z" />
    <glyph glyph-name="uni2074" unicode="&#x2074;" horiz-adv-x="360" 
d="M14 611l205 274h62v-263h67v-68h-67v-79h-74v79h-188zM109 622h98v132z" />
    <glyph glyph-name="uni2075" unicode="&#x2075;" horiz-adv-x="370" 
d="M71 885h233v-68h-162l-5 -70q21 8 44 8q32 0 59.5 -10.5t48 -29.5t32.5 -45t12 -56t-11.5 -56.5t-32 -46t-49 -31t-63.5 -11.5q-50 0 -88 22.5t-57 59.5l74 30q10 -20 29 -29.5t39 -9.5q29 0 51.5 19.5t22.5 53.5t-22.5 54t-51.5 20q-19 0 -32.5 -5.5t-24.5 -15.5h-62z
" />
    <glyph glyph-name="uni2076" unicode="&#x2076;" horiz-adv-x="373" 
d="M175 745q9 3 26 3q26 0 50 -10t43 -28.5t30 -43.5t11 -55t-11.5 -56t-31.5 -45.5t-47.5 -30.5t-59.5 -11q-33 0 -61 10.5t-48.5 29.5t-32 45t-11.5 57q0 28 9.5 54.5t25.5 51.5l109 169h94zM113 610q0 -29 20.5 -49t49.5 -20q30 0 50 20.5t20 50.5q0 32 -20 52t-51 20
q-11 0 -20 -2t-16 -4q-15 -7 -24 -26.5t-9 -41.5z" />
    <glyph glyph-name="uni2077" unicode="&#x2077;" horiz-adv-x="331" 
d="M24 885h281v-50l-177 -360h-88l166 336h-182v74z" />
    <glyph glyph-name="uni2078" unicode="&#x2078;" horiz-adv-x="386" 
d="M329 778q0 -26 -11.5 -47t-31.5 -35q26 -15 44.5 -40.5t18.5 -59.5q0 -27 -11.5 -50t-32 -40t-49 -27t-63.5 -10t-63.5 10t-49 27.5t-31.5 40.5t-11 49q0 34 17.5 59.5t43.5 40.5q-20 14 -31.5 35t-11.5 47q0 25 10.5 45.5t29.5 35.5t44 23.5t53 8.5q29 0 53.5 -8t43 -23
t29 -36t10.5 -46zM193 824q-25 0 -41 -13t-16 -36q0 -21 15.5 -35t41.5 -14t41.5 14t15.5 35q0 23 -16.5 36t-40.5 13zM264 601q0 26 -19.5 44.5t-51.5 18.5t-52 -18.5t-20 -44.5t20 -44t52 -18t51.5 18t19.5 44z" />
    <glyph glyph-name="uni2079" unicode="&#x2079;" horiz-adv-x="373" 
d="M198 616q-5 -2 -11.5 -3t-14.5 -1q-26 0 -50.5 10.5t-43 28.5t-29.5 43t-11 55t11.5 56t32 45t48.5 30t60 11t60 -10.5t48 -29t31.5 -44.5t11.5 -57q0 -28 -9.5 -54.5t-25.5 -52.5l-110 -168h-94zM260 750q0 29 -20.5 49t-49.5 20q-30 0 -50 -20t-20 -51q0 -32 20 -52
t51 -20q15 0 27.5 3.5t18.5 7.5q10 11 16.5 27t6.5 36z" />
    <glyph glyph-name="uni2080" unicode="&#x2080;" horiz-adv-x="395" 
d="M35 49q0 44 9.5 82.5t29.5 67t50.5 45t73.5 16.5q42 0 73 -16.5t50.5 -45t29 -67t9.5 -82.5t-9.5 -82.5t-29 -67t-50.5 -45t-73 -16.5q-43 0 -73.5 16.5t-50.5 45t-29.5 67t-9.5 82.5zM117 49q0 -27 4 -51.5t13 -42.5t24.5 -29t39.5 -11q31 0 48.5 18.5t24.5 48.5t7 67
q0 36 -7 66.5t-24.5 49t-48.5 18.5q-24 0 -39.5 -11t-24.5 -29t-13 -42.5t-4 -51.5z" />
    <glyph glyph-name="uni2081" unicode="&#x2081;" horiz-adv-x="256" 
d="M108 -156v308l-54 -31l-35 65l112 68h59v-410h-82z" />
    <glyph glyph-name="uni2082" unicode="&#x2082;" horiz-adv-x="368" 
d="M42 -97l160 162q17 17 29 34.5t12 35.5q0 23 -17 36t-41 13q-21 0 -39 -13t-26 -40l-77 20q14 50 53 79.5t93 29.5q30 0 55 -9.5t42.5 -25.5t27.5 -38t10 -47q0 -38 -19 -67.5t-56 -65.5l-91 -89h169v-74h-285v59z" />
    <glyph glyph-name="uni2083" unicode="&#x2083;" horiz-adv-x="359" 
d="M140 87h24q30 1 48.5 16t18.5 38t-17.5 36t-41.5 13q-43 0 -65 -39l-68 34q22 35 56.5 55t79.5 20q31 0 56.5 -9t44 -24.5t28.5 -36t10 -43.5q0 -30 -13 -52t-34 -35q23 -15 38.5 -39.5t15.5 -56.5q0 -27 -11 -50t-31.5 -40t-48.5 -26.5t-61 -9.5q-52 0 -89.5 22.5
t-59.5 61.5l71 30q11 -20 31 -30.5t43 -10.5q32 0 52.5 15.5t20.5 41.5q0 56 -76 59h-22v60z" />
    <glyph glyph-name="uni2084" unicode="&#x2084;" horiz-adv-x="360" 
d="M14 -20l205 274h62v-263h67v-68h-67v-79h-74v79h-188zM109 -9h98v132z" />
    <glyph glyph-name="uni2085" unicode="&#x2085;" horiz-adv-x="370" 
d="M71 254h233v-68h-162l-5 -70q21 8 44 8q32 0 59.5 -10.5t48 -29.5t32.5 -45t12 -56t-11.5 -56.5t-32 -46t-49 -31t-63.5 -11.5q-50 0 -88 22.5t-57 59.5l74 30q10 -20 29 -29.5t39 -9.5q29 0 51.5 19.5t22.5 53.5t-22.5 54t-51.5 20q-19 0 -32.5 -5.5t-24.5 -15.5h-62z
" />
    <glyph glyph-name="uni2086" unicode="&#x2086;" horiz-adv-x="373" 
d="M175 114q9 3 26 3q26 0 50 -10t43 -28.5t30 -43.5t11 -55t-11.5 -56t-31.5 -45.5t-47.5 -30.5t-59.5 -11q-33 0 -61 10.5t-48.5 29.5t-32 45t-11.5 57q0 28 9.5 54.5t25.5 51.5l109 169h94zM113 -21q0 -29 20.5 -49t49.5 -20q30 0 50 20.5t20 50.5q0 32 -20 52t-51 20
q-11 0 -20 -2t-16 -4q-15 -7 -24 -26.5t-9 -41.5z" />
    <glyph glyph-name="uni2087" unicode="&#x2087;" horiz-adv-x="331" 
d="M24 254h281v-50l-177 -360h-88l166 336h-182v74z" />
    <glyph glyph-name="uni2088" unicode="&#x2088;" horiz-adv-x="386" 
d="M329 147q0 -26 -11.5 -47t-31.5 -35q26 -15 44.5 -40.5t18.5 -59.5q0 -27 -11.5 -50t-32 -40t-49 -27t-63.5 -10t-63.5 10t-49 27t-31.5 40.5t-11 49.5q0 34 17.5 59.5t43.5 40.5q-20 14 -31.5 35t-11.5 47q0 25 10.5 45.5t29.5 35.5t44 23.5t53 8.5q29 0 53.5 -8t43 -23
t29 -36t10.5 -46zM193 193q-25 0 -41 -13t-16 -36q0 -21 15.5 -35t41.5 -14t41.5 14t15.5 35q0 23 -16.5 36t-40.5 13zM264 -30q0 26 -19.5 44.5t-51.5 18.5t-52 -18.5t-20 -44.5t20 -44t52 -18t51.5 18t19.5 44z" />
    <glyph glyph-name="uni2089" unicode="&#x2089;" horiz-adv-x="373" 
d="M198 -15q-5 -2 -11.5 -3t-14.5 -1q-26 0 -50.5 10.5t-43 28.5t-29.5 43t-11 55t11.5 56t32 45t48.5 30t60 11t60 -10.5t48 -29t31.5 -44.5t11.5 -57q0 -28 -9.5 -54.5t-25.5 -52.5l-110 -168h-94zM260 119q0 29 -20.5 49t-49.5 20q-30 0 -50 -20t-20 -51q0 -32 20 -52
t51 -20q15 0 27.5 3.5t18.5 7.5q10 11 16.5 27t6.5 36z" />
    <glyph glyph-name="Euro" unicode="&#x20ac;" horiz-adv-x="702" 
d="M31 491h96q13 56 38 102.5t61.5 80.5t84 53t104.5 19q68 0 120.5 -21t92.5 -61l-80 -65q-25 23 -58 34t-73 11q-36 0 -63.5 -11.5t-48.5 -32t-36 -48.5t-24 -61h260v-81h-275v-71h275v-81h-263q8 -36 22.5 -66.5t36 -53t50.5 -35t66 -12.5q82 0 131 44l82 -65
q-40 -39 -93.5 -60t-121.5 -21q-59 0 -107.5 20t-85 55.5t-61.5 85t-37 108.5h-93v81h83v35v18t1 18h-84v81z" />
    <glyph glyph-name="uni20B9" unicode="&#x20b9;" horiz-adv-x="627" 
d="M61 560h294q-14 40 -50 59t-87 19h-157v98h505v-89h-151q23 -18 35 -40t17 -47h99v-89h-98q-12 -74 -62.5 -116.5t-125.5 -59.5l234 -295h-137l-233 293v90h74q52 0 89 21.5t50 66.5h-296v89z" />
    <glyph glyph-name="uni20BA" unicode="&#x20ba;" horiz-adv-x="628" 
d="M36 354l119 43v65l-119 -43v87l119 43v186h108v-147l181 66v-87l-181 -66v-65l181 66v-87l-181 -67v-236q38 5 74 22t66 45t51 67.5t29 89.5l99 -19q-9 -67 -41 -124.5t-81 -100.5t-112.5 -67.5t-136.5 -24.5h-56v310l-119 -43v87z" />
    <glyph glyph-name="uni2113" unicode="&#x2113;" horiz-adv-x="510" 
d="M210 173q0 -39 19.5 -59t51.5 -20q22 0 38.5 8.5t28 18.5t17.5 19t7 10l76 -55q-2 -4 -13.5 -20.5t-33 -34.5t-52.5 -32t-72 -14q-52 0 -85.5 18t-53 46.5t-27 65t-7.5 73.5v52q-16 -2 -32.5 -3t-33.5 -1v96q17 0 33.5 1t32.5 4v177q0 40 4 82t20 76.5t48 56.5t88 22
q35 0 65 -13.5t51.5 -37.5t34.5 -57t14 -72q1 -14 0.5 -27.5t-2.5 -27.5q-11 -92 -67 -160.5t-150 -97.5v-94zM328 569q0 45 -17.5 68.5t-43.5 23.5t-41.5 -17.5t-15.5 -45.5v-227q32 12 54.5 32.5t36.5 47t20.5 57t6.5 61.5z" />
    <glyph glyph-name="uni2117" unicode="&#x2117;" horiz-adv-x="890" 
d="M61 367q0 78 29 147t80.5 121t122 82.5t152.5 30.5t152.5 -30.5t122 -82.5t80.5 -121t29 -147t-29 -147t-80.5 -120.5t-122 -82t-152.5 -30.5t-152.5 30.5t-122 82t-80.5 120.5t-29 147zM145 367q0 -61 22.5 -115.5t62.5 -96t95 -66t120 -24.5t120.5 24.5t95.5 66
t62.5 96t22.5 115.5q0 60 -22.5 115t-62.5 97t-95.5 67t-120.5 25t-120 -25t-95 -67t-62.5 -97t-22.5 -115zM643 441q0 -65 -44 -106.5t-125 -41.5h-77v-164h-81v461h159q81 0 124.5 -41.5t43.5 -107.5zM397 516v-149h76q43 0 66 19.5t23 54.5t-22.5 55t-66.5 20h-76z" />
    <glyph glyph-name="trademark" unicode="&#x2122;" horiz-adv-x="1009" 
d="M928 301h-74v297l-156 -235h-19l-156 236v-298h-75v434h66l174 -260l173 260h67v-434zM51 735h347v-70h-137v-364h-73v364h-137v70z" />
    <glyph glyph-name="uni2126" unicode="&#x2126;" horiz-adv-x="906" 
d="M61 104h128q-55 49 -86.5 117.5t-31.5 149.5q0 76 29 144t80 119.5t121 81.5t152 30t152 -30t121 -81.5t80 -119.5t29 -144q0 -81 -31.5 -149.5t-86.5 -117.5h128v-104h-320v98q43 12 78.5 37.5t61 61.5t39.5 79.5t14 89.5q0 54 -20 103t-55.5 86t-84 59t-105.5 22
t-106 -22t-84 -59t-55 -86t-20 -103q0 -46 14 -89.5t39 -79t60 -61.5t78 -38v-98h-318v104z" />
    <glyph glyph-name="estimated" unicode="&#x212e;" horiz-adv-x="944" 
d="M223 349v-194q23 -34 59 -60q30 -23 77 -41.5t113 -18.5t115 18t82 39q39 25 66 57h69q-27 -36 -63.5 -65t-79 -50t-90.5 -32.5t-99 -11.5q-85 0 -160 30t-130.5 81.5t-88 120t-32.5 145.5t32.5 146t88 120.5t130.5 81.5t160 30t160 -30t130.5 -81.5t88 -120.5t32.5 -146
v-18h-660zM729 388v201q-26 31 -63 56q-32 21 -80 38.5t-114 17.5t-113 -17t-77 -37q-36 -24 -59 -55v-204h506z" />
    <glyph glyph-name="onethird" unicode="&#x2153;" horiz-adv-x="852" 
d="M555 735h113l-464 -735h-112zM108 325v308l-54 -31l-35 65l112 68h59v-410h-82zM632 243h24q30 1 48.5 16t18.5 38t-17.5 36t-41.5 13q-43 0 -65 -39l-68 33q22 36 56.5 56t79.5 20q31 0 56.5 -9t44 -25t28.5 -36.5t10 -43.5q0 -29 -13 -51t-34 -36q23 -14 38.5 -39
t15.5 -56q0 -27 -11 -50t-31.5 -40t-48.5 -26.5t-61 -9.5q-52 0 -89.5 22.5t-59.5 61.5l71 29q11 -20 31 -30.5t43 -10.5q32 0 52.5 16t20.5 42t-19.5 41.5t-56.5 16.5h-22v61z" />
    <glyph glyph-name="twothirds" unicode="&#x2154;" horiz-adv-x="955" 
d="M42 384l160 162q17 17 29 34.5t12 35.5q0 23 -17 36t-41 13q-21 0 -39 -13t-26 -40l-77 20q14 50 53 79.5t93 29.5q30 0 55 -9.5t42.5 -25.5t27.5 -38t10 -47q0 -38 -19 -67.5t-56 -65.5l-91 -89h169v-74h-285v59zM660 735h113l-464 -735h-112zM736 243h24q30 1 48.5 16
t18.5 38t-17.5 36t-41.5 13q-43 0 -65 -39l-68 33q22 36 56.5 56t79.5 20q31 0 56.5 -9t44 -25t28.5 -36.5t10 -43.5q0 -29 -13 -51t-34 -36q23 -14 38.5 -39t15.5 -56q0 -27 -11 -50t-31.5 -40t-48.5 -26.5t-61 -9.5q-52 0 -89.5 22.5t-59.5 61.5l71 29q11 -20 31 -30.5
t43 -10.5q32 0 52.5 16t20.5 42t-19.5 41.5t-56.5 16.5h-22v61z" />
    <glyph glyph-name="oneeighth" unicode="&#x215b;" horiz-adv-x="867" 
d="M555 735h113l-464 -735h-112zM108 325v308l-54 -31l-35 65l112 68h59v-410h-82zM809 302q0 -25 -11.5 -46.5t-31.5 -35.5q26 -14 44.5 -40t18.5 -60q0 -26 -11.5 -49t-32 -40t-49 -27t-63.5 -10t-63.5 10t-49 27t-31.5 40t-11 49q0 34 17.5 60t43.5 40q-20 14 -31.5 35
t-11.5 47q0 25 10.5 46t29.5 36t44 23.5t53 8.5q29 0 53.5 -8t43 -23t29 -36t10.5 -47zM673 348q-25 0 -41 -12.5t-16 -35.5q0 -22 15.5 -35.5t41.5 -13.5t41.5 13.5t15.5 35.5q0 23 -16.5 35.5t-40.5 12.5zM744 126q0 26 -19.5 44t-51.5 18t-52 -18t-20 -44t20 -44t52 -18
t51.5 18t19.5 44z" />
    <glyph glyph-name="threeeighths" unicode="&#x215c;" horiz-adv-x="945" 
d="M140 568h24q30 1 48.5 16t18.5 38t-17.5 36t-41.5 13q-43 0 -65 -39l-68 34q22 35 56.5 55t79.5 20q31 0 56.5 -9t44 -24.5t28.5 -36t10 -43.5q0 -30 -13 -52t-34 -35q23 -15 38.5 -39.5t15.5 -56.5q0 -27 -11 -50t-31.5 -40t-48.5 -26.5t-61 -9.5q-52 0 -89.5 22.5
t-59.5 61.5l71 30q11 -20 31 -30.5t43 -10.5q32 0 52.5 15.5t20.5 41.5q0 56 -76 59h-22v60zM634 735h113l-464 -735h-112zM888 302q0 -25 -11.5 -46.5t-31.5 -35.5q26 -14 44.5 -40t18.5 -60q0 -26 -11.5 -49t-32 -40t-49 -27t-63.5 -10t-63.5 10t-49 27t-31.5 40t-11 49
q0 34 17.5 60t43.5 40q-20 14 -31.5 35t-11.5 47q0 25 10.5 46t29.5 36t44 23.5t53 8.5q29 0 53.5 -8t43 -23t29 -36t10.5 -47zM752 348q-25 0 -41 -12.5t-16 -35.5q0 -22 15.5 -35.5t41.5 -13.5t41.5 13.5t15.5 35.5q0 23 -16.5 35.5t-40.5 12.5zM823 126q0 26 -19.5 44
t-51.5 18t-52 -18t-20 -44t20 -44t52 -18t51.5 18t19.5 44z" />
    <glyph glyph-name="fiveeighths" unicode="&#x215d;" horiz-adv-x="953" 
d="M71 735h233v-68h-162l-5 -70q21 8 44 8q32 0 59.5 -10.5t48 -29.5t32.5 -45t12 -56t-11.5 -56.5t-32 -46t-49 -31t-63.5 -11.5q-50 0 -88 22.5t-57 59.5l74 30q10 -20 29 -29.5t39 -9.5q29 0 51.5 19.5t22.5 53.5t-22.5 54t-51.5 20q-19 0 -32.5 -5.5t-24.5 -15.5h-62z
M642 735h113l-464 -735h-112zM896 302q0 -25 -11.5 -46.5t-31.5 -35.5q26 -14 44.5 -40t18.5 -60q0 -26 -11.5 -49t-32 -40t-49 -27t-63.5 -10t-63.5 10t-49 27t-31.5 40t-11 49q0 34 17.5 60t43.5 40q-20 14 -31.5 35t-11.5 47q0 25 10.5 46t29.5 36t44 23.5t53 8.5
q29 0 53.5 -8t43 -23t29 -36t10.5 -47zM760 348q-25 0 -41 -12.5t-16 -35.5q0 -22 15.5 -35.5t41.5 -13.5t41.5 13.5t15.5 35.5q0 23 -16.5 35.5t-40.5 12.5zM831 126q0 26 -19.5 44t-51.5 18t-52 -18t-20 -44t20 -44t52 -18t51.5 18t19.5 44z" />
    <glyph glyph-name="seveneighths" unicode="&#x215e;" horiz-adv-x="827" 
d="M516 735h113l-464 -735h-112zM24 735h281v-50l-177 -360h-88l166 336h-182v74zM770 302q0 -25 -11.5 -46.5t-31.5 -35.5q26 -14 44.5 -40t18.5 -60q0 -26 -11.5 -49t-32 -40t-49 -27t-63.5 -10t-63.5 10t-49 27t-31.5 40t-11 49q0 34 17.5 60t43.5 40q-20 14 -31.5 35
t-11.5 47q0 25 10.5 46t29.5 36t44 23.5t53 8.5q29 0 53.5 -8t43 -23t29 -36t10.5 -47zM634 348q-25 0 -41 -12.5t-16 -35.5q0 -22 15.5 -35.5t41.5 -13.5t41.5 13.5t15.5 35.5q0 23 -16.5 35.5t-40.5 12.5zM705 126q0 26 -19.5 44t-51.5 18t-52 -18t-20 -44t20 -44t52 -18
t51.5 18t19.5 44z" />
    <glyph glyph-name="partialdiff" unicode="&#x2202;" horiz-adv-x="685" 
d="M168 701q24 14 65 28t91 14q131 0 205.5 -90.5t74.5 -276.5q0 -85 -18.5 -156t-55 -122.5t-90.5 -80.5t-125 -29q-49 0 -92 17t-74.5 48t-49.5 75t-18 98q0 57 20 103.5t54 80t79.5 51.5t96.5 18q48 0 91.5 -15t66.5 -34q0 37 -9 74.5t-28.5 68t-51 49.5t-78.5 19
q-37 0 -66.5 -10t-46.5 -21zM488 305q-17 21 -38 37q-19 14 -45 25.5t-58 11.5q-36 0 -64 -12.5t-47 -33.5t-29 -48.5t-10 -57.5q0 -63 34.5 -98t88.5 -35q38 0 68.5 18t53 47.5t34.5 67.5t12 78z" />
    <glyph glyph-name="uni2206" unicode="&#x2206;" horiz-adv-x="753" 
d="M61 0v82l273 653h84l273 -653v-82h-630zM192 103h371l-187 454z" />
    <glyph glyph-name="product" unicode="&#x220f;" horiz-adv-x="904" 
d="M91 735h721v-105h-81v-755h-115v755h-328v-755h-116v755h-81v105z" />
    <glyph glyph-name="summation" unicode="&#x2211;" horiz-adv-x="602" 
d="M41 -30l208 336l-208 334v95h505v-105h-373l201 -324l-201 -325h388v-105h-520v94z" />
    <glyph glyph-name="minus" unicode="&#x2212;" horiz-adv-x="614" 
d="M61 397h491v-100h-491v100z" />
    <glyph glyph-name="uni2215" unicode="&#x2215;" horiz-adv-x="680" 
d="M509 735h125l-464 -735h-124z" />
    <glyph glyph-name="uni2219" unicode="&#x2219;" horiz-adv-x="329" 
d="M91 347q0 31 21.5 52.5t51.5 21.5q31 0 52.5 -21.5t21.5 -52.5t-21.5 -52t-52.5 -21q-30 0 -51.5 21t-21.5 52z" />
    <glyph glyph-name="radical" unicode="&#x221a;" horiz-adv-x="773" 
d="M61 325h176l126 -273l278 782h118l-337 -942h-101l-154 327h-106v106z" />
    <glyph glyph-name="infinity" unicode="&#x221e;" horiz-adv-x="1075" 
d="M767 581q43 0 87 -15.5t79.5 -46t58 -75.5t22.5 -104q0 -58 -22 -103t-57 -75.5t-79 -46.5t-88 -16q-13 0 -25.5 1t-24.5 4q-35 7 -67 24t-62.5 40t-59.5 49.5t-58 53.5q-28 -24 -55.5 -46t-54.5 -39.5t-55 -27.5t-59 -10q-42 0 -76.5 15t-59 41t-37.5 61t-13 75t14.5 75
t40 61.5t59 41.5t72.5 15q33 0 64.5 -12.5t60 -31t54.5 -40t47 -40.5q36 33 70 64t69 55t73 38.5t82 14.5zM899 340q0 33 -11.5 58.5t-30 42t-42.5 25t-49 8.5q-26 0 -50 -8t-50.5 -24.5t-56.5 -41.5t-67 -58q35 -30 64.5 -55.5t56 -43.5t51.5 -28t51 -10q24 0 48 8t43 25
t31 42.5t12 59.5zM173 340q0 -39 21 -63.5t56 -24.5q16 0 32 5t34 15.5t40.5 27t50.5 40.5q-29 26 -50.5 43.5t-38.5 28t-33 14.5t-35 4q-35 0 -56 -25.5t-21 -64.5z" />
    <glyph glyph-name="integral" unicode="&#x222b;" horiz-adv-x="521" 
d="M315 -43q0 -42 -13.5 -79.5t-40.5 -66t-67.5 -45t-93.5 -16.5q-15 0 -27.5 1t-26.5 3l5 98h47q21 0 40.5 5.5t34.5 18.5t24 34t9 52v666q0 49 16 88t44.5 66.5t67.5 42.5t86 15q17 0 30 -0.5t25 -2.5l-5 -99h-47q-21 0 -40.5 -5.5t-34.5 -18.5t-24 -34t-9 -52v-671z" />
    <glyph glyph-name="approxequal" unicode="&#x2248;" horiz-adv-x="679" 
d="M57 406q8 9 21.5 21t33 23.5t45.5 19t59 7.5q35 0 67.5 -12.5t62.5 -27.5t58 -27.5t55 -12.5q18 0 33 6.5t26 16.5t19 20.5t12 19.5l53 -81q-5 -10 -15 -24.5t-26.5 -27.5t-40 -22.5t-54.5 -9.5q-15 0 -48.5 12.5t-71.5 27.5t-73.5 27.5t-54.5 12.5q-37 0 -64.5 -16
t-44.5 -36zM75 212q5 9 16 24t29 29.5t43 25.5t58 11q31 0 62 -12.5t61.5 -28t60.5 -28t60 -12.5q22 0 39.5 5.5t30.5 13.5t22 17.5t15 17.5l50 -83q-9 -13 -21.5 -26t-30 -23.5t-40 -17t-52.5 -6.5q-32 0 -68 12.5t-70.5 27.5t-64.5 27.5t-50 12.5q-18 0 -33.5 -7
t-27.5 -17.5t-21 -22.5t-16 -23z" />
    <glyph glyph-name="notequal" unicode="&#x2260;" horiz-adv-x="635" 
d="M71 509h276l54 104h103l-54 -104h114v-100h-166l-64 -125h230v-100h-282l-53 -104h-102l53 104h-109v100h161l64 125h-225v100z" />
    <glyph glyph-name="lessequal" unicode="&#x2264;" horiz-adv-x="664" 
d="M246 359l316 -122v-115l-491 195v80l491 215v-114zM71 98h491v-98h-491v98z" />
    <glyph glyph-name="greaterequal" unicode="&#x2265;" horiz-adv-x="664" 
d="M98 498v114l491 -215v-80l-491 -195v115l317 122zM589 0h-491v98h491v-98z" />
    <glyph glyph-name="lozenge" unicode="&#x25ca;" horiz-adv-x="499" 
d="M41 340l209 359l208 -359l-208 -360zM250 145l107 195l-107 194l-107 -194z" />
    <glyph glyph-name="uniF6C3" unicode="&#xf6c3;" horiz-adv-x="205" 
d="M168 -83l-75 -163h-75l42 163h108z" />
    <glyph glyph-name="uniF8FF" unicode="&#xf8ff;" horiz-adv-x="736" 
d="M91 735h554v-735h-554v735zM368 429l155 234h-307zM168 611v-484l159 241zM567 127v481l-159 -239zM214 73h309l-155 234z" />
    <glyph glyph-name="fi" unicode="&#xfb01;" horiz-adv-x="670" 
d="M590 0h-107v400h-243v-400h-107v401l-92 27v62h92v64q0 46 15 84t42.5 65t65 42t82.5 15q70 0 122.5 -34t86.5 -91l-84 -53q-26 41 -53.5 60t-67.5 19q-20 0 -38.5 -6.5t-32.5 -20t-22.5 -34t-8.5 -48.5v-62h350v-490z" />
    <glyph glyph-name="fl" unicode="&#xfb02;" horiz-adv-x="726" 
d="M41 490h92v67q0 46 15 83.5t42 64t65.5 41t85.5 14.5q18 0 39 -1t45 -5l-5 -93h-75q-20 0 -39 -5.5t-33.5 -18t-23.5 -33t-9 -51.5v-63h149v-90h-149v-400h-107v401l-92 27v62zM646 0h-107v755h107v-755z" />
    <glyph glyph-name="i.loclTRK" horiz-adv-x="266" 
d="M63 658q0 29 20.5 50t49.5 21t50 -21t21 -50t-21 -49.5t-50 -20.5t-49.5 20.5t-20.5 49.5zM186 0h-106v490h106v-490z" />
    <glyph glyph-name="a.ss01" horiz-adv-x="549" 
d="M51 145q0 33 14 62t40 51t64.5 34.5t86.5 12.5q30 0 61 -3.5t57 -10.5v15q0 43 -30 73t-81 30q-38 0 -68 -12t-58 -31l-51 73q40 32 83 46t97 14q51 0 91 -16t67 -43.5t41.5 -64.5t14.5 -80v-295h-68l-23 71q-26 -37 -71 -59t-91 -22q-41 0 -73.5 12t-55.5 33t-35 49
t-12 61zM158 148q0 -29 19 -49t59 -20q25 0 49 9.5t43 23.5t31.5 30.5t14.5 31.5v36q-29 8 -57.5 11t-57.5 3q-51 0 -76 -22t-25 -54z" />
    <glyph glyph-name="abreve.ss01" horiz-adv-x="549" 
d="M211 756q0 -44 22 -70.5t62 -26.5q39 0 61 26.5t22 70.5h90q0 -39 -13 -72t-36 -57.5t-54.5 -38t-69.5 -13.5t-70 13.5t-55 38t-36 57.5t-13 72h90zM51 145q0 33 14 62t40 51t64.5 34.5t86.5 12.5q30 0 61 -3.5t57 -10.5v15q0 43 -30 73t-81 30q-38 0 -68 -12t-58 -31
l-51 73q40 32 83 46t97 14q51 0 91 -16t67 -43.5t41.5 -64.5t14.5 -80v-295h-68l-23 71q-26 -37 -71 -59t-91 -22q-41 0 -73.5 12t-55.5 33t-35 49t-12 61zM158 148q0 -29 19 -49t59 -20q25 0 49 9.5t43 23.5t31.5 30.5t14.5 31.5v36q-29 8 -57.5 11t-57.5 3q-51 0 -76 -22
t-25 -54z" />
    <glyph glyph-name="acircumflex.ss01" horiz-adv-x="549" 
d="M232 756h104l128 -183h-87l-93 96l-93 -96h-87zM51 145q0 33 14 62t40 51t64.5 34.5t86.5 12.5q30 0 61 -3.5t57 -10.5v15q0 43 -30 73t-81 30q-38 0 -68 -12t-58 -31l-51 73q40 32 83 46t97 14q51 0 91 -16t67 -43.5t41.5 -64.5t14.5 -80v-295h-68l-23 71
q-26 -37 -71 -59t-91 -22q-41 0 -73.5 12t-55.5 33t-35 49t-12 61zM158 148q0 -29 19 -49t59 -20q25 0 49 9.5t43 23.5t31.5 30.5t14.5 31.5v36q-29 8 -57.5 11t-57.5 3q-51 0 -76 -22t-25 -54z" />
    <glyph glyph-name="adieresis.ss01" horiz-adv-x="549" 
d="M96 658q0 29 20.5 50t49.5 21t50 -21t21 -50t-21 -49.5t-50 -20.5t-49.5 20.5t-20.5 49.5zM320 658q0 29 20.5 50t49.5 21t49.5 -21t20.5 -50t-20.5 -49.5t-49.5 -20.5t-49.5 20.5t-20.5 49.5zM51 145q0 33 14 62t40 51t64.5 34.5t86.5 12.5q30 0 61 -3.5t57 -10.5v15
q0 43 -30 73t-81 30q-38 0 -68 -12t-58 -31l-51 73q40 32 83 46t97 14q51 0 91 -16t67 -43.5t41.5 -64.5t14.5 -80v-295h-68l-23 71q-26 -37 -71 -59t-91 -22q-41 0 -73.5 12t-55.5 33t-35 49t-12 61zM158 148q0 -29 19 -49t59 -20q25 0 49 9.5t43 23.5t31.5 30.5t14.5 31.5
v36q-29 8 -57.5 11t-57.5 3q-51 0 -76 -22t-25 -54z" />
    <glyph glyph-name="agrave.ss01" horiz-adv-x="549" 
d="M270 756l63 -183h-86l-99 183h122zM51 145q0 33 14 62t40 51t64.5 34.5t86.5 12.5q30 0 61 -3.5t57 -10.5v15q0 43 -30 73t-81 30q-38 0 -68 -12t-58 -31l-51 73q40 32 83 46t97 14q51 0 91 -16t67 -43.5t41.5 -64.5t14.5 -80v-295h-68l-23 71q-26 -37 -71 -59t-91 -22
q-41 0 -73.5 12t-55.5 33t-35 49t-12 61zM158 148q0 -29 19 -49t59 -20q25 0 49 9.5t43 23.5t31.5 30.5t14.5 31.5v36q-29 8 -57.5 11t-57.5 3q-51 0 -76 -22t-25 -54z" />
    <glyph glyph-name="aacute.ss01" horiz-adv-x="549" 
d="M292 756h122l-107 -183h-86zM51 145q0 33 14 62t40 51t64.5 34.5t86.5 12.5q30 0 61 -3.5t57 -10.5v15q0 43 -30 73t-81 30q-38 0 -68 -12t-58 -31l-51 73q40 32 83 46t97 14q51 0 91 -16t67 -43.5t41.5 -64.5t14.5 -80v-295h-68l-23 71q-26 -37 -71 -59t-91 -22
q-41 0 -73.5 12t-55.5 33t-35 49t-12 61zM158 148q0 -29 19 -49t59 -20q25 0 49 9.5t43 23.5t31.5 30.5t14.5 31.5v36q-29 8 -57.5 11t-57.5 3q-51 0 -76 -22t-25 -54z" />
    <glyph glyph-name="aogonek.ss01" horiz-adv-x="549" 
d="M379 -108q0 -20 12.5 -35t36.5 -15q8 0 14.5 1t11.5 3l25 -81q-13 -6 -30.5 -10.5t-38.5 -4.5q-52 0 -87 34t-35 90q0 26 9 49.5t25 43t36.5 35.5t43.5 28l-13 41q-26 -37 -71 -59t-91 -22q-41 0 -73.5 12t-55.5 33t-35 49t-12 61t14 62t40 51t64.5 34.5t86.5 12.5
q30 0 61 -3.5t57 -10.5v15q0 43 -30 73t-81 30q-38 0 -68 -12t-58 -31l-51 73q40 32 83 46t97 14q51 0 91 -16t67 -43.5t41.5 -64.5t14.5 -80v-295q-45 -19 -73 -47.5t-28 -60.5zM158 148q0 -29 19 -49t59 -20q25 0 49 9.5t43 23.5t31.5 30.5t14.5 31.5v36q-29 8 -57.5 11
t-57.5 3q-51 0 -76 -22t-25 -54z" />
    <glyph glyph-name="amacron.ss01" horiz-adv-x="549" 
d="M85 704h390v-84h-390v84zM51 145q0 33 14 62t40 51t64.5 34.5t86.5 12.5q30 0 61 -3.5t57 -10.5v15q0 43 -30 73t-81 30q-38 0 -68 -12t-58 -31l-51 73q40 32 83 46t97 14q51 0 91 -16t67 -43.5t41.5 -64.5t14.5 -80v-295h-68l-23 71q-26 -37 -71 -59t-91 -22
q-41 0 -73.5 12t-55.5 33t-35 49t-12 61zM158 148q0 -29 19 -49t59 -20q25 0 49 9.5t43 23.5t31.5 30.5t14.5 31.5v36q-29 8 -57.5 11t-57.5 3q-51 0 -76 -22t-25 -54z" />
    <glyph glyph-name="aring.ss01" horiz-adv-x="549" 
d="M186 670q0 22 8 40.5t22 32t32.5 21.5t39.5 8t40.5 -8t33.5 -21.5t22.5 -32t8.5 -40.5q0 -21 -8.5 -39.5t-22.5 -32.5t-33.5 -22t-40.5 -8t-39.5 8t-32.5 22t-22 32.5t-8 39.5zM252 670q0 -15 11 -26t26 -11q16 0 26.5 11t10.5 26q0 16 -10.5 27t-26.5 11q-15 0 -26 -11
t-11 -27zM51 145q0 33 14 62t40 51t64.5 34.5t86.5 12.5q30 0 61 -3.5t57 -10.5v15q0 43 -30 73t-81 30q-38 0 -68 -12t-58 -31l-51 73q40 32 83 46t97 14q51 0 91 -16t67 -43.5t41.5 -64.5t14.5 -80v-295h-68l-23 71q-26 -37 -71 -59t-91 -22q-41 0 -73.5 12t-55.5 33
t-35 49t-12 61zM158 148q0 -29 19 -49t59 -20q25 0 49 9.5t43 23.5t31.5 30.5t14.5 31.5v36q-29 8 -57.5 11t-57.5 3q-51 0 -76 -22t-25 -54z" />
    <glyph glyph-name="atilde.ss01" horiz-adv-x="549" 
d="M71 619q11 54 44.5 84.5t82.5 30.5q22 0 42.5 -7.5t39.5 -16.5t35.5 -16.5t30.5 -7.5q25 0 36.5 17t13.5 31l82 -20q-4 -23 -13.5 -44t-24.5 -37t-35 -25.5t-46 -9.5q-21 0 -42.5 7.5t-41.5 16.5t-38.5 16.5t-33.5 7.5q-21 0 -33 -13t-17 -35zM51 145q0 33 14 62t40 51
t64.5 34.5t86.5 12.5q30 0 61 -3.5t57 -10.5v15q0 43 -30 73t-81 30q-38 0 -68 -12t-58 -31l-51 73q40 32 83 46t97 14q51 0 91 -16t67 -43.5t41.5 -64.5t14.5 -80v-295h-68l-23 71q-26 -37 -71 -59t-91 -22q-41 0 -73.5 12t-55.5 33t-35 49t-12 61zM158 148q0 -29 19 -49
t59 -20q25 0 49 9.5t43 23.5t31.5 30.5t14.5 31.5v36q-29 8 -57.5 11t-57.5 3q-51 0 -76 -22t-25 -54z" />
    <glyph glyph-name="ae.ss01" horiz-adv-x="931" 
d="M650 80q35 0 67.5 13.5t58.5 48.5l83 -50q-38 -52 -91 -77t-116 -25q-72 0 -120.5 29t-77.5 77q-32 -55 -86.5 -80.5t-116.5 -25.5q-43 0 -79.5 12t-63.5 33.5t-42 50.5t-15 63t14 63t40 50t63 33t83 12q42 0 79 -4.5t70 -10.5v9q0 23 -10.5 43t-28.5 34.5t-41.5 22.5
t-48.5 8q-38 0 -72 -11.5t-62 -31.5l-51 74q80 59 185 59q65 0 112 -26.5t73 -71.5q27 44 72.5 71t107.5 27q54 0 97.5 -19.5t73.5 -53.5t46.5 -78t16.5 -94q0 -14 -0.5 -23.5t-1.5 -19.5h-364q5 -58 42.5 -94.5t103.5 -36.5zM636 410q-56 0 -90 -35t-39 -86h254
q-2 25 -11.5 47t-26 38.5t-38.5 26t-49 9.5zM158 153q0 -30 25.5 -52t72.5 -22q63 0 103 32.5t41 82.5v18q-64 15 -133 15q-55 0 -82 -21t-27 -53z" />
    <glyph glyph-name="breve.cap" horiz-adv-x="387" 
d="M119 977q0 -31 21 -52t54 -21q32 0 53.5 21t21.5 52h93q0 -35 -12.5 -64.5t-35 -51.5t-53.5 -34t-67 -12t-67 12t-53.5 34t-35.5 51.5t-13 64.5h94z" />
    <glyph glyph-name="caron.alt" horiz-adv-x="259" 
d="M194 755l-51 -184h-70l22 184h99z" />
    <glyph glyph-name="caron.cap" horiz-adv-x="414" 
d="M136 820l-111 157h96l86 -85l86 85h96l-110 -157h-143z" />
    <glyph glyph-name="cedilla.cap" horiz-adv-x="244" 
d="M86 -251q-17 0 -37.5 4t-30.5 9l23 78q10 -4 21.5 -6t19.5 -2q22 0 34.5 8t12.5 26t-18.5 28t-46.5 10l18 121h73l-9 -73q32 -6 57.5 -28.5t25.5 -64.5q0 -47 -37.5 -78.5t-105.5 -31.5z" />
    <glyph glyph-name="circumflex.cap" horiz-adv-x="416" 
d="M281 977l110 -157h-98l-85 83l-85 -83h-98l110 157h146z" />
    <glyph glyph-name="acute.cap" horiz-adv-x="253" 
d="M233 977l-113 -157h-95l77 157h131z" />
    <glyph glyph-name="uni0326.alt" horiz-adv-x="309" 
d="M85 573l80 190h76l-36 -190h-120z" />
    <glyph glyph-name="dieresis.cap" horiz-adv-x="424" 
d="M25 903q0 29 20 49.5t49 20.5t49 -20.5t20 -49.5t-20 -48.5t-49 -19.5t-49 19.5t-20 48.5zM260 903q0 29 20 49.5t49 20.5t49.5 -20.5t20.5 -49.5t-20.5 -48.5t-49.5 -19.5t-49 19.5t-20 48.5z" />
    <glyph glyph-name="dotaccent.cap" horiz-adv-x="187" 
d="M21 907q0 30 21 51.5t51 21.5q31 0 52.5 -21.5t21.5 -51.5t-21.5 -51t-52.5 -21q-30 0 -51 21t-21 51z" />
    <glyph glyph-name="grave.cap" horiz-adv-x="253" 
d="M156 977l72 -157h-94l-109 157h131z" />
    <glyph glyph-name="hungarumlaut.cap" horiz-adv-x="459" 
d="M434 977l-109 -157h-95l76 157h128zM226 977l-107 -157h-94l73 157h128z" />
    <glyph glyph-name="macron.cap" horiz-adv-x="468" 
d="M25 942h418v-91h-418v91z" />
    <glyph glyph-name="ogonek.cap" horiz-adv-x="315" 
d="M129 -111q0 -20 12.5 -33.5t35.5 -13.5q8 0 16.5 1t15.5 3l25 -86q-15 -6 -32 -9.5t-38 -3.5q-27 0 -51 9.5t-42 26.5t-28.5 40t-10.5 51q0 55 37.5 99.5t97.5 68.5l67 -42q-48 -20 -76.5 -49.5t-28.5 -61.5z" />
    <glyph glyph-name="ring.cap" horiz-adv-x="263" 
d="M25 919q0 22 8 41.5t22.5 34t34 23t41.5 8.5t41.5 -8.5t34 -23t23 -34t8.5 -41.5t-8.5 -41.5t-23 -34t-34 -22.5t-41.5 -8t-41.5 8t-34 22.5t-22.5 34t-8 41.5zM98 919q0 -14 9.5 -24t23.5 -10t24 10t10 24t-10 24t-24 10t-23.5 -10t-9.5 -24z" />
    <glyph glyph-name="tilde.cap" horiz-adv-x="494" 
d="M25 853q11 53 46.5 84t89.5 31q23 0 44.5 -7.5t41.5 -17t40 -17t41 -7.5q29 0 43 17.5t16 33.5l82 -22q-10 -48 -45 -83t-92 -35q-24 0 -47 7.5t-44 17t-39.5 17t-35.5 7.5q-51 0 -59 -49z" />
    <glyph glyph-name="uni0326.cap" horiz-adv-x="236" 
d="M195 -83l-74 -157h-87l40 157h121z" />
    <glyph glyph-name="zero.denominator" horiz-adv-x="395" 
d="M35 205q0 44 9.5 82t29.5 67t50.5 45.5t73.5 16.5q42 0 73 -16.5t50.5 -45t29 -67t9.5 -82.5t-9.5 -82.5t-29 -67t-50.5 -45t-73 -16.5q-43 0 -73.5 16.5t-50.5 45t-29.5 67t-9.5 82.5zM117 205q0 -27 4 -51.5t13 -42.5t24.5 -29t39.5 -11q31 0 48.5 18.5t24.5 48.5t7 67
q0 36 -7 66.5t-24.5 49t-48.5 18.5q-24 0 -39.5 -11t-24.5 -29t-13 -42.5t-4 -51.5z" />
    <glyph glyph-name="one.denominator" horiz-adv-x="256" 
d="M108 0v308l-54 -32l-35 66l112 68h59v-410h-82z" />
    <glyph glyph-name="two.denominator" horiz-adv-x="368" 
d="M42 59l160 162q17 17 29 34t12 35q0 23 -17 36.5t-41 13.5q-21 0 -39 -13.5t-26 -39.5l-77 20q14 49 53 79t93 30q30 0 55 -9.5t42.5 -25.5t27.5 -38t10 -47q0 -39 -19 -68t-56 -66l-91 -88h169v-74h-285v59z" />
    <glyph glyph-name="three.denominator" horiz-adv-x="359" 
d="M140 243h24q30 1 48.5 16t18.5 38t-17.5 36t-41.5 13q-43 0 -65 -39l-68 33q22 36 56.5 56t79.5 20q31 0 56.5 -9t44 -25t28.5 -36.5t10 -43.5q0 -29 -13 -51t-34 -36q23 -14 38.5 -39t15.5 -56q0 -27 -11 -50t-31.5 -40t-48.5 -26.5t-61 -9.5q-52 0 -89.5 22.5
t-59.5 61.5l71 29q11 -20 31 -30.5t43 -10.5q32 0 52.5 16t20.5 42t-19.5 41.5t-56.5 16.5h-22v61z" />
    <glyph glyph-name="four.denominator" horiz-adv-x="360" 
d="M14 135l205 275h62v-264h67v-68h-67v-78h-74v78h-188zM109 146h98v133z" />
    <glyph glyph-name="five.denominator" horiz-adv-x="370" 
d="M71 410h233v-69h-162l-5 -70q10 5 21 6.5t23 1.5q32 0 59.5 -10.5t48 -29t32.5 -44.5t12 -56t-11.5 -56.5t-32 -46t-49 -31t-63.5 -11.5q-50 0 -88 22.5t-57 59.5l74 30q10 -20 29 -30t39 -10q29 0 51.5 19.5t22.5 54.5q0 34 -22.5 53.5t-51.5 19.5q-19 0 -32.5 -5.5
t-24.5 -14.5h-62z" />
    <glyph glyph-name="six.denominator" horiz-adv-x="373" 
d="M175 269q5 2 11.5 3t14.5 1q26 0 50 -10.5t43 -28.5t30 -43t11 -55t-11.5 -56t-31.5 -45.5t-47.5 -30.5t-59.5 -11q-33 0 -61 10.5t-48.5 29.5t-32 45t-11.5 57q0 28 9.5 54t25.5 52l109 169h94zM113 135q0 -29 20.5 -49.5t49.5 -20.5q30 0 50 20.5t20 50.5q0 32 -20 52
t-51 20q-69 0 -69 -73z" />
    <glyph glyph-name="seven.denominator" horiz-adv-x="331" 
d="M24 410h281v-51l-177 -359h-88l166 335h-182v75z" />
    <glyph glyph-name="eight.denominator" horiz-adv-x="386" 
d="M329 302q0 -25 -11.5 -46.5t-31.5 -35.5q26 -14 44.5 -40t18.5 -60q0 -26 -11.5 -49t-32 -40t-49 -27t-63.5 -10t-63.5 10t-49 27t-31.5 40t-11 49q0 34 17.5 60t43.5 40q-20 14 -31.5 35t-11.5 47q0 25 10.5 46t29.5 36t44 23.5t53 8.5q29 0 53.5 -8t43 -23t29 -36
t10.5 -47zM193 348q-25 0 -41 -12.5t-16 -35.5q0 -22 15.5 -35.5t41.5 -13.5t41.5 13.5t15.5 35.5q0 23 -16.5 35.5t-40.5 12.5zM264 126q0 26 -19.5 44t-51.5 18t-52 -18t-20 -44t20 -44t52 -18t51.5 18t19.5 44z" />
    <glyph glyph-name="nine.denominator" horiz-adv-x="373" 
d="M198 140q-9 -3 -26 -3q-26 0 -50.5 10t-43 28.5t-29.5 43.5t-11 55t11.5 56t32 45t48.5 30t60 11t60 -10.5t48 -29t31.5 -44.5t11.5 -57q0 -28 -9.5 -55t-25.5 -52l-110 -168h-94zM260 275q0 29 -20.5 49t-49.5 20q-30 0 -50 -20.5t-20 -50.5q0 -32 20 -52t51 -20
q15 0 27.5 3t18.5 8q10 11 16.5 26.5t6.5 36.5z" />
    <glyph glyph-name="zero.numerator" horiz-adv-x="395" 
d="M35 530q0 44 9.5 82.5t29.5 67t50.5 45t73.5 16.5q42 0 73 -16.5t50.5 -45t29 -67t9.5 -82.5t-9.5 -82.5t-29 -67t-50.5 -45t-73 -16.5q-43 0 -73.5 16.5t-50.5 45t-29.5 67t-9.5 82.5zM117 530q0 -27 4 -51.5t13 -42.5t24.5 -29t39.5 -11q31 0 48.5 18.5t24.5 48.5t7 67
q0 36 -7 66.5t-24.5 49t-48.5 18.5q-24 0 -39.5 -11t-24.5 -29t-13 -42.5t-4 -51.5z" />
    <glyph glyph-name="one.numerator" horiz-adv-x="256" 
d="M108 325v308l-54 -31l-35 65l112 68h59v-410h-82z" />
    <glyph glyph-name="two.numerator" horiz-adv-x="368" 
d="M42 384l160 162q17 17 29 34.5t12 35.5q0 23 -17 36t-41 13q-21 0 -39 -13t-26 -40l-77 20q14 50 53 79.5t93 29.5q30 0 55 -9.5t42.5 -25.5t27.5 -38t10 -47q0 -38 -19 -67.5t-56 -65.5l-91 -89h169v-74h-285v59z" />
    <glyph glyph-name="three.numerator" horiz-adv-x="359" 
d="M140 568h24q30 1 48.5 16t18.5 38t-17.5 36t-41.5 13q-43 0 -65 -39l-68 34q22 35 56.5 55t79.5 20q31 0 56.5 -9t44 -24.5t28.5 -36t10 -43.5q0 -30 -13 -52t-34 -35q23 -15 38.5 -39.5t15.5 -56.5q0 -27 -11 -50t-31.5 -40t-48.5 -26.5t-61 -9.5q-52 0 -89.5 22.5
t-59.5 61.5l71 30q11 -20 31 -30.5t43 -10.5q32 0 52.5 15.5t20.5 41.5q0 56 -76 59h-22v60z" />
    <glyph glyph-name="four.numerator" horiz-adv-x="360" 
d="M14 461l205 274h62v-263h67v-68h-67v-79h-74v79h-188zM109 472h98v132z" />
    <glyph glyph-name="five.numerator" horiz-adv-x="370" 
d="M71 735h233v-68h-162l-5 -70q21 8 44 8q32 0 59.5 -10.5t48 -29.5t32.5 -45t12 -56t-11.5 -56.5t-32 -46t-49 -31t-63.5 -11.5q-50 0 -88 22.5t-57 59.5l74 30q10 -20 29 -29.5t39 -9.5q29 0 51.5 19.5t22.5 53.5t-22.5 54t-51.5 20q-19 0 -32.5 -5.5t-24.5 -15.5h-62z
" />
    <glyph glyph-name="six.numerator" horiz-adv-x="373" 
d="M175 595q9 3 26 3q26 0 50 -10t43 -28.5t30 -43.5t11 -55t-11.5 -56t-31.5 -45.5t-47.5 -30.5t-59.5 -11q-33 0 -61 10.5t-48.5 29.5t-32 45t-11.5 57q0 28 9.5 54.5t25.5 51.5l109 169h94zM113 460q0 -29 20.5 -49t49.5 -20q30 0 50 20.5t20 50.5q0 32 -20 52t-51 20
q-11 0 -20 -2t-16 -4q-15 -7 -24 -26.5t-9 -41.5z" />
    <glyph glyph-name="seven.numerator" horiz-adv-x="331" 
d="M24 735h281v-50l-177 -360h-88l166 336h-182v74z" />
    <glyph glyph-name="eight.numerator" horiz-adv-x="386" 
d="M329 628q0 -26 -11.5 -47t-31.5 -35q26 -15 44.5 -40.5t18.5 -59.5q0 -27 -11.5 -50t-32 -40t-49 -27t-63.5 -10t-63.5 10t-49 27.5t-31.5 40.5t-11 49q0 34 17.5 59.5t43.5 40.5q-20 14 -31.5 35t-11.5 47q0 25 10.5 45.5t29.5 35.5t44 23.5t53 8.5q29 0 53.5 -8t43 -23
t29 -36t10.5 -46zM193 674q-25 0 -41 -13t-16 -36q0 -21 15.5 -35t41.5 -14t41.5 14t15.5 35q0 23 -16.5 36t-40.5 13zM264 451q0 26 -19.5 44.5t-51.5 18.5t-52 -18.5t-20 -44.5t20 -44t52 -18t51.5 18t19.5 44z" />
    <glyph glyph-name="nine.numerator" horiz-adv-x="373" 
d="M198 466q-5 -2 -11.5 -3t-14.5 -1q-26 0 -50.5 10.5t-43 28.5t-29.5 43t-11 55t11.5 56t32 45t48.5 30t60 11t60 -10.5t48 -29t31.5 -44.5t11.5 -57q0 -28 -9.5 -54.5t-25.5 -52.5l-110 -168h-94zM260 600q0 29 -20.5 49t-49.5 20q-30 0 -50 -20t-20 -51q0 -32 20 -52
t51 -20q15 0 27.5 3.5t18.5 7.5q10 11 16.5 27t6.5 36z" />
    <glyph glyph-name="A.sc" horiz-adv-x="663" 
d="M449 143h-234l-59 -143h-110l242 588h87l243 -588h-112zM248 227h170l-86 218z" />
    <glyph glyph-name="Aacute.sc" horiz-adv-x="663" 
d="M350 806h131l-113 -157h-95zM449 143h-234l-59 -143h-110l242 588h87l243 -588h-112zM248 227h170l-86 218z" />
    <glyph glyph-name="Abreve.sc" horiz-adv-x="663" 
d="M258 807q0 -31 21 -52t54 -21q32 0 53.5 21t21.5 52h93q0 -35 -12.5 -64.5t-35 -51.5t-53.5 -34t-67 -12t-67 12t-53.5 34t-35.5 51.5t-13 64.5h94zM449 143h-234l-59 -143h-110l242 588h87l243 -588h-112zM248 227h170l-86 218z" />
    <glyph glyph-name="Acircumflex.sc" horiz-adv-x="663" 
d="M405 806l110 -157h-98l-85 83l-85 -83h-98l110 157h146zM449 143h-234l-59 -143h-110l242 588h87l243 -588h-112zM248 227h170l-86 218z" />
    <glyph glyph-name="Adieresis.sc" horiz-adv-x="663" 
d="M145 728q0 29 20 49.5t49 20.5t49 -20.5t20 -49.5t-20 -48.5t-49 -19.5t-49 19.5t-20 48.5zM380 728q0 29 20 49.5t49 20.5t49.5 -20.5t20.5 -49.5t-20.5 -48.5t-49.5 -19.5t-49 19.5t-20 48.5zM449 143h-234l-59 -143h-110l242 588h87l243 -588h-112zM248 227h170
l-86 218z" />
    <glyph glyph-name="Agrave.sc" horiz-adv-x="663" 
d="M316 806l72 -157h-94l-109 157h131zM449 143h-234l-59 -143h-110l242 588h87l243 -588h-112zM248 227h170l-86 218z" />
    <glyph glyph-name="Amacron.sc" horiz-adv-x="663" 
d="M123 766h418v-91h-418v91zM449 143h-234l-59 -143h-110l242 588h87l243 -588h-112zM248 227h170l-86 218z" />
    <glyph glyph-name="Aogonek.sc" horiz-adv-x="663" 
d="M532 -88q0 -16 10.5 -26t28.5 -10q6 0 13.5 0.5t12.5 2.5l20 -71q-11 -5 -25.5 -9t-32.5 -4q-22 0 -41.5 8t-34.5 21.5t-23.5 32.5t-8.5 42q0 19 6 36t15 30.5t19.5 24t20.5 17.5h-9l-54 136h-234l-59 -143h-110l242 588h87l243 -588q-38 -14 -62 -38t-24 -50zM248 227
h170l-86 218z" />
    <glyph glyph-name="Aring.sc" horiz-adv-x="663" 
d="M225 748q0 22 8 41.5t22.5 34t34 23t41.5 8.5t41.5 -8.5t34 -23t23 -34t8.5 -41.5t-8.5 -41.5t-23 -34t-34 -22.5t-41.5 -8t-41.5 8t-34 22.5t-22.5 34t-8 41.5zM298 748q0 -14 9.5 -24t23.5 -10t24 10t10 24t-10 24t-24 10t-23.5 -10t-9.5 -24zM449 143h-234l-59 -143
h-110l242 588h87l243 -588h-112zM248 227h170l-86 218z" />
    <glyph glyph-name="Atilde.sc" horiz-adv-x="663" 
d="M110 681q11 53 46.5 84t89.5 31q23 0 44.5 -7.5t41.5 -17t40 -17t41 -7.5q29 0 43 17.5t16 33.5l82 -22q-10 -48 -45 -83t-92 -35q-24 0 -47 7.5t-44 17t-39.5 17t-35.5 7.5q-51 0 -59 -49zM449 143h-234l-59 -143h-110l242 588h87l243 -588h-112zM248 227h170l-86 218z
" />
    <glyph glyph-name="B.sc" horiz-adv-x="597" 
d="M325 588q40 0 74 -11t58.5 -31.5t38.5 -50t14 -65.5q0 -40 -17.5 -70.5t-42.5 -47.5q40 -21 63 -56.5t23 -84.5q0 -40 -15 -71.5t-41 -53.5t-61.5 -34t-76.5 -12h-256v588h239zM408 424q0 36 -25 56.5t-66 20.5h-128v-159h133q43 0 64.5 22t21.5 60zM432 175
q0 44 -27.5 66t-78.5 22h-137v-176h143q43 0 71.5 23t28.5 65z" />
    <glyph glyph-name="C.sc" horiz-adv-x="647" 
d="M164 294q0 -41 14.5 -78t40.5 -64.5t62 -44t79 -16.5q50 0 92 19.5t74 52.5l75 -64q-39 -45 -100.5 -76.5t-139.5 -31.5q-66 0 -121.5 24t-96 65.5t-63 96.5t-22.5 117t23 117t63.5 96.5t96 65.5t119.5 24q70 0 129 -28.5t101 -77.5l-79 -60q-29 29 -67 48t-84 19
q-42 0 -78 -16.5t-62.5 -45t-41 -65t-14.5 -77.5z" />
    <glyph glyph-name="Cacute.sc" horiz-adv-x="647" 
d="M378 806h131l-113 -157h-95zM164 294q0 -41 14.5 -78t40.5 -64.5t62 -44t79 -16.5q50 0 92 19.5t74 52.5l75 -64q-39 -45 -100.5 -76.5t-139.5 -31.5q-66 0 -121.5 24t-96 65.5t-63 96.5t-22.5 117t23 117t63.5 96.5t96 65.5t119.5 24q70 0 129 -28.5t101 -77.5l-79 -60
q-29 29 -67 48t-84 19q-42 0 -78 -16.5t-62.5 -45t-41 -65t-14.5 -77.5z" />
    <glyph glyph-name="Ccaron.sc" horiz-adv-x="647" 
d="M433 649h-143l-111 157h96l86 -85l86 85h96zM164 294q0 -41 14.5 -78t40.5 -64.5t62 -44t79 -16.5q50 0 92 19.5t74 52.5l75 -64q-39 -45 -100.5 -76.5t-139.5 -31.5q-66 0 -121.5 24t-96 65.5t-63 96.5t-22.5 117t23 117t63.5 96.5t96 65.5t119.5 24q70 0 129 -28.5
t101 -77.5l-79 -60q-29 29 -67 48t-84 19q-42 0 -78 -16.5t-62.5 -45t-41 -65t-14.5 -77.5z" />
    <glyph glyph-name="Ccedilla.sc" horiz-adv-x="647" 
d="M329 -241q-17 0 -37.5 4t-30.5 9l23 78q10 -4 21.5 -6t19.5 -2q22 0 34.5 8t12.5 26t-18.5 28t-46.5 10l12 80q-57 8 -105 34t-82.5 66t-54 91.5t-19.5 108.5q0 62 23 117t63.5 96.5t96 65.5t119.5 24q70 0 129 -28.5t101 -77.5l-79 -60q-29 29 -67 48t-84 19
q-42 0 -78 -16.5t-62.5 -45t-41 -65t-14.5 -77.5t14.5 -78t40.5 -64.5t62 -44t79 -16.5q50 0 92 19.5t74 52.5l75 -64q-35 -40 -88.5 -70t-119.5 -36l-4 -31q32 -6 57.5 -28.5t25.5 -64.5q0 -47 -37.5 -78.5t-105.5 -31.5z" />
    <glyph glyph-name="Ccircumflex.sc" horiz-adv-x="647" 
d="M432 806l110 -157h-98l-85 83l-85 -83h-98l110 157h146zM164 294q0 -41 14.5 -78t40.5 -64.5t62 -44t79 -16.5q50 0 92 19.5t74 52.5l75 -64q-39 -45 -100.5 -76.5t-139.5 -31.5q-66 0 -121.5 24t-96 65.5t-63 96.5t-22.5 117t23 117t63.5 96.5t96 65.5t119.5 24
q70 0 129 -28.5t101 -77.5l-79 -60q-29 29 -67 48t-84 19q-42 0 -78 -16.5t-62.5 -45t-41 -65t-14.5 -77.5z" />
    <glyph glyph-name="Cdotaccent.sc" horiz-adv-x="647" 
d="M287 732q0 30 21 51.5t51 21.5q31 0 52.5 -21.5t21.5 -51.5t-21.5 -51t-52.5 -21q-30 0 -51 21t-21 51zM164 294q0 -41 14.5 -78t40.5 -64.5t62 -44t79 -16.5q50 0 92 19.5t74 52.5l75 -64q-39 -45 -100.5 -76.5t-139.5 -31.5q-66 0 -121.5 24t-96 65.5t-63 96.5
t-22.5 117t23 117t63.5 96.5t96 65.5t119.5 24q70 0 129 -28.5t101 -77.5l-79 -60q-29 29 -67 48t-84 19q-42 0 -78 -16.5t-62.5 -45t-41 -65t-14.5 -77.5z" />
    <glyph glyph-name="D.sc" horiz-adv-x="654" 
d="M86 588h203q72 0 129 -22.5t96.5 -62t60.5 -93.5t21 -116q0 -63 -21 -116.5t-60.5 -93t-96.5 -62t-129 -22.5h-203v588zM490 294q0 43 -13.5 79.5t-39.5 63t-63.5 41.5t-84.5 15h-100v-398h100q48 0 85.5 15t63 41t39 63t13.5 80z" />
    <glyph glyph-name="Dcaron.sc" horiz-adv-x="654" 
d="M368 649h-143l-111 157h96l86 -85l86 85h96zM86 588h203q72 0 129 -22.5t96.5 -62t60.5 -93.5t21 -116q0 -63 -21 -116.5t-60.5 -93t-96.5 -62t-129 -22.5h-203v588zM490 294q0 43 -13.5 79.5t-39.5 63t-63.5 41.5t-84.5 15h-100v-398h100q48 0 85.5 15t63 41t39 63
t13.5 80z" />
    <glyph glyph-name="Eth.sc" horiz-adv-x="654" 
d="M11 341h75v247h202q72 0 129.5 -22.5t97 -62t60.5 -93.5t21 -116q0 -63 -21 -116.5t-60.5 -93t-97 -62t-129.5 -22.5h-202v264h-75v77zM490 294q0 43 -14 79.5t-40 63t-63.5 41.5t-84.5 15h-100v-152h114v-77h-114v-169h100q48 0 86 15t63.5 41t39 63t13.5 80z" />
    <glyph glyph-name="Dcroat.sc" horiz-adv-x="654" 
d="M11 341h75v247h202q72 0 129.5 -22.5t97 -62t60.5 -93.5t21 -116q0 -63 -21 -116.5t-60.5 -93t-97 -62t-129.5 -22.5h-202v264h-75v77zM490 294q0 43 -14 79.5t-40 63t-63.5 41.5t-84.5 15h-100v-152h114v-77h-114v-169h100q48 0 86 15t63.5 41t39 63t13.5 80z" />
    <glyph glyph-name="E.sc" horiz-adv-x="558" 
d="M86 588h399v-92h-296v-150h257v-85h-257v-169h308v-92h-411v588z" />
    <glyph glyph-name="Eacute.sc" horiz-adv-x="558" 
d="M300 806h131l-113 -157h-95zM86 588h399v-92h-296v-150h257v-85h-257v-169h308v-92h-411v588z" />
    <glyph glyph-name="Ebreve.sc" horiz-adv-x="558" 
d="M212 807q0 -31 21 -52t54 -21q32 0 53.5 21t21.5 52h93q0 -35 -12.5 -64.5t-35 -51.5t-53.5 -34t-67 -12t-67 12t-53.5 34t-35.5 51.5t-13 64.5h94zM86 588h399v-92h-296v-150h257v-85h-257v-169h308v-92h-411v588z" />
    <glyph glyph-name="Ecaron.sc" horiz-adv-x="558" 
d="M362 649h-143l-111 157h96l86 -85l86 85h96zM86 588h399v-92h-296v-150h257v-85h-257v-169h308v-92h-411v588z" />
    <glyph glyph-name="Ecircumflex.sc" horiz-adv-x="558" 
d="M361 806l110 -157h-98l-85 83l-85 -83h-98l110 157h146zM86 588h399v-92h-296v-150h257v-85h-257v-169h308v-92h-411v588z" />
    <glyph glyph-name="Edieresis.sc" horiz-adv-x="558" 
d="M101 728q0 29 20 49.5t49 20.5t49 -20.5t20 -49.5t-20 -48.5t-49 -19.5t-49 19.5t-20 48.5zM336 728q0 29 20 49.5t49 20.5t49.5 -20.5t20.5 -49.5t-20.5 -48.5t-49.5 -19.5t-49 19.5t-20 48.5zM86 588h399v-92h-296v-150h257v-85h-257v-169h308v-92h-411v588z" />
    <glyph glyph-name="Edotaccent.sc" horiz-adv-x="558" 
d="M216 732q0 30 21 51.5t51 21.5q31 0 52.5 -21.5t21.5 -51.5t-21.5 -51t-52.5 -21q-30 0 -51 21t-21 51zM86 588h399v-92h-296v-150h257v-85h-257v-169h308v-92h-411v588z" />
    <glyph glyph-name="Egrave.sc" horiz-adv-x="558" 
d="M282 806l72 -157h-94l-109 157h131zM86 588h399v-92h-296v-150h257v-85h-257v-169h308v-92h-411v588z" />
    <glyph glyph-name="Emacron.sc" horiz-adv-x="558" 
d="M77 766h418v-91h-418v91zM86 588h399v-92h-296v-150h257v-85h-257v-169h308v-92h-411v588z" />
    <glyph glyph-name="Eogonek.sc" horiz-adv-x="558" 
d="M86 588h399v-92h-296v-150h257v-85h-257v-169h308v-92q-38 -14 -61.5 -38t-23.5 -50q0 -16 9.5 -26t28.5 -10q6 0 13 0.5t12 2.5l21 -71q-12 -5 -26 -9t-32 -4q-22 0 -42 8t-35 21.5t-23.5 32.5t-8.5 42q0 29 13.5 55t37.5 46h-294v588z" />
    <glyph glyph-name="F.sc" horiz-adv-x="517" 
d="M86 588h385v-92h-282v-153h255v-90h-255v-253h-103v588z" />
    <glyph glyph-name="G.sc" horiz-adv-x="682" 
d="M334 328h279v-229q-45 -52 -108 -80t-141 -28q-66 0 -122.5 23.5t-97 65t-63.5 96.5t-23 118t23 118t63.5 96.5t96 65t120.5 23.5q71 0 130 -28t101 -76l-80 -59q-26 30 -66 48t-85 18q-44 0 -81 -16.5t-63.5 -45t-41 -66t-14.5 -78.5q0 -42 15 -79.5t42 -65.5
t64.5 -44.5t82.5 -16.5q44 0 82.5 13t64.5 37v101h-178v89z" />
    <glyph glyph-name="Gbreve.sc" horiz-adv-x="682" 
d="M288 807q0 -31 21 -52t54 -21q32 0 53.5 21t21.5 52h93q0 -35 -12.5 -64.5t-35 -51.5t-53.5 -34t-67 -12t-67 12t-53.5 34t-35.5 51.5t-13 64.5h94zM334 328h279v-229q-45 -52 -108 -80t-141 -28q-66 0 -122.5 23.5t-97 65t-63.5 96.5t-23 118t23 118t63.5 96.5t96 65
t120.5 23.5q71 0 130 -28t101 -76l-80 -59q-26 30 -66 48t-85 18q-44 0 -81 -16.5t-63.5 -45t-41 -66t-14.5 -78.5q0 -42 15 -79.5t42 -65.5t64.5 -44.5t82.5 -16.5q44 0 82.5 13t64.5 37v101h-178v89z" />
    <glyph glyph-name="Gcircumflex.sc" horiz-adv-x="682" 
d="M434 806l110 -157h-98l-85 83l-85 -83h-98l110 157h146zM334 328h279v-229q-45 -52 -108 -80t-141 -28q-66 0 -122.5 23.5t-97 65t-63.5 96.5t-23 118t23 118t63.5 96.5t96 65t120.5 23.5q71 0 130 -28t101 -76l-80 -59q-26 30 -66 48t-85 18q-44 0 -81 -16.5t-63.5 -45
t-41 -66t-14.5 -78.5q0 -42 15 -79.5t42 -65.5t64.5 -44.5t82.5 -16.5q44 0 82.5 13t64.5 37v101h-178v89z" />
    <glyph glyph-name="uni0122.sc" horiz-adv-x="682" 
d="M334 328h279v-229q-45 -52 -108 -80t-141 -28q-66 0 -122.5 23.5t-97 65t-63.5 96.5t-23 118t23 118t63.5 96.5t96 65t120.5 23.5q71 0 130 -28t101 -76l-80 -59q-26 30 -66 48t-85 18q-44 0 -81 -16.5t-63.5 -45t-41 -66t-14.5 -78.5q0 -42 15 -79.5t42 -65.5
t64.5 -44.5t82.5 -16.5q44 0 82.5 13t64.5 37v101h-178v89zM430 -58l-74 -157h-87l40 157h121z" />
    <glyph glyph-name="Gdotaccent.sc" horiz-adv-x="682" 
d="M289 732q0 30 21 51.5t51 21.5q31 0 52.5 -21.5t21.5 -51.5t-21.5 -51t-52.5 -21q-30 0 -51 21t-21 51zM334 328h279v-229q-45 -52 -108 -80t-141 -28q-66 0 -122.5 23.5t-97 65t-63.5 96.5t-23 118t23 118t63.5 96.5t96 65t120.5 23.5q71 0 130 -28t101 -76l-80 -59
q-26 30 -66 48t-85 18q-44 0 -81 -16.5t-63.5 -45t-41 -66t-14.5 -78.5q0 -42 15 -79.5t42 -65.5t64.5 -44.5t82.5 -16.5q44 0 82.5 13t64.5 37v101h-178v89z" />
    <glyph glyph-name="H.sc" horiz-adv-x="648" 
d="M562 0h-102v256h-271v-256h-103v588h103v-237h271v237h102v-588z" />
    <glyph glyph-name="Hcircumflex.sc" horiz-adv-x="648" 
d="M272 830h104l128 -183h-87l-93 96l-93 -96h-87zM562 0h-102v256h-271v-256h-103v588h103v-237h271v237h102v-588z" />
    <glyph glyph-name="Hbar.sc" horiz-adv-x="648" 
d="M23 500h63v88h103v-88h271v88h102v-88h62v-73h-62v-427h-102v251h-271v-251h-103v427h-63v73zM460 346v81h-271v-81h271z" />
    <glyph glyph-name="I.sc" horiz-adv-x="274" 
d="M189 0h-103v588h103v-588z" />
    <glyph glyph-name="Iacute.sc" horiz-adv-x="274" 
d="M153 806h131l-113 -157h-95zM189 0h-103v588h103v-588z" />
    <glyph glyph-name="Ibreve.sc" horiz-adv-x="274" 
d="M62 807q0 -31 21 -52t54 -21q32 0 53.5 21t21.5 52h93q0 -35 -12.5 -64.5t-35 -51.5t-53.5 -34t-67 -12t-67 12t-53.5 34t-35.5 51.5t-13 64.5h94zM189 0h-103v588h103v-588z" />
    <glyph glyph-name="Icircumflex.sc" horiz-adv-x="274" 
d="M210 806l110 -157h-98l-85 83l-85 -83h-98l110 157h146zM189 0h-103v588h103v-588z" />
    <glyph glyph-name="Idieresis.sc" horiz-adv-x="274" 
d="M-49 728q0 29 20 49.5t49 20.5t49 -20.5t20 -49.5t-20 -48.5t-49 -19.5t-49 19.5t-20 48.5zM186 728q0 29 20 49.5t49 20.5t49.5 -20.5t20.5 -49.5t-20.5 -48.5t-49.5 -19.5t-49 19.5t-20 48.5zM189 0h-103v588h103v-588z" />
    <glyph glyph-name="Idotaccent.sc" horiz-adv-x="274" 
d="M64 732q0 30 21 51.5t51 21.5q31 0 52.5 -21.5t21.5 -51.5t-21.5 -51t-52.5 -21q-30 0 -51 21t-21 51zM189 0h-103v588h103v-588z" />
    <glyph glyph-name="Igrave.sc" horiz-adv-x="274" 
d="M125 806l72 -157h-94l-109 157h131zM189 0h-103v588h103v-588z" />
    <glyph glyph-name="Imacron.sc" horiz-adv-x="274" 
d="M-72 766h418v-91h-418v91zM189 0h-103v588h103v-588z" />
    <glyph glyph-name="Iogonek.sc" horiz-adv-x="274" 
d="M103 -88q0 -16 10 -26t29 -10q5 0 12.5 0.5t12.5 2.5l21 -71q-12 -5 -26.5 -9t-32.5 -4q-16 0 -35 6t-35.5 19t-27 32.5t-10.5 46.5q0 35 19 64t51 49h-5v576h103v-588q-38 -14 -62 -38t-24 -50z" />
    <glyph glyph-name="Itilde.sc" horiz-adv-x="274" 
d="M-85 681q11 53 46.5 84t89.5 31q23 0 44.5 -7.5t41.5 -17t40 -17t41 -7.5q29 0 43 17.5t16 33.5l82 -22q-10 -48 -45 -83t-92 -35q-24 0 -47 7.5t-44 17t-39.5 17t-35.5 7.5q-51 0 -59 -49zM189 0h-103v588h103v-588z" />
    <glyph glyph-name="i.loclTRK.sc" horiz-adv-x="274" 
d="M64 732q0 30 21 51.5t51 21.5q31 0 52.5 -21.5t21.5 -51.5t-21.5 -51t-52.5 -21q-30 0 -51 21t-21 51zM189 0h-103v588h103v-588z" />
    <glyph glyph-name="IJ.sc" horiz-adv-x="718" 
d="M189 0h-103v588h103v-588zM640 215q0 -51 -15 -92.5t-42.5 -71t-66.5 -45t-88 -15.5q-54 0 -101 22t-79 69l76 63q17 -25 43.5 -39.5t58.5 -14.5q54 0 82.5 33t28.5 93v371h103v-373z" />
    <glyph glyph-name="J.sc" horiz-adv-x="501" 
d="M424 215q0 -51 -15 -92.5t-42.5 -71t-66.5 -45t-88 -15.5q-54 0 -101 22t-79 69l76 63q17 -25 43.5 -39.5t58.5 -14.5q54 0 82.5 33t28.5 93v371h103v-373z" />
    <glyph glyph-name="Jcircumflex.sc" horiz-adv-x="501" 
d="M446 806l110 -157h-98l-85 83l-85 -83h-98l110 157h146zM424 215q0 -51 -15 -92.5t-42.5 -71t-66.5 -45t-88 -15.5q-54 0 -101 22t-79 69l76 63q17 -25 43.5 -39.5t58.5 -14.5q54 0 82.5 33t28.5 93v371h103v-373z" />
    <glyph glyph-name="K.sc" horiz-adv-x="605" 
d="M313 302l254 -302h-130l-208 250h-40v-250h-103v588h103v-247h30l200 247h127z" />
    <glyph glyph-name="uni0136.sc" horiz-adv-x="605" 
d="M313 302l254 -302h-130l-208 250h-40v-250h-103v588h103v-247h30l200 247h127zM368 -58l-74 -157h-87l40 157h121z" />
    <glyph glyph-name="L.sc" horiz-adv-x="512" 
d="M86 588h103v-493h285v-95h-388v588z" />
    <glyph glyph-name="Lacute.sc" horiz-adv-x="512" 
d="M153 806h131l-113 -157h-95zM86 588h103v-493h285v-95h-388v588z" />
    <glyph glyph-name="Lcaron.sc" horiz-adv-x="512" 
d="M354 588l-42 -151h-65l19 151h88zM86 588h103v-493h285v-95h-388v588z" />
    <glyph glyph-name="uni013B.sc" horiz-adv-x="512" 
d="M86 588h103v-493h285v-95h-388v588zM344 -58l-74 -157h-87l40 157h121z" />
    <glyph glyph-name="Ldot.sc" horiz-adv-x="518" 
d="M86 588h103v-493h285v-95h-388v588zM253 295q0 32 21.5 54t53.5 22t54 -22t22 -54q0 -31 -22 -52.5t-54 -21.5t-53.5 21.5t-21.5 52.5z" />
    <glyph glyph-name="Lslash.sc" horiz-adv-x="512" 
d="M11 254l75 41v293h102v-238l124 68v-96l-124 -68v-159h286v-95h-388v199l-75 -41v96z" />
    <glyph glyph-name="M.sc" horiz-adv-x="815" 
d="M729 0h-102v387l-201 -310h-36l-201 312v-389h-103v588h88l234 -366l233 366h88v-588z" />
    <glyph glyph-name="N.sc" horiz-adv-x="671" 
d="M585 0h-90l-306 409v-409h-103v588h89l307 -410v410h103v-588z" />
    <glyph glyph-name="Nacute.sc" horiz-adv-x="671" 
d="M350 806h131l-113 -157h-95zM585 0h-90l-306 409v-409h-103v588h89l307 -410v410h103v-588z" />
    <glyph glyph-name="Ncaron.sc" horiz-adv-x="671" 
d="M408 649h-143l-111 157h96l86 -85l86 85h96zM585 0h-90l-306 409v-409h-103v588h89l307 -410v410h103v-588z" />
    <glyph glyph-name="uni0145.sc" horiz-adv-x="671" 
d="M585 0h-90l-306 409v-409h-103v588h89l307 -410v410h103v-588zM405 -58l-74 -157h-87l40 157h121z" />
    <glyph glyph-name="Ntilde.sc" horiz-adv-x="671" 
d="M115 681q11 53 46.5 84t89.5 31q23 0 44.5 -7.5t41.5 -17t40 -17t41 -7.5q29 0 43 17.5t16 33.5l82 -22q-10 -48 -45 -83t-92 -35q-24 0 -47 7.5t-44 17t-39.5 17t-35.5 7.5q-51 0 -59 -49zM585 0h-90l-306 409v-409h-103v588h89l307 -410v410h103v-588z" />
    <glyph glyph-name="Eng.sc" horiz-adv-x="671" 
d="M585 19q0 -100 -50 -158t-146 -58q-32 0 -65 11t-58 29l51 80q14 -10 32.5 -16t35.5 -6q48 0 71 26.5t25 77.5l1 13l-293 391v-409h-103v588h89l307 -410v410h103v-569z" />
    <glyph glyph-name="O.sc" horiz-adv-x="720" 
d="M58 294q0 63 23 118t63.5 96t96 65t119.5 24t119.5 -24t96 -65t63.5 -96t23 -118t-23 -118t-63.5 -96.5t-96 -65t-119.5 -23.5t-119.5 23.5t-96 65t-63.5 96.5t-23 118zM164 294q0 -41 14.5 -78t40.5 -64.5t62 -44t79 -16.5q42 0 78 16.5t62.5 44t41 64.5t14.5 78
t-14.5 78t-41 65t-62.5 44.5t-78 16.5q-43 0 -79 -16.5t-62 -44.5t-40.5 -65t-14.5 -78z" />
    <glyph glyph-name="Oacute.sc" horiz-adv-x="720" 
d="M377 806h131l-113 -157h-95zM58 294q0 63 23 118t63.5 96t96 65t119.5 24t119.5 -24t96 -65t63.5 -96t23 -118t-23 -118t-63.5 -96.5t-96 -65t-119.5 -23.5t-119.5 23.5t-96 65t-63.5 96.5t-23 118zM164 294q0 -41 14.5 -78t40.5 -64.5t62 -44t79 -16.5q42 0 78 16.5
t62.5 44t41 64.5t14.5 78t-14.5 78t-41 65t-62.5 44.5t-78 16.5q-43 0 -79 -16.5t-62 -44.5t-40.5 -65t-14.5 -78z" />
    <glyph glyph-name="Obreve.sc" horiz-adv-x="720" 
d="M285 807q0 -31 21 -52t54 -21q32 0 53.5 21t21.5 52h93q0 -35 -12.5 -64.5t-35 -51.5t-53.5 -34t-67 -12t-67 12t-53.5 34t-35.5 51.5t-13 64.5h94zM58 294q0 63 23 118t63.5 96t96 65t119.5 24t119.5 -24t96 -65t63.5 -96t23 -118t-23 -118t-63.5 -96.5t-96 -65
t-119.5 -23.5t-119.5 23.5t-96 65t-63.5 96.5t-23 118zM164 294q0 -41 14.5 -78t40.5 -64.5t62 -44t79 -16.5q42 0 78 16.5t62.5 44t41 64.5t14.5 78t-14.5 78t-41 65t-62.5 44.5t-78 16.5q-43 0 -79 -16.5t-62 -44.5t-40.5 -65t-14.5 -78z" />
    <glyph glyph-name="Ocircumflex.sc" horiz-adv-x="720" 
d="M432 806l110 -157h-98l-85 83l-85 -83h-98l110 157h146zM58 294q0 63 23 118t63.5 96t96 65t119.5 24t119.5 -24t96 -65t63.5 -96t23 -118t-23 -118t-63.5 -96.5t-96 -65t-119.5 -23.5t-119.5 23.5t-96 65t-63.5 96.5t-23 118zM164 294q0 -41 14.5 -78t40.5 -64.5t62 -44
t79 -16.5q42 0 78 16.5t62.5 44t41 64.5t14.5 78t-14.5 78t-41 65t-62.5 44.5t-78 16.5q-43 0 -79 -16.5t-62 -44.5t-40.5 -65t-14.5 -78z" />
    <glyph glyph-name="Odieresis.sc" horiz-adv-x="720" 
d="M172 728q0 29 20 49.5t49 20.5t49 -20.5t20 -49.5t-20 -48.5t-49 -19.5t-49 19.5t-20 48.5zM407 728q0 29 20 49.5t49 20.5t49.5 -20.5t20.5 -49.5t-20.5 -48.5t-49.5 -19.5t-49 19.5t-20 48.5zM58 294q0 63 23 118t63.5 96t96 65t119.5 24t119.5 -24t96 -65t63.5 -96
t23 -118t-23 -118t-63.5 -96.5t-96 -65t-119.5 -23.5t-119.5 23.5t-96 65t-63.5 96.5t-23 118zM164 294q0 -41 14.5 -78t40.5 -64.5t62 -44t79 -16.5q42 0 78 16.5t62.5 44t41 64.5t14.5 78t-14.5 78t-41 65t-62.5 44.5t-78 16.5q-43 0 -79 -16.5t-62 -44.5t-40.5 -65
t-14.5 -78z" />
    <glyph glyph-name="Ograve.sc" horiz-adv-x="720" 
d="M349 806l72 -157h-94l-109 157h131zM58 294q0 63 23 118t63.5 96t96 65t119.5 24t119.5 -24t96 -65t63.5 -96t23 -118t-23 -118t-63.5 -96.5t-96 -65t-119.5 -23.5t-119.5 23.5t-96 65t-63.5 96.5t-23 118zM164 294q0 -41 14.5 -78t40.5 -64.5t62 -44t79 -16.5
q42 0 78 16.5t62.5 44t41 64.5t14.5 78t-14.5 78t-41 65t-62.5 44.5t-78 16.5q-43 0 -79 -16.5t-62 -44.5t-40.5 -65t-14.5 -78z" />
    <glyph glyph-name="Ohungarumlaut.sc" horiz-adv-x="720" 
d="M475 806h128l-109 -157h-95zM267 806h128l-107 -157h-94zM58 294q0 63 23 118t63.5 96t96 65t119.5 24t119.5 -24t96 -65t63.5 -96t23 -118t-23 -118t-63.5 -96.5t-96 -65t-119.5 -23.5t-119.5 23.5t-96 65t-63.5 96.5t-23 118zM164 294q0 -41 14.5 -78t40.5 -64.5
t62 -44t79 -16.5q42 0 78 16.5t62.5 44t41 64.5t14.5 78t-14.5 78t-41 65t-62.5 44.5t-78 16.5q-43 0 -79 -16.5t-62 -44.5t-40.5 -65t-14.5 -78z" />
    <glyph glyph-name="Omacron.sc" horiz-adv-x="720" 
d="M151 766h418v-91h-418v91zM58 294q0 63 23 118t63.5 96t96 65t119.5 24t119.5 -24t96 -65t63.5 -96t23 -118t-23 -118t-63.5 -96.5t-96 -65t-119.5 -23.5t-119.5 23.5t-96 65t-63.5 96.5t-23 118zM164 294q0 -41 14.5 -78t40.5 -64.5t62 -44t79 -16.5q42 0 78 16.5
t62.5 44t41 64.5t14.5 78t-14.5 78t-41 65t-62.5 44.5t-78 16.5q-43 0 -79 -16.5t-62 -44.5t-40.5 -65t-14.5 -78z" />
    <glyph glyph-name="Otilde.sc" horiz-adv-x="720" 
d="M138 681q11 53 46.5 84t89.5 31q23 0 44.5 -7.5t41.5 -17t40 -17t41 -7.5q29 0 43 17.5t16 33.5l82 -22q-10 -48 -45 -83t-92 -35q-24 0 -47 7.5t-44 17t-39.5 17t-35.5 7.5q-51 0 -59 -49zM58 294q0 63 23 118t63.5 96t96 65t119.5 24t119.5 -24t96 -65t63.5 -96
t23 -118t-23 -118t-63.5 -96.5t-96 -65t-119.5 -23.5t-119.5 23.5t-96 65t-63.5 96.5t-23 118zM164 294q0 -41 14.5 -78t40.5 -64.5t62 -44t79 -16.5q42 0 78 16.5t62.5 44t41 64.5t14.5 78t-14.5 78t-41 65t-62.5 44.5t-78 16.5q-43 0 -79 -16.5t-62 -44.5t-40.5 -65
t-14.5 -78z" />
    <glyph glyph-name="Oslash.sc" horiz-adv-x="736" 
d="M144 89q-37 41 -57.5 93t-20.5 112q0 63 23 118t63.5 96t96 65t119.5 24q48 0 90 -13.5t77 -36.5l37 41h95l-76 -89q37 -41 58 -93t21 -112q0 -63 -23 -118t-63.5 -96.5t-96 -65t-119.5 -23.5q-48 0 -90.5 13t-78.5 37l-35 -41h-95zM172 294q0 -71 40 -125l255 301
q-45 28 -99 28q-43 0 -79 -16.5t-62 -44.5t-40.5 -65t-14.5 -78zM565 294q0 35 -11 67t-31 58l-256 -301q22 -13 47 -20t54 -7q42 0 78.5 16.5t62.5 44t41 64.5t15 78z" />
    <glyph glyph-name="P.sc" horiz-adv-x="567" 
d="M514 396q0 -42 -15 -77t-43 -60.5t-69 -39.5t-93 -14h-105v-205h-103v588h208q52 0 93 -14.5t69 -40t43 -60.5t15 -77zM189 498v-204h102q57 0 87.5 28.5t30.5 73.5t-30 73.5t-88 28.5h-102z" />
    <glyph glyph-name="Q.sc" horiz-adv-x="728" 
d="M58 294q0 63 23 118t63.5 96t96 65t119.5 24t119.5 -24t96 -65t63.5 -96t23 -118q0 -59 -21 -111t-59 -93l53 -60l-56 -49l-61 55q-71 -45 -158 -45q-64 0 -119.5 23.5t-96 65t-63.5 96.5t-23 118zM164 294q0 -41 14.5 -78t40.5 -65.5t62 -45t79 -16.5q50 0 89 20
l-97 113l67 55l95 -110q43 54 43 127q0 41 -15 78t-41 65t-62.5 44.5t-78.5 16.5q-43 0 -79 -17t-62 -45t-40.5 -65t-14.5 -77z" />
    <glyph glyph-name="R.sc" horiz-adv-x="594" 
d="M515 409q0 -63 -36.5 -108t-101.5 -62l167 -239h-119l-155 228h-81v-228h-103v588h220q48 0 86.5 -12.5t65.5 -36t42 -56.5t15 -74zM189 498v-182h116q54 0 80 26t26 65q0 44 -28.5 67.5t-82.5 23.5h-111z" />
    <glyph glyph-name="Racute.sc" horiz-adv-x="594" 
d="M291 806h131l-113 -157h-95zM515 409q0 -63 -36.5 -108t-101.5 -62l167 -239h-119l-155 228h-81v-228h-103v588h220q48 0 86.5 -12.5t65.5 -36t42 -56.5t15 -74zM189 498v-182h116q54 0 80 26t26 65q0 44 -28.5 67.5t-82.5 23.5h-111z" />
    <glyph glyph-name="Rcaron.sc" horiz-adv-x="594" 
d="M351 649h-143l-111 157h96l86 -85l86 85h96zM515 409q0 -63 -36.5 -108t-101.5 -62l167 -239h-119l-155 228h-81v-228h-103v588h220q48 0 86.5 -12.5t65.5 -36t42 -56.5t15 -74zM189 498v-182h116q54 0 80 26t26 65q0 44 -28.5 67.5t-82.5 23.5h-111z" />
    <glyph glyph-name="uni0156.sc" horiz-adv-x="594" 
d="M515 409q0 -63 -36.5 -108t-101.5 -62l167 -239h-119l-155 228h-81v-228h-103v588h220q48 0 86.5 -12.5t65.5 -36t42 -56.5t15 -74zM189 498v-182h116q54 0 80 26t26 65q0 44 -28.5 67.5t-82.5 23.5h-111zM370 -58l-74 -157h-87l40 157h121z" />
    <glyph glyph-name="S.sc" horiz-adv-x="536" 
d="M382 456q-24 24 -54.5 38t-65.5 14q-27 0 -45 -6.5t-29 -17t-16 -23t-5 -25.5q0 -53 78 -75l74 -20q80 -22 121.5 -66t41.5 -109q0 -34 -14 -65.5t-42 -56t-68.5 -39t-93.5 -14.5q-56 0 -113 24t-97 71l67 63q33 -36 69.5 -51.5t73.5 -15.5q59 0 86 25.5t27 58.5
q0 22 -8 36.5t-27 26.5t-49.5 22t-75.5 23q-77 23 -115 62t-38 101q0 30 13.5 59t38.5 51.5t61.5 36t82.5 13.5q48 0 97.5 -19.5t86.5 -57.5z" />
    <glyph glyph-name="Sacute.sc" horiz-adv-x="536" 
d="M277 806h131l-113 -157h-95zM382 456q-24 24 -54.5 38t-65.5 14q-27 0 -45 -6.5t-29 -17t-16 -23t-5 -25.5q0 -53 78 -75l74 -20q80 -22 121.5 -66t41.5 -109q0 -34 -14 -65.5t-42 -56t-68.5 -39t-93.5 -14.5q-56 0 -113 24t-97 71l67 63q33 -36 69.5 -51.5t73.5 -15.5
q59 0 86 25.5t27 58.5q0 22 -8 36.5t-27 26.5t-49.5 22t-75.5 23q-77 23 -115 62t-38 101q0 30 13.5 59t38.5 51.5t61.5 36t82.5 13.5q48 0 97.5 -19.5t86.5 -57.5z" />
    <glyph glyph-name="Scaron.sc" horiz-adv-x="536" 
d="M334 649h-143l-111 157h96l86 -85l86 85h96zM382 456q-24 24 -54.5 38t-65.5 14q-27 0 -45 -6.5t-29 -17t-16 -23t-5 -25.5q0 -53 78 -75l74 -20q80 -22 121.5 -66t41.5 -109q0 -34 -14 -65.5t-42 -56t-68.5 -39t-93.5 -14.5q-56 0 -113 24t-97 71l67 63
q33 -36 69.5 -51.5t73.5 -15.5q59 0 86 25.5t27 58.5q0 22 -8 36.5t-27 26.5t-49.5 22t-75.5 23q-77 23 -115 62t-38 101q0 30 13.5 59t38.5 51.5t61.5 36t82.5 13.5q48 0 97.5 -19.5t86.5 -57.5z" />
    <glyph glyph-name="Scedilla.sc" horiz-adv-x="536" 
d="M232 -241q-17 0 -37.5 4t-30.5 9l23 78q10 -4 21.5 -6t19.5 -2q22 0 34.5 8t12.5 26t-18.5 28t-46.5 10l12 81q-47 7 -91.5 30t-76.5 61l67 63q33 -36 69.5 -51.5t73.5 -15.5q59 0 86 25.5t27 58.5q0 22 -8 36.5t-27 26.5t-49.5 22t-75.5 23q-77 23 -115 62t-38 101
q0 30 13.5 59t38.5 51.5t61.5 36t82.5 13.5q48 0 97.5 -19.5t86.5 -57.5l-62 -64q-24 24 -54.5 38t-65.5 14q-27 0 -45 -6.5t-29 -17t-16 -23t-5 -25.5q0 -53 78 -75l74 -20q80 -22 121.5 -66t41.5 -109q0 -31 -12 -60.5t-36 -53t-58.5 -39.5t-79.5 -20l-4 -31
q32 -6 57.5 -28.5t25.5 -64.5q0 -47 -37.5 -78.5t-105.5 -31.5z" />
    <glyph glyph-name="Scircumflex.sc" horiz-adv-x="536" 
d="M335 806l110 -157h-98l-85 83l-85 -83h-98l110 157h146zM382 456q-24 24 -54.5 38t-65.5 14q-27 0 -45 -6.5t-29 -17t-16 -23t-5 -25.5q0 -53 78 -75l74 -20q80 -22 121.5 -66t41.5 -109q0 -34 -14 -65.5t-42 -56t-68.5 -39t-93.5 -14.5q-56 0 -113 24t-97 71l67 63
q33 -36 69.5 -51.5t73.5 -15.5q59 0 86 25.5t27 58.5q0 22 -8 36.5t-27 26.5t-49.5 22t-75.5 23q-77 23 -115 62t-38 101q0 30 13.5 59t38.5 51.5t61.5 36t82.5 13.5q48 0 97.5 -19.5t86.5 -57.5z" />
    <glyph glyph-name="uni0218.sc" horiz-adv-x="536" 
d="M382 456q-24 24 -54.5 38t-65.5 14q-27 0 -45 -6.5t-29 -17t-16 -23t-5 -25.5q0 -53 78 -75l74 -20q80 -22 121.5 -66t41.5 -109q0 -34 -14 -65.5t-42 -56t-68.5 -39t-93.5 -14.5q-56 0 -113 24t-97 71l67 63q33 -36 69.5 -51.5t73.5 -15.5q59 0 86 25.5t27 58.5
q0 22 -8 36.5t-27 26.5t-49.5 22t-75.5 23q-77 23 -115 62t-38 101q0 30 13.5 59t38.5 51.5t61.5 36t82.5 13.5q48 0 97.5 -19.5t86.5 -57.5zM332 -58l-74 -157h-87l40 157h121z" />
    <glyph glyph-name="T.sc" horiz-adv-x="536" 
d="M29 588h478v-95h-188v-493h-103v493h-187v95z" />
    <glyph glyph-name="Tcaron.sc" horiz-adv-x="536" 
d="M341 649h-143l-111 157h96l86 -85l86 85h96zM29 588h478v-95h-188v-493h-103v493h-187v95z" />
    <glyph glyph-name="uni0162.sc" horiz-adv-x="536" 
d="M29 588h478v-95h-188v-493h-103v493h-187v95zM333 -58l-74 -157h-87l40 157h121z" />
    <glyph glyph-name="uni021A.sc" horiz-adv-x="536" 
d="M29 588h478v-95h-188v-493h-103v493h-187v95zM333 -58l-74 -157h-87l40 157h121z" />
    <glyph glyph-name="Tbar.sc" horiz-adv-x="553" 
d="M38 588h478v-95h-188v-159h108v-75h-108v-259h-103v259h-109v75h109v159h-187v95z" />
    <glyph glyph-name="U.sc" horiz-adv-x="631" 
d="M78 588h103v-362q0 -28 10 -52.5t28 -42.5t43 -28.5t54 -10.5t53.5 10.5t42.5 28.5t28.5 42.5t10.5 52.5v362h103v-362q0 -48 -17.5 -90.5t-49 -75t-75.5 -51t-96 -18.5q-53 0 -97 18.5t-75.5 51t-48.5 75t-17 90.5v362z" />
    <glyph glyph-name="Uacute.sc" horiz-adv-x="631" 
d="M333 806h131l-113 -157h-95zM78 588h103v-362q0 -28 10 -52.5t28 -42.5t43 -28.5t54 -10.5t53.5 10.5t42.5 28.5t28.5 42.5t10.5 52.5v362h103v-362q0 -48 -17.5 -90.5t-49 -75t-75.5 -51t-96 -18.5q-53 0 -97 18.5t-75.5 51t-48.5 75t-17 90.5v362z" />
    <glyph glyph-name="Ubreve.sc" horiz-adv-x="631" 
d="M241 807q0 -31 21 -52t54 -21q32 0 53.5 21t21.5 52h93q0 -35 -12.5 -64.5t-35 -51.5t-53.5 -34t-67 -12t-67 12t-53.5 34t-35.5 51.5t-13 64.5h94zM78 588h103v-362q0 -28 10 -52.5t28 -42.5t43 -28.5t54 -10.5t53.5 10.5t42.5 28.5t28.5 42.5t10.5 52.5v362h103v-362
q0 -48 -17.5 -90.5t-49 -75t-75.5 -51t-96 -18.5q-53 0 -97 18.5t-75.5 51t-48.5 75t-17 90.5v362z" />
    <glyph glyph-name="Ucircumflex.sc" horiz-adv-x="631" 
d="M388 806l110 -157h-98l-85 83l-85 -83h-98l110 157h146zM78 588h103v-362q0 -28 10 -52.5t28 -42.5t43 -28.5t54 -10.5t53.5 10.5t42.5 28.5t28.5 42.5t10.5 52.5v362h103v-362q0 -48 -17.5 -90.5t-49 -75t-75.5 -51t-96 -18.5q-53 0 -97 18.5t-75.5 51t-48.5 75
t-17 90.5v362z" />
    <glyph glyph-name="Udieresis.sc" horiz-adv-x="631" 
d="M128 728q0 29 20 49.5t49 20.5t49 -20.5t20 -49.5t-20 -48.5t-49 -19.5t-49 19.5t-20 48.5zM363 728q0 29 20 49.5t49 20.5t49.5 -20.5t20.5 -49.5t-20.5 -48.5t-49.5 -19.5t-49 19.5t-20 48.5zM78 588h103v-362q0 -28 10 -52.5t28 -42.5t43 -28.5t54 -10.5t53.5 10.5
t42.5 28.5t28.5 42.5t10.5 52.5v362h103v-362q0 -48 -17.5 -90.5t-49 -75t-75.5 -51t-96 -18.5q-53 0 -97 18.5t-75.5 51t-48.5 75t-17 90.5v362z" />
    <glyph glyph-name="Ugrave.sc" horiz-adv-x="631" 
d="M303 806l72 -157h-94l-109 157h131zM78 588h103v-362q0 -28 10 -52.5t28 -42.5t43 -28.5t54 -10.5t53.5 10.5t42.5 28.5t28.5 42.5t10.5 52.5v362h103v-362q0 -48 -17.5 -90.5t-49 -75t-75.5 -51t-96 -18.5q-53 0 -97 18.5t-75.5 51t-48.5 75t-17 90.5v362z" />
    <glyph glyph-name="Uhungarumlaut.sc" horiz-adv-x="631" 
d="M428 806h128l-109 -157h-95zM220 806h128l-107 -157h-94zM78 588h103v-362q0 -28 10 -52.5t28 -42.5t43 -28.5t54 -10.5t53.5 10.5t42.5 28.5t28.5 42.5t10.5 52.5v362h103v-362q0 -48 -17.5 -90.5t-49 -75t-75.5 -51t-96 -18.5q-53 0 -97 18.5t-75.5 51t-48.5 75
t-17 90.5v362z" />
    <glyph glyph-name="Umacron.sc" horiz-adv-x="631" 
d="M106 766h418v-91h-418v91zM78 588h103v-362q0 -28 10 -52.5t28 -42.5t43 -28.5t54 -10.5t53.5 10.5t42.5 28.5t28.5 42.5t10.5 52.5v362h103v-362q0 -48 -17.5 -90.5t-49 -75t-75.5 -51t-96 -18.5q-53 0 -97 18.5t-75.5 51t-48.5 75t-17 90.5v362z" />
    <glyph glyph-name="Uogonek.sc" horiz-adv-x="631" 
d="M78 588h103v-362q0 -28 10 -52.5t28 -42.5t43 -28.5t54 -10.5t53.5 10.5t42.5 28.5t28.5 42.5t10.5 52.5v362h103v-362q0 -49 -18.5 -91t-54.5 -84q-15 -17 -30 -33t-27 -32.5t-19.5 -33t-7.5 -33.5q0 -16 9.5 -29.5t29.5 -13.5q6 0 12.5 0.5t11.5 2.5l22 -71
q-12 -5 -26.5 -9t-32.5 -4q-23 0 -43 9t-34.5 25t-23 36t-8.5 43q0 25 8 45t22 40q-7 -2 -14 -2h-14q-53 0 -97 18.5t-75.5 51t-48.5 75t-17 90.5v362z" />
    <glyph glyph-name="Uring.sc" horiz-adv-x="631" 
d="M209 748q0 22 8 41.5t22.5 34t34 23t41.5 8.5t41.5 -8.5t34 -23t23 -34t8.5 -41.5t-8.5 -41.5t-23 -34t-34 -22.5t-41.5 -8t-41.5 8t-34 22.5t-22.5 34t-8 41.5zM282 748q0 -14 9.5 -24t23.5 -10t24 10t10 24t-10 24t-24 10t-23.5 -10t-9.5 -24zM78 588h103v-362
q0 -28 10 -52.5t28 -42.5t43 -28.5t54 -10.5t53.5 10.5t42.5 28.5t28.5 42.5t10.5 52.5v362h103v-362q0 -48 -17.5 -90.5t-49 -75t-75.5 -51t-96 -18.5q-53 0 -97 18.5t-75.5 51t-48.5 75t-17 90.5v362z" />
    <glyph glyph-name="Utilde.sc" horiz-adv-x="631" 
d="M93 681q11 53 46.5 84t89.5 31q23 0 44.5 -7.5t41.5 -17t40 -17t41 -7.5q29 0 43 17.5t16 33.5l82 -22q-10 -48 -45 -83t-92 -35q-24 0 -47 7.5t-44 17t-39.5 17t-35.5 7.5q-51 0 -59 -49zM78 588h103v-362q0 -28 10 -52.5t28 -42.5t43 -28.5t54 -10.5t53.5 10.5
t42.5 28.5t28.5 42.5t10.5 52.5v362h103v-362q0 -48 -17.5 -90.5t-49 -75t-75.5 -51t-96 -18.5q-53 0 -97 18.5t-75.5 51t-48.5 75t-17 90.5v362z" />
    <glyph glyph-name="V.sc" horiz-adv-x="609" 
d="M305 165l164 423h112l-235 -588h-83l-234 588h112z" />
    <glyph glyph-name="W.sc" horiz-adv-x="868" 
d="M722 588h109l-178 -588h-82l-138 329l-136 -329h-82l-177 588h109l120 -413l144 360h46l145 -361z" />
    <glyph glyph-name="Wacute.sc" horiz-adv-x="868" 
d="M454 806h131l-113 -157h-95zM722 588h109l-178 -588h-82l-138 329l-136 -329h-82l-177 588h109l120 -413l144 360h46l145 -361z" />
    <glyph glyph-name="Wcircumflex.sc" horiz-adv-x="868" 
d="M506 806l110 -157h-98l-85 83l-85 -83h-98l110 157h146zM722 588h109l-178 -588h-82l-138 329l-136 -329h-82l-177 588h109l120 -413l144 360h46l145 -361z" />
    <glyph glyph-name="Wdieresis.sc" horiz-adv-x="868" 
d="M246 728q0 29 20 49.5t49 20.5t49 -20.5t20 -49.5t-20 -48.5t-49 -19.5t-49 19.5t-20 48.5zM481 728q0 29 20 49.5t49 20.5t49.5 -20.5t20.5 -49.5t-20.5 -48.5t-49.5 -19.5t-49 19.5t-20 48.5zM722 588h109l-178 -588h-82l-138 329l-136 -329h-82l-177 588h109l120 -413
l144 360h46l145 -361z" />
    <glyph glyph-name="Wgrave.sc" horiz-adv-x="868" 
d="M418 806l72 -157h-94l-109 157h131zM722 588h109l-178 -588h-82l-138 329l-136 -329h-82l-177 588h109l120 -413l144 360h46l145 -361z" />
    <glyph glyph-name="X.sc" horiz-adv-x="639" 
d="M163 0h-125l214 306l-191 282h123l136 -204l136 204h122l-192 -282l215 -306h-125l-156 230z" />
    <glyph glyph-name="Y.sc" horiz-adv-x="586" 
d="M345 0h-103v254l-213 334h121l143 -230l143 230h121l-212 -333v-255z" />
    <glyph glyph-name="Yacute.sc" horiz-adv-x="586" 
d="M309 806h131l-113 -157h-95zM345 0h-103v254l-213 334h121l143 -230l143 230h121l-212 -333v-255z" />
    <glyph glyph-name="Ycircumflex.sc" horiz-adv-x="586" 
d="M366 806l110 -157h-98l-85 83l-85 -83h-98l110 157h146zM345 0h-103v254l-213 334h121l143 -230l143 230h121l-212 -333v-255z" />
    <glyph glyph-name="Ydieresis.sc" horiz-adv-x="586" 
d="M106 728q0 29 20 49.5t49 20.5t49 -20.5t20 -49.5t-20 -48.5t-49 -19.5t-49 19.5t-20 48.5zM341 728q0 29 20 49.5t49 20.5t49.5 -20.5t20.5 -49.5t-20.5 -48.5t-49.5 -19.5t-49 19.5t-20 48.5zM345 0h-103v254l-213 334h121l143 -230l143 230h121l-212 -333v-255z" />
    <glyph glyph-name="Ygrave.sc" horiz-adv-x="586" 
d="M282 806l72 -157h-94l-109 157h131zM345 0h-103v254l-213 334h121l143 -230l143 230h121l-212 -333v-255z" />
    <glyph glyph-name="Z.sc" horiz-adv-x="594" 
d="M68 588h457v-79l-333 -416h349v-93h-487v79l332 416h-318v93z" />
    <glyph glyph-name="Zacute.sc" horiz-adv-x="594" 
d="M309 806h131l-113 -157h-95zM68 588h457v-79l-333 -416h349v-93h-487v79l332 416h-318v93z" />
    <glyph glyph-name="Zcaron.sc" horiz-adv-x="594" 
d="M367 649h-143l-111 157h96l86 -85l86 85h96zM68 588h457v-79l-333 -416h349v-93h-487v79l332 416h-318v93z" />
    <glyph glyph-name="Zdotaccent.sc" horiz-adv-x="594" 
d="M222 732q0 30 21 51.5t51 21.5q31 0 52.5 -21.5t21.5 -51.5t-21.5 -51t-52.5 -21q-30 0 -51 21t-21 51zM68 588h457v-79l-333 -416h349v-93h-487v79l332 416h-318v93z" />
    <glyph glyph-name="AE.sc" horiz-adv-x="864" 
d="M424 143h-196l-82 -143h-118l349 588h414v-92h-266v-150h227v-85h-227v-169h277v-92h-378v143zM278 227h146v255z" />
    <glyph glyph-name="Germandbls.sc" 
d="M78 409q0 39 13 71.5t37.5 56.5t59.5 37.5t78 13.5h247v-75l-72 -119q33 -3 64.5 -19t55.5 -42.5t38.5 -61t14.5 -75.5q0 -43 -16.5 -80t-45.5 -65t-69 -44t-87 -16q-95 0 -166 66l61 68q24 -24 48.5 -34.5t56.5 -10.5q23 0 43.5 8t37 23.5t26 37t9.5 48.5q0 54 -35 85.5
t-89 31.5h-85v32l92 150h-117q-51 0 -74 -25t-23 -73v-398h-103v409z" />
    <glyph glyph-name="Thorn.sc" horiz-adv-x="560" 
d="M183 484h111q104 0 160.5 -52.5t56.5 -137.5q0 -42 -14.5 -77t-42 -59.5t-68 -38.5t-92.5 -14h-111v-105h-97v588h97v-104zM183 395v-201h112q57 0 88 27.5t31 72.5t-31 73t-88 28h-112z" />
    <glyph glyph-name="OE.sc" horiz-adv-x="1008" 
d="M58 294q0 62 22.5 117.5t62.5 96.5t95 65t119 24q49 0 97.5 -19t85.5 -53v63h395v-92h-300v-150h262v-85h-262v-169h311v-92h-406v61q-38 -33 -86.5 -51.5t-96.5 -18.5q-64 0 -119 24t-95 65t-62.5 96t-22.5 118zM164 294q0 -41 14.5 -78t40.5 -64.5t62 -44t79 -16.5
q60 0 104.5 23.5t67.5 68.5v220q-51 95 -172 95q-43 0 -79 -16.5t-62 -45t-40.5 -65t-14.5 -77.5z" />
    <glyph glyph-name="ampersand.sc" horiz-adv-x="632" 
d="M136 465q0 28 11 52t31 42t47.5 28t59.5 10t58.5 -10t46.5 -27.5t31 -41.5t11 -53q0 -39 -17.5 -66.5t-57.5 -61.5l102 -145q18 28 29 62l79 -27q-8 -30 -21.5 -58t-31.5 -51l85 -118h-106l-47 51q-37 -28 -82 -44t-93 -16q-52 0 -90 14t-62.5 37t-36.5 52t-12 60
q0 26 6.5 48t21.5 42.5t38.5 41.5t56.5 46l-27 40q-16 23 -23 46.5t-7 46.5zM232 462q0 -12 4 -25.5t17 -33.5l16 -24l34 25q15 12 24.5 26t9.5 32q0 23 -14.5 37.5t-37.5 14.5q-22 0 -37.5 -13t-15.5 -39zM273 78q31 0 62.5 12t58.5 33l-115 166q-23 -17 -43 -32.5
t-34.5 -30.5t-23 -31t-8.5 -35q0 -34 26.5 -58t76.5 -24z" />
    <glyph glyph-name="backslash.sc" horiz-adv-x="502" 
d="M460 0h-101l-310 588h103z" />
    <glyph glyph-name="bar.sc" horiz-adv-x="278" 
d="M189 -114h-103v702h103v-702z" />
    <glyph glyph-name="braceleft.sc" horiz-adv-x="420" 
d="M62 336q47 0 63.5 20t16.5 59v102q0 33 11 62t32.5 50.5t52.5 34t71 12.5h41v-86h-35q-35 0 -55 -23t-20 -55v-130q0 -12 -2 -25.5t-8.5 -26.5t-18 -23.5t-30.5 -15.5q19 -6 30.5 -17.5t18 -25t8.5 -26.5t2 -23v-129q0 -32 20 -54.5t55 -22.5h35v-86h-41q-39 0 -70 12
t-52.5 33.5t-33 50.5t-11.5 62v123q0 29 -16.5 44t-63.5 15v89z" />
    <glyph glyph-name="braceright.sc" horiz-adv-x="419" 
d="M361 247q-49 0 -64.5 -18.5t-15.5 -60.5v-103q0 -31 -11 -60t-32.5 -50.5t-52.5 -34.5t-71 -13h-41v86h35q35 0 55 22.5t20 54.5v129q0 10 2 23t8.5 26.5t18 25t30.5 17.5q-19 5 -30.5 15.5t-18 23.5t-8.5 26.5t-2 25.5v130q0 32 -20 55t-55 23h-35v86h41q41 0 72 -12
t52 -33.5t32 -50.5t11 -63v-102q0 -38 16 -58.5t64 -20.5v-89z" />
    <glyph glyph-name="bracketleft.sc" horiz-adv-x="404" 
d="M318 590h-119v-598h119v-86h-216v770h216v-86z" />
    <glyph glyph-name="bracketright.sc" horiz-adv-x="405" 
d="M90 676h216v-770h-216v86h119v598h-119v86z" />
    <glyph glyph-name="emdash.sc" horiz-adv-x="778" 
d="M78 256h623v-87h-623v87z" />
    <glyph glyph-name="endash.sc" horiz-adv-x="493" 
d="M62 256h369v-87h-369v87z" />
    <glyph glyph-name="exclam.sc" horiz-adv-x="332" 
d="M217 156h-102v432h102v-432zM102 29q0 28 18.5 46t44.5 18q28 0 46.5 -18t18.5 -46q0 -26 -18.5 -44.5t-46.5 -18.5q-26 0 -44.5 18.5t-18.5 44.5z" />
    <glyph glyph-name="guillemotleft.sc" horiz-adv-x="637" 
d="M173 220l168 -173h-127l-168 173l167 172h128zM399 220l169 -173h-128l-168 173l168 172h128z" />
    <glyph glyph-name="guillemotright.sc" horiz-adv-x="637" 
d="M300 392h128l167 -172l-168 -173h-127l168 173zM73 392h128l168 -172l-169 -173h-127l168 173z" />
    <glyph glyph-name="guilsinglleft.sc" horiz-adv-x="411" 
d="M173 220l168 -173h-127l-168 173l167 172h128z" />
    <glyph glyph-name="guilsinglright.sc" horiz-adv-x="411" 
d="M70 392h128l167 -172l-169 -173h-126l167 173z" />
    <glyph glyph-name="hyphen.sc" horiz-adv-x="454" 
d="M86 261h282v-88h-282v88z" />
    <glyph glyph-name="parenleft.sc" horiz-adv-x="395" 
d="M86 294q0 56 12 110.5t35 105t57 96t78 81.5l57 -67q-63 -63 -96.5 -146.5t-33.5 -179.5q0 -97 33.5 -180.5t96.5 -146.5l-57 -67q-44 36 -78 81.5t-57 96t-35 105.5t-12 111z" />
    <glyph glyph-name="parenright.sc" horiz-adv-x="395" 
d="M313 294q0 -56 -12 -111t-35 -105.5t-57.5 -96t-78.5 -81.5l-57 67q63 63 96.5 146.5t33.5 180.5q0 96 -33.5 179.5t-96.5 146.5l57 67q44 -36 78.5 -81.5t57.5 -96t35 -105t12 -110.5z" />
    <glyph glyph-name="question.sc" horiz-adv-x="458" 
d="M259 197q0 -19 4 -35l-94 -11q-3 8 -5 21.5t-2 27.5q0 59 50 113q18 20 35 37.5t32 34.5q13 14 20 28t7 32q0 29 -22.5 44t-46.5 15q-32 0 -56 -17.5t-35 -51.5l-92 26q20 63 68.5 99.5t117.5 36.5q34 0 63.5 -10t52 -28.5t36 -44.5t14.5 -58q1 -7 0.5 -14.5t-0.5 -14.5
q-4 -27 -17 -51.5t-36 -48.5l-66 -70q-15 -16 -21.5 -31t-6.5 -29zM159 25q0 28 19 47t47 19t47 -19t19 -47t-19 -47t-47 -19t-47 19t-19 47z" />
    <glyph glyph-name="questiondown.sc" horiz-adv-x="457" 
d="M284 367q0 -28 -19 -47t-47 -19q-29 0 -48 19t-19 47t19 47t48 19q28 0 47 -19t19 -47zM183 195q0 19 -4 35l94 11q3 -8 5 -21.5t2 -27.5q0 -59 -49 -112q-5 -6 -13.5 -15t-18 -19.5t-19.5 -20.5t-18 -19q-14 -15 -20 -28.5t-6 -30.5q0 -29 22.5 -44t46.5 -15
q32 0 56 17.5t35 51.5l93 -26q-20 -63 -68.5 -99.5t-118.5 -36.5q-35 0 -65.5 10.5t-53 30t-35.5 47t-13 61.5q0 64 55 121l66 70q15 16 21 31t6 29z" />
    <glyph glyph-name="slash.sc" horiz-adv-x="503" 
d="M354 588h103l-310 -588h-101z" />
    <glyph glyph-name="copyright.sc" horiz-adv-x="747" 
d="M62 294q0 62 23.5 117.5t65.5 97t99 66t124 24.5t124 -24.5t99 -66t65.5 -97t23.5 -117.5q0 -63 -23.5 -118.5t-65.5 -97t-99 -65.5t-124 -24t-124 24t-99 65.5t-65.5 97t-23.5 118.5zM130 294q0 -49 18.5 -93t51 -77t77 -52.5t97.5 -19.5t97.5 19.5t76.5 52.5t50.5 77
t18.5 93q0 48 -18.5 92t-50.5 77.5t-76.5 53.5t-97.5 20t-97.5 -20t-77 -53.5t-51 -77.5t-18.5 -92zM279 295q0 -43 27 -72t69 -29q26 0 45 8t36 24l55 -53q-26 -26 -60 -40t-76 -14q-39 0 -71.5 14t-56 38t-36.5 56t-13 68t12.5 68t35.5 56t55 37.5t72 13.5q89 0 141 -69
l-59 -47q-16 19 -36.5 30.5t-45.5 11.5q-42 0 -68 -29.5t-26 -71.5z" />
    <glyph glyph-name="registered.sc" horiz-adv-x="599" 
d="M62 364q0 47 18 89.5t50 74.5t75.5 50.5t94.5 18.5q50 0 93.5 -18.5t75.5 -50.5t50 -74.5t18 -89.5q0 -48 -18 -90.5t-50 -74.5t-75.5 -51t-93.5 -19q-51 0 -94.5 19t-75.5 51t-50 74.5t-18 90.5zM118 362q0 -37 13.5 -70t37.5 -58t57.5 -39.5t73.5 -14.5q39 0 72 14.5
t57.5 39.5t38 58t13.5 70q0 36 -13.5 69.5t-38 59t-57.5 40.5t-72 15q-40 0 -73.5 -15t-57.5 -40.5t-37.5 -59t-13.5 -69.5zM394 412q0 -26 -15 -44.5t-43 -25.5l66 -100h-58l-60 96h-17v-96h-54v244h92q39 0 64 -18t25 -56zM267 443v-62h36q37 0 37 31t-39 31h-34z" />
    <glyph glyph-name="trademark.sc" horiz-adv-x="843" 
d="M765 241h-64v228l-121 -180h-18l-121 180v-228h-66v347h58l137 -202l138 202h57v-347zM54 588h283v-61h-111v-286h-63v286h-109v61z" />
    <glyph glyph-name="uni2117.sc" horiz-adv-x="747" 
d="M62 294q0 62 23.5 117.5t65.5 97t99 66t124 24.5t124 -24.5t99 -66t65.5 -97t23.5 -117.5q0 -63 -23.5 -118.5t-65.5 -97t-99 -65.5t-124 -24t-124 24t-99 65.5t-65.5 97t-23.5 118.5zM130 294q0 -49 18.5 -93t51 -77t77 -52.5t97.5 -19.5t97.5 19.5t76.5 52.5t50.5 77
t18.5 93q0 48 -18.5 92t-50.5 77.5t-76.5 53.5t-97.5 20t-97.5 -20t-77 -53.5t-51 -77.5t-18.5 -92zM536 352q0 -54 -36 -87.5t-102 -33.5h-60v-128h-71v369h132q66 0 101.5 -33.5t35.5 -86.5zM338 409v-115h59q67 0 67 58q0 26 -17.5 41.5t-49.5 15.5h-59z" />
    <glyph glyph-name="Euro.tn" 
d="M23 491h89q13 56 37.5 102.5t59.5 80.5t81 53t101 19q66 0 117 -21t90 -61l-80 -65q-23 23 -54.5 34t-69.5 11q-34 0 -60 -11.5t-46 -32t-34 -48.5t-23 -61h248v-81h-263q-1 -11 -1 -18v-18v-17.5t1 -17.5h263v-81h-252q8 -36 22 -66.5t34.5 -53t48 -35t62.5 -12.5
q38 0 70 11t55 33l82 -65q-39 -39 -91.5 -60t-118.5 -21q-57 0 -104 20t-82.5 55.5t-59.5 85t-36 108.5h-86v81h77q-1 7 -1 17.5v17.5q0 11 0.5 18t1.5 18h-78v81z" />
    <glyph glyph-name="cent.tn" 
d="M290 -4q-46 9 -84 32t-65 56t-41.5 74t-14.5 87t14 87.5t40.5 74.5t64.5 55.5t86 31.5v89h101v-87q51 -8 93.5 -32.5t74.5 -64.5l-82 -62q-25 29 -58 45.5t-72 16.5q-36 0 -64 -12t-48 -33t-30.5 -49t-10.5 -60q0 -33 11.5 -61t32 -49t49 -33t63.5 -12q41 0 71.5 12.5
t57.5 35.5l73 -71q-30 -29 -71 -49t-90 -25v-91h-101v94z" />
    <glyph glyph-name="dollar.tn" 
d="M473 579q-31 30 -68.5 48t-82.5 18q-36 0 -60.5 -8.5t-39.5 -22t-21.5 -31.5t-6.5 -36q0 -71 107 -99l92 -25q99 -28 150.5 -83t51.5 -134q0 -38 -14 -73.5t-42 -64.5t-68.5 -48.5t-93.5 -25.5v-95h-102v95q-59 8 -115 36.5t-95 76.5l78 71q44 -46 89.5 -66t92.5 -20
q39 0 67.5 9.5t47 25.5t28 36.5t9.5 42.5q0 29 -10.5 48.5t-35 35t-65 29t-99.5 30.5q-96 27 -142.5 75t-46.5 124q0 33 13 65t38 58.5t60.5 45t81.5 24.5v89h103v-90q45 -7 90 -29.5t80 -58.5z" />
    <glyph glyph-name="florin.tn" 
d="M322 28q-7 -53 -15.5 -97t-25.5 -77.5t-45 -57t-75 -33.5q-32 -8 -67 -8q-14 1 -32.5 4t-32.5 8l16 92q16 -3 28.5 -5t23.5 -2q44 0 72.5 27t33.5 74l45 357h-91v86h103l16 138q27 223 222 223q26 0 54 -6t48 -15l-25 -89q-18 6 -35.5 9.5t-37.5 3.5q-53 0 -81 -29
t-33 -74l-21 -161h154v-86h-164z" />
    <glyph glyph-name="numbersign.tn" 
d="M185 543l23 132h101l-23 -132h156l23 132h101l-23 -132h109v-102h-129l-36 -213h111v-102h-130l-22 -126h-101l23 126h-157l-22 -126h-100l22 126h-103v102h122l36 213h-104v102h123zM231 228h156l36 213h-157z" />
    <glyph glyph-name="percent.tn" 
d="M21 594q0 31 10 58t29 47.5t45 32.5t59 12q32 0 58.5 -12t45 -32.5t29 -47.5t10.5 -58t-10.5 -58.5t-29 -48t-45 -32.5t-58.5 -12t-58.5 12t-45 32.5t-29 48t-10.5 58.5zM479 735h110l-415 -735h-110zM102 594q0 -30 17 -52.5t45 -22.5q29 0 45.5 22.5t16.5 52.5
q0 29 -16.5 51.5t-45.5 22.5q-28 0 -45 -22.5t-17 -51.5zM353 142q0 31 10 58t29 47.5t45 32.5t59 12q32 0 58 -12t45 -32.5t29.5 -47.5t10.5 -58t-10.5 -58t-29.5 -47.5t-45 -32.5t-58 -12t-58.5 12t-45 32.5t-29 47.5t-10.5 58zM433 142q0 -30 17 -52.5t46 -22.5
t45.5 22.5t16.5 52.5q0 29 -16.5 51.5t-45.5 22.5t-46 -22.5t-17 -51.5z" />
    <glyph glyph-name="sterling.tn" 
d="M74 432h72v110q0 44 14.5 81t41.5 64.5t66 43t88 15.5q46 0 80 -13.5t58 -33t40 -42t26 -40.5l-92 -42q-36 68 -110 68q-45 0 -72 -28t-27 -73v-110h194v-87h-194v-180q0 -24 -9 -41.5t-26 -20.5h382v-103h-536l-6 103q41 2 61.5 25.5t20.5 61.5v155h-72v87z" />
    <glyph glyph-name="uni20B9.tn" 
d="M71 560h305q-15 40 -53 59t-90 19h-162v98h518v-89h-157q24 -18 37 -40t18 -47h102v-89h-100q-13 -74 -64.5 -116.5t-130.5 -59.5l243 -295h-138l-241 293v90h74q54 0 93.5 21.5t52.5 66.5h-307v89z" />
    <glyph glyph-name="uni20BA.tn" 
d="M45 354l123 43v65l-123 -43v87l123 43v186h108v-147l188 66v-87l-188 -66v-65l188 66v-87l-188 -67v-236q40 5 77.5 22t68.5 45t53 67.5t31 89.5l99 -19q-10 -67 -42.5 -124.5t-82.5 -100.5t-115.5 -67.5t-140.5 -24.5h-56v310l-123 -43v87z" />
    <glyph glyph-name="yen.tn" 
d="M388 0h-115v155h-158v82h158v79h-158v82h111l-204 337h133l175 -296l175 296h133l-205 -337h118v-82h-163v-79h163v-82h-163v-155z" />
    <glyph glyph-name="zero.tn" 
d="M57 367q0 78 16 147t49 120.5t84.5 81.5t123.5 30t123.5 -29.5t84.5 -81t49 -120.5t16 -148t-16 -148t-49 -120t-84.5 -80.5t-123.5 -29.5t-123.5 29.5t-84.5 81t-49 120.5t-16 147zM173 367q0 -54 7.5 -102.5t25.5 -85t48 -58.5t76 -22t76 22t48 58.5t25.5 85t7.5 102.5
t-7.5 102.5t-25.5 85.5t-48 59t-76 22t-76 -22t-48 -59t-25.5 -85.5t-7.5 -102.5z" />
    <glyph glyph-name="one.tn" 
d="M319 0v588l-141 -64l-59 95l229 116h88v-735h-117z" />
    <glyph glyph-name="two.tn" 
d="M83 86l293 301q34 35 57.5 70t23.5 73q0 24 -10 43.5t-27 34t-39 22t-47 7.5q-45 0 -81 -26t-54 -79l-112 29q12 41 35.5 75t55.5 58.5t72.5 38t85.5 13.5q54 0 97.5 -16.5t74.5 -45.5t48 -67.5t17 -82.5q0 -33 -8 -62t-24.5 -56.5t-40 -55t-55.5 -58.5l-197 -197h331
v-105h-496v86z" />
    <glyph glyph-name="three.tn" 
d="M257 429h21t27 1q62 2 101 32t39 78q0 24 -10 42.5t-27.5 31t-40 19.5t-48.5 7q-46 0 -80 -18.5t-57 -52.5l-94 56q38 57 97 89t136 32q54 0 99 -16t76.5 -44t49 -64.5t17.5 -77.5q0 -55 -26 -94.5t-65 -63.5q45 -25 75 -70.5t30 -103.5q0 -48 -20 -88.5t-56 -70.5
t-86 -47t-110 -17q-85 0 -151 37.5t-102 99.5l100 48q22 -37 63 -57.5t89 -20.5q68 0 111.5 32t43.5 86q0 56 -42 87.5t-121 34.5h-39v93z" />
    <glyph glyph-name="four.tn" 
d="M40 234l373 501h87v-484h125v-101h-125v-150h-111v150h-347zM182 251h207v275z" />
    <glyph glyph-name="five.tn" 
d="M135 735h396v-102h-293l-13 -152q20 8 41.5 13t47.5 5q56 0 105 -19t85.5 -53t57.5 -80.5t21 -100.5q0 -52 -20 -99t-56 -82t-85.5 -55.5t-109.5 -20.5q-81 0 -145.5 37t-99.5 98l103 47q21 -37 59 -56t80 -19q30 0 58 11t49.5 30.5t34.5 47.5t13 62t-12.5 62t-33.5 48
t-49 31t-59 11q-36 0 -65 -11t-49 -29h-90z" />
    <glyph glyph-name="six.tn" 
d="M288 481q19 7 55 7q48 0 92 -19t77.5 -52t53.5 -78.5t20 -98.5q0 -52 -20 -98t-55 -80t-82.5 -54t-102.5 -20t-103 19t-83 52.5t-55.5 79t-20.5 99.5q0 48 16.5 94.5t44.5 91.5l200 311h133zM179 238q0 -30 11.5 -56t31.5 -45.5t46.5 -31t56.5 -11.5q31 0 57.5 11.5
t46 31.5t30.5 47t11 57q0 32 -11 59t-31 46.5t-46.5 30.5t-58.5 11q-21 0 -40.5 -3.5t-34.5 -8.5q-17 -7 -30 -21.5t-21.5 -33t-13 -40.5t-4.5 -43z" />
    <glyph glyph-name="seven.tn" 
d="M72 735h512v-79l-347 -656h-122l334 629h-377v106z" />
    <glyph glyph-name="eight.tn" 
d="M559 545q0 -48 -22.5 -87.5t-56.5 -63.5q23 -12 43 -30t35.5 -41t24.5 -50.5t9 -58.5q0 -47 -19 -88t-53.5 -71.5t-82.5 -48t-107 -17.5t-107 17.5t-82.5 48.5t-53.5 72t-19 87q0 31 9 58.5t24 50.5t35 41t42 30q-34 24 -55.5 63t-21.5 88q0 45 18.5 82t50 63.5t73 41
t87.5 14.5t87.5 -14t73 -40.5t50 -63.5t18.5 -83zM330 642q-50 0 -82 -27t-32 -72q0 -44 31 -73t83 -29t83 29t31 73q0 45 -32 72t-82 27zM473 218q0 26 -10 49.5t-29 40.5t-45 27t-59 10t-59.5 -10t-45 -27t-29 -40.5t-10.5 -49.5q0 -53 39 -88t105 -35t104.5 35t38.5 88z
" />
    <glyph glyph-name="nine.tn" 
d="M372 253q-19 -7 -55 -7q-48 0 -92 19t-77.5 52t-53.5 78.5t-20 98.5t20.5 98.5t55.5 80t83 54t102 19.5q55 0 102.5 -19t83 -52.5t55.5 -79t20 -99.5q0 -48 -16.5 -94.5t-44.5 -91.5l-201 -311h-133zM481 496q0 30 -11.5 56.5t-31.5 46t-46.5 30.5t-56.5 11
q-31 0 -57.5 -11.5t-46 -31.5t-30.5 -47t-11 -57q0 -32 11 -59t31 -46.5t47 -30.5t58 -11t58 7t41 17q20 25 32.5 56t12.5 70z" />
    <glyph glyph-name="Euro.on" horiz-adv-x="636" 
d="M27 443h87q12 50 34.5 92t55.5 72.5t76.5 47.5t95.5 17q61 0 108.5 -19t85.5 -56l-77 -62q-42 39 -115 39q-62 0 -97.5 -36.5t-52.5 -94.5h229v-75h-243q-1 -10 -1 -15.5v-15.5v-16t1 -16h243v-74h-231q14 -62 51 -103t101 -41q72 0 115 39l80 -62q-38 -36 -87 -55
t-110 -19q-54 0 -98 18t-77.5 50t-56 76t-33.5 97h-84v74h76q-1 7 -1 16v16v9l1 14v8h-76v75z" />
    <glyph glyph-name="cent.on" horiz-adv-x="494" 
d="M218 -3q-39 9 -71 29.5t-54.5 50t-35 66.5t-12.5 78t12 78t34.5 66.5t54.5 50t72 29.5v80h93v-79q43 -7 78.5 -29t63.5 -57l-76 -60q-21 26 -48 41t-59 15q-28 0 -51 -10.5t-39 -29t-25 -43t-9 -52.5t9.5 -53t26 -43t40.5 -28.5t52 -10.5q32 0 57 11t48 31l68 -67
q-26 -26 -60.5 -44t-75.5 -23v-82h-93v85z" />
    <glyph glyph-name="dollar.on" horiz-adv-x="583" 
d="M418 517q-26 26 -60 42t-74 16q-30 0 -50.5 -7t-33 -18.5t-18 -26.5t-5.5 -31q0 -63 89 -87l82 -22q88 -25 134.5 -75t46.5 -122q0 -34 -12.5 -66t-37 -58t-60.5 -43.5t-83 -23.5v-87h-97v87q-52 7 -101 33t-84 69l73 68q38 -42 78.5 -59.5t81.5 -17.5q33 0 57.5 8.5
t40 22t23.5 31t8 36.5q0 25 -9 42t-30.5 30.5t-56.5 25.5t-86 27q-85 25 -127 68.5t-42 112.5q0 30 11.5 58.5t33.5 52.5t54 41t72 23v81h98v-82q40 -7 80 -27.5t72 -53.5z" />
    <glyph glyph-name="florin.on" horiz-adv-x="567" 
d="M281 21q-7 -53 -17 -97t-32 -76t-58.5 -50t-96.5 -18q-14 1 -30.5 4t-28.5 7l16 87q13 -2 24 -4t22 -2q36 0 60 23t29 65l38 316h-79v82h89l15 124q12 100 62 149.5t133 49.5q26 0 51.5 -6t43.5 -14l-24 -85q-16 5 -31.5 8.5t-33.5 3.5q-44 0 -67 -25.5t-28 -63.5
l-17 -141h131v-82h-141z" />
    <glyph glyph-name="numbersign.on" horiz-adv-x="792" 
d="M243 491l25 117h102l-25 -117h171l26 117h102l-25 -117h119v-96h-138l-39 -187h119v-95h-139l-23 -113h-103l24 113h-171l-25 -113h-101l23 113h-111v95h130l39 187h-111v96h131zM287 208h171l39 187h-171z" />
    <glyph glyph-name="percent.on" horiz-adv-x="857" 
d="M81 511q0 33 11 62t31.5 50.5t49 34t63.5 12.5t63.5 -12.5t49 -34t32 -50.5t11.5 -62q0 -34 -11.5 -63t-32 -51t-49 -34.5t-63.5 -12.5t-63.5 12.5t-49 34.5t-31.5 51t-11 63zM598 662h114l-458 -662h-113zM163 511q0 -35 20 -58t53 -23t53 23t20 58q0 33 -20 56.5
t-53 23.5t-53 -23.5t-20 -56.5zM465 152q0 33 11 62t31.5 51t49 34.5t63.5 12.5t63.5 -12.5t49 -34.5t32 -51t11.5 -62t-11.5 -62.5t-32 -51.5t-49 -34.5t-63.5 -12.5q-34 0 -62.5 12.5t-49 34.5t-32 51.5t-11.5 62.5zM547 152q0 -34 20 -57.5t53 -23.5q34 0 53.5 23.5
t19.5 57.5t-19.5 57.5t-53.5 23.5q-33 0 -53 -23.5t-20 -57.5z" />
    <glyph glyph-name="sterling.on" horiz-adv-x="586" 
d="M62 389h64v97q0 40 13 74t37.5 59t60 39t79.5 14q41 0 71.5 -12t53 -29.5t37.5 -38.5t24 -39l-90 -39q-30 60 -93 60q-38 0 -61 -24.5t-23 -63.5v-97h169v-82h-169v-152q0 -23 -8.5 -38.5t-23.5 -19.5h338v-97h-482l-5 97q36 2 54 23.5t18 56.5v130h-64v82z" />
    <glyph glyph-name="uni20B9.on" horiz-adv-x="565" 
d="M54 502h260q-12 35 -44 51.5t-76 16.5h-140v92h457v-83h-134q36 -30 44 -77h90v-83h-90q-11 -65 -56 -103.5t-112 -53.5l210 -262h-132l-209 261v84h72q45 0 77 18.5t44 55.5h-261v83z" />
    <glyph glyph-name="uni20BA.on" horiz-adv-x="567" 
d="M32 320l105 38v57l-105 -38v82l105 38v165h104v-128l161 58v-81l-161 -59v-57l161 58v-81l-161 -59v-206q33 4 64.5 19t57 39.5t44 59.5t25.5 78l95 -18q-9 -60 -37.5 -112.5t-72.5 -90.5t-101.5 -60t-123.5 -22h-55v277l-105 -39v82z" />
    <glyph glyph-name="yen.on" horiz-adv-x="639" 
d="M375 0h-110v138h-148v77h148v69h-148v76h101l-191 302h131l161 -261l162 261h131l-192 -302h107v-76h-152v-69h152v-77h-152v-138z" />
    <glyph glyph-name="zero.on" horiz-adv-x="628" 
d="M63 244q0 49 17 94.5t49 81t78.5 56.5t106.5 21t106.5 -21.5t79 -57t49 -81t16.5 -93.5t-16.5 -93.5t-49 -81t-79 -57t-106.5 -21.5t-106.5 21t-78.5 56.5t-49 81t-17 94.5zM174 244q0 -27 8.5 -54t26 -48t43.5 -34t62 -13t62.5 13t43.5 34t25.5 48t8.5 54t-8 54
t-25.5 48t-44 34t-62.5 13t-62.5 -13t-43.5 -34t-25.5 -48t-8.5 -54z" />
    <glyph glyph-name="one.on" horiz-adv-x="410" 
d="M44 95h135v266l-91 -43l-48 87l170 83h80v-391h103v-97h-349v95z" />
    <glyph glyph-name="two.on" horiz-adv-x="596" 
d="M79 76l263 192q27 20 42.5 36t15.5 37q0 26 -28 40.5t-70 14.5q-38 0 -70.5 -15.5t-47.5 -44.5l-105 25q11 30 33 55t52 43t66.5 28t76.5 10q48 0 86.5 -11.5t65 -31t40.5 -45.5t14 -56q0 -47 -27.5 -83.5t-81.5 -74.5l-137 -98h253v-97h-441v76z" />
    <glyph glyph-name="three.on" horiz-adv-x="561" 
d="M217 215h41q51 2 83.5 28.5t32.5 68.5q0 20 -8.5 36.5t-22.5 27.5t-32.5 17t-39.5 6q-38 0 -66.5 -16.5t-47.5 -47.5l-91 50q33 54 86 84t122 30q48 0 87 -15t67 -40t43.5 -58t15.5 -70q0 -49 -22 -84t-55 -57q38 -23 63.5 -64t25.5 -93q0 -43 -17.5 -79.5t-49 -63.5
t-75 -42.5t-96.5 -15.5q-78 0 -135.5 34.5t-89.5 91.5l96 45q17 -32 51.5 -51t73.5 -19q56 0 92.5 28t36.5 75q0 36 -16 57t-40.5 32t-54.5 14.5t-58 3.5v87z" />
    <glyph glyph-name="four.on" horiz-adv-x="567" 
d="M27 40l325 449h84v-433h108v-96h-108v-133h-104v133h-302zM160 56h172v239z" />
    <glyph glyph-name="five.on" horiz-adv-x="579" 
d="M115 489h357v-97h-259l-11 -130q17 7 35.5 11t40.5 4q50 0 93.5 -17t75.5 -48t50.5 -72.5t18.5 -91.5q0 -47 -17.5 -89t-49.5 -73.5t-76.5 -50t-97.5 -18.5q-75 0 -133 34t-88 90l99 45q17 -34 50 -51t69 -17q25 0 48.5 9.5t41.5 26.5t29 41.5t11 54.5t-10.5 54.5
t-28.5 42t-41.5 27t-49.5 9.5q-32 0 -56 -10t-41 -26h-86z" />
    <glyph glyph-name="six.on" horiz-adv-x="586" 
d="M262 433q14 6 47 6q42 0 81 -17t68.5 -46.5t47 -70t17.5 -88.5q0 -47 -18 -88.5t-49 -72.5t-73.5 -49t-92.5 -18t-93.5 17t-75 47t-49.5 71.5t-18 90.5q0 44 14.5 85.5t40.5 82.5l176 279h128zM164 215q0 -26 9.5 -49t26.5 -40t40 -26.5t49 -9.5t48.5 10t39 27.5t26 40.5
t9.5 49q0 57 -35 93t-90 36q-39 0 -64 -11q-15 -6 -26 -18t-18.5 -28.5t-11 -35.5t-3.5 -38z" />
    <glyph glyph-name="seven.on" horiz-adv-x="521" 
d="M43 489h434v-74l-285 -588h-119l271 559h-301v103z" />
    <glyph glyph-name="eight.on" horiz-adv-x="606" 
d="M514 490q0 -43 -20 -78t-52 -57q42 -23 72 -64.5t30 -97.5q0 -43 -17.5 -80t-49.5 -64.5t-76 -43t-98 -15.5t-98 16t-75.5 43.5t-49 64.5t-17.5 79q0 56 29 97.5t70 64.5q-31 22 -50 56.5t-19 78.5q0 40 17 73.5t45.5 57.5t67 37.5t80.5 13.5t80.5 -13t67.5 -37t46 -57.5
t17 -74.5zM303 574q-44 0 -72.5 -23.5t-28.5 -63.5q0 -38 28 -63.5t73 -25.5q46 0 73 25.5t27 63.5q0 40 -28.5 63.5t-71.5 23.5zM429 197q0 23 -9 43.5t-25.5 35.5t-39.5 23.5t-52 8.5q-28 0 -51.5 -8.5t-40 -23.5t-25.5 -35.5t-9 -43.5q0 -45 34.5 -76t91.5 -31t91.5 31
t34.5 76z" />
    <glyph glyph-name="nine.on" horiz-adv-x="586" 
d="M325 54q-8 -2 -20 -4t-27 -2q-43 0 -82 17t-68.5 46.5t-47 70.5t-17.5 89t18.5 89.5t50 72t74.5 48.5t92 18q50 0 92.5 -17t74 -47.5t49.5 -72t18 -89.5q0 -45 -14 -87t-40 -82l-177 -278h-129zM423 272q0 26 -9.5 49t-26 40t-39.5 26.5t-50 9.5t-49.5 -10t-39 -27
t-25.5 -40t-9 -49q0 -58 35 -93.5t89 -35.5q26 0 49.5 6t34.5 14q17 22 28.5 49t11.5 61z" />
    <glyph glyph-name="Euro.ton" 
d="M33 443h89q12 50 35.5 92t57 72.5t77.5 47.5t97 17q63 0 111.5 -19t86.5 -56l-77 -62q-23 20 -53 29.5t-65 9.5q-65 0 -102 -36.5t-54 -94.5h237v-75h-252v-63h252v-74h-240q8 -31 21 -57.5t32.5 -45.5t45.5 -30t60 -11q35 0 65 9.5t52 29.5l80 -62q-38 -36 -87.5 -55
t-112.5 -19q-55 0 -100 18t-79 50t-57 76t-34 97h-86v74h77v32v15.5t1 15.5h-78v75z" />
    <glyph glyph-name="cent.ton" 
d="M296 -3q-42 8 -76.5 28.5t-58.5 50.5t-37.5 67t-13.5 78t13 78.5t37 67t58.5 50t77.5 28.5v80h96v-79q93 -14 151 -86l-78 -60q-23 26 -52 41t-64 15q-31 0 -56 -10.5t-43 -29t-27.5 -43t-9.5 -52.5t10 -53t28.5 -43t44.5 -28.5t57 -10.5q36 0 63.5 11t51.5 31l69 -67
q-28 -26 -64.5 -44t-80.5 -23v-82h-96v85z" />
    <glyph glyph-name="dollar.ton" 
d="M468 517q-30 26 -66.5 42t-80.5 16q-34 0 -57 -7t-37 -18.5t-20 -26.5t-6 -31q0 -62 101 -87l88 -22q96 -25 145.5 -75t49.5 -122q0 -34 -13.5 -66t-40.5 -58t-66 -43.5t-90 -23.5v-87h-99v87q-56 7 -109.5 33t-91.5 69l75 68q42 -42 86 -59.5t88 -17.5q38 0 65.5 8.5
t45.5 22t26.5 31t8.5 36.5q0 25 -10 42t-33.5 30.5t-62 25.5t-95.5 27q-91 25 -136 68.5t-45 112.5q0 30 12.5 58.5t36 52.5t58 41t78.5 23v81h100v-82q43 -7 86 -27.5t77 -53.5z" />
    <glyph glyph-name="florin.ton" 
d="M323 21q-7 -47 -15 -86t-24.5 -69.5t-43.5 -50.5t-72 -29q-14 -4 -30.5 -5t-33.5 -1q-14 1 -31.5 4t-31.5 7l16 87q14 -2 26 -4t23 -2q42 0 69.5 23t32.5 65l43 316h-87v82h98l16 124q25 199 212 199q26 0 53 -6t46 -14l-24 -85q-17 5 -34 8.5t-37 3.5q-50 0 -76.5 -25.5
t-31.5 -63.5l-20 -141h148v-82h-158z" />
    <glyph glyph-name="numbersign.ton" 
d="M190 491l22 117h98l-22 -117h149l22 117h98l-22 -117h105v-96h-124l-33 -187h105v-95h-124l-20 -113h-99l20 113h-148l-21 -113h-98l20 113h-98v95h117l33 187h-98v96h118zM236 208h147l34 187h-148z" />
    <glyph glyph-name="percent.ton" 
d="M28 526q0 30 9.5 56.5t27.5 46t43 31t55 11.5t55 -11.5t42.5 -31t27.5 -46t10 -56.5t-10 -56.5t-27.5 -46t-42.5 -30.5t-55 -11t-55 11t-42.5 30.5t-27.5 46t-10 56.5zM471 662h109l-395 -662h-108zM105 526q0 -29 16 -48t42 -19t42 19t16 48t-16 47.5t-42 18.5
t-42 -18.5t-16 -47.5zM362 137q0 30 9.5 56.5t27.5 46t43 31t55 11.5t55 -11.5t42.5 -31t27.5 -46t10 -56.5q0 -31 -10 -57.5t-27.5 -46t-42.5 -31t-55 -11.5t-55 11.5t-42.5 31t-27.5 46t-10 57.5zM439 137q0 -29 16 -48.5t42 -19.5t42 19.5t16 48.5t-16 48t-42 19t-42 -19
t-16 -48z" />
    <glyph glyph-name="sterling.ton" 
d="M84 389h69v97q0 40 14 74t40 59t63.5 39t84.5 14q44 0 76.5 -12t56.5 -29.5t39.5 -38.5t24.5 -39l-91 -39q-34 60 -104 60q-43 0 -68.5 -24.5t-25.5 -63.5v-97h185v-82h-185v-152q0 -23 -8.5 -38.5t-24.5 -19.5h365v-97h-515l-5 97q39 2 58.5 23.5t19.5 56.5v130h-69v82z
" />
    <glyph glyph-name="uni20B9.ton" 
d="M81 502h291q-14 35 -50 51.5t-86 16.5h-156v92h500v-83h-151q23 -16 35.5 -35t17.5 -42h98v-83h-97q-13 -65 -62.5 -103.5t-125.5 -53.5l234 -262h-134l-231 261v84h72q51 0 87 18.5t50 55.5h-292v83z" />
    <glyph glyph-name="uni20BA.ton" 
d="M56 320l117 38v57l-117 -38v82l117 38v165h106v-128l180 58v-81l-180 -59v-57l180 58v-81l-180 -59v-206q38 4 74 19t65.5 39.5t50.5 59.5t29 78l96 -18q-9 -60 -40 -112.5t-79 -90.5t-111 -60t-135 -22h-56v277l-117 -39v82z" />
    <glyph glyph-name="yen.ton" 
d="M386 0h-111v138h-151v77h151v69h-151v76h104l-196 302h131l166 -261l168 261h131l-197 -302h111v-76h-156v-69h156v-77h-156v-138z" />
    <glyph glyph-name="zero.ton" 
d="M71 244q0 49 17.5 94.5t51 81t82 56.5t109.5 21t109 -21.5t81 -57t50.5 -81t17.5 -93.5t-17.5 -93.5t-50.5 -81t-81 -57t-109 -21.5t-109.5 21t-82 56.5t-51 81t-17.5 94.5zM183 244q0 -27 9 -54t27 -48t46 -34t66 -13q37 0 64.5 13t45.5 34t27 48t9 54t-8.5 54t-26.5 48
t-45.5 34t-65.5 13t-66 -13t-46 -34t-27 -48t-9 -54z" />
    <glyph glyph-name="one.ton" 
d="M122 95h190v266l-130 -43l-58 87l217 83h86v-391h146v-97h-451v95z" />
    <glyph glyph-name="two.ton" 
d="M97 76l283 192q30 20 47 36t17 37q0 26 -31 40.5t-78 14.5q-42 0 -77 -15.5t-52 -44.5l-106 25q11 30 34 55t54.5 43t70.5 28t81 10q51 0 91.5 -11.5t68.5 -31t43 -45.5t15 -56q0 -47 -29 -84t-88 -74l-152 -98h276v-97h-468v76z" />
    </font>
</defs>
</svg>
